<?xml version="1.0" encoding="utf-8" standalone="no"?>
<!DOCTYPE svg PUBLIC "-//W3C//DTD SVG 1.1//EN"
  "http://www.w3.org/Graphics/SVG/1.1/DTD/svg11.dtd">
<svg xmlns:xlink="http://www.w3.org/1999/xlink" width="837pt" height="498.96pt" viewBox="0 0 837 498.96" xmlns="http://www.w3.org/2000/svg" version="1.1">
 <metadata>
  <rdf:RDF xmlns:dc="http://purl.org/dc/elements/1.1/" xmlns:cc="http://creativecommons.org/ns#" xmlns:rdf="http://www.w3.org/1999/02/22-rdf-syntax-ns#">
   <cc:Work>
    <dc:type rdf:resource="http://purl.org/dc/dcmitype/StillImage"/>
    <dc:date>2023-06-07T14:14:58.510324</dc:date>
    <dc:format>image/svg+xml</dc:format>
    <dc:creator>
     <cc:Agent>
      <dc:title>Matplotlib v3.7.0, https://matplotlib.org/</dc:title>
     </cc:Agent>
    </dc:creator>
   </cc:Work>
  </rdf:RDF>
 </metadata>
 <defs>
  <style type="text/css">*{stroke-linejoin: round; stroke-linecap: butt}</style>
 </defs>
 <g id="figure_1">
  <g id="patch_1">
   <path d="M 0 498.96 
L 837 498.96 
L 837 -0 
L 0 -0 
z
" style="fill: #ffffff"/>
  </g>
  <g id="axes_1">
   <g id="patch_2">
    <path d="M 0 498.96 
L 837 498.96 
L 837 -0 
L 0 -0 
z
" style="fill: #ffffff"/>
   </g>
   <g id="matplotlib.axis_1"/>
   <g id="matplotlib.axis_2"/>
   <g id="line2d_1">
    <path d="M -0.093 249.440366 
L 0 249.377786 
L 0.186 249.482086 
L 9.021 249.461226 
L 9.207 249.628106 
L 9.951 249.398646 
L 10.137 249.482086 
L 10.23 249.440366 
L 10.416 249.544666 
L 10.974 249.502946 
L 11.253 249.461226 
L 11.532 249.398646 
L 11.718 249.502946 
L 16.926 249.440366 
L 17.019 249.377786 
L 17.298 249.502946 
L 18.414 249.482086 
L 18.693 249.336066 
L 18.972 249.440366 
L 21.204 249.461226 
L 21.297 249.565526 
L 21.576 249.440366 
L 21.855 249.440366 
L 22.041 249.461226 
L 22.785 249.523806 
L 23.25 249.440366 
L 23.436 249.440366 
L 23.622 249.419506 
L 24.087 249.586386 
L 24.273 249.461226 
L 24.645 249.482086 
L 24.738 249.586386 
L 24.924 249.544666 
L 25.482 249.502946 
L 25.575 249.544666 
L 25.854 249.440366 
L 28.737 249.544666 
L 28.923 249.482086 
L 29.481 249.419506 
L 29.76 249.502946 
L 30.318 249.419506 
L 30.69 249.565526 
L 31.527 249.461226 
L 31.713 249.440366 
L 32.457 249.482086 
L 32.55 249.586386 
L 32.736 249.398646 
L 33.015 249.461226 
L 33.387 249.461226 
L 33.48 249.544666 
L 33.573 249.461226 
L 33.759 249.586386 
L 34.317 249.398646 
L 34.689 249.544666 
L 34.875 249.502946 
L 35.247 249.377786 
L 35.34 249.523806 
L 35.433 249.440366 
L 35.619 249.544666 
L 36.363 249.461226 
L 36.549 249.482086 
L 36.828 249.461226 
L 37.107 249.398646 
L 37.293 249.523806 
L 37.665 249.398646 
L 37.944 249.419506 
L 38.316 249.523806 
L 39.246 249.377786 
L 39.339 249.502946 
L 39.525 249.482086 
L 39.99 249.523806 
L 40.269 249.440366 
L 41.013 249.523806 
L 41.199 249.440366 
L 41.664 249.586386 
L 41.85 249.461226 
L 42.036 249.482086 
L 42.315 249.523806 
L 42.78 249.461226 
L 43.059 249.523806 
L 43.431 249.502946 
L 43.71 249.502946 
L 43.989 249.565526 
L 44.268 249.482086 
L 44.547 249.502946 
L 44.826 249.461226 
L 45.012 249.440366 
L 48.081 249.482086 
L 48.267 249.502946 
L 48.918 249.440366 
L 49.011 249.502946 
L 49.197 249.398646 
L 50.034 249.482086 
L 50.22 249.482086 
L 50.406 249.502946 
L 50.592 249.544666 
L 50.964 249.377786 
L 51.522 249.523806 
L 52.173 249.461226 
L 52.545 249.482086 
L 52.824 249.461226 
L 53.01 249.565526 
L 53.847 249.440366 
L 54.126 249.502946 
L 54.405 249.523806 
L 54.591 249.440366 
L 54.87 249.482086 
L 55.149 249.482086 
L 55.335 249.502946 
L 55.521 249.419506 
L 55.707 249.482086 
L 56.172 249.419506 
L 56.358 249.482086 
L 56.451 249.440366 
L 56.544 249.523806 
L 56.637 249.398646 
L 56.916 249.544666 
L 57.381 249.419506 
L 58.125 249.502946 
L 58.59 249.377786 
L 58.776 249.440366 
L 59.52 249.502946 
L 59.799 249.419506 
L 60.078 249.544666 
L 60.264 249.482086 
L 60.636 249.419506 
L 60.915 249.523806 
L 61.473 249.482086 
L 61.752 249.440366 
L 66.216 249.544666 
L 66.495 249.586386 
L 66.774 249.482086 
L 66.96 249.523806 
L 67.797 249.440366 
L 67.89 249.398646 
L 68.076 249.461226 
L 68.355 249.565526 
L 68.727 249.482086 
L 68.82 249.502946 
L 68.913 249.398646 
L 69.099 249.461226 
L 69.75 249.419506 
L 70.773 249.586386 
L 71.424 249.398646 
L 71.517 249.440366 
L 71.703 249.356926 
L 71.982 249.440366 
L 72.261 249.461226 
L 72.447 249.502946 
L 75.144 249.398646 
L 75.423 249.356926 
L 75.609 249.482086 
L 76.539 249.523806 
L 76.632 249.690686 
L 77.004 249.440366 
L 77.283 249.336066 
L 77.376 249.294346 
L 77.562 249.419506 
L 78.027 249.502946 
L 78.399 249.586386 
L 78.678 249.502946 
L 78.771 249.502946 
L 78.864 249.377786 
L 79.05 249.377786 
L 79.422 249.502946 
L 79.608 249.502946 
L 81.747 249.461226 
L 81.84 249.377786 
L 82.119 249.482086 
L 82.398 249.461226 
L 82.584 249.523806 
L 82.677 249.502946 
L 82.77 249.607246 
L 82.956 249.544666 
L 83.421 249.482086 
L 83.607 249.440366 
L 83.886 249.482086 
L 84.258 249.544666 
L 84.351 249.419506 
L 84.63 249.482086 
L 87.885 249.502946 
L 88.071 249.356926 
L 88.443 249.502946 
L 88.722 249.440366 
L 88.815 249.315206 
L 89.094 249.502946 
L 89.466 249.502946 
L 89.559 249.628106 
L 89.745 249.461226 
L 90.117 249.356926 
L 90.396 249.523806 
L 90.861 249.419506 
L 91.047 249.377786 
L 91.419 249.586386 
L 91.605 249.440366 
L 92.721 249.482086 
L 92.907 249.544666 
L 93.186 249.586386 
L 93.279 249.502946 
L 93.372 249.607246 
L 93.465 249.440366 
L 93.558 249.523806 
L 93.651 249.440366 
L 93.744 249.523806 
L 93.93 249.377786 
L 94.023 249.544666 
L 94.116 249.336066 
L 94.209 249.461226 
L 94.302 249.315206 
L 94.581 249.419506 
L 94.86 249.461226 
L 95.046 249.482086 
L 95.697 249.690686 
L 96.627 249.336066 
L 96.999 249.482086 
L 97.464 249.482086 
L 97.836 249.565526 
L 98.115 249.482086 
L 98.58 249.628106 
L 98.673 249.607246 
L 98.859 249.377786 
L 99.324 249.565526 
L 99.51 249.440366 
L 99.882 249.315206 
L 100.161 249.523806 
L 100.44 249.502946 
L 101.091 249.461226 
L 101.277 249.502946 
L 101.556 249.398646 
L 101.835 249.377786 
L 102.114 249.523806 
L 102.579 249.398646 
L 102.858 249.523806 
L 104.718 249.440366 
L 104.997 249.377786 
L 105.276 249.377786 
L 105.648 249.502946 
L 106.113 249.482086 
L 106.299 249.586386 
L 106.95 249.523806 
L 107.136 249.502946 
L 107.601 249.356926 
L 107.88 249.523806 
L 108.252 249.523806 
L 108.345 249.690686 
L 108.624 249.502946 
L 109.368 249.398646 
L 109.647 249.461226 
L 109.833 249.377786 
L 110.019 249.398646 
L 110.763 249.482086 
L 110.856 249.398646 
L 111.042 249.482086 
L 111.228 249.544666 
L 111.693 249.315206 
L 112.251 249.628106 
L 112.53 249.461226 
L 112.716 249.461226 
L 113.274 249.482086 
L 113.367 249.377786 
L 113.646 249.482086 
L 113.739 249.523806 
L 113.832 249.398646 
L 113.925 249.544666 
L 114.111 249.440366 
L 116.436 249.482086 
L 116.622 249.565526 
L 117.645 249.398646 
L 118.11 249.544666 
L 118.854 249.482086 
L 119.226 249.565526 
L 119.691 249.440366 
L 119.97 249.523806 
L 122.016 249.419506 
L 122.295 249.398646 
L 122.76 249.607246 
L 122.946 249.482086 
L 123.225 249.544666 
L 123.318 249.482086 
L 123.411 249.586386 
L 123.597 249.544666 
L 124.155 249.482086 
L 124.341 249.461226 
L 124.62 249.398646 
L 125.55 249.586386 
L 125.736 249.440366 
L 125.922 249.356926 
L 126.201 249.544666 
L 126.387 249.502946 
L 126.573 249.502946 
L 127.689 249.461226 
L 127.875 249.377786 
L 128.247 249.377786 
L 128.433 249.461226 
L 128.526 249.565526 
L 128.805 249.419506 
L 129.177 249.523806 
L 129.921 249.461226 
L 134.664 249.440366 
L 134.757 249.336066 
L 134.85 249.544666 
L 134.943 249.502946 
L 135.408 249.461226 
L 135.687 249.482086 
L 142.197 249.440366 
L 142.29 249.607246 
L 142.476 249.544666 
L 142.755 249.607246 
L 142.848 249.523806 
L 143.034 249.607246 
L 143.22 249.482086 
L 143.778 249.565526 
L 144.057 249.502946 
L 144.522 249.419506 
L 144.801 249.523806 
L 146.382 249.419506 
L 147.126 249.315206 
L 147.684 249.523806 
L 147.87 249.419506 
L 148.149 249.461226 
L 148.335 249.690686 
L 148.614 249.648966 
L 149.172 249.273486 
L 149.544 249.398646 
L 150.009 249.502946 
L 150.102 249.586386 
L 150.381 249.356926 
L 150.753 249.878426 
L 150.846 249.711546 
L 151.032 249.210906 
L 151.311 249.294346 
L 151.683 249.669826 
L 152.148 249.273486 
L 152.427 250.024446 
L 152.799 249.294346 
L 152.892 249.461226 
L 153.078 249.648966 
L 153.264 249.148326 
L 153.357 249.252626 
L 153.636 250.691965 
L 153.729 250.504225 
L 154.008 248.418227 
L 154.194 248.856287 
L 154.473 249.753266 
L 154.659 249.690686 
L 154.845 250.191325 
L 155.124 249.628106 
L 155.403 250.733685 
L 155.496 250.483365 
L 155.775 248.626826 
L 155.868 248.772847 
L 156.054 249.836706 
L 156.147 249.815846 
L 156.333 249.044026 
L 156.426 249.106606 
L 156.705 250.462505 
L 156.891 249.315206 
L 157.077 248.084467 
L 157.17 248.418227 
L 157.449 250.253906 
L 157.635 250.462505 
L 157.728 250.483365 
L 157.914 249.482086 
L 158.1 248.334787 
L 158.193 248.334787 
L 158.565 250.942285 
L 158.937 249.273486 
L 159.03 249.148326 
L 159.123 249.356926 
L 159.309 250.107885 
L 159.495 249.419506 
L 159.681 247.896727 
L 159.867 246.186209 
L 159.96 246.019329 
L 160.239 248.772847 
L 160.425 250.087025 
L 160.89 249.106606 
L 161.169 247.291788 
L 161.262 247.437807 
L 161.448 248.835426 
L 161.727 252.923984 
L 161.913 253.132583 
L 162.099 252.256464 
L 162.192 252.298184 
L 162.285 252.715384 
L 162.378 252.235604 
L 162.843 247.208348 
L 163.215 244.91375 
L 163.308 245.226649 
L 163.587 249.190046 
L 163.68 248.522527 
L 163.959 244.767729 
L 164.145 247.667267 
L 164.424 252.006144 
L 164.517 252.089584 
L 165.075 249.857566 
L 165.354 251.338625 
L 165.447 250.671105 
L 165.726 244.997189 
L 165.819 245.435249 
L 166.191 255.448042 
L 166.284 254.780522 
L 166.563 248.439087 
L 166.656 248.564247 
L 166.935 250.984005 
L 167.028 250.566805 
L 167.307 248.334787 
L 167.493 249.023166 
L 167.679 248.459947 
L 167.958 247.396088 
L 168.051 246.978888 
L 168.33 243.536991 
L 168.423 243.84989 
L 168.609 249.377786 
L 168.888 257.68006 
L 168.981 256.783081 
L 169.446 246.540828 
L 169.539 246.561688 
L 169.632 247.250068 
L 170.004 251.943564 
L 170.19 251.401205 
L 170.562 248.564247 
L 170.655 248.668547 
L 170.841 248.960587 
L 170.934 248.898006 
L 171.12 248.167907 
L 171.213 248.376507 
L 171.399 250.483365 
L 171.678 254.592783 
L 171.771 253.445483 
L 172.143 245.289229 
L 172.236 245.539549 
L 172.701 251.547225 
L 172.98 249.607246 
L 173.259 251.818404 
L 173.445 250.775405 
L 173.631 249.356926 
L 173.724 250.003585 
L 173.91 252.840544 
L 174.003 252.027004 
L 174.375 246.519968 
L 174.468 246.686848 
L 174.84 249.523806 
L 175.491 251.505505 
L 175.677 253.111724 
L 175.77 253.090863 
L 175.956 252.819684 
L 176.049 252.152164 
L 176.514 244.43397 
L 176.607 244.70515 
L 177.723 252.381624 
L 177.816 252.360764 
L 178.374 244.91375 
L 178.56 246.478248 
L 179.025 250.817125 
L 179.118 250.587665 
L 179.397 249.169187 
L 179.583 249.878426 
L 179.676 249.669826 
L 180.141 244.976329 
L 180.234 245.247509 
L 180.42 247.354368 
L 180.606 251.463784 
L 180.978 260.767338 
L 181.071 260.454438 
L 181.908 245.414389 
L 182.094 247.208348 
L 182.187 247.187488 
L 182.652 240.658313 
L 182.838 244.579989 
L 183.21 252.611084 
L 183.303 252.631944 
L 183.582 250.504225 
L 183.675 251.276044 
L 183.954 256.866521 
L 184.047 255.865242 
L 184.419 243.39097 
L 184.512 244.22537 
L 184.791 252.402484 
L 184.884 252.047864 
L 185.163 246.081909 
L 185.256 246.102769 
L 185.721 253.987843 
L 185.814 253.779243 
L 186.093 249.190046 
L 186.279 246.353088 
L 186.372 246.645128 
L 186.651 249.419506 
L 186.837 244.51741 
L 187.023 239.657033 
L 187.209 245.727289 
L 187.488 254.092143 
L 187.674 251.192605 
L 187.86 249.523806 
L 188.046 252.131304 
L 188.325 256.219861 
L 188.511 252.757103 
L 188.697 248.835426 
L 188.79 249.169187 
L 189.069 254.238162 
L 189.162 253.966983 
L 189.441 247.333507 
L 189.627 244.05849 
L 189.72 244.41311 
L 190.092 252.277324 
L 190.185 251.505505 
L 190.464 242.890331 
L 190.557 243.015491 
L 190.836 249.210906 
L 190.929 249.085746 
L 191.208 245.852448 
L 191.301 246.415668 
L 191.673 255.385462 
L 191.766 255.176862 
L 192.417 248.731126 
L 192.789 238.447154 
L 192.882 239.511013 
L 193.254 246.978888 
L 193.347 246.937168 
L 193.533 245.122349 
L 193.626 245.330949 
L 193.998 253.424623 
L 194.277 259.807779 
L 194.37 259.682618 
L 194.556 255.343742 
L 194.835 248.063607 
L 195.021 246.999748 
L 195.3 246.186209 
L 195.486 248.459947 
L 195.765 251.797544 
L 195.858 251.609805 
L 196.044 250.587665 
L 196.323 254.342462 
L 196.416 253.487203 
L 196.695 242.952911 
L 196.881 238.301134 
L 196.974 238.655754 
L 197.16 243.74559 
L 197.439 252.277324 
L 197.532 252.485924 
L 197.718 250.337346 
L 197.811 250.399925 
L 197.997 255.302022 
L 198.183 261.601737 
L 198.276 261.643457 
L 198.462 255.781802 
L 198.741 246.019329 
L 198.834 245.122349 
L 198.927 245.789869 
L 199.206 250.337346 
L 199.299 249.148326 
L 199.671 239.072954 
L 199.857 247.187488 
L 200.136 260.120679 
L 200.229 259.307139 
L 200.694 250.963145 
L 200.88 251.296905 
L 201.066 248.856287 
L 201.345 243.432691 
L 201.438 244.01677 
L 201.624 245.998469 
L 201.81 244.663429 
L 201.903 244.872029 
L 202.089 249.273486 
L 202.368 255.635781 
L 202.461 254.321602 
L 202.74 246.353088 
L 202.833 246.999748 
L 203.205 251.672384 
L 203.298 251.964424 
L 203.484 251.067445 
L 203.577 250.441646 
L 203.67 250.462505 
L 203.763 251.338625 
L 204.042 257.242 
L 204.135 257.17942 
L 204.321 250.441646 
L 204.6 240.700032 
L 204.786 247.792427 
L 205.065 257.262861 
L 205.251 248.376507 
L 205.53 235.985676 
L 205.716 245.205789 
L 205.995 261.101098 
L 206.088 260.329278 
L 206.553 242.556571 
L 206.925 252.193884 
L 207.018 251.088305 
L 207.39 241.263252 
L 207.576 246.770288 
L 207.855 255.176862 
L 208.227 253.466343 
L 208.32 253.633223 
L 208.599 253.362043 
L 208.785 255.927821 
L 208.971 257.9721 
L 209.064 257.01254 
L 209.343 247.041468 
L 209.529 240.762613 
L 209.622 240.220252 
L 209.808 242.723451 
L 210.087 246.874588 
L 210.18 247.229207 
L 210.273 247.083188 
L 210.459 245.372669 
L 210.738 242.681731 
L 210.831 243.244951 
L 211.017 248.418227 
L 211.296 256.365881 
L 211.482 257.01254 
L 211.668 256.783081 
L 211.854 257.90952 
L 211.947 257.88866 
L 212.133 252.882263 
L 212.412 241.847332 
L 212.505 241.263252 
L 212.784 244.475689 
L 212.877 243.47441 
L 213.156 237.612755 
L 213.249 238.468014 
L 213.714 253.737523 
L 213.807 253.633223 
L 213.993 253.090863 
L 214.272 254.822242 
L 214.458 255.844381 
L 214.644 253.090863 
L 214.923 249.127466 
L 215.016 249.064887 
L 215.109 249.252626 
L 215.202 249.064887 
L 215.388 246.812008 
L 215.667 241.534432 
L 215.76 242.222811 
L 216.039 253.195163 
L 216.225 257.42974 
L 216.318 256.345021 
L 216.69 247.646407 
L 217.155 256.094701 
L 217.341 253.570643 
L 217.527 250.545946 
L 217.62 250.754545 
L 217.899 257.367161 
L 217.992 257.28372 
L 218.178 251.922704 
L 218.55 238.676614 
L 218.643 239.364993 
L 218.922 244.454829 
L 219.015 244.51741 
L 219.108 244.746869 
L 219.294 247.250068 
L 219.573 252.798824 
L 219.666 251.901844 
L 220.038 244.976329 
L 220.41 248.251347 
L 220.596 249.482086 
L 220.689 249.440366 
L 220.968 247.354368 
L 221.061 247.562967 
L 221.34 250.921425 
L 221.898 260.308418 
L 222.084 255.948681 
L 222.456 244.934609 
L 222.642 244.371389 
L 222.735 245.164069 
L 222.921 250.253906 
L 223.2 259.849498 
L 223.293 259.369719 
L 223.479 252.047864 
L 223.758 242.452271 
L 223.851 242.994631 
L 224.223 250.462505 
L 224.316 249.440366 
L 224.781 237.800495 
L 224.967 243.82903 
L 225.246 253.654083 
L 225.339 253.841823 
L 225.525 253.028284 
L 225.711 255.009982 
L 225.804 255.906961 
L 225.897 255.886102 
L 226.083 250.942285 
L 226.362 243.84989 
L 226.455 244.30881 
L 226.92 251.255185 
L 227.292 259.953798 
L 227.385 259.432299 
L 227.664 252.298184 
L 228.129 237.132975 
L 228.222 237.362435 
L 228.408 242.097651 
L 228.687 248.001027 
L 228.966 246.958028 
L 229.245 250.045306 
L 229.338 249.753266 
L 229.524 247.959307 
L 229.617 248.021887 
L 229.803 251.964424 
L 230.082 256.90824 
L 230.175 256.282441 
L 230.454 252.590224 
L 230.547 253.132583 
L 230.826 255.719221 
L 231.012 252.590224 
L 231.291 248.167907 
L 231.477 250.045306 
L 231.756 252.861403 
L 231.849 252.819684 
L 232.035 250.691965 
L 232.5 245.435249 
L 232.686 245.956748 
L 232.779 245.706429 
L 232.965 244.70515 
L 233.058 244.746869 
L 233.337 248.147047 
L 233.43 248.105327 
L 233.709 244.22537 
L 233.802 244.62171 
L 234.267 255.093422 
L 234.453 252.360764 
L 234.639 250.253906 
L 234.732 250.921425 
L 235.011 255.197722 
L 235.104 255.322881 
L 235.29 253.528923 
L 235.569 251.422065 
L 235.755 251.359485 
L 235.941 251.442925 
L 236.034 250.754545 
L 236.499 241.367552 
L 236.592 242.932051 
L 237.057 260.204118 
L 237.15 259.432299 
L 237.894 236.486315 
L 238.08 230.16574 
L 238.173 230.24918 
L 238.359 237.821355 
L 238.638 249.586386 
L 238.917 252.277324 
L 239.289 256.032121 
L 239.382 256.011261 
L 239.568 253.424623 
L 239.847 250.128746 
L 239.94 250.212185 
L 240.126 252.923984 
L 240.498 260.475298 
L 240.684 256.511901 
L 240.963 249.315206 
L 241.056 248.835426 
L 241.335 250.921425 
L 241.521 246.227928 
L 241.8 237.779635 
L 241.893 237.675335 
L 242.358 244.454829 
L 242.637 246.290509 
L 243.102 251.401205 
L 243.288 248.313927 
L 243.474 245.122349 
L 243.567 245.769009 
L 243.846 253.007424 
L 244.125 258.01382 
L 244.311 258.597899 
L 244.497 256.595341 
L 244.776 253.070003 
L 244.962 252.444204 
L 245.148 249.482086 
L 245.427 244.684289 
L 245.52 245.164069 
L 245.799 248.939726 
L 245.892 249.190046 
L 246.171 248.272207 
L 246.357 250.963145 
L 246.636 254.384183 
L 246.729 253.424623 
L 247.101 244.07935 
L 247.194 244.18365 
L 247.473 247.124907 
L 247.659 241.388412 
L 247.938 231.771959 
L 248.031 234.650637 
L 248.496 262.519576 
L 248.589 261.872917 
L 248.868 256.386741 
L 248.961 256.324161 
L 249.24 257.57576 
L 249.426 255.176862 
L 249.891 246.186209 
L 249.984 247.145768 
L 250.356 254.300743 
L 250.728 246.645128 
L 250.821 247.500388 
L 251.007 250.796265 
L 251.1 250.775405 
L 251.751 241.555292 
L 251.844 241.763892 
L 252.03 245.476969 
L 252.402 256.240721 
L 252.495 256.470181 
L 252.681 254.133862 
L 253.518 242.97377 
L 253.611 243.098931 
L 253.89 245.664709 
L 254.448 253.674943 
L 254.541 254.029563 
L 254.727 256.219861 
L 255.006 259.432299 
L 255.192 256.657921 
L 255.657 242.786031 
L 255.936 235.130417 
L 256.029 234.170857 
L 256.122 234.191717 
L 256.308 236.799215 
L 257.331 259.286279 
L 257.517 260.829918 
L 257.61 260.496158 
L 258.168 253.195163 
L 258.447 249.690686 
L 258.54 249.565526 
L 258.726 249.878426 
L 258.819 249.482086 
L 259.284 245.414389 
L 259.656 248.021887 
L 259.842 245.476969 
L 260.028 242.952911 
L 260.121 242.952911 
L 260.493 245.539549 
L 260.958 252.506784 
L 261.051 251.964424 
L 261.33 247.083188 
L 261.423 247.312647 
L 261.795 255.552342 
L 261.888 255.343742 
L 262.26 251.588944 
L 262.446 251.943564 
L 262.818 247.416947 
L 263.004 250.921425 
L 263.283 257.11684 
L 263.376 256.449321 
L 263.841 245.873309 
L 263.934 246.248788 
L 264.213 249.482086 
L 264.306 249.252626 
L 264.864 244.41311 
L 264.957 244.767729 
L 265.143 248.522527 
L 265.422 254.321602 
L 265.515 254.571922 
L 265.701 252.381624 
L 266.166 244.12107 
L 266.259 243.82903 
L 266.445 244.997189 
L 267.375 253.174303 
L 267.561 250.316485 
L 267.84 246.290509 
L 268.026 250.358206 
L 268.305 255.865242 
L 268.398 255.594062 
L 268.677 252.339904 
L 268.77 252.631944 
L 269.049 255.510621 
L 269.142 254.571922 
L 269.421 244.28795 
L 269.607 238.488874 
L 269.7 237.842214 
L 269.886 241.638732 
L 270.165 249.210906 
L 270.258 248.814566 
L 270.63 242.556571 
L 270.816 248.585107 
L 271.095 258.11812 
L 271.188 256.720501 
L 271.653 238.864354 
L 271.839 246.561688 
L 272.118 258.180699 
L 272.211 257.158561 
L 272.583 245.268369 
L 272.676 245.873309 
L 273.141 257.4506 
L 273.513 250.441646 
L 273.606 250.525085 
L 273.885 253.674943 
L 273.978 253.508063 
L 274.164 248.856287 
L 274.443 241.617872 
L 274.629 245.226649 
L 274.815 248.585107 
L 274.908 248.355647 
L 275.094 246.165348 
L 275.187 246.499108 
L 275.652 253.904403 
L 275.838 253.487203 
L 275.931 254.133862 
L 276.21 258.848219 
L 276.303 258.34758 
L 276.768 247.416947 
L 276.861 247.479528 
L 276.954 247.312647 
L 277.14 245.622989 
L 277.512 241.409272 
L 277.605 242.076791 
L 278.07 251.547225 
L 278.163 250.796265 
L 278.442 246.958028 
L 278.535 247.792427 
L 278.907 254.843102 
L 279 254.634502 
L 279.279 248.751987 
L 279.558 244.53827 
L 279.744 242.681731 
L 280.023 239.010374 
L 280.116 239.281554 
L 280.302 244.26709 
L 280.581 252.423344 
L 280.674 252.652803 
L 280.86 251.797544 
L 280.953 252.006144 
L 281.325 255.552342 
L 281.511 251.067445 
L 281.883 239.552733 
L 281.976 240.157673 
L 282.441 250.796265 
L 282.72 245.852448 
L 282.813 245.998469 
L 283.185 256.094701 
L 283.278 256.032121 
L 283.743 248.126187 
L 283.929 252.256464 
L 284.115 256.741361 
L 284.208 256.970821 
L 284.58 252.381624 
L 284.766 257.32544 
L 285.138 270.94701 
L 285.231 270.94701 
L 285.417 265.252235 
L 285.696 256.99168 
L 285.789 257.09598 
L 285.975 257.84694 
L 286.068 257.242 
L 286.812 243.51613 
L 287.463 219.860907 
L 287.742 212.539053 
L 287.835 212.747653 
L 288.021 220.236387 
L 289.137 291.806995 
L 289.23 291.514956 
L 289.416 285.11094 
L 289.881 253.028284 
L 290.253 231.00014 
L 290.439 228.246621 
L 290.532 229.53994 
L 290.718 237.883935 
L 291.183 265.982334 
L 291.276 265.961474 
L 291.462 258.45188 
L 292.113 208.638236 
L 292.206 210.181874 
L 292.392 219.422848 
L 293.136 267.213073 
L 293.229 266.316094 
L 293.415 255.719221 
L 293.88 221.634006 
L 293.973 221.967766 
L 294.159 229.72768 
L 294.438 252.548504 
L 294.996 315.795978 
L 295.089 316.588657 
L 295.275 305.783185 
L 296.112 223.052485 
L 296.484 238.050814 
L 296.577 237.946514 
L 296.949 231.459059 
L 297.228 239.239833 
L 297.414 242.869471 
L 297.507 243.015491 
L 297.786 241.680452 
L 298.065 242.556571 
L 298.158 242.243671 
L 298.344 240.136813 
L 298.53 237.988234 
L 298.623 237.925654 
L 298.716 238.780914 
L 298.902 244.43397 
L 299.367 272.886989 
L 299.646 286.717159 
L 299.739 286.988339 
L 299.925 275.202447 
L 300.297 240.992072 
L 300.39 240.741752 
L 300.669 250.316485 
L 300.762 249.336066 
L 301.134 233.983117 
L 301.32 247.270928 
L 301.599 267.734573 
L 301.692 266.608134 
L 302.064 254.488483 
L 302.343 253.758383 
L 302.622 250.879705 
L 302.715 251.296905 
L 302.994 255.281162 
L 303.087 254.405043 
L 303.273 246.457388 
L 303.738 219.777467 
L 303.831 218.984788 
L 303.924 220.152947 
L 304.947 248.981446 
L 305.04 248.898006 
L 305.226 247.729847 
L 305.319 248.543387 
L 305.505 256.345021 
L 305.877 274.180308 
L 305.97 272.845269 
L 306.435 253.424623 
L 306.714 246.061048 
L 306.807 247.416947 
L 307.365 268.714992 
L 307.551 266.670713 
L 307.737 260.996798 
L 308.016 235.568476 
L 308.295 212.038413 
L 308.388 211.516914 
L 308.574 220.632727 
L 309.411 279.291005 
L 309.504 276.558346 
L 309.69 258.806499 
L 310.062 217.295129 
L 310.155 217.35771 
L 310.341 228.121462 
L 311.271 291.368935 
L 311.364 290.263356 
L 311.55 276.370606 
L 311.922 248.814566 
L 312.387 238.113394 
L 312.759 224.596124 
L 312.852 225.409663 
L 313.038 235.151277 
L 313.41 261.101098 
L 313.782 270.008311 
L 313.875 271.15561 
L 313.968 270.342071 
L 314.526 256.094701 
L 314.619 256.199001 
L 314.712 255.531481 
L 314.898 250.024446 
L 315.549 217.879209 
L 315.642 217.16997 
L 315.735 217.232549 
L 315.921 220.528427 
L 316.944 262.978496 
L 317.223 279.395304 
L 317.316 281.084963 
L 317.409 280.584323 
L 317.781 269.674551 
L 317.967 259.390579 
L 318.339 232.794098 
L 318.432 231.375619 
L 318.525 232.043139 
L 318.711 238.864354 
L 319.176 264.063216 
L 319.362 253.111724 
L 320.199 188.61265 
L 320.292 191.553908 
L 320.478 218.046089 
L 320.757 263.750316 
L 320.85 265.544275 
L 321.036 249.482086 
L 321.222 233.336458 
L 321.315 233.211298 
L 321.501 247.396088 
L 321.78 271.82313 
L 321.873 273.783968 
L 321.966 272.907849 
L 322.431 260.683898 
L 322.71 257.90952 
L 322.803 258.03468 
L 322.989 261.956357 
L 323.454 277.100706 
L 323.547 275.640507 
L 323.733 264.835035 
L 324.198 233.670218 
L 324.291 236.298576 
L 324.57 260.892498 
L 324.942 286.362539 
L 325.221 292.703975 
L 325.314 293.183754 
L 325.407 292.224195 
L 325.593 286.174799 
L 325.872 270.070891 
L 326.337 241.054652 
L 326.616 233.670218 
L 326.709 233.774517 
L 326.895 237.466735 
L 327.36 255.468902 
L 327.639 265.419114 
L 327.732 266.378673 
L 327.825 265.982334 
L 328.011 262.978496 
L 328.197 255.448042 
L 328.476 224.345804 
L 328.755 196.581164 
L 328.848 195.851065 
L 329.034 204.424519 
L 329.406 222.510126 
L 329.685 234.108277 
L 329.964 246.144488 
L 330.522 253.299463 
L 330.615 253.028284 
L 330.801 247.500388 
L 331.173 231.917978 
L 331.266 231.313039 
L 331.359 232.794098 
L 331.917 254.676222 
L 332.475 249.815846 
L 332.847 249.669826 
L 333.126 249.294346 
L 333.219 250.107885 
L 333.405 255.135142 
L 333.777 268.506392 
L 333.87 268.172632 
L 334.242 257.93038 
L 334.335 258.09726 
L 334.521 260.663038 
L 334.614 260.537878 
L 334.8 253.862683 
L 335.172 236.423736 
L 335.265 235.651916 
L 335.451 236.924375 
L 335.73 241.492712 
L 336.195 257.075121 
L 336.288 255.239442 
L 336.753 227.161902 
L 336.846 227.850282 
L 337.776 261.726897 
L 338.055 274.680947 
L 338.148 275.849107 
L 338.241 275.431907 
L 338.427 270.050031 
L 339.078 235.610196 
L 339.264 238.614034 
L 339.636 245.769009 
L 340.101 278.227145 
L 340.194 276.662646 
L 340.752 242.681731 
L 340.938 243.62043 
L 341.031 242.473131 
L 341.403 233.649358 
L 341.589 238.050814 
L 342.147 267.233933 
L 342.24 266.503834 
L 342.426 256.824801 
L 342.891 227.161902 
L 342.984 226.410943 
L 343.077 227.141043 
L 344.379 252.923984 
L 344.751 262.310977 
L 344.844 261.455717 
L 345.123 250.817125 
L 345.402 243.57871 
L 345.495 244.559129 
L 346.053 256.637061 
L 346.146 257.17942 
L 346.239 258.43102 
L 346.518 269.674551 
L 346.89 283.671601 
L 346.983 283.755041 
L 347.169 278.185425 
L 347.448 252.757103 
L 347.82 211.954973 
L 347.913 209.118015 
L 348.006 209.451775 
L 348.192 217.232549 
L 348.471 238.509734 
L 348.843 272.720109 
L 348.936 274.263748 
L 349.029 271.51023 
L 349.773 228.788981 
L 349.866 229.5608 
L 350.052 234.045697 
L 350.703 259.557459 
L 350.796 259.286279 
L 351.168 252.485924 
L 351.447 254.405043 
L 351.633 249.836706 
L 351.912 242.347971 
L 352.098 251.609805 
L 352.47 277.476186 
L 352.563 276.057706 
L 353.028 252.652803 
L 353.307 254.113003 
L 353.493 251.401205 
L 353.772 244.30881 
L 353.865 244.22537 
L 354.051 246.457388 
L 354.237 249.044026 
L 354.33 248.939726 
L 354.516 245.372669 
L 354.795 240.053373 
L 354.981 242.806891 
L 355.26 246.415668 
L 355.353 246.603408 
L 355.446 247.041468 
L 355.539 248.042747 
L 355.725 255.448042 
L 356.19 280.646903 
L 356.283 277.809946 
L 357.027 231.29218 
L 357.492 209.222315 
L 357.585 210.202734 
L 357.771 221.195947 
L 358.143 244.579989 
L 358.329 246.248788 
L 358.515 245.706429 
L 358.701 247.667267 
L 358.98 250.483365 
L 359.166 248.334787 
L 359.724 238.718334 
L 359.817 239.657033 
L 360.003 246.540828 
L 360.375 262.227537 
L 360.468 262.331836 
L 360.747 257.99296 
L 360.84 258.764779 
L 361.212 270.446371 
L 361.305 270.279491 
L 361.77 260.224979 
L 361.863 260.266698 
L 362.049 262.644736 
L 362.514 272.428069 
L 362.607 272.407209 
L 362.793 268.589832 
L 363.537 246.958028 
L 364.002 242.890331 
L 364.095 242.952911 
L 364.281 245.748148 
L 364.653 254.613642 
L 364.746 254.697083 
L 364.932 250.420785 
L 365.304 228.100602 
L 365.583 215.668051 
L 365.676 214.604192 
L 365.769 214.812791 
L 366.234 219.214248 
L 366.327 219.881767 
L 366.513 225.826863 
L 367.164 255.844381 
L 367.536 258.284999 
L 367.629 258.34758 
L 367.722 258.05554 
L 368.373 252.193884 
L 368.559 251.693244 
L 368.652 251.296905 
L 368.745 251.568084 
L 368.931 255.510621 
L 369.396 269.799712 
L 369.489 269.737131 
L 369.861 266.065774 
L 370.14 267.880592 
L 370.233 267.379953 
L 370.419 262.081517 
L 370.698 253.132583 
L 370.791 252.360764 
L 370.884 252.485924 
L 370.977 252.611084 
L 371.163 251.401205 
L 371.349 250.337346 
L 371.442 250.921425 
L 371.814 259.494879 
L 371.907 259.390579 
L 372.093 254.029563 
L 372.651 233.253018 
L 372.744 233.315598 
L 372.93 237.237275 
L 373.395 252.068724 
L 373.581 253.883543 
L 373.674 253.987843 
L 373.767 253.549783 
L 373.953 249.565526 
L 374.418 236.611476 
L 374.697 234.567197 
L 374.79 234.796656 
L 374.976 237.571035 
L 375.441 247.646407 
L 375.534 247.479528 
L 375.813 245.789869 
L 375.906 246.457388 
L 376.092 250.399925 
L 376.557 262.519576 
L 376.65 262.144097 
L 376.929 258.785639 
L 377.022 258.848219 
L 377.208 260.558738 
L 377.301 260.287558 
L 377.487 254.551062 
L 377.766 245.247509 
L 377.859 244.934609 
L 378.045 245.372669 
L 378.138 244.41311 
L 378.51 234.671497 
L 378.603 235.568476 
L 379.068 253.007424 
L 379.161 251.755824 
L 379.626 236.361155 
L 379.719 236.861795 
L 380.184 244.28795 
L 380.463 242.702591 
L 380.556 243.161511 
L 381.021 251.109165 
L 381.114 250.963145 
L 381.3 250.483365 
L 381.393 250.650245 
L 381.672 251.943564 
L 381.858 254.321602 
L 382.23 261.706037 
L 382.323 261.664317 
L 382.695 259.244559 
L 382.881 260.308418 
L 382.974 260.078958 
L 383.16 255.260302 
L 383.532 242.222811 
L 383.904 237.591895 
L 383.997 238.029954 
L 384.183 242.952911 
L 384.648 258.63962 
L 385.02 263.145376 
L 385.113 263.124516 
L 385.299 260.913358 
L 385.485 258.493599 
L 385.578 258.43102 
L 385.857 260.016379 
L 385.95 259.724339 
L 386.136 257.075121 
L 386.508 250.984005 
L 386.787 248.188767 
L 387.066 240.971213 
L 387.345 234.066557 
L 387.438 233.837097 
L 387.624 235.401596 
L 387.996 240.282833 
L 388.275 244.01677 
L 388.368 243.64129 
L 388.554 239.552733 
L 388.926 228.601241 
L 389.019 228.538661 
L 389.205 233.190438 
L 389.856 259.181979 
L 390.135 260.871638 
L 390.228 261.184538 
L 390.321 261.121958 
L 390.414 260.600458 
L 390.6 257.4506 
L 391.158 244.475689 
L 391.251 245.059769 
L 391.437 249.523806 
L 391.809 259.745199 
L 391.902 259.932939 
L 392.088 259.056819 
L 392.181 259.098539 
L 392.553 263.020216 
L 392.646 262.415277 
L 393.576 247.667267 
L 393.855 246.603408 
L 393.948 246.457388 
L 394.134 244.976329 
L 394.599 239.865633 
L 394.785 239.698753 
L 394.971 240.345413 
L 395.157 241.763892 
L 395.436 244.12107 
L 395.529 243.82903 
L 395.715 241.054652 
L 395.994 236.194276 
L 396.087 236.653195 
L 396.552 244.14193 
L 396.738 244.03763 
L 396.831 244.746869 
L 397.11 251.088305 
L 397.482 257.59662 
L 397.854 261.998077 
L 397.947 261.768617 
L 398.133 258.180699 
L 398.505 249.794985 
L 398.598 250.566805 
L 399.063 260.642178 
L 399.156 260.537878 
L 399.342 259.995518 
L 399.435 260.245838 
L 399.621 262.540436 
L 399.9 265.773734 
L 399.993 265.565135 
L 400.179 262.957636 
L 400.551 250.879705 
L 400.923 243.203231 
L 401.388 236.361155 
L 401.574 239.740473 
L 401.853 245.205789 
L 401.946 244.851169 
L 402.318 240.616592 
L 402.411 240.554013 
L 402.504 240.720892 
L 402.597 240.595732 
L 402.783 239.344133 
L 402.969 238.342854 
L 403.062 238.634894 
L 403.248 240.533152 
L 403.992 248.835426 
L 404.085 248.626826 
L 404.457 245.560409 
L 404.55 245.664709 
L 404.736 248.209627 
L 405.294 258.55618 
L 405.48 259.807779 
L 405.573 259.640899 
L 405.759 257.82608 
L 406.503 248.397367 
L 406.596 248.981446 
L 407.061 256.470181 
L 407.433 254.321602 
L 407.712 255.364602 
L 407.898 252.882263 
L 408.27 244.371389 
L 408.363 244.454829 
L 408.549 247.938447 
L 408.921 257.30458 
L 409.014 257.90952 
L 409.107 257.61748 
L 409.479 254.133862 
L 409.572 254.175583 
L 409.758 255.364602 
L 409.851 255.385462 
L 409.944 254.571922 
L 410.223 247.458668 
L 410.502 242.347971 
L 410.595 242.681731 
L 410.967 246.186209 
L 411.153 244.83031 
L 411.432 242.347971 
L 411.618 244.10021 
L 411.897 246.353088 
L 411.99 246.144488 
L 412.269 244.767729 
L 412.362 244.955469 
L 412.92 249.106606 
L 413.013 249.106606 
L 413.292 247.375228 
L 413.478 245.268369 
L 413.943 238.488874 
L 414.036 238.301134 
L 414.222 239.114673 
L 414.501 242.389691 
L 414.966 250.170466 
L 415.245 250.671105 
L 415.431 253.528923 
L 415.71 258.618759 
L 415.803 258.764779 
L 416.268 254.509342 
L 416.454 256.261581 
L 416.733 258.660479 
L 416.826 258.74392 
L 417.012 258.618759 
L 417.477 260.037239 
L 417.663 259.369719 
L 417.942 256.574481 
L 418.5 246.603408 
L 418.593 246.895448 
L 419.058 250.796265 
L 419.244 250.671105 
L 419.43 251.985284 
L 419.802 256.115561 
L 419.988 256.345021 
L 420.267 254.446762 
L 420.546 250.107885 
L 421.011 240.491433 
L 421.104 240.700032 
L 421.383 242.243671 
L 421.569 240.825192 
L 421.755 239.156393 
L 421.848 239.010374 
L 421.941 239.135533 
L 422.034 238.822634 
L 422.22 236.548895 
L 422.499 232.689798 
L 422.592 233.378178 
L 422.871 240.700032 
L 423.15 246.603408 
L 423.336 247.396088 
L 423.522 246.269648 
L 423.894 243.51613 
L 423.987 243.62043 
L 424.08 244.01677 
L 424.545 248.313927 
L 424.638 248.439087 
L 424.824 247.980167 
L 424.917 248.105327 
L 425.01 248.710266 
L 425.196 253.153443 
L 425.661 266.378673 
L 425.754 267.004473 
L 425.847 266.858453 
L 426.126 264.730735 
L 426.312 261.685177 
L 426.684 254.342462 
L 426.777 254.676222 
L 427.056 257.30458 
L 427.149 257.09598 
L 427.986 247.187488 
L 428.358 238.885214 
L 428.451 238.468014 
L 428.544 238.801774 
L 428.823 243.26581 
L 429.195 253.132583 
L 429.567 263.562576 
L 429.66 264.209235 
L 429.753 263.729455 
L 429.939 260.454438 
L 430.497 247.646407 
L 430.59 247.124907 
L 430.683 247.354368 
L 430.869 249.544666 
L 431.241 254.196443 
L 431.334 253.904403 
L 431.52 251.171745 
L 432.078 235.109556 
L 432.357 229.018441 
L 432.45 228.768121 
L 432.636 231.584219 
L 433.287 248.397367 
L 433.473 245.935888 
L 433.938 238.760054 
L 434.124 238.071674 
L 434.217 238.676614 
L 434.403 242.347971 
L 435.24 264.376115 
L 435.333 264.271816 
L 435.519 262.686457 
L 435.798 258.764779 
L 436.356 247.437807 
L 436.449 247.855007 
L 437.007 254.259022 
L 437.193 252.131304 
L 437.658 242.952911 
L 437.937 241.701311 
L 438.03 241.680452 
L 438.216 242.514851 
L 438.588 245.310089 
L 438.681 245.330949 
L 439.053 243.97505 
L 439.146 244.454829 
L 439.611 249.628106 
L 439.797 249.732406 
L 439.983 251.734965 
L 440.448 259.974658 
L 440.634 257.53404 
L 441.099 249.523806 
L 441.285 248.147047 
L 441.378 248.647687 
L 441.564 252.444204 
L 441.936 261.476577 
L 442.029 260.809058 
L 442.494 251.150885 
L 442.587 251.234325 
L 442.866 252.694524 
L 443.052 250.712825 
L 443.331 246.415668 
L 443.424 246.144488 
L 443.61 248.042747 
L 443.982 253.403763 
L 444.447 255.364602 
L 444.54 255.385462 
L 444.726 253.758383 
L 445.377 244.05849 
L 445.47 243.64129 
L 445.563 243.72473 
L 445.749 244.32967 
L 446.028 246.061048 
L 446.307 248.814566 
L 446.586 251.630665 
L 446.679 251.359485 
L 447.144 247.229207 
L 447.423 246.728568 
L 447.981 243.82903 
L 448.074 244.07935 
L 448.446 246.123628 
L 448.725 247.792427 
L 449.19 251.880984 
L 449.283 251.422065 
L 449.934 244.663429 
L 450.12 245.539549 
L 450.678 250.608525 
L 450.771 250.295625 
L 451.422 245.289229 
L 451.608 244.934609 
L 451.98 242.932051 
L 452.073 243.18237 
L 452.259 245.143209 
L 452.631 250.149606 
L 452.817 250.754545 
L 453.096 250.608525 
L 453.189 250.629385 
L 453.375 251.338625 
L 453.747 253.466343 
L 453.84 253.528923 
L 454.026 252.402484 
L 454.398 250.316485 
L 454.77 250.420785 
L 455.049 251.714105 
L 455.421 254.384183 
L 455.886 255.385462 
L 455.979 255.698362 
L 456.165 255.176862 
L 456.444 253.737523 
L 456.537 253.737523 
L 457.002 257.11684 
L 457.188 255.719221 
L 457.467 253.674943 
L 457.653 252.590224 
L 457.932 250.629385 
L 458.025 250.483365 
L 458.211 251.088305 
L 458.49 251.860124 
L 458.583 252.027004 
L 458.676 251.880984 
L 458.862 250.650245 
L 459.327 246.707708 
L 459.792 244.07935 
L 460.164 239.969933 
L 460.35 241.555292 
L 460.722 244.72601 
L 460.908 245.164069 
L 461.094 246.853728 
L 461.373 249.356926 
L 461.466 248.981446 
L 461.838 246.290509 
L 462.024 248.334787 
L 462.396 252.944843 
L 462.489 252.757103 
L 463.047 250.003585 
L 463.233 249.336066 
L 463.512 246.540828 
L 463.977 241.701311 
L 464.07 241.805611 
L 464.256 243.97505 
L 464.721 251.651524 
L 464.814 251.401205 
L 465.093 249.732406 
L 465.186 250.066166 
L 465.651 255.594062 
L 465.744 255.448042 
L 466.116 254.300743 
L 466.302 254.238162 
L 466.395 254.300743 
L 466.581 253.570643 
L 466.86 250.712825 
L 467.139 249.002306 
L 467.232 249.044026 
L 467.325 249.356926 
L 467.883 254.843102 
L 468.162 256.929101 
L 468.255 256.678781 
L 468.534 253.654083 
L 469.278 243.536991 
L 469.464 242.869471 
L 469.743 245.810729 
L 470.022 248.021887 
L 470.115 248.397367 
L 470.394 251.901844 
L 470.673 256.136421 
L 470.766 256.282441 
L 470.859 255.614921 
L 471.417 247.458668 
L 471.696 246.102769 
L 471.789 246.061048 
L 471.975 247.959307 
L 472.44 255.322881 
L 472.533 255.427181 
L 472.719 253.946122 
L 473.742 241.534432 
L 473.928 241.242392 
L 474.114 241.367552 
L 474.3 242.076791 
L 475.23 249.419506 
L 475.602 253.403763 
L 475.695 253.403763 
L 475.881 252.506784 
L 476.811 245.977609 
L 476.904 246.165348 
L 477.369 251.359485 
L 477.462 250.984005 
L 478.113 245.643848 
L 478.299 244.934609 
L 478.485 245.247509 
L 479.136 249.315206 
L 479.601 254.008703 
L 479.694 253.987843 
L 479.88 252.861403 
L 480.438 247.020608 
L 480.624 246.707708 
L 480.81 246.749428 
L 480.996 247.375228 
L 481.275 248.480807 
L 481.368 248.501667 
L 481.647 247.917587 
L 481.74 247.938447 
L 481.926 249.148326 
L 482.205 253.028284 
L 482.484 255.906961 
L 482.577 255.552342 
L 482.856 251.797544 
L 483.135 248.647687 
L 483.228 248.439087 
L 483.414 249.336066 
L 484.065 255.114282 
L 484.158 254.905682 
L 484.623 252.465064 
L 484.902 252.923984 
L 484.995 252.715384 
L 485.181 251.651524 
L 486.018 244.14193 
L 486.111 244.30881 
L 486.669 248.293067 
L 486.855 248.001027 
L 487.32 249.982725 
L 487.506 248.585107 
L 487.785 246.749428 
L 487.878 246.582548 
L 488.343 247.312647 
L 488.715 245.748148 
L 488.901 246.394809 
L 489.645 253.007424 
L 489.738 253.028284 
L 490.11 251.317765 
L 490.203 251.422065 
L 490.575 253.382903 
L 490.761 251.630665 
L 491.04 248.772847 
L 491.226 249.419506 
L 491.412 250.379065 
L 491.598 249.648966 
L 491.784 248.647687 
L 491.877 248.793706 
L 492.063 250.525085 
L 492.342 253.716663 
L 492.528 253.987843 
L 492.714 253.758383 
L 493.179 252.736244 
L 493.458 250.024446 
L 494.109 242.535711 
L 494.202 242.264531 
L 494.295 242.514851 
L 494.853 248.105327 
L 494.946 247.959307 
L 495.039 247.938447 
L 495.132 248.439087 
L 495.504 253.382903 
L 495.597 253.236883 
L 495.783 249.502946 
L 496.062 243.45355 
L 496.155 243.47441 
L 496.434 249.398646 
L 496.713 252.611084 
L 496.992 252.590224 
L 497.178 252.965703 
L 497.271 252.840544 
L 497.457 251.505505 
L 497.736 249.148326 
L 497.922 248.731126 
L 498.108 247.124907 
L 498.48 242.035072 
L 498.573 242.660871 
L 498.852 248.480807 
L 499.131 252.673664 
L 499.224 253.070003 
L 499.317 252.986563 
L 499.503 252.548504 
L 499.968 251.317765 
L 500.247 251.693244 
L 500.433 251.296905 
L 500.619 250.462505 
L 500.712 250.483365 
L 500.805 250.775405 
L 501.177 253.341183 
L 501.27 253.216024 
L 501.456 251.547225 
L 502.014 245.164069 
L 502.293 243.30753 
L 502.479 242.097651 
L 502.572 242.139372 
L 502.851 245.456109 
L 503.13 248.647687 
L 503.409 250.337346 
L 503.688 253.174303 
L 503.781 252.965703 
L 503.967 250.483365 
L 504.246 246.707708 
L 504.339 246.832868 
L 504.804 252.089584 
L 504.897 251.880984 
L 505.176 250.024446 
L 505.269 250.295625 
L 505.548 252.423344 
L 505.734 250.754545 
L 506.106 244.72601 
L 506.292 245.810729 
L 507.222 255.594062 
L 507.315 255.844381 
L 507.408 255.677502 
L 507.687 252.611084 
L 507.966 250.253906 
L 508.431 252.611084 
L 508.524 252.298184 
L 509.082 248.063607 
L 509.361 248.042747 
L 509.454 248.001027 
L 509.919 247.020608 
L 510.198 249.002306 
L 510.756 254.676222 
L 510.849 254.467622 
L 511.035 250.587665 
L 511.407 242.055932 
L 511.5 242.869471 
L 511.965 250.837985 
L 512.244 249.169187 
L 512.337 249.586386 
L 512.523 252.631944 
L 512.802 256.532761 
L 512.895 256.491041 
L 513.36 252.652803 
L 514.011 245.080629 
L 514.104 245.497829 
L 514.383 249.419506 
L 514.569 250.817125 
L 514.662 250.337346 
L 515.034 245.748148 
L 515.127 245.852448 
L 515.592 252.027004 
L 515.685 251.693244 
L 515.964 248.647687 
L 516.057 248.668547 
L 516.336 250.483365 
L 516.429 250.212185 
L 516.894 245.852448 
L 517.08 247.124907 
L 517.266 248.647687 
L 517.359 248.751987 
L 517.545 248.230487 
L 517.638 248.376507 
L 517.824 250.024446 
L 518.103 252.694524 
L 518.196 252.715384 
L 518.475 251.568084 
L 518.568 251.776684 
L 518.847 253.487203 
L 518.94 253.111724 
L 519.126 250.045306 
L 519.498 241.325832 
L 519.591 241.325832 
L 519.777 245.497829 
L 520.149 254.989122 
L 520.242 254.759662 
L 520.521 250.650245 
L 520.8 247.917587 
L 520.893 248.063607 
L 521.172 249.210906 
L 521.265 249.002306 
L 521.637 246.123628 
L 521.73 246.290509 
L 522.288 250.629385 
L 522.381 250.358206 
L 522.474 250.525085 
L 522.66 252.339904 
L 523.032 256.303301 
L 523.125 256.574481 
L 523.218 256.470181 
L 523.311 255.969542 
L 523.497 253.049143 
L 523.962 243.161511 
L 524.148 242.535711 
L 524.334 243.119791 
L 524.613 244.10021 
L 524.799 244.16279 
L 524.892 244.14193 
L 524.985 244.35053 
L 525.264 246.707708 
L 525.45 247.875867 
L 525.543 247.896727 
L 525.822 247.562967 
L 525.915 247.792427 
L 526.473 250.858845 
L 526.752 251.338625 
L 527.124 254.238162 
L 527.217 253.904403 
L 527.589 249.732406 
L 527.682 249.815846 
L 528.054 253.236883 
L 528.147 252.798824 
L 528.426 247.437807 
L 528.705 243.95419 
L 528.798 244.18365 
L 529.17 246.040188 
L 529.263 245.956748 
L 529.449 245.184929 
L 529.728 243.78731 
L 529.821 243.78731 
L 530.007 245.414389 
L 530.379 249.502946 
L 530.844 251.860124 
L 531.123 253.966983 
L 531.216 253.925263 
L 531.402 252.798824 
L 531.588 251.797544 
L 531.681 251.797544 
L 531.867 253.466343 
L 532.239 257.8678 
L 532.332 258.13898 
L 532.425 257.7635 
L 532.611 255.573202 
L 533.448 242.890331 
L 533.634 244.32967 
L 533.82 245.873309 
L 533.913 245.769009 
L 534.285 243.49527 
L 534.378 244.05849 
L 534.936 250.650245 
L 535.122 251.004865 
L 535.587 251.714105 
L 535.68 251.672384 
L 535.773 251.442925 
L 535.959 251.797544 
L 536.331 253.528923 
L 536.424 253.341183 
L 536.982 250.483365 
L 537.168 251.547225 
L 537.447 253.487203 
L 537.54 253.674943 
L 537.726 252.903124 
L 538.005 251.046585 
L 538.377 247.646407 
L 538.47 247.688128 
L 538.656 249.210906 
L 538.935 251.088305 
L 539.121 250.253906 
L 539.865 246.248788 
L 540.051 246.603408 
L 540.237 247.458668 
L 540.423 247.604687 
L 540.888 247.312647 
L 541.074 247.020608 
L 541.167 247.104048 
L 541.353 248.188767 
L 541.725 250.420785 
L 542.004 249.941006 
L 542.19 248.793706 
L 542.562 245.310089 
L 542.655 245.247509 
L 542.841 247.145768 
L 543.213 251.797544 
L 543.399 250.003585 
L 543.678 246.895448 
L 543.771 246.624268 
L 543.957 247.145768 
L 544.143 248.313927 
L 544.701 253.925263 
L 544.794 253.758383 
L 545.445 250.712825 
L 545.631 251.401205 
L 546.003 254.175583 
L 546.189 253.132583 
L 546.468 250.754545 
L 546.561 250.587665 
L 546.84 251.505505 
L 546.933 251.568084 
L 547.212 250.879705 
L 547.956 247.792427 
L 548.328 246.561688 
L 548.421 246.686848 
L 548.7 247.604687 
L 548.886 246.812008 
L 549.072 246.227928 
L 549.258 247.124907 
L 549.63 249.461226 
L 550.002 250.650245 
L 550.281 251.380344 
L 550.374 251.401205 
L 550.56 251.255185 
L 550.746 252.131304 
L 551.118 254.717942 
L 551.211 254.613642 
L 551.397 252.819684 
L 551.862 247.521247 
L 551.955 247.354368 
L 552.234 248.334787 
L 552.327 248.647687 
L 552.513 248.167907 
L 552.792 246.394809 
L 552.885 246.540828 
L 553.443 251.150885 
L 553.629 250.525085 
L 554.466 245.998469 
L 554.745 245.935888 
L 554.931 246.311368 
L 555.675 250.066166 
L 555.954 251.609805 
L 556.419 250.337346 
L 556.605 250.504225 
L 556.791 249.836706 
L 557.163 247.166628 
L 557.349 246.791148 
L 557.442 246.853728 
L 557.721 247.771567 
L 557.814 247.750707 
L 558.279 245.268369 
L 558.465 246.019329 
L 559.116 250.733685 
L 559.209 250.671105 
L 559.674 248.543387 
L 559.86 250.003585 
L 560.232 253.883543 
L 560.325 254.217303 
L 560.79 253.654083 
L 560.976 252.923984 
L 561.534 248.814566 
L 561.627 248.793706 
L 562.092 249.920146 
L 562.278 251.088305 
L 562.65 253.549783 
L 562.743 253.591503 
L 563.673 250.045306 
L 564.045 250.274765 
L 564.417 249.106606 
L 564.603 250.191325 
L 564.882 252.757103 
L 564.975 252.903124 
L 565.068 252.590224 
L 565.533 249.294346 
L 565.719 249.127466 
L 565.812 249.085746 
L 565.998 249.169187 
L 566.184 249.190046 
L 566.835 249.398646 
L 566.928 249.273486 
L 567.114 248.063607 
L 567.393 246.290509 
L 567.486 246.311368 
L 567.858 247.291788 
L 568.044 247.270928 
L 568.137 247.354368 
L 568.323 247.959307 
L 568.602 249.336066 
L 568.881 249.857566 
L 568.974 250.003585 
L 569.067 249.941006 
L 569.253 248.898006 
L 569.625 246.373948 
L 569.811 246.436528 
L 569.997 246.436528 
L 570.183 246.269648 
L 570.369 247.458668 
L 570.648 249.565526 
L 570.741 249.377786 
L 571.206 246.081909 
L 571.485 247.041468 
L 572.415 251.526365 
L 572.508 251.359485 
L 573.066 248.981446 
L 573.345 248.772847 
L 573.624 249.669826 
L 574.275 252.569364 
L 574.461 252.798824 
L 574.833 253.028284 
L 575.205 252.569364 
L 575.391 252.423344 
L 575.577 251.943564 
L 575.856 249.690686 
L 576.228 246.561688 
L 576.321 246.269648 
L 576.414 246.353088 
L 576.6 247.521247 
L 576.972 250.775405 
L 577.251 251.839265 
L 577.344 251.964424 
L 577.437 251.880984 
L 577.623 250.608525 
L 578.088 246.165348 
L 578.274 245.956748 
L 578.46 246.144488 
L 578.646 246.937168 
L 579.018 248.981446 
L 579.39 248.793706 
L 579.576 249.628106 
L 579.762 250.107885 
L 579.948 249.523806 
L 580.32 247.708987 
L 580.692 246.937168 
L 580.785 246.958028 
L 580.971 247.646407 
L 581.25 249.711546 
L 581.622 252.631944 
L 581.808 253.132583 
L 582.18 252.465064 
L 582.366 252.590224 
L 582.552 252.110444 
L 583.203 247.416947 
L 583.389 247.375228 
L 583.575 247.562967 
L 584.319 248.960587 
L 584.784 248.543387 
L 585.063 248.042747 
L 585.156 247.855007 
L 585.435 248.209627 
L 585.714 249.461226 
L 585.993 250.358206 
L 586.179 250.358206 
L 586.365 250.003585 
L 586.644 249.669826 
L 586.737 249.899285 
L 587.109 252.131304 
L 587.202 252.131304 
L 587.295 251.755824 
L 587.76 248.251347 
L 587.853 248.439087 
L 588.132 250.879705 
L 588.411 252.965703 
L 588.504 252.965703 
L 588.69 252.006144 
L 588.969 250.545946 
L 589.155 250.379065 
L 589.527 250.087025 
L 589.992 250.858845 
L 590.271 249.544666 
L 590.457 248.585107 
L 590.55 248.439087 
L 590.736 248.981446 
L 591.015 250.149606 
L 591.108 250.087025 
L 591.666 249.085746 
L 591.759 249.044026 
L 592.038 247.959307 
L 592.317 246.832868 
L 592.503 247.521247 
L 592.968 250.149606 
L 593.154 250.629385 
L 593.433 251.463784 
L 593.619 251.255185 
L 593.898 249.356926 
L 594.27 246.645128 
L 594.363 246.645128 
L 594.921 249.169187 
L 595.572 251.463784 
L 595.758 251.088305 
L 595.944 250.087025 
L 596.409 245.935888 
L 596.502 245.727289 
L 596.595 245.831589 
L 597.06 247.646407 
L 597.432 250.233046 
L 597.711 252.027004 
L 597.804 252.131304 
L 598.176 251.255185 
L 598.548 251.964424 
L 598.641 251.860124 
L 599.106 250.274765 
L 599.292 250.358206 
L 599.478 250.045306 
L 600.129 246.978888 
L 600.315 246.916308 
L 600.501 246.645128 
L 600.687 246.624268 
L 601.059 248.147047 
L 601.245 248.605966 
L 601.338 248.522527 
L 601.524 248.898006 
L 602.082 252.277324 
L 602.175 252.068724 
L 602.454 250.942285 
L 602.547 251.109165 
L 602.733 252.339904 
L 602.919 253.549783 
L 603.012 253.528923 
L 603.198 252.173024 
L 603.477 250.316485 
L 603.663 250.691965 
L 603.849 251.150885 
L 604.035 251.046585 
L 604.593 250.462505 
L 605.244 248.230487 
L 605.43 248.021887 
L 605.895 248.105327 
L 606.081 247.500388 
L 606.174 247.479528 
L 606.36 248.355647 
L 606.825 252.777964 
L 606.918 252.736244 
L 607.104 251.734965 
L 607.569 248.355647 
L 607.941 247.354368 
L 608.127 247.083188 
L 608.313 247.729847 
L 608.685 250.274765 
L 608.778 250.337346 
L 608.871 250.253906 
L 609.15 249.273486 
L 609.429 248.793706 
L 609.708 246.978888 
L 609.987 245.080629 
L 610.08 244.976329 
L 610.266 245.789869 
L 610.638 247.792427 
L 610.917 248.313927 
L 611.382 250.253906 
L 611.568 250.170466 
L 612.033 249.419506 
L 612.312 248.710266 
L 612.405 248.689407 
L 612.591 249.085746 
L 612.963 250.087025 
L 613.149 250.420785 
L 613.335 250.420785 
L 613.707 249.502946 
L 613.893 249.085746 
L 614.079 249.565526 
L 614.358 250.566805 
L 614.544 250.358206 
L 615.009 248.939726 
L 615.102 248.856287 
L 615.288 249.085746 
L 615.474 249.127466 
L 615.567 248.960587 
L 615.846 249.252626 
L 616.497 250.817125 
L 616.962 249.586386 
L 617.241 248.793706 
L 617.427 248.689407 
L 617.613 249.044026 
L 617.892 250.233046 
L 618.45 252.381624 
L 618.636 252.611084 
L 618.822 252.423344 
L 619.101 251.547225 
L 619.566 249.440366 
L 619.752 249.398646 
L 620.031 250.212185 
L 620.403 251.547225 
L 620.496 251.672384 
L 620.775 251.213465 
L 620.961 250.545946 
L 621.426 248.334787 
L 621.612 248.251347 
L 621.705 248.293067 
L 622.077 249.106606 
L 622.356 249.648966 
L 622.635 250.420785 
L 622.821 250.212185 
L 623.565 247.667267 
L 624.123 245.956748 
L 624.309 245.894169 
L 624.495 245.622989 
L 624.681 245.727289 
L 625.146 247.104048 
L 625.518 247.625547 
L 626.355 250.525085 
L 626.634 250.045306 
L 626.913 249.669826 
L 627.285 249.961866 
L 627.843 249.210906 
L 627.936 249.294346 
L 628.029 249.377786 
L 628.959 251.755824 
L 629.982 249.586386 
L 630.075 249.690686 
L 630.168 249.878426 
L 630.54 251.359485 
L 630.726 251.317765 
L 631.098 250.128746 
L 631.563 250.379065 
L 632.028 249.878426 
L 632.4 249.607246 
L 633.051 246.832868 
L 633.609 248.313927 
L 633.795 248.459947 
L 633.981 248.835426 
L 634.167 249.252626 
L 634.353 249.273486 
L 634.446 249.273486 
L 635.376 250.566805 
L 635.469 250.545946 
L 635.841 250.879705 
L 635.934 250.837985 
L 636.492 249.252626 
L 636.864 247.917587 
L 636.957 247.917587 
L 637.515 249.440366 
L 637.887 248.960587 
L 638.073 249.190046 
L 638.352 249.815846 
L 638.538 249.711546 
L 638.817 249.377786 
L 639.189 250.274765 
L 640.026 251.880984 
L 640.212 251.442925 
L 640.956 248.731126 
L 641.142 249.294346 
L 641.514 250.837985 
L 641.7 250.629385 
L 641.886 250.149606 
L 642.258 249.565526 
L 642.816 248.188767 
L 642.909 248.251347 
L 643.095 247.959307 
L 643.56 246.227928 
L 643.746 246.102769 
L 644.397 247.708987 
L 644.583 248.188767 
L 644.862 249.669826 
L 645.141 250.796265 
L 645.234 250.837985 
L 646.257 248.564247 
L 646.443 248.605966 
L 646.908 248.251347 
L 647.466 249.565526 
L 647.559 249.502946 
L 647.931 249.356926 
L 648.396 250.337346 
L 648.489 250.295625 
L 648.768 249.753266 
L 649.047 250.149606 
L 649.326 251.067445 
L 649.605 251.317765 
L 649.791 250.858845 
L 650.07 250.191325 
L 650.535 250.379065 
L 650.814 250.525085 
L 651.465 251.130025 
L 651.837 250.879705 
L 652.302 250.754545 
L 652.674 250.233046 
L 652.86 249.878426 
L 653.511 248.522527 
L 653.697 248.585107 
L 653.883 248.939726 
L 654.069 249.044026 
L 654.441 249.064887 
L 654.906 249.085746 
L 655.371 248.668547 
L 655.743 249.398646 
L 656.208 250.233046 
L 656.487 250.337346 
L 656.859 249.857566 
L 657.045 249.941006 
L 657.417 249.544666 
L 657.696 248.877147 
L 657.789 248.731126 
L 657.975 249.023166 
L 658.626 250.963145 
L 658.812 250.587665 
L 658.998 249.878426 
L 659.463 248.293067 
L 659.835 247.458668 
L 660.021 246.853728 
L 660.114 246.916308 
L 660.207 246.895448 
L 660.486 247.834147 
L 660.765 248.751987 
L 661.044 248.835426 
L 661.416 248.564247 
L 661.695 248.126187 
L 661.788 248.063607 
L 662.16 248.585107 
L 662.439 249.106606 
L 662.625 249.169187 
L 663.09 248.355647 
L 663.276 247.834147 
L 663.834 247.667267 
L 664.113 247.875867 
L 664.764 249.753266 
L 665.043 250.796265 
L 665.229 250.942285 
L 665.322 250.858845 
L 665.601 251.150885 
L 666.066 252.298184 
L 666.252 252.173024 
L 666.438 251.922704 
L 666.717 251.025725 
L 666.996 250.358206 
L 667.182 250.629385 
L 667.554 252.047864 
L 667.74 252.360764 
L 668.019 251.964424 
L 668.763 249.169187 
L 669.228 249.210906 
L 669.414 248.877147 
L 669.693 248.480807 
L 669.786 248.439087 
L 669.972 248.543387 
L 670.437 248.126187 
L 671.088 248.960587 
L 671.646 248.251347 
L 671.739 248.313927 
L 672.297 247.250068 
L 672.483 246.999748 
L 672.669 247.124907 
L 672.948 247.437807 
L 673.32 248.334787 
L 673.599 248.981446 
L 673.878 249.085746 
L 674.157 248.877147 
L 674.436 249.857566 
L 674.901 251.776684 
L 675.273 252.110444 
L 675.459 252.006144 
L 675.645 251.818404 
L 676.11 252.110444 
L 676.575 251.651524 
L 676.947 251.651524 
L 677.133 251.004865 
L 677.877 248.313927 
L 678.063 248.439087 
L 678.714 250.337346 
L 678.9 250.087025 
L 679.272 249.377786 
L 679.458 249.482086 
L 679.923 250.087025 
L 680.202 250.691965 
L 680.388 250.566805 
L 680.667 249.982725 
L 680.853 250.128746 
L 681.132 250.629385 
L 681.318 250.420785 
L 681.69 249.106606 
L 681.783 249.044026 
L 682.155 249.377786 
L 682.434 248.960587 
L 682.62 248.960587 
L 682.992 249.628106 
L 683.364 249.085746 
L 683.55 248.710266 
L 684.108 248.042747 
L 684.201 248.126187 
L 684.387 248.710266 
L 684.852 250.566805 
L 685.038 250.796265 
L 685.317 250.253906 
L 685.689 249.190046 
L 686.061 248.814566 
L 686.619 247.938447 
L 687.27 246.353088 
L 687.363 246.290509 
L 687.549 246.645128 
L 687.921 248.063607 
L 688.293 248.001027 
L 688.479 248.313927 
L 688.944 249.085746 
L 689.037 249.085746 
L 689.595 250.191325 
L 689.874 250.066166 
L 690.339 249.544666 
L 690.525 249.586386 
L 690.804 249.544666 
L 691.083 249.315206 
L 691.269 249.482086 
L 691.641 249.815846 
L 692.106 249.252626 
L 692.571 248.585107 
L 692.943 248.731126 
L 693.129 248.605966 
L 693.501 248.480807 
L 693.966 248.480807 
L 694.338 247.896727 
L 694.803 247.980167 
L 695.268 248.898006 
L 695.919 250.733685 
L 696.105 250.712825 
L 696.198 250.733685 
L 696.477 251.526365 
L 696.663 251.672384 
L 697.221 251.380344 
L 697.314 251.380344 
L 698.058 250.087025 
L 698.523 248.689407 
L 698.709 248.918866 
L 698.988 249.523806 
L 699.081 249.648966 
L 699.36 249.273486 
L 699.639 248.877147 
L 699.825 248.939726 
L 700.011 248.981446 
L 700.29 249.482086 
L 700.755 251.317765 
L 701.034 251.755824 
L 701.592 251.463784 
L 701.964 250.462505 
L 702.429 248.751987 
L 702.522 248.731126 
L 703.173 249.711546 
L 703.452 250.170466 
L 703.545 250.233046 
L 703.731 250.149606 
L 704.475 250.379065 
L 704.754 250.379065 
L 704.94 250.253906 
L 705.033 250.253906 
L 705.312 249.899285 
L 705.591 249.961866 
L 705.777 250.170466 
L 706.056 250.170466 
L 706.335 249.815846 
L 706.614 249.836706 
L 707.172 248.856287 
L 707.265 248.835426 
L 707.451 248.647687 
L 708.195 248.585107 
L 708.288 248.626826 
L 708.474 248.856287 
L 708.66 248.981446 
L 708.939 248.501667 
L 709.125 248.710266 
L 709.218 248.668547 
L 709.311 248.751987 
L 709.497 248.522527 
L 709.683 248.334787 
L 709.962 249.085746 
L 710.241 250.253906 
L 710.52 250.629385 
L 710.706 250.504225 
L 710.892 250.316485 
L 711.171 249.044026 
L 711.543 247.562967 
L 711.822 247.875867 
L 712.008 248.251347 
L 712.101 248.209627 
L 712.938 249.315206 
L 713.217 249.690686 
L 714.519 251.547225 
L 714.705 251.338625 
L 714.891 251.109165 
L 715.263 249.794985 
L 715.635 248.397367 
L 715.821 248.209627 
L 716.007 248.376507 
L 716.751 246.791148 
L 716.937 246.937168 
L 717.96 249.231766 
L 718.053 249.169187 
L 718.146 249.148326 
L 718.425 248.710266 
L 718.611 248.751987 
L 719.076 249.336066 
L 719.355 249.482086 
L 719.727 249.085746 
L 720.006 248.418227 
L 720.285 248.188767 
L 720.657 248.397367 
L 721.494 249.544666 
L 721.773 249.690686 
L 721.959 250.045306 
L 722.052 249.982725 
L 722.331 250.045306 
L 722.517 249.794985 
L 722.61 249.836706 
L 722.889 249.586386 
L 723.261 249.920146 
L 723.447 249.878426 
L 723.819 249.294346 
L 723.912 249.294346 
L 724.47 250.587665 
L 724.563 250.483365 
L 725.307 251.025725 
L 725.4 250.984005 
L 725.865 251.860124 
L 725.958 251.922704 
L 726.144 251.797544 
L 726.237 251.755824 
L 726.702 250.775405 
L 726.888 250.337346 
L 727.353 249.961866 
L 727.539 250.191325 
L 727.911 251.651524 
L 728.097 252.089584 
L 728.19 251.985284 
L 728.562 251.755824 
L 728.841 251.025725 
L 729.585 247.583828 
L 729.864 246.853728 
L 730.236 246.624268 
L 730.422 246.853728 
L 731.073 248.147047 
L 731.166 248.126187 
L 731.538 248.543387 
L 731.631 248.605966 
L 731.817 248.501667 
L 732.096 248.793706 
L 732.561 249.315206 
L 732.84 249.482086 
L 733.212 249.732406 
L 733.305 249.774126 
L 733.956 248.772847 
L 734.142 248.835426 
L 734.235 248.772847 
L 734.421 249.085746 
L 734.979 250.608525 
L 735.165 250.212185 
L 735.816 248.918866 
L 736.095 248.751987 
L 736.188 248.626826 
L 736.56 249.085746 
L 736.932 249.669826 
L 737.397 249.586386 
L 737.583 249.315206 
L 737.955 248.376507 
L 738.141 248.251347 
L 738.606 248.918866 
L 738.885 249.377786 
L 739.536 249.753266 
L 740.001 250.316485 
L 740.187 250.608525 
L 740.559 250.733685 
L 740.652 250.629385 
L 740.745 250.837985 
L 740.838 250.775405 
L 741.21 250.587665 
L 741.396 250.233046 
L 741.582 250.316485 
L 741.768 250.274765 
L 741.954 250.379065 
L 742.14 250.462505 
L 742.326 250.733685 
L 742.419 250.754545 
L 742.605 250.921425 
L 742.698 250.921425 
L 742.791 250.754545 
L 742.884 250.858845 
L 743.349 250.337346 
L 743.628 249.190046 
L 743.721 249.085746 
L 743.907 248.585107 
L 744.093 248.668547 
L 744.279 248.939726 
L 744.558 249.482086 
L 744.744 249.628106 
L 745.209 249.461226 
L 745.674 248.793706 
L 745.767 248.814566 
L 745.953 249.064887 
L 746.139 249.064887 
L 746.325 248.898006 
L 746.511 248.710266 
L 746.697 248.543387 
L 747.069 248.105327 
L 747.813 248.647687 
L 748.464 248.084467 
L 748.557 248.084467 
L 748.929 248.793706 
L 749.301 249.982725 
L 749.58 250.358206 
L 749.766 250.358206 
L 749.952 250.483365 
L 750.324 250.212185 
L 750.51 249.836706 
L 750.696 249.815846 
L 750.789 249.836706 
L 751.347 250.858845 
L 751.626 250.712825 
L 751.812 250.629385 
L 752.277 249.565526 
L 752.649 248.230487 
L 753.393 247.729847 
L 753.765 248.585107 
L 754.23 249.169187 
L 754.602 250.274765 
L 754.974 250.754545 
L 755.16 250.879705 
L 755.811 250.399925 
L 756.276 250.650245 
L 756.741 250.024446 
L 757.02 249.690686 
L 757.113 249.732406 
L 757.392 249.607246 
L 757.578 249.586386 
L 758.043 249.461226 
L 758.229 249.648966 
L 758.973 250.399925 
L 759.903 250.212185 
L 760.275 250.462505 
L 761.019 249.231766 
L 761.391 249.044026 
L 761.856 248.021887 
L 762.135 247.834147 
L 762.228 247.813287 
L 762.507 248.105327 
L 762.786 248.251347 
L 762.879 248.063607 
L 763.809 248.918866 
L 763.902 248.793706 
L 764.088 248.856287 
L 765.018 248.313927 
L 765.297 248.605966 
L 765.483 248.793706 
L 765.669 249.023166 
L 765.948 249.190046 
L 766.134 249.210906 
L 766.32 249.356926 
L 766.878 248.960587 
L 766.971 249.002306 
L 767.622 250.087025 
L 767.808 250.149606 
L 768.366 249.419506 
L 768.831 248.564247 
L 769.296 248.772847 
L 769.575 249.148326 
L 769.761 249.336066 
L 769.947 249.377786 
L 770.133 249.523806 
L 770.319 249.628106 
L 770.505 249.669826 
L 770.691 249.857566 
L 770.877 249.920146 
L 771.063 249.857566 
L 771.435 250.107885 
L 771.528 250.087025 
L 771.993 250.483365 
L 772.551 250.504225 
L 772.83 250.337346 
L 773.016 250.274765 
L 773.202 250.024446 
L 773.667 249.398646 
L 773.853 249.502946 
L 774.132 249.669826 
L 774.411 249.732406 
L 774.597 249.648966 
L 774.783 249.419506 
L 774.876 249.419506 
L 775.062 249.252626 
L 775.341 249.169187 
L 775.527 248.981446 
L 776.085 248.793706 
L 776.364 249.315206 
L 776.643 249.440366 
L 776.922 249.794985 
L 777.201 249.920146 
L 777.294 249.794985 
L 777.387 249.920146 
L 777.666 249.753266 
L 777.945 249.732406 
L 778.317 250.316485 
L 778.41 250.274765 
L 778.503 250.379065 
L 779.619 249.294346 
L 781.107 249.064887 
L 781.758 249.586386 
L 781.944 249.711546 
L 782.13 249.753266 
L 782.316 249.544666 
L 782.781 249.273486 
L 783.06 248.960587 
L 783.246 248.793706 
L 783.804 249.106606 
L 783.897 249.044026 
L 784.362 249.398646 
L 784.641 249.231766 
L 784.827 249.169187 
L 785.385 250.233046 
L 786.129 251.776684 
L 786.315 251.693244 
L 786.594 251.547225 
L 786.78 251.484644 
L 786.966 251.171745 
L 787.617 249.502946 
L 787.896 249.565526 
L 788.361 249.377786 
L 788.64 249.607246 
L 789.384 249.190046 
L 789.477 249.210906 
L 789.942 248.710266 
L 790.593 248.626826 
L 790.779 248.543387 
L 790.965 248.480807 
L 791.523 248.376507 
L 791.616 248.501667 
L 791.709 248.418227 
L 792.639 249.794985 
L 793.197 249.711546 
L 793.383 249.565526 
L 793.569 249.294346 
L 794.034 248.981446 
L 794.406 249.315206 
L 794.499 249.294346 
L 794.685 249.544666 
L 794.871 249.482086 
L 794.964 249.690686 
L 795.057 249.628106 
L 795.336 249.544666 
L 795.429 249.774126 
L 795.522 249.732406 
L 795.615 249.732406 
L 795.801 249.565526 
L 796.08 249.419506 
L 796.266 249.753266 
L 796.359 249.523806 
L 796.452 249.648966 
L 797.289 249.023166 
L 797.382 249.273486 
L 797.568 249.023166 
L 797.754 249.440366 
L 797.94 248.960587 
L 798.033 249.044026 
L 798.219 249.169187 
L 798.405 248.856287 
L 798.87 249.231766 
L 798.963 249.294346 
L 799.149 249.648966 
L 799.335 249.482086 
L 799.707 250.191325 
L 799.986 250.629385 
L 800.172 250.462505 
L 800.358 250.566805 
L 800.451 250.796265 
L 800.637 250.253906 
L 800.916 250.316485 
L 801.009 250.045306 
L 801.102 250.107885 
L 801.195 250.191325 
L 801.381 249.815846 
L 801.474 249.523806 
L 801.567 249.586386 
L 802.125 249.398646 
L 802.404 248.814566 
L 802.497 248.647687 
L 802.683 248.835426 
L 802.869 248.439087 
L 802.962 248.397367 
L 803.055 248.605966 
L 803.148 248.188767 
L 803.427 248.605966 
L 803.613 248.647687 
L 803.706 249.064887 
L 803.799 248.647687 
L 803.892 248.751987 
L 803.985 248.668547 
L 804.171 249.002306 
L 804.264 248.751987 
L 804.357 249.064887 
L 804.636 248.731126 
L 806.496 250.691965 
L 806.682 250.525085 
L 806.868 250.379065 
L 807.147 250.128746 
L 807.24 250.149606 
L 807.519 249.753266 
L 807.612 249.774126 
L 807.984 249.106606 
L 808.077 249.190046 
L 808.263 249.064887 
L 808.356 249.127466 
L 808.449 249.044026 
L 808.728 249.648966 
L 808.821 249.565526 
L 808.914 249.419506 
L 809.007 249.586386 
L 809.1 249.502946 
L 809.286 249.523806 
L 809.565 249.377786 
L 809.844 249.231766 
L 810.123 249.064887 
L 810.216 249.085746 
L 810.774 248.397367 
L 810.867 248.459947 
L 810.96 248.334787 
L 811.146 248.355647 
L 811.611 248.564247 
L 811.704 248.814566 
L 811.797 248.772847 
L 812.169 248.626826 
L 812.634 248.856287 
L 812.82 248.898006 
L 813.006 249.148326 
L 813.099 249.273486 
L 813.471 250.253906 
L 813.657 250.712825 
L 813.75 250.545946 
L 813.936 250.921425 
L 814.215 250.817125 
L 814.401 250.837985 
L 815.331 249.711546 
L 815.517 249.502946 
L 815.61 249.482086 
L 816.168 250.107885 
L 816.261 250.066166 
L 816.447 250.128746 
L 816.726 250.003585 
L 817.005 249.669826 
L 817.284 249.273486 
L 817.749 249.336066 
L 818.028 249.502946 
L 818.214 249.502946 
L 818.586 249.356926 
L 818.679 249.419506 
L 818.772 249.315206 
L 818.865 249.419506 
L 819.144 249.106606 
L 819.237 249.127466 
L 820.074 248.313927 
L 820.353 248.272207 
L 821.283 248.772847 
L 822.12 249.252626 
L 822.678 250.045306 
L 822.957 250.274765 
L 823.236 250.191325 
L 823.515 250.337346 
L 823.98 250.441646 
L 824.538 250.650245 
L 824.631 250.733685 
L 824.91 250.629385 
L 825.096 250.608525 
L 825.468 250.399925 
L 825.84 249.941006 
L 826.026 249.982725 
L 826.491 250.525085 
L 826.584 250.545946 
L 826.77 250.754545 
L 827.049 250.671105 
L 827.142 250.754545 
L 827.7 250.107885 
L 829.374 247.521247 
L 829.56 247.542107 
L 829.746 247.500388 
L 830.025 247.542107 
L 830.676 248.480807 
L 830.862 248.585107 
L 831.42 248.960587 
L 831.699 249.002306 
L 832.164 249.148326 
L 832.629 249.523806 
L 832.908 249.690686 
L 833.466 250.170466 
L 833.931 249.836706 
L 834.489 248.898006 
L 834.675 248.898006 
L 835.233 249.878426 
L 835.791 249.961866 
L 836.163 250.087025 
L 836.442 250.066166 
L 836.628 250.024446 
L 837.093 250.525085 
L 837.093 250.525085 
" clip-path="url(#pdba103097c)" style="fill: none; stroke: #1f77b4; stroke-width: 1.5; stroke-linecap: square"/>
   </g>
  </g>
 </g>
 <defs>
  <clipPath id="pdba103097c">
   <rect x="0" y="-0" width="837" height="498.96"/>
  </clipPath>
 </defs>
</svg>
