<?xml version="1.0" encoding="utf-8" standalone="no"?>
<!DOCTYPE svg PUBLIC "-//W3C//DTD SVG 1.1//EN"
  "http://www.w3.org/Graphics/SVG/1.1/DTD/svg11.dtd">
<svg xmlns:xlink="http://www.w3.org/1999/xlink" width="837pt" height="498.96pt" viewBox="0 0 837 498.96" xmlns="http://www.w3.org/2000/svg" version="1.1">
 <metadata>
  <rdf:RDF xmlns:dc="http://purl.org/dc/elements/1.1/" xmlns:cc="http://creativecommons.org/ns#" xmlns:rdf="http://www.w3.org/1999/02/22-rdf-syntax-ns#">
   <cc:Work>
    <dc:type rdf:resource="http://purl.org/dc/dcmitype/StillImage"/>
    <dc:date>2023-06-07T14:14:51.246193</dc:date>
    <dc:format>image/svg+xml</dc:format>
    <dc:creator>
     <cc:Agent>
      <dc:title>Matplotlib v3.7.0, https://matplotlib.org/</dc:title>
     </cc:Agent>
    </dc:creator>
   </cc:Work>
  </rdf:RDF>
 </metadata>
 <defs>
  <style type="text/css">*{stroke-linejoin: round; stroke-linecap: butt}</style>
 </defs>
 <g id="figure_1">
  <g id="patch_1">
   <path d="M 0 498.96 
L 837 498.96 
L 837 -0 
L 0 -0 
z
" style="fill: #ffffff"/>
  </g>
  <g id="axes_1">
   <g id="patch_2">
    <path d="M 0 498.96 
L 837 498.96 
L 837 -0 
L 0 -0 
z
" style="fill: #ffffff"/>
   </g>
   <g id="matplotlib.axis_1"/>
   <g id="matplotlib.axis_2"/>
   <g id="line2d_1">
    <path d="M -0.093 249.420549 
L 0 249.32668 
L 0.186 249.483129 
L 2.325 249.389259 
L 2.511 249.389259 
L 2.79 249.420549 
L 2.883 249.514419 
L 3.069 249.451839 
L 3.255 249.483129 
L 3.534 249.608289 
L 3.906 249.483129 
L 4.929 249.483129 
L 5.022 249.639578 
L 5.208 249.451839 
L 5.394 249.483129 
L 5.487 249.514419 
L 5.58 249.420549 
L 5.673 249.608289 
L 5.766 249.420549 
L 5.859 249.576999 
L 5.952 249.389259 
L 6.138 249.420549 
L 6.696 249.576999 
L 6.882 249.357969 
L 6.975 249.545709 
L 7.161 249.483129 
L 7.347 249.608289 
L 7.533 249.483129 
L 7.626 249.514419 
L 7.719 249.389259 
L 8.091 249.576999 
L 8.649 249.483129 
L 9.021 249.451839 
L 9.207 249.702159 
L 9.858 249.389259 
L 9.951 249.357969 
L 10.137 249.483129 
L 10.23 249.420549 
L 10.416 249.576999 
L 10.788 249.420549 
L 10.881 249.295389 
L 11.067 249.545709 
L 11.346 249.420549 
L 11.439 249.514419 
L 11.532 249.357969 
L 11.625 249.576999 
L 11.718 249.514419 
L 12.462 249.483129 
L 12.555 249.357969 
L 12.927 249.483129 
L 13.02 249.420549 
L 13.206 249.483129 
L 13.299 249.514419 
L 13.485 249.420549 
L 13.578 249.451839 
L 13.671 249.357969 
L 13.857 249.514419 
L 14.043 249.451839 
L 14.229 249.483129 
L 15.066 249.420549 
L 15.159 249.357969 
L 15.438 249.483129 
L 15.531 249.389259 
L 15.717 249.545709 
L 15.903 249.483129 
L 16.926 249.420549 
L 17.019 249.32668 
L 17.205 249.451839 
L 17.484 249.576999 
L 17.67 249.420549 
L 17.949 249.608289 
L 18.042 249.420549 
L 18.228 249.514419 
L 18.507 249.32668 
L 19.344 249.389259 
L 19.437 249.545709 
L 19.716 249.420549 
L 21.204 249.451839 
L 21.297 249.608289 
L 21.483 249.389259 
L 21.948 249.514419 
L 22.227 249.389259 
L 22.32 249.420549 
L 22.413 249.639578 
L 22.506 249.483129 
L 22.599 249.608289 
L 22.785 249.545709 
L 23.064 249.545709 
L 23.343 249.32668 
L 23.529 249.357969 
L 23.715 249.451839 
L 23.901 249.545709 
L 23.994 249.514419 
L 24.087 249.639578 
L 24.273 249.451839 
L 24.645 249.483129 
L 24.738 249.639578 
L 24.831 249.514419 
L 25.017 249.545709 
L 25.296 249.32668 
L 25.482 249.514419 
L 25.575 249.576999 
L 25.668 249.451839 
L 25.761 249.514419 
L 25.947 249.420549 
L 26.226 249.545709 
L 26.412 249.420549 
L 26.877 249.483129 
L 27.156 249.483129 
L 27.249 249.576999 
L 27.435 249.451839 
L 27.621 249.451839 
L 27.807 249.451839 
L 28.644 249.514419 
L 28.83 249.608289 
L 29.016 249.451839 
L 29.574 249.483129 
L 29.76 249.514419 
L 30.318 249.389259 
L 30.411 249.483129 
L 30.504 249.389259 
L 30.69 249.608289 
L 31.434 249.451839 
L 32.085 249.389259 
L 32.271 249.545709 
L 32.457 249.483129 
L 32.55 249.639578 
L 32.736 249.357969 
L 33.015 249.451839 
L 33.108 249.420549 
L 33.201 249.545709 
L 33.294 249.389259 
L 33.759 249.639578 
L 34.317 249.357969 
L 34.503 249.420549 
L 34.596 249.389259 
L 34.689 249.576999 
L 34.782 249.420549 
L 34.968 249.451839 
L 35.247 249.32668 
L 35.34 249.545709 
L 35.433 249.420549 
L 35.619 249.576999 
L 35.991 249.639578 
L 36.177 249.451839 
L 36.363 249.451839 
L 36.456 249.389259 
L 36.642 249.514419 
L 36.828 249.451839 
L 37.107 249.357969 
L 37.293 249.545709 
L 37.572 249.420549 
L 37.851 249.357969 
L 38.502 249.483129 
L 39.153 249.420549 
L 39.246 249.32668 
L 39.339 249.514419 
L 39.432 249.389259 
L 39.804 249.670869 
L 39.897 249.451839 
L 39.99 249.545709 
L 40.269 249.420549 
L 40.92 249.545709 
L 41.013 249.545709 
L 41.106 249.357969 
L 41.385 249.420549 
L 41.571 249.451839 
L 41.664 249.639578 
L 41.757 249.389259 
L 41.85 249.451839 
L 41.943 249.576999 
L 42.129 249.545709 
L 42.501 249.545709 
L 42.687 249.451839 
L 43.059 249.545709 
L 43.338 249.545709 
L 43.71 249.514419 
L 43.989 249.608289 
L 44.268 249.483129 
L 44.361 249.451839 
L 44.454 249.576999 
L 44.919 249.357969 
L 45.384 249.545709 
L 46.035 249.420549 
L 46.221 249.451839 
L 46.407 249.420549 
L 46.779 249.514419 
L 46.965 249.545709 
L 47.337 249.483129 
L 47.616 249.389259 
L 48.267 249.514419 
L 48.732 249.420549 
L 49.011 249.514419 
L 49.197 249.357969 
L 49.755 249.483129 
L 50.127 249.451839 
L 50.592 249.576999 
L 50.964 249.32668 
L 51.429 249.514419 
L 51.615 249.514419 
L 51.894 249.451839 
L 51.987 249.420549 
L 52.173 249.451839 
L 52.266 249.483129 
L 52.359 249.357969 
L 52.545 249.483129 
L 52.731 249.420549 
L 52.824 249.451839 
L 53.01 249.608289 
L 53.661 249.32668 
L 53.754 249.483129 
L 53.847 249.420549 
L 54.033 249.608289 
L 54.312 249.420549 
L 54.405 249.545709 
L 54.591 249.420549 
L 54.87 249.483129 
L 54.963 249.451839 
L 55.149 249.483129 
L 55.335 249.514419 
L 55.521 249.389259 
L 55.614 249.545709 
L 55.8 249.451839 
L 55.893 249.545709 
L 55.986 249.389259 
L 56.079 249.483129 
L 56.172 249.389259 
L 56.265 249.545709 
L 56.451 249.420549 
L 56.544 249.545709 
L 56.637 249.357969 
L 56.73 249.451839 
L 56.823 249.357969 
L 56.916 249.576999 
L 57.009 249.514419 
L 57.288 249.451839 
L 57.567 249.357969 
L 57.66 249.357969 
L 57.846 249.451839 
L 58.125 249.514419 
L 58.59 249.32668 
L 58.776 249.420549 
L 59.334 249.545709 
L 59.892 249.451839 
L 60.078 249.576999 
L 60.171 249.420549 
L 60.357 249.420549 
L 60.822 249.514419 
L 61.008 249.514419 
L 61.194 249.389259 
L 61.38 249.389259 
L 61.659 249.514419 
L 61.845 249.420549 
L 62.217 249.451839 
L 62.961 249.451839 
L 63.054 249.576999 
L 63.24 249.514419 
L 63.519 249.576999 
L 63.705 249.545709 
L 63.891 249.514419 
L 64.356 249.483129 
L 64.449 249.389259 
L 64.728 249.545709 
L 64.821 249.420549 
L 65.007 249.451839 
L 65.1 249.451839 
L 65.193 249.576999 
L 65.286 249.389259 
L 65.379 249.545709 
L 65.565 249.483129 
L 65.658 249.576999 
L 65.751 249.420549 
L 65.844 249.514419 
L 65.937 249.389259 
L 66.309 249.608289 
L 66.402 249.483129 
L 66.495 249.639578 
L 66.588 249.514419 
L 66.681 249.576999 
L 66.774 249.483129 
L 66.96 249.545709 
L 67.332 249.576999 
L 67.425 249.420549 
L 67.518 249.576999 
L 67.704 249.451839 
L 67.89 249.357969 
L 67.983 249.514419 
L 68.076 249.451839 
L 68.169 249.545709 
L 68.262 249.451839 
L 68.355 249.608289 
L 68.727 249.483129 
L 68.82 249.514419 
L 68.913 249.357969 
L 69.099 249.451839 
L 69.657 249.357969 
L 70.773 249.639578 
L 71.145 249.514419 
L 71.796 249.389259 
L 71.982 249.420549 
L 72.261 249.451839 
L 72.354 249.608289 
L 72.54 249.514419 
L 73.098 249.451839 
L 73.284 249.357969 
L 73.47 249.451839 
L 73.656 249.389259 
L 73.749 249.545709 
L 73.842 249.389259 
L 74.121 249.576999 
L 74.214 249.420549 
L 74.679 249.608289 
L 75.237 249.32668 
L 75.981 249.576999 
L 76.074 249.389259 
L 76.167 249.608289 
L 76.26 249.483129 
L 76.446 249.639578 
L 76.539 249.545709 
L 76.632 249.796028 
L 76.911 249.451839 
L 77.097 249.295389 
L 77.376 249.201519 
L 77.562 249.389259 
L 77.934 249.357969 
L 78.12 249.576999 
L 78.771 249.514419 
L 78.864 249.32668 
L 78.957 249.420549 
L 79.143 249.389259 
L 79.422 249.514419 
L 79.515 249.420549 
L 79.794 249.639578 
L 79.887 249.483129 
L 79.98 249.576999 
L 80.073 249.451839 
L 80.445 249.608289 
L 80.538 249.483129 
L 80.631 249.639578 
L 80.724 249.514419 
L 80.817 249.576999 
L 81.003 249.451839 
L 81.282 249.576999 
L 81.654 249.357969 
L 81.747 249.451839 
L 81.84 249.32668 
L 82.026 249.451839 
L 82.305 249.451839 
L 82.677 249.514419 
L 82.77 249.670869 
L 82.863 249.514419 
L 83.049 249.576999 
L 83.328 249.420549 
L 83.421 249.483129 
L 83.514 249.32668 
L 83.7 249.389259 
L 84.258 249.576999 
L 84.351 249.389259 
L 84.537 249.420549 
L 84.723 249.483129 
L 84.816 249.389259 
L 84.909 249.483129 
L 85.095 249.389259 
L 85.374 249.451839 
L 85.467 249.357969 
L 85.653 249.451839 
L 85.839 249.545709 
L 85.932 249.357969 
L 86.118 249.420549 
L 86.211 249.451839 
L 86.397 249.389259 
L 86.583 249.483129 
L 87.327 249.483129 
L 87.513 249.608289 
L 87.606 249.514419 
L 87.699 249.608289 
L 87.978 249.295389 
L 88.257 249.32668 
L 88.443 249.514419 
L 88.722 249.420549 
L 88.815 249.232809 
L 89.094 249.514419 
L 89.28 249.576999 
L 89.373 249.639578 
L 89.466 249.514419 
L 89.559 249.702159 
L 89.745 249.451839 
L 90.117 249.295389 
L 90.303 249.545709 
L 90.675 249.483129 
L 91.047 249.32668 
L 91.419 249.639578 
L 91.605 249.420549 
L 92.721 249.483129 
L 92.814 249.639578 
L 93 249.639578 
L 93.186 249.639578 
L 93.279 249.514419 
L 93.372 249.670869 
L 93.465 249.420549 
L 93.558 249.545709 
L 93.651 249.420549 
L 93.744 249.545709 
L 93.93 249.32668 
L 94.023 249.576999 
L 94.116 249.264099 
L 94.209 249.451839 
L 94.302 249.232809 
L 94.488 249.357969 
L 94.86 249.451839 
L 94.953 249.389259 
L 95.232 249.639578 
L 95.418 249.639578 
L 95.697 249.796028 
L 96.627 249.264099 
L 96.999 249.483129 
L 97.371 249.451839 
L 97.836 249.608289 
L 98.115 249.483129 
L 98.58 249.702159 
L 98.673 249.670869 
L 98.859 249.32668 
L 99.231 249.576999 
L 99.324 249.608289 
L 99.51 249.420549 
L 99.882 249.232809 
L 100.161 249.545709 
L 100.347 249.608289 
L 100.719 249.32668 
L 100.812 249.420549 
L 100.998 249.32668 
L 101.184 249.545709 
L 101.649 249.32668 
L 101.742 249.201519 
L 102.114 249.545709 
L 102.579 249.357969 
L 102.765 249.545709 
L 103.23 249.451839 
L 103.602 249.420549 
L 103.695 249.545709 
L 103.881 249.545709 
L 103.974 249.608289 
L 104.16 249.389259 
L 104.346 249.483129 
L 104.532 249.451839 
L 105.09 249.295389 
L 105.183 249.420549 
L 105.276 249.32668 
L 105.555 249.545709 
L 105.927 249.389259 
L 106.206 249.639578 
L 106.485 249.670869 
L 106.671 249.451839 
L 106.764 249.420549 
L 106.95 249.545709 
L 107.136 249.514419 
L 107.601 249.295389 
L 107.694 249.420549 
L 107.787 249.357969 
L 107.973 249.514419 
L 108.159 249.608289 
L 108.252 249.545709 
L 108.345 249.796028 
L 108.624 249.514419 
L 109.368 249.357969 
L 109.554 249.451839 
L 109.74 249.357969 
L 109.833 249.32668 
L 110.019 249.357969 
L 110.577 249.514419 
L 110.856 249.357969 
L 110.949 249.545709 
L 111.135 249.545709 
L 111.228 249.576999 
L 111.321 249.483129 
L 111.414 249.576999 
L 111.6 249.357969 
L 111.693 249.232809 
L 112.251 249.702159 
L 112.437 249.483129 
L 112.716 249.451839 
L 113.088 249.545709 
L 113.367 249.32668 
L 113.46 249.451839 
L 113.553 249.389259 
L 113.739 249.545709 
L 113.832 249.357969 
L 113.925 249.576999 
L 114.111 249.420549 
L 114.855 249.483129 
L 115.041 249.514419 
L 115.878 249.451839 
L 116.064 249.295389 
L 116.622 249.608289 
L 117.366 249.420549 
L 117.459 249.451839 
L 117.552 249.295389 
L 118.11 249.576999 
L 118.203 249.545709 
L 118.296 249.670869 
L 118.761 249.357969 
L 118.947 249.545709 
L 119.04 249.545709 
L 119.133 249.670869 
L 119.505 249.420549 
L 119.598 249.514419 
L 119.691 249.420549 
L 119.97 249.545709 
L 121.83 249.483129 
L 122.109 249.32668 
L 122.295 249.357969 
L 122.76 249.670869 
L 122.946 249.483129 
L 123.132 249.514419 
L 123.225 249.576999 
L 123.318 249.483129 
L 123.411 249.639578 
L 123.504 249.483129 
L 123.69 249.545709 
L 123.969 249.451839 
L 124.155 249.483129 
L 124.248 249.545709 
L 124.527 249.357969 
L 124.899 249.420549 
L 125.271 249.670869 
L 125.364 249.639578 
L 125.457 249.483129 
L 125.55 249.639578 
L 125.736 249.420549 
L 125.922 249.295389 
L 126.201 249.576999 
L 126.294 249.451839 
L 126.573 249.514419 
L 127.503 249.514419 
L 127.596 249.389259 
L 127.689 249.451839 
L 127.782 249.264099 
L 127.968 249.295389 
L 128.247 249.32668 
L 128.34 249.514419 
L 128.433 249.451839 
L 128.526 249.608289 
L 128.805 249.389259 
L 129.177 249.545709 
L 129.456 249.451839 
L 129.549 249.545709 
L 129.642 249.389259 
L 129.828 249.420549 
L 130.2 249.545709 
L 130.386 249.514419 
L 130.572 249.545709 
L 130.758 249.389259 
L 131.037 249.389259 
L 131.13 249.514419 
L 131.316 249.483129 
L 131.409 249.514419 
L 131.595 249.357969 
L 131.967 249.483129 
L 132.525 249.576999 
L 132.618 249.514419 
L 132.804 249.545709 
L 133.362 249.357969 
L 133.548 249.483129 
L 133.827 249.420549 
L 134.013 249.576999 
L 134.292 249.483129 
L 134.571 249.32668 
L 134.664 249.420549 
L 134.757 249.264099 
L 134.85 249.576999 
L 134.943 249.514419 
L 135.036 249.483129 
L 135.129 249.608289 
L 135.222 249.420549 
L 135.501 249.514419 
L 135.78 249.483129 
L 135.873 249.608289 
L 135.966 249.420549 
L 136.152 249.451839 
L 136.431 249.420549 
L 136.617 249.545709 
L 136.803 249.576999 
L 137.268 249.483129 
L 137.454 249.576999 
L 137.547 249.451839 
L 137.64 249.576999 
L 137.919 249.357969 
L 138.105 249.420549 
L 138.198 249.389259 
L 138.384 249.545709 
L 139.035 249.389259 
L 139.128 249.451839 
L 139.221 249.357969 
L 139.314 249.545709 
L 139.407 249.451839 
L 139.5 249.545709 
L 139.686 249.451839 
L 139.965 249.545709 
L 140.058 249.420549 
L 140.151 249.576999 
L 140.43 249.420549 
L 140.616 249.420549 
L 140.802 249.451839 
L 141.36 249.483129 
L 141.546 249.514419 
L 142.197 249.420549 
L 142.29 249.670869 
L 142.476 249.576999 
L 142.662 249.608289 
L 142.755 249.670869 
L 142.848 249.545709 
L 143.034 249.670869 
L 143.22 249.483129 
L 143.778 249.608289 
L 143.964 249.545709 
L 144.522 249.389259 
L 144.615 249.514419 
L 144.708 249.420549 
L 144.894 249.545709 
L 145.266 249.483129 
L 145.359 249.420549 
L 145.452 249.545709 
L 145.545 249.420549 
L 145.824 249.702159 
L 146.103 249.639578 
L 146.289 249.451839 
L 146.568 249.32668 
L 146.847 249.32668 
L 147.033 249.232809 
L 147.219 249.295389 
L 147.312 249.483129 
L 147.498 249.451839 
L 147.684 249.545709 
L 147.87 249.389259 
L 148.056 249.389259 
L 148.149 249.451839 
L 148.335 249.796028 
L 148.614 249.733449 
L 148.986 249.32668 
L 149.358 249.201519 
L 149.451 249.420549 
L 149.544 249.357969 
L 149.916 249.451839 
L 150.102 249.639578 
L 150.381 249.295389 
L 150.567 249.764739 
L 150.753 250.077638 
L 151.218 249.107649 
L 151.497 249.545709 
L 151.683 249.764739 
L 152.148 249.17023 
L 152.427 250.296669 
L 152.799 249.201519 
L 152.892 249.451839 
L 152.985 249.764739 
L 153.078 249.733449 
L 153.264 248.982489 
L 153.357 249.138939 
L 153.636 251.297948 
L 153.729 251.016338 
L 154.008 247.887341 
L 154.194 248.54443 
L 154.473 249.889899 
L 154.566 249.921188 
L 154.659 249.796028 
L 154.845 250.546988 
L 155.031 249.670869 
L 155.124 249.702159 
L 155.403 251.360527 
L 155.496 250.985048 
L 155.775 248.200239 
L 155.868 248.41927 
L 156.054 250.015059 
L 156.147 249.983769 
L 156.333 248.826039 
L 156.426 248.919909 
L 156.705 250.953758 
L 156.891 249.232809 
L 157.077 247.3867 
L 157.17 247.887341 
L 157.449 250.640858 
L 157.635 250.953758 
L 157.728 250.985048 
L 157.914 249.483129 
L 158.1 247.762181 
L 158.193 247.762181 
L 158.565 251.673427 
L 158.937 249.17023 
L 159.03 248.982489 
L 159.123 249.295389 
L 159.309 250.421828 
L 159.402 250.108928 
L 159.681 247.105091 
L 159.867 244.539313 
L 159.96 244.288993 
L 160.239 248.41927 
L 160.425 250.390538 
L 160.89 248.919909 
L 161.169 246.197681 
L 161.262 246.416711 
L 161.448 248.513139 
L 161.727 254.645975 
L 161.82 254.990165 
L 161.913 254.958875 
L 162.099 253.644696 
L 162.192 253.707276 
L 162.285 254.333076 
L 162.378 253.613406 
L 162.843 246.072521 
L 163.215 242.630624 
L 163.308 243.099974 
L 163.587 249.04507 
L 163.68 248.043791 
L 163.959 242.411594 
L 164.145 246.760901 
L 164.424 253.269216 
L 164.517 253.394376 
L 165.075 250.046349 
L 165.354 252.267937 
L 165.447 251.266658 
L 165.726 242.755784 
L 165.819 243.412873 
L 166.191 258.432063 
L 166.284 257.430783 
L 166.563 247.91863 
L 166.656 248.10637 
L 166.935 251.736008 
L 167.028 251.110208 
L 167.307 247.762181 
L 167.493 248.794749 
L 167.679 247.94992 
L 167.958 246.354131 
L 168.051 245.728332 
L 168.33 240.565486 
L 168.423 241.034836 
L 168.609 249.32668 
L 168.888 261.78009 
L 168.981 260.434621 
L 169.446 245.071242 
L 169.539 245.102532 
L 169.632 246.135102 
L 170.004 253.175347 
L 170.19 252.361807 
L 170.562 248.10637 
L 170.655 248.26282 
L 170.841 248.70088 
L 170.934 248.60701 
L 171.12 247.51186 
L 171.213 247.82476 
L 171.399 250.985048 
L 171.678 257.149174 
L 171.771 255.428225 
L 172.143 243.193843 
L 172.236 243.569323 
L 172.701 252.580837 
L 172.98 249.670869 
L 173.259 252.987606 
L 173.445 251.423108 
L 173.631 249.295389 
L 173.724 250.265378 
L 173.91 254.520815 
L 174.003 253.300506 
L 174.375 245.039953 
L 174.468 245.290272 
L 174.84 249.545709 
L 175.026 250.734728 
L 175.212 251.423108 
L 175.398 251.736008 
L 175.677 254.927585 
L 175.77 254.896295 
L 175.956 254.489525 
L 176.049 253.488246 
L 176.514 241.910954 
L 176.607 242.317725 
L 177.723 253.832436 
L 177.816 253.801146 
L 178.374 242.630624 
L 178.56 244.977372 
L 179.025 251.485687 
L 179.118 251.141498 
L 179.397 249.01378 
L 179.583 250.077638 
L 179.676 249.764739 
L 180.141 242.724494 
L 180.234 243.131264 
L 180.42 246.291552 
L 180.606 252.455677 
L 180.978 266.411007 
L 181.071 265.941657 
L 181.908 243.381583 
L 182.094 246.072521 
L 182.187 246.041232 
L 182.652 236.247469 
L 182.838 242.129984 
L 183.21 254.176626 
L 183.303 254.207915 
L 183.582 251.016338 
L 183.675 252.174067 
L 183.954 260.559781 
L 184.047 259.057863 
L 184.419 240.346455 
L 184.512 241.598055 
L 184.791 253.863726 
L 184.884 253.331797 
L 185.163 244.382863 
L 185.256 244.414153 
L 185.721 256.241764 
L 185.814 255.928864 
L 186.093 249.04507 
L 186.279 244.789632 
L 186.372 245.227692 
L 186.651 249.389259 
L 186.837 242.036115 
L 187.023 234.74555 
L 187.209 243.850933 
L 187.488 256.398214 
L 187.674 252.048908 
L 187.86 249.545709 
L 188.046 253.456956 
L 188.325 259.589792 
L 188.511 254.395655 
L 188.697 248.513139 
L 188.79 249.01378 
L 189.069 256.617244 
L 189.162 256.210474 
L 189.441 246.260261 
L 189.627 241.347735 
L 189.72 241.879665 
L 190.092 253.675986 
L 190.185 252.518257 
L 190.464 239.595497 
L 190.557 239.783236 
L 190.836 249.076359 
L 190.929 248.88862 
L 191.208 244.038673 
L 191.301 244.883503 
L 191.673 258.338193 
L 191.766 258.025293 
L 192.417 248.356689 
L 192.789 232.930731 
L 192.882 234.52652 
L 193.254 245.728332 
L 193.347 245.665752 
L 193.533 242.943524 
L 193.626 243.256424 
L 193.998 255.396935 
L 194.277 264.971668 
L 194.37 264.783927 
L 194.556 258.275613 
L 194.835 247.35541 
L 195.021 245.759622 
L 195.3 244.539313 
L 195.486 247.94992 
L 195.765 252.956316 
L 195.858 252.674707 
L 196.044 251.141498 
L 196.323 256.773693 
L 196.416 255.490804 
L 196.695 239.689366 
L 196.881 232.711701 
L 196.974 233.243631 
L 197.16 240.878386 
L 197.439 253.675986 
L 197.532 253.988886 
L 197.718 250.766019 
L 197.811 250.859888 
L 197.997 258.213032 
L 198.183 267.662605 
L 198.276 267.725186 
L 198.462 258.932702 
L 198.741 244.288993 
L 198.834 242.943524 
L 198.927 243.944803 
L 199.206 250.766019 
L 199.299 248.982489 
L 199.671 233.869431 
L 199.857 246.041232 
L 200.136 265.441018 
L 200.229 264.220708 
L 200.694 251.704717 
L 200.88 252.205357 
L 201.066 248.54443 
L 201.345 240.409036 
L 201.438 241.285155 
L 201.624 244.257703 
L 201.81 242.255144 
L 201.903 242.568044 
L 202.089 249.17023 
L 202.368 258.713672 
L 202.461 256.742404 
L 202.74 244.789632 
L 202.833 245.759622 
L 203.205 252.768577 
L 203.298 253.206636 
L 203.484 251.861167 
L 203.577 250.922468 
L 203.67 250.953758 
L 203.763 252.267937 
L 204.042 261.123 
L 204.135 261.029131 
L 204.321 250.922468 
L 204.6 236.310049 
L 204.786 246.948641 
L 205.065 261.154291 
L 205.251 247.82476 
L 205.53 229.238514 
L 205.716 243.068683 
L 205.995 266.911647 
L 206.088 265.753917 
L 206.553 239.094856 
L 206.925 253.550826 
L 207.018 251.892458 
L 207.39 237.154878 
L 207.576 245.415432 
L 207.855 258.025293 
L 208.227 255.459515 
L 208.32 255.709835 
L 208.599 255.303065 
L 208.785 259.151732 
L 208.971 262.218149 
L 209.064 260.77881 
L 209.343 245.822202 
L 209.529 236.403919 
L 209.622 235.590379 
L 209.808 239.345176 
L 210.087 245.571882 
L 210.18 246.103811 
L 210.273 245.884782 
L 210.459 243.319004 
L 210.738 239.282597 
L 210.831 240.127426 
L 211.017 247.887341 
L 211.296 259.808821 
L 211.482 260.77881 
L 211.668 260.434621 
L 211.854 262.12428 
L 211.947 262.09299 
L 212.133 254.583395 
L 212.412 238.030998 
L 212.505 237.154878 
L 212.784 241.973534 
L 212.877 240.471615 
L 213.156 231.679132 
L 213.249 232.962021 
L 213.714 255.866285 
L 213.807 255.709835 
L 213.993 254.896295 
L 214.272 257.493363 
L 214.458 259.026572 
L 214.644 254.896295 
L 214.923 248.951199 
L 215.016 248.85733 
L 215.109 249.138939 
L 215.202 248.85733 
L 215.388 245.478011 
L 215.667 237.561648 
L 215.76 238.594217 
L 216.039 255.052745 
L 216.225 261.40461 
L 216.318 259.777531 
L 216.69 246.729611 
L 217.155 259.402052 
L 217.341 255.615965 
L 217.527 251.078918 
L 217.62 251.391817 
L 217.899 261.310741 
L 217.992 261.185581 
L 218.178 253.144056 
L 218.55 233.274921 
L 218.643 234.30749 
L 218.922 241.942244 
L 219.015 242.036115 
L 219.108 242.380304 
L 219.294 246.135102 
L 219.573 254.458236 
L 219.666 253.112766 
L 220.038 242.724494 
L 220.41 247.63702 
L 220.596 249.483129 
L 220.689 249.420549 
L 220.968 246.291552 
L 221.061 246.604451 
L 221.34 251.642137 
L 221.898 265.722627 
L 222.084 259.183022 
L 222.456 242.661914 
L 222.642 241.817084 
L 222.735 243.006104 
L 222.921 250.640858 
L 223.2 265.034248 
L 223.293 264.314578 
L 223.479 253.331797 
L 223.758 238.938406 
L 223.851 239.751947 
L 224.223 250.953758 
L 224.316 249.420549 
L 224.781 231.960742 
L 224.967 241.003545 
L 225.246 255.741125 
L 225.339 256.022735 
L 225.525 254.802425 
L 225.711 257.774972 
L 225.804 259.120442 
L 225.897 259.089152 
L 226.083 251.673427 
L 226.362 241.034836 
L 226.455 241.723215 
L 226.92 252.142777 
L 227.292 265.190698 
L 227.385 264.408448 
L 227.664 253.707276 
L 228.129 230.959462 
L 228.222 231.303653 
L 228.408 238.406477 
L 228.687 247.261541 
L 228.966 245.697042 
L 229.245 250.327959 
L 229.338 249.889899 
L 229.524 247.19896 
L 229.617 247.292831 
L 229.803 253.206636 
L 230.082 260.622361 
L 230.175 259.683661 
L 230.454 254.145336 
L 230.547 254.958875 
L 230.826 258.838832 
L 231.012 254.145336 
L 231.291 247.51186 
L 231.477 250.327959 
L 231.756 254.552105 
L 231.849 254.489525 
L 232.035 251.297948 
L 232.5 243.412873 
L 232.686 244.195122 
L 232.779 243.819643 
L 232.965 242.317725 
L 233.058 242.380304 
L 233.337 247.48057 
L 233.43 247.417991 
L 233.709 241.598055 
L 233.802 242.192564 
L 234.267 257.900133 
L 234.453 253.801146 
L 234.639 250.640858 
L 234.732 251.642137 
L 235.011 258.056583 
L 235.104 258.244322 
L 235.29 255.553385 
L 235.569 252.393097 
L 235.755 252.299227 
L 235.941 252.424387 
L 236.034 251.391817 
L 236.499 237.311328 
L 236.592 239.658076 
L 237.057 265.566177 
L 237.15 264.408448 
L 237.894 229.989473 
L 238.08 220.50861 
L 238.173 220.63377 
L 238.359 231.992032 
L 238.638 249.639578 
L 238.917 253.675986 
L 239.289 259.308182 
L 239.382 259.276892 
L 239.568 255.396935 
L 239.847 250.453119 
L 239.94 250.578278 
L 240.126 254.645975 
L 240.498 265.972947 
L 240.684 260.027852 
L 240.963 249.232809 
L 241.056 248.513139 
L 241.335 251.642137 
L 241.521 244.601893 
L 241.8 231.929452 
L 241.893 231.773002 
L 242.358 241.942244 
L 242.637 244.695763 
L 243.102 252.361807 
L 243.288 247.730891 
L 243.474 242.943524 
L 243.567 243.913513 
L 243.846 254.771135 
L 244.125 262.28073 
L 244.311 263.156849 
L 244.497 260.153011 
L 244.776 254.865005 
L 244.962 253.926305 
L 245.148 249.483129 
L 245.427 242.286434 
L 245.52 243.006104 
L 245.799 248.669589 
L 245.892 249.04507 
L 246.171 247.66831 
L 246.357 251.704717 
L 246.636 256.836274 
L 246.729 255.396935 
L 247.101 241.379025 
L 247.194 241.535475 
L 247.473 245.947361 
L 247.659 237.342617 
L 247.938 222.917938 
L 248.031 227.235955 
L 248.496 269.039365 
L 248.589 268.069376 
L 248.868 259.840111 
L 248.961 259.746242 
L 249.24 261.623641 
L 249.426 258.025293 
L 249.891 244.539313 
L 249.984 245.978652 
L 250.356 256.711114 
L 250.728 245.227692 
L 250.821 246.510581 
L 251.007 251.454398 
L 251.1 251.423108 
L 251.751 237.592938 
L 251.844 237.905837 
L 252.03 243.475453 
L 252.402 259.621082 
L 252.495 259.965271 
L 252.681 256.460794 
L 253.518 239.720656 
L 253.611 239.908396 
L 253.89 243.757064 
L 254.448 255.772414 
L 254.541 256.304344 
L 254.727 259.589792 
L 255.006 264.408448 
L 255.192 260.246881 
L 255.657 239.439047 
L 255.936 227.955625 
L 256.029 226.516286 
L 256.122 226.547576 
L 256.308 230.458823 
L 257.331 264.189419 
L 257.517 266.504876 
L 257.61 266.004237 
L 258.168 255.052745 
L 258.447 249.796028 
L 258.54 249.608289 
L 258.726 250.077638 
L 258.819 249.483129 
L 259.284 243.381583 
L 259.656 247.292831 
L 259.842 243.475453 
L 260.028 239.689366 
L 260.121 239.689366 
L 260.493 243.569323 
L 260.958 254.020176 
L 261.051 253.206636 
L 261.33 245.884782 
L 261.423 246.228971 
L 261.795 258.588513 
L 261.888 258.275613 
L 262.26 252.643416 
L 262.353 253.206636 
L 262.446 253.175347 
L 262.818 246.385421 
L 263.004 251.642137 
L 263.283 260.93526 
L 263.376 259.933981 
L 263.841 244.069963 
L 263.934 244.633182 
L 264.213 249.483129 
L 264.306 249.138939 
L 264.864 241.879665 
L 264.957 242.411594 
L 265.143 248.043791 
L 265.422 256.742404 
L 265.515 257.117883 
L 265.701 253.832436 
L 266.166 241.441605 
L 266.259 241.003545 
L 266.445 242.755784 
L 267.375 255.021455 
L 267.561 250.734728 
L 267.84 244.695763 
L 268.026 250.797308 
L 268.305 259.057863 
L 268.398 258.651092 
L 268.677 253.769856 
L 268.77 254.207915 
L 269.049 258.525932 
L 269.142 257.117883 
L 269.421 241.691925 
L 269.607 232.993311 
L 269.7 232.023322 
L 269.886 237.718098 
L 270.165 249.076359 
L 270.258 248.481849 
L 270.63 239.094856 
L 270.816 248.13766 
L 271.095 262.43718 
L 271.188 260.340752 
L 271.653 233.556531 
L 271.839 245.102532 
L 272.118 262.531049 
L 272.211 260.997841 
L 272.583 243.162554 
L 272.676 244.069963 
L 273.141 261.4359 
L 273.513 250.922468 
L 273.606 251.047628 
L 273.885 255.772414 
L 273.978 255.522094 
L 274.164 248.54443 
L 274.443 237.686808 
L 274.629 243.099974 
L 274.815 248.13766 
L 274.908 247.79347 
L 275.094 244.508022 
L 275.187 245.008662 
L 275.652 256.116604 
L 275.838 255.490804 
L 275.931 256.460794 
L 276.21 263.532329 
L 276.303 262.781369 
L 276.768 246.385421 
L 276.861 246.479291 
L 276.954 246.228971 
L 277.14 243.694483 
L 277.512 237.373908 
L 277.605 238.375187 
L 278.07 252.580837 
L 278.163 251.454398 
L 278.442 245.697042 
L 278.535 246.948641 
L 278.907 257.524653 
L 279 257.211753 
L 279.279 248.38798 
L 279.558 242.067404 
L 279.744 239.282597 
L 280.023 233.77556 
L 280.116 234.18233 
L 280.302 241.660635 
L 280.581 253.895016 
L 280.674 254.239205 
L 280.86 252.956316 
L 280.953 253.269216 
L 281.325 258.588513 
L 281.511 251.861167 
L 281.883 234.5891 
L 281.976 235.496509 
L 282.441 251.454398 
L 282.72 244.038673 
L 282.813 244.257703 
L 283.185 259.402052 
L 283.278 259.308182 
L 283.743 247.449281 
L 283.929 253.644696 
L 284.115 260.372041 
L 284.208 260.716231 
L 284.58 253.832436 
L 284.766 261.24816 
L 285.138 281.680515 
L 285.231 281.680515 
L 285.417 273.138352 
L 285.696 260.747521 
L 285.789 260.903971 
L 285.975 262.03041 
L 286.068 261.123 
L 286.812 240.534195 
L 287.463 205.051361 
L 287.742 194.068579 
L 287.835 194.381479 
L 288.021 205.614581 
L 289.137 312.970493 
L 289.23 312.532434 
L 289.416 302.92641 
L 289.881 254.802425 
L 290.253 221.760209 
L 290.439 217.629932 
L 290.532 219.569911 
L 290.718 232.085902 
L 291.183 274.233501 
L 291.276 274.202211 
L 291.462 262.937819 
L 292.113 188.217354 
L 292.206 190.532812 
L 292.392 204.394272 
L 293.136 276.079609 
L 293.229 274.734141 
L 293.415 258.838832 
L 293.88 207.71101 
L 293.973 208.211649 
L 294.159 219.851521 
L 294.438 254.082755 
L 294.996 348.953967 
L 295.089 350.142986 
L 295.275 333.934778 
L 296.112 209.838728 
L 296.484 232.336221 
L 296.577 232.179771 
L 296.949 222.448589 
L 297.228 234.11975 
L 297.414 239.564206 
L 297.507 239.783236 
L 297.786 237.780677 
L 298.065 239.094856 
L 298.158 238.625506 
L 298.344 235.46522 
L 298.53 232.242351 
L 298.623 232.148482 
L 298.716 233.431371 
L 298.902 241.910954 
L 299.367 284.590484 
L 299.646 305.335739 
L 299.739 305.742508 
L 299.925 288.063671 
L 300.297 236.748109 
L 300.39 236.372628 
L 300.669 250.734728 
L 300.762 249.264099 
L 301.134 226.234676 
L 301.32 246.166392 
L 301.599 276.861859 
L 301.692 275.172201 
L 302.064 256.992724 
L 302.343 255.897575 
L 302.622 251.579558 
L 302.715 252.205357 
L 302.994 258.181743 
L 303.087 256.867564 
L 303.273 244.946082 
L 303.738 204.926201 
L 303.831 203.737182 
L 303.924 205.489421 
L 304.947 248.73217 
L 305.04 248.60701 
L 305.226 246.854771 
L 305.319 248.07508 
L 305.505 259.777531 
L 305.877 286.530462 
L 305.97 284.527903 
L 306.435 255.396935 
L 306.714 244.351572 
L 306.807 246.385421 
L 307.365 278.332488 
L 307.551 275.26607 
L 307.737 266.755197 
L 308.016 228.612714 
L 308.295 193.31762 
L 308.388 192.535371 
L 308.574 206.20909 
L 309.411 294.196507 
L 309.504 290.097519 
L 309.69 263.469749 
L 310.062 201.202694 
L 310.155 201.296564 
L 310.341 217.442193 
L 311.271 312.313403 
L 311.364 310.655035 
L 311.55 289.815909 
L 311.922 248.481849 
L 312.387 232.430092 
L 312.759 212.154187 
L 312.852 213.374495 
L 313.038 227.986915 
L 313.41 266.911647 
L 313.782 280.272466 
L 313.875 281.993415 
L 313.968 280.773107 
L 314.526 259.402052 
L 314.619 259.558502 
L 314.712 258.557222 
L 314.898 250.296669 
L 315.549 202.078813 
L 315.642 201.014954 
L 315.735 201.108824 
L 315.921 206.05264 
L 316.944 269.727744 
L 317.223 294.352957 
L 317.316 296.887445 
L 317.409 296.136485 
L 317.781 279.771827 
L 317.967 264.345869 
L 318.339 224.451148 
L 318.432 222.323428 
L 318.525 223.324708 
L 318.711 233.556531 
L 319.176 271.354824 
L 319.362 254.927585 
L 320.199 158.178975 
L 320.292 162.590862 
L 320.478 202.329133 
L 320.757 270.885474 
L 320.85 273.576412 
L 321.036 249.483129 
L 321.222 225.264687 
L 321.315 225.076947 
L 321.501 246.354131 
L 321.78 282.994695 
L 321.873 285.935953 
L 321.966 284.621774 
L 322.431 266.285847 
L 322.71 262.12428 
L 322.803 262.31202 
L 322.989 268.194536 
L 323.454 290.911059 
L 323.547 288.72076 
L 323.733 272.512552 
L 324.198 225.765326 
L 324.291 229.707864 
L 324.57 266.598747 
L 324.942 304.803809 
L 325.221 314.315962 
L 325.314 315.035631 
L 325.407 313.596292 
L 325.593 304.522199 
L 325.872 280.366337 
L 326.337 236.841978 
L 326.616 225.765326 
L 326.709 225.921776 
L 326.895 231.460103 
L 327.36 258.463353 
L 327.639 273.388671 
L 327.732 274.82801 
L 327.825 274.233501 
L 328.011 269.727744 
L 328.197 258.432063 
L 328.476 211.778706 
L 328.755 170.131746 
L 328.848 169.036597 
L 329.034 181.896778 
L 329.406 209.025188 
L 329.685 226.422416 
L 329.964 244.476732 
L 330.522 255.209194 
L 330.615 254.802425 
L 330.801 246.510581 
L 331.173 223.136968 
L 331.266 222.229559 
L 331.359 224.451148 
L 331.917 257.274333 
L 332.475 249.983769 
L 332.847 249.764739 
L 333.126 249.201519 
L 333.219 250.421828 
L 333.405 257.962713 
L 333.777 278.019588 
L 333.87 277.518948 
L 334.242 262.15557 
L 334.335 262.40589 
L 334.521 266.254557 
L 334.614 266.066817 
L 334.8 256.054025 
L 335.172 229.895603 
L 335.265 228.737875 
L 335.451 230.646562 
L 335.73 237.499067 
L 336.195 260.872681 
L 336.288 258.119163 
L 336.753 216.002854 
L 336.846 217.035422 
L 337.776 267.850346 
L 338.055 287.281421 
L 338.148 289.03366 
L 338.241 288.40786 
L 338.427 280.335047 
L 339.078 228.675294 
L 339.264 233.18105 
L 339.636 243.913513 
L 340.101 292.600718 
L 340.194 290.253969 
L 340.752 239.282597 
L 340.938 240.690645 
L 341.031 238.969697 
L 341.403 225.734037 
L 341.496 227.799175 
L 341.682 239.157437 
L 342.147 276.110899 
L 342.24 275.015751 
L 342.426 260.497201 
L 342.891 216.002854 
L 342.984 214.876414 
L 343.077 215.971564 
L 344.379 254.645975 
L 344.751 268.726465 
L 344.844 267.443576 
L 345.123 251.485687 
L 345.402 240.628065 
L 345.495 242.098694 
L 346.053 260.215591 
L 346.146 261.029131 
L 346.239 262.90653 
L 346.518 279.771827 
L 346.89 300.767402 
L 346.983 300.892562 
L 347.169 292.538137 
L 347.448 254.395655 
L 347.82 193.19246 
L 347.913 188.937023 
L 348.006 189.437662 
L 348.192 201.108824 
L 348.471 233.024601 
L 348.843 284.340164 
L 348.936 286.655622 
L 349.029 282.525345 
L 349.773 218.443472 
L 349.866 219.6012 
L 350.052 226.328545 
L 350.703 264.596188 
L 350.796 264.189419 
L 351.168 253.988886 
L 351.447 256.867564 
L 351.633 250.015059 
L 351.912 238.781956 
L 352.098 252.674707 
L 352.47 291.474279 
L 352.563 289.34656 
L 353.028 254.239205 
L 353.307 256.429504 
L 353.493 252.361807 
L 353.772 241.723215 
L 353.865 241.598055 
L 354.051 244.946082 
L 354.237 248.826039 
L 354.33 248.669589 
L 354.516 243.319004 
L 354.795 235.340059 
L 354.981 239.470336 
L 355.26 244.883503 
L 355.353 245.165112 
L 355.446 245.822202 
L 355.539 247.324121 
L 355.725 258.432063 
L 356.19 296.230355 
L 356.283 291.974918 
L 357.027 222.198269 
L 357.492 189.093473 
L 357.585 190.564101 
L 357.771 207.05392 
L 358.143 242.129984 
L 358.329 244.633182 
L 358.515 243.819643 
L 358.701 246.760901 
L 358.98 250.985048 
L 359.166 247.762181 
L 359.724 233.3375 
L 359.817 234.74555 
L 360.003 245.071242 
L 360.375 268.601305 
L 360.468 268.757755 
L 360.747 262.24944 
L 360.84 263.407169 
L 361.212 280.929557 
L 361.305 280.679236 
L 361.77 265.597468 
L 361.863 265.660047 
L 362.049 269.227104 
L 362.514 283.902104 
L 362.607 283.870814 
L 362.793 278.144748 
L 363.537 245.697042 
L 364.002 239.595497 
L 364.095 239.689366 
L 364.281 243.882223 
L 364.653 257.180464 
L 364.746 257.305624 
L 364.932 250.891178 
L 365.304 217.410903 
L 365.583 198.762076 
L 365.676 197.166287 
L 365.769 197.479187 
L 366.234 204.081372 
L 366.327 205.082651 
L 366.513 214.000295 
L 367.164 259.026572 
L 367.536 262.687499 
L 367.629 262.781369 
L 367.722 262.34331 
L 368.373 253.550826 
L 368.559 252.799866 
L 368.652 252.205357 
L 368.745 252.612127 
L 368.931 258.525932 
L 369.396 279.959567 
L 369.489 279.865697 
L 369.861 274.358661 
L 370.14 277.080888 
L 370.233 276.32993 
L 370.419 268.382275 
L 370.698 254.958875 
L 370.791 253.801146 
L 370.884 253.988886 
L 370.977 254.176626 
L 371.163 252.361807 
L 371.349 250.766019 
L 371.442 251.642137 
L 371.814 264.502318 
L 371.907 264.345869 
L 372.093 256.304344 
L 372.651 225.139527 
L 372.744 225.233397 
L 372.93 231.115912 
L 373.395 253.363086 
L 373.581 256.085314 
L 373.674 256.241764 
L 373.767 255.584675 
L 373.953 249.608289 
L 374.418 230.177213 
L 374.697 227.110795 
L 374.79 227.454985 
L 374.976 231.616552 
L 375.441 246.729611 
L 375.534 246.479291 
L 375.813 243.944803 
L 375.906 244.946082 
L 376.092 250.859888 
L 376.557 269.039365 
L 376.65 268.476146 
L 376.929 263.438459 
L 377.022 263.532329 
L 377.208 266.098107 
L 377.301 265.691337 
L 377.487 257.086593 
L 377.766 243.131264 
L 377.859 242.661914 
L 378.045 243.319004 
L 378.138 241.879665 
L 378.51 227.267245 
L 378.603 228.612714 
L 379.068 254.771135 
L 379.161 252.893737 
L 379.626 229.801733 
L 379.719 230.552693 
L 380.184 241.691925 
L 380.463 239.313887 
L 380.556 240.002266 
L 381.021 251.923747 
L 381.114 251.704717 
L 381.3 250.985048 
L 381.393 251.235368 
L 381.672 253.175347 
L 381.858 256.742404 
L 382.23 267.819055 
L 382.323 267.756476 
L 382.695 264.126838 
L 382.881 265.722627 
L 382.974 265.378437 
L 383.16 258.150453 
L 383.532 238.594217 
L 383.904 231.647842 
L 383.997 232.304932 
L 384.183 239.689366 
L 384.648 263.219429 
L 385.02 269.978064 
L 385.113 269.946774 
L 385.299 266.630037 
L 385.485 263.000399 
L 385.578 262.90653 
L 385.857 265.284568 
L 385.95 264.846508 
L 386.136 260.872681 
L 386.508 251.736008 
L 386.787 247.54315 
L 387.066 236.716819 
L 387.345 226.359836 
L 387.438 226.015646 
L 387.624 228.362394 
L 387.996 235.684249 
L 388.275 241.285155 
L 388.368 240.721936 
L 388.554 234.5891 
L 388.926 218.161862 
L 389.019 218.067992 
L 389.205 225.045656 
L 389.856 264.032969 
L 390.042 266.098107 
L 390.228 267.036807 
L 390.321 266.942936 
L 390.414 266.160687 
L 390.6 261.4359 
L 391.158 241.973534 
L 391.251 242.849654 
L 391.437 249.545709 
L 391.809 264.877798 
L 391.902 265.159408 
L 392.088 263.845229 
L 392.181 263.907809 
L 392.553 269.790324 
L 392.646 268.882915 
L 393.576 246.760901 
L 393.855 245.165112 
L 393.948 244.946082 
L 394.134 242.724494 
L 394.599 235.058449 
L 394.785 234.80813 
L 394.971 235.778119 
L 395.157 237.905837 
L 395.436 241.441605 
L 395.529 241.003545 
L 395.715 236.841978 
L 395.994 229.551414 
L 396.087 230.239793 
L 396.552 241.472894 
L 396.738 241.316445 
L 396.831 242.380304 
L 397.11 251.892458 
L 397.482 261.65493 
L 397.854 268.257115 
L 397.947 267.912926 
L 398.133 262.531049 
L 398.505 249.952478 
L 398.598 251.110208 
L 399.063 266.223266 
L 399.156 266.066817 
L 399.342 265.253277 
L 399.435 265.628758 
L 399.621 269.070655 
L 399.9 273.920602 
L 399.993 273.607702 
L 400.179 269.696454 
L 400.551 251.579558 
L 400.923 240.064846 
L 401.388 229.801733 
L 401.574 234.87071 
L 401.853 243.068683 
L 401.946 242.536754 
L 402.318 236.184888 
L 402.411 236.091019 
L 402.504 236.341338 
L 402.597 236.153599 
L 402.783 234.2762 
L 402.969 232.774281 
L 403.062 233.212341 
L 403.248 236.059728 
L 403.992 248.513139 
L 404.085 248.200239 
L 404.457 243.600614 
L 404.55 243.757064 
L 404.736 247.574441 
L 405.294 263.094269 
L 405.48 264.971668 
L 405.573 264.721348 
L 405.759 261.99912 
L 406.503 247.85605 
L 406.596 248.73217 
L 407.061 259.965271 
L 407.433 256.742404 
L 407.712 258.306903 
L 407.898 254.583395 
L 408.27 241.817084 
L 408.363 241.942244 
L 408.549 247.167671 
L 408.921 261.21687 
L 409.014 262.12428 
L 409.107 261.68622 
L 409.479 256.460794 
L 409.572 256.523374 
L 409.758 258.306903 
L 409.851 258.338193 
L 409.944 257.117883 
L 410.223 246.448002 
L 410.502 238.781956 
L 410.595 239.282597 
L 410.967 244.539313 
L 411.153 242.505464 
L 411.432 238.781956 
L 411.618 241.410315 
L 411.897 244.789632 
L 411.99 244.476732 
L 412.269 242.411594 
L 412.362 242.693204 
L 412.92 248.919909 
L 413.013 248.919909 
L 413.292 246.322842 
L 413.478 243.162554 
L 413.943 232.993311 
L 414.036 232.711701 
L 414.222 233.93201 
L 414.501 238.844537 
L 414.966 250.515698 
L 415.245 251.266658 
L 415.431 255.553385 
L 415.71 263.188139 
L 415.803 263.407169 
L 416.268 257.024014 
L 416.454 259.652371 
L 416.733 263.250719 
L 416.826 263.375879 
L 416.919 263.125559 
L 417.012 263.188139 
L 417.477 265.315858 
L 417.663 264.314578 
L 417.942 260.121721 
L 418.5 245.165112 
L 418.593 245.603172 
L 419.058 251.454398 
L 419.244 251.266658 
L 419.43 253.237926 
L 419.802 259.433342 
L 419.988 259.777531 
L 420.267 256.930143 
L 420.546 250.421828 
L 421.011 235.997149 
L 421.104 236.310049 
L 421.383 238.625506 
L 421.569 236.497788 
L 421.755 233.99459 
L 421.848 233.77556 
L 421.941 233.9633 
L 422.034 233.49395 
L 422.22 230.083343 
L 422.499 224.294698 
L 422.592 225.327266 
L 422.871 236.310049 
L 423.15 245.165112 
L 423.336 246.354131 
L 423.522 244.664472 
L 423.894 240.534195 
L 423.987 240.690645 
L 424.08 241.285155 
L 424.545 247.730891 
L 424.638 247.91863 
L 424.824 247.23025 
L 424.917 247.417991 
L 425.01 248.3254 
L 425.196 254.990165 
L 425.661 274.82801 
L 425.754 275.76671 
L 425.847 275.54768 
L 426.126 272.356103 
L 426.312 267.787765 
L 426.684 256.773693 
L 426.777 257.274333 
L 427.056 261.21687 
L 427.149 260.903971 
L 427.986 246.041232 
L 428.358 233.587821 
L 428.451 232.962021 
L 428.544 233.462661 
L 428.823 240.158716 
L 429.195 254.958875 
L 429.567 270.603864 
L 429.66 271.573853 
L 429.753 270.854183 
L 429.939 265.941657 
L 430.497 246.729611 
L 430.59 245.947361 
L 430.683 246.291552 
L 430.869 249.576999 
L 431.241 256.554664 
L 431.334 256.116604 
L 431.52 252.017617 
L 432.078 227.924334 
L 432.357 218.787661 
L 432.45 218.412182 
L 432.636 222.636328 
L 433.287 247.85605 
L 433.473 244.163833 
L 433.938 233.400081 
L 434.124 232.367511 
L 434.217 233.274921 
L 434.403 238.781956 
L 435.24 271.824173 
L 435.333 271.667723 
L 435.519 269.289685 
L 435.798 263.407169 
L 436.356 246.416711 
L 436.449 247.042511 
L 437.007 256.648533 
L 437.193 253.456956 
L 437.658 239.689366 
L 437.937 237.811967 
L 438.03 237.780677 
L 438.216 239.032277 
L 438.588 243.225133 
L 438.681 243.256424 
L 439.053 241.222575 
L 439.146 241.942244 
L 439.611 249.702159 
L 439.797 249.858609 
L 439.983 252.862447 
L 440.448 265.221987 
L 440.634 261.56106 
L 441.099 249.545709 
L 441.285 247.48057 
L 441.378 248.23153 
L 441.564 253.926305 
L 441.936 267.474866 
L 442.029 266.473587 
L 442.494 251.986327 
L 442.587 252.111487 
L 442.866 254.301786 
L 443.052 251.329238 
L 443.331 244.883503 
L 443.424 244.476732 
L 443.61 247.324121 
L 443.982 255.365644 
L 444.447 258.306903 
L 444.54 258.338193 
L 444.726 255.897575 
L 445.377 241.347735 
L 445.47 240.721936 
L 445.563 240.847095 
L 445.749 241.754505 
L 446.028 244.351572 
L 446.307 248.481849 
L 446.586 252.705997 
L 446.679 252.299227 
L 447.144 246.103811 
L 447.423 245.352852 
L 447.981 241.003545 
L 448.074 241.379025 
L 448.446 244.445443 
L 448.632 245.947361 
L 448.911 249.827319 
L 449.19 253.081476 
L 449.283 252.393097 
L 449.934 242.255144 
L 450.12 243.569323 
L 450.678 251.172788 
L 450.771 250.703438 
L 451.422 243.193843 
L 451.608 242.661914 
L 451.98 239.658076 
L 452.073 240.033556 
L 452.259 242.974814 
L 452.631 250.484408 
L 452.817 251.391817 
L 453.096 251.172788 
L 453.189 251.204077 
L 453.375 252.267937 
L 453.747 255.459515 
L 453.84 255.553385 
L 454.026 253.863726 
L 454.398 250.734728 
L 454.584 250.766019 
L 454.77 250.891178 
L 455.049 252.831157 
L 455.421 256.836274 
L 455.886 258.338193 
L 455.979 258.807542 
L 456.165 258.025293 
L 456.444 255.866285 
L 456.537 255.866285 
L 457.002 260.93526 
L 457.188 258.838832 
L 457.467 255.772414 
L 457.653 254.145336 
L 457.932 251.204077 
L 458.025 250.985048 
L 458.211 251.892458 
L 458.49 253.050187 
L 458.583 253.300506 
L 458.676 253.081476 
L 458.862 251.235368 
L 459.327 245.321562 
L 459.792 241.379025 
L 460.164 235.214899 
L 460.35 237.592938 
L 460.722 242.349014 
L 460.908 243.006104 
L 461.094 245.540592 
L 461.373 249.295389 
L 461.466 248.73217 
L 461.838 244.695763 
L 462.024 247.762181 
L 462.396 254.677265 
L 462.489 254.395655 
L 463.047 250.265378 
L 463.233 249.264099 
L 463.512 245.071242 
L 463.977 237.811967 
L 464.07 237.968417 
L 464.256 241.222575 
L 464.721 252.737287 
L 464.814 252.361807 
L 465.093 249.858609 
L 465.186 250.359248 
L 465.651 258.651092 
L 465.744 258.432063 
L 466.116 256.711114 
L 466.302 256.617244 
L 466.395 256.711114 
L 466.581 255.615965 
L 466.86 251.329238 
L 467.139 248.76346 
L 467.232 248.826039 
L 467.325 249.295389 
L 467.883 257.524653 
L 468.162 260.653651 
L 468.255 260.278171 
L 468.534 255.741125 
L 469.278 240.565486 
L 469.464 239.564206 
L 469.743 243.976093 
L 470.022 247.292831 
L 470.115 247.85605 
L 470.394 253.112766 
L 470.673 259.464632 
L 470.766 259.683661 
L 470.859 258.682382 
L 471.417 246.448002 
L 471.696 244.414153 
L 471.789 244.351572 
L 471.975 247.19896 
L 472.44 258.244322 
L 472.533 258.400772 
L 472.719 256.179184 
L 473.742 237.561648 
L 473.928 237.123588 
L 474.021 237.154878 
L 474.114 237.311328 
L 474.3 238.375187 
L 475.23 249.389259 
L 475.602 255.365644 
L 475.695 255.365644 
L 475.881 254.020176 
L 476.811 244.226413 
L 476.904 244.508022 
L 477.369 252.299227 
L 477.462 251.736008 
L 478.113 243.725773 
L 478.299 242.661914 
L 478.485 243.131264 
L 479.136 249.232809 
L 479.601 256.273054 
L 479.694 256.241764 
L 479.88 254.552105 
L 480.438 245.790911 
L 480.624 245.321562 
L 480.81 245.384142 
L 480.996 246.322842 
L 481.275 247.98121 
L 481.368 248.0125 
L 481.647 247.136381 
L 481.74 247.167671 
L 481.926 248.982489 
L 482.205 254.802425 
L 482.484 259.120442 
L 482.577 258.588513 
L 482.856 252.956316 
L 483.135 248.23153 
L 483.228 247.91863 
L 483.414 249.264099 
L 484.065 257.931422 
L 484.158 257.618524 
L 484.623 253.957596 
L 484.716 254.114046 
L 484.902 254.645975 
L 485.088 253.769856 
L 485.553 247.417991 
L 486.018 241.472894 
L 486.111 241.723215 
L 486.669 247.6996 
L 486.855 247.261541 
L 487.041 248.76346 
L 487.227 250.202798 
L 487.32 250.234088 
L 487.506 248.13766 
L 487.785 245.384142 
L 487.878 245.133822 
L 488.343 246.228971 
L 488.715 243.882223 
L 488.901 244.852213 
L 489.645 254.771135 
L 489.738 254.802425 
L 490.11 252.236647 
L 490.203 252.393097 
L 490.575 255.334355 
L 490.761 252.705997 
L 491.04 248.41927 
L 491.226 249.389259 
L 491.412 250.828598 
L 491.598 249.733449 
L 491.784 248.23153 
L 491.877 248.45056 
L 492.063 251.047628 
L 492.342 255.834994 
L 492.528 256.241764 
L 492.714 255.897575 
L 493.179 254.364365 
L 493.458 250.296669 
L 494.109 239.063566 
L 494.202 238.656797 
L 494.295 239.032277 
L 494.853 247.417991 
L 494.946 247.19896 
L 495.039 247.167671 
L 495.132 247.91863 
L 495.504 255.334355 
L 495.597 255.115325 
L 495.783 249.514419 
L 496.062 240.440326 
L 496.155 240.471615 
L 496.434 249.357969 
L 496.713 254.176626 
L 496.899 253.988886 
L 497.085 254.489525 
L 497.178 254.708555 
L 497.271 254.520815 
L 497.457 252.518257 
L 497.736 248.982489 
L 497.922 248.356689 
L 498.108 245.947361 
L 498.48 238.312608 
L 498.573 239.251306 
L 498.852 247.98121 
L 499.131 254.270496 
L 499.224 254.865005 
L 499.41 254.520815 
L 499.968 252.236647 
L 500.247 252.799866 
L 500.433 252.205357 
L 500.619 250.953758 
L 500.712 250.985048 
L 500.805 251.423108 
L 501.177 255.271775 
L 501.27 255.084035 
L 501.456 252.580837 
L 502.014 243.006104 
L 502.293 240.221295 
L 502.479 238.406477 
L 502.572 238.469057 
L 502.851 243.444164 
L 503.13 248.23153 
L 503.409 250.766019 
L 503.688 255.021455 
L 503.781 254.708555 
L 503.967 250.985048 
L 504.246 245.321562 
L 504.339 245.509302 
L 504.804 253.394376 
L 504.897 253.081476 
L 505.176 250.296669 
L 505.269 250.703438 
L 505.548 253.895016 
L 505.734 251.391817 
L 506.106 242.349014 
L 506.292 243.976093 
L 507.222 258.651092 
L 507.315 259.026572 
L 507.408 258.776252 
L 507.687 254.176626 
L 507.966 250.640858 
L 508.431 254.176626 
L 508.524 253.707276 
L 509.082 247.35541 
L 509.175 247.3867 
L 509.268 247.261541 
L 509.454 247.261541 
L 509.919 245.790911 
L 510.198 248.76346 
L 510.756 257.274333 
L 510.849 256.961433 
L 511.035 251.141498 
L 511.407 238.343897 
L 511.5 239.564206 
L 511.965 251.516977 
L 512.244 249.01378 
L 512.337 249.639578 
L 512.523 254.207915 
L 512.802 260.059142 
L 512.895 259.996561 
L 513.36 254.239205 
L 514.011 242.880944 
L 514.104 243.506743 
L 514.383 249.389259 
L 514.569 251.485687 
L 514.662 250.766019 
L 515.034 243.882223 
L 515.127 244.038673 
L 515.592 253.300506 
L 515.685 252.799866 
L 515.964 248.23153 
L 516.057 248.26282 
L 516.336 250.985048 
L 516.429 250.578278 
L 516.894 244.038673 
L 517.08 245.947361 
L 517.266 248.23153 
L 517.359 248.38798 
L 517.545 247.605731 
L 517.638 247.82476 
L 517.824 250.296669 
L 518.103 254.301786 
L 518.196 254.333076 
L 518.475 252.612127 
L 518.568 252.925026 
L 518.847 255.490804 
L 518.94 254.927585 
L 519.126 250.327959 
L 519.498 237.248748 
L 519.591 237.248748 
L 519.777 243.506743 
L 520.149 257.743683 
L 520.242 257.399493 
L 520.521 251.235368 
L 520.8 247.136381 
L 520.893 247.35541 
L 521.172 249.076359 
L 521.265 248.76346 
L 521.637 244.445443 
L 521.73 244.695763 
L 522.288 251.204077 
L 522.381 250.797308 
L 522.474 251.047628 
L 522.66 253.769856 
L 523.032 259.714952 
L 523.125 260.121721 
L 523.218 259.965271 
L 523.311 259.214312 
L 523.497 254.833715 
L 523.962 240.002266 
L 524.148 239.063566 
L 524.334 239.939686 
L 524.613 241.410315 
L 524.799 241.504185 
L 524.892 241.472894 
L 524.985 241.785794 
L 525.264 245.321562 
L 525.45 247.0738 
L 525.543 247.105091 
L 525.822 246.604451 
L 525.915 246.948641 
L 526.473 251.548267 
L 526.659 251.861167 
L 526.752 252.267937 
L 527.124 256.617244 
L 527.217 256.116604 
L 527.589 249.858609 
L 527.682 249.983769 
L 528.054 255.115325 
L 528.147 254.458236 
L 528.426 246.416711 
L 528.705 241.191285 
L 528.798 241.535475 
L 529.17 244.320283 
L 529.263 244.195122 
L 529.449 243.037394 
L 529.728 240.940965 
L 529.821 240.940965 
L 530.007 243.381583 
L 530.379 249.514419 
L 530.844 253.050187 
L 531.123 256.210474 
L 531.216 256.147894 
L 531.402 254.458236 
L 531.588 252.956316 
L 531.681 252.956316 
L 531.867 255.459515 
L 532.239 262.0617 
L 532.332 262.46847 
L 532.425 261.90525 
L 532.611 258.619803 
L 533.448 239.595497 
L 533.634 241.754505 
L 533.82 244.069963 
L 533.913 243.913513 
L 534.285 240.502905 
L 534.378 241.347735 
L 534.936 251.235368 
L 535.122 251.767298 
L 535.587 252.831157 
L 535.68 252.768577 
L 535.773 252.424387 
L 535.959 252.956316 
L 536.331 255.553385 
L 536.424 255.271775 
L 536.982 250.985048 
L 537.168 252.580837 
L 537.447 255.490804 
L 537.54 255.772414 
L 537.726 254.614686 
L 538.005 251.829877 
L 538.377 246.729611 
L 538.47 246.792191 
L 538.656 249.076359 
L 538.935 251.892458 
L 539.121 250.640858 
L 539.865 244.633182 
L 539.958 244.789632 
L 540.051 245.165112 
L 540.237 246.448002 
L 540.423 246.667031 
L 540.888 246.228971 
L 541.074 245.790911 
L 541.167 245.916071 
L 541.353 247.54315 
L 541.725 250.891178 
L 542.004 250.171509 
L 542.19 248.45056 
L 542.562 243.225133 
L 542.655 243.131264 
L 542.841 245.978652 
L 543.213 252.956316 
L 543.399 250.265378 
L 543.678 245.603172 
L 543.771 245.196402 
L 543.957 245.978652 
L 544.143 247.730891 
L 544.701 256.147894 
L 544.794 255.897575 
L 545.445 251.329238 
L 545.631 252.361807 
L 546.003 256.523374 
L 546.189 254.958875 
L 546.468 251.391817 
L 546.561 251.141498 
L 546.84 252.518257 
L 546.933 252.612127 
L 547.212 251.579558 
L 547.956 246.948641 
L 548.328 245.102532 
L 548.421 245.290272 
L 548.7 246.667031 
L 548.886 245.478011 
L 549.072 244.601893 
L 549.258 245.947361 
L 549.63 249.451839 
L 550.002 251.235368 
L 550.281 252.330517 
L 550.374 252.361807 
L 550.467 252.080197 
L 550.56 252.142777 
L 550.653 252.549547 
L 551.118 257.336914 
L 551.211 257.180464 
L 551.397 254.489525 
L 551.862 246.541871 
L 551.955 246.291552 
L 552.141 247.23025 
L 552.327 248.23153 
L 552.513 247.51186 
L 552.792 244.852213 
L 552.885 245.071242 
L 553.443 251.986327 
L 553.629 251.047628 
L 554.466 244.257703 
L 554.559 244.163833 
L 554.652 244.257703 
L 554.745 244.163833 
L 554.931 244.727053 
L 555.675 250.359248 
L 555.954 252.674707 
L 556.419 250.766019 
L 556.512 251.047628 
L 556.605 251.016338 
L 556.791 250.015059 
L 557.163 246.009942 
L 557.349 245.446722 
L 557.442 245.540592 
L 557.721 246.91735 
L 557.814 246.886061 
L 558.279 243.162554 
L 558.465 244.288993 
L 559.116 251.360527 
L 559.209 251.266658 
L 559.674 248.07508 
L 559.86 250.265378 
L 560.232 256.085314 
L 560.325 256.585954 
L 560.604 256.116604 
L 560.976 254.645975 
L 561.534 248.481849 
L 561.627 248.45056 
L 562.092 250.140219 
L 562.278 251.892458 
L 562.65 255.584675 
L 562.743 255.647254 
L 563.673 250.327959 
L 563.952 250.766019 
L 564.045 250.672148 
L 564.417 248.919909 
L 564.603 250.546988 
L 564.882 254.395655 
L 564.975 254.614686 
L 565.068 254.145336 
L 565.533 249.201519 
L 565.719 248.951199 
L 565.812 248.88862 
L 565.998 249.01378 
L 566.184 249.04507 
L 566.556 249.389259 
L 566.742 249.576999 
L 566.928 249.17023 
L 567.114 247.35541 
L 567.393 244.695763 
L 567.486 244.727053 
L 567.858 246.197681 
L 568.044 246.166392 
L 568.137 246.291552 
L 568.323 247.19896 
L 568.602 249.264099 
L 568.881 250.046349 
L 568.974 250.265378 
L 569.067 250.171509 
L 569.253 248.60701 
L 569.625 244.820922 
L 569.718 244.789632 
L 569.904 244.977372 
L 570.183 244.664472 
L 570.369 246.448002 
L 570.648 249.608289 
L 570.741 249.32668 
L 571.206 244.382863 
L 571.485 245.822202 
L 572.415 252.549547 
L 572.508 252.299227 
L 573.066 248.73217 
L 573.345 248.41927 
L 573.624 249.764739 
L 574.275 254.114046 
L 574.461 254.458236 
L 574.833 254.802425 
L 575.205 254.114046 
L 575.298 254.082755 
L 575.484 253.675986 
L 575.67 252.330517 
L 576.321 244.664472 
L 576.414 244.789632 
L 576.6 246.541871 
L 576.972 251.423108 
L 577.251 253.018897 
L 577.344 253.206636 
L 577.437 253.081476 
L 577.623 251.172788 
L 578.088 244.508022 
L 578.274 244.195122 
L 578.46 244.476732 
L 578.646 245.665752 
L 578.925 248.513139 
L 579.018 248.73217 
L 579.111 248.638299 
L 579.297 248.26282 
L 579.39 248.45056 
L 579.576 249.702159 
L 579.762 250.421828 
L 579.948 249.545709 
L 580.32 246.823481 
L 580.692 245.665752 
L 580.785 245.697042 
L 580.878 246.009942 
L 581.157 248.57572 
L 581.715 254.802425 
L 581.808 254.958875 
L 582.18 253.957596 
L 582.366 254.145336 
L 582.552 253.425666 
L 583.203 246.385421 
L 583.389 246.322842 
L 583.575 246.604451 
L 584.319 248.70088 
L 584.784 248.07508 
L 585.063 247.324121 
L 585.156 247.042511 
L 585.435 247.574441 
L 585.714 249.451839 
L 585.993 250.797308 
L 586.086 250.891178 
L 586.272 250.640858 
L 586.551 249.796028 
L 586.644 249.764739 
L 586.737 250.108928 
L 587.109 253.456956 
L 587.202 253.456956 
L 587.295 252.893737 
L 587.76 247.63702 
L 587.853 247.91863 
L 588.132 251.579558 
L 588.411 254.708555 
L 588.504 254.708555 
L 588.69 253.269216 
L 588.969 251.078918 
L 589.062 250.797308 
L 589.155 250.828598 
L 589.527 250.390538 
L 589.992 251.548267 
L 590.271 249.576999 
L 590.457 248.13766 
L 590.55 247.91863 
L 590.736 248.73217 
L 591.015 250.484408 
L 591.108 250.390538 
L 591.666 248.88862 
L 591.759 248.826039 
L 592.038 247.19896 
L 592.317 245.509302 
L 592.503 246.541871 
L 592.968 250.484408 
L 593.154 251.204077 
L 593.433 252.455677 
L 593.619 252.142777 
L 593.898 249.295389 
L 594.27 245.227692 
L 594.363 245.227692 
L 594.921 249.01378 
L 595.479 252.236647 
L 595.572 252.455677 
L 595.758 251.892458 
L 595.944 250.390538 
L 596.409 244.163833 
L 596.502 243.850933 
L 596.595 244.007383 
L 597.06 246.729611 
L 597.432 250.609569 
L 597.711 253.300506 
L 597.804 253.456956 
L 598.176 252.142777 
L 598.548 253.206636 
L 598.641 253.050187 
L 599.106 250.672148 
L 599.292 250.797308 
L 599.478 250.327959 
L 600.129 245.728332 
L 600.315 245.634461 
L 600.501 245.227692 
L 600.687 245.196402 
L 601.059 247.48057 
L 601.245 248.16895 
L 601.338 248.043791 
L 601.524 248.60701 
L 602.082 253.675986 
L 602.175 253.363086 
L 602.454 251.673427 
L 602.547 251.923747 
L 602.733 253.769856 
L 602.919 255.584675 
L 603.012 255.553385 
L 603.198 253.519536 
L 603.477 250.734728 
L 603.663 251.297948 
L 603.849 251.986327 
L 604.035 251.829877 
L 604.314 251.548267 
L 604.5 251.266658 
L 604.686 250.390538 
L 605.337 247.292831 
L 605.523 247.324121 
L 605.802 247.48057 
L 605.895 247.417991 
L 606.081 246.510581 
L 606.174 246.479291 
L 606.36 247.79347 
L 606.825 254.426946 
L 606.918 254.364365 
L 607.104 252.862447 
L 607.569 247.79347 
L 607.941 246.291552 
L 608.127 245.884782 
L 608.313 246.854771 
L 608.685 250.672148 
L 608.778 250.766019 
L 608.871 250.640858 
L 609.15 249.17023 
L 609.336 248.76346 
L 609.522 247.762181 
L 610.08 242.724494 
L 610.266 243.944803 
L 610.638 246.948641 
L 610.917 247.730891 
L 611.382 250.640858 
L 611.475 250.640858 
L 611.847 250.046349 
L 612.405 248.29411 
L 612.591 248.88862 
L 612.963 250.390538 
L 613.149 250.891178 
L 613.335 250.891178 
L 613.707 249.514419 
L 613.893 248.88862 
L 614.079 249.608289 
L 614.358 251.110208 
L 614.544 250.797308 
L 614.916 248.76346 
L 615.102 248.54443 
L 615.288 248.88862 
L 615.381 249.01378 
L 615.474 248.951199 
L 615.567 248.70088 
L 615.846 249.138939 
L 616.497 251.485687 
L 616.962 249.639578 
L 617.241 248.45056 
L 617.427 248.29411 
L 617.52 248.45056 
L 617.799 249.889899 
L 618.357 253.456956 
L 618.636 254.176626 
L 618.729 254.114046 
L 619.008 253.269216 
L 619.566 249.420549 
L 619.752 249.357969 
L 620.031 250.578278 
L 620.403 252.580837 
L 620.496 252.768577 
L 620.682 252.612127 
L 621.24 248.826039 
L 621.519 247.574441 
L 621.705 247.6996 
L 622.077 248.919909 
L 622.356 249.733449 
L 622.635 250.891178 
L 622.821 250.578278 
L 623.472 247.0738 
L 623.658 246.228971 
L 624.123 244.195122 
L 624.309 244.101253 
L 624.495 243.694483 
L 624.681 243.850933 
L 625.146 245.916071 
L 625.518 246.698321 
L 626.355 251.047628 
L 626.541 250.672148 
L 626.82 249.796028 
L 626.913 249.764739 
L 627.285 250.202798 
L 627.564 249.545709 
L 627.843 249.076359 
L 628.029 249.32668 
L 628.866 252.862447 
L 628.959 252.893737 
L 629.982 249.639578 
L 630.075 249.796028 
L 630.168 250.077638 
L 630.54 252.299227 
L 630.726 252.236647 
L 631.098 250.453119 
L 631.191 250.546988 
L 631.284 250.453119 
L 631.377 250.546988 
L 631.563 250.828598 
L 632.028 250.077638 
L 632.307 249.889899 
L 632.4 249.670869 
L 633.051 245.509302 
L 633.609 247.730891 
L 633.795 247.94992 
L 633.888 248.10637 
L 634.167 249.138939 
L 634.353 249.17023 
L 634.446 249.17023 
L 635.376 251.110208 
L 635.469 251.078918 
L 635.841 251.579558 
L 635.934 251.516977 
L 636.492 249.138939 
L 636.864 247.136381 
L 636.957 247.136381 
L 637.515 249.420549 
L 637.887 248.70088 
L 638.073 249.04507 
L 638.352 249.983769 
L 638.538 249.827319 
L 638.817 249.32668 
L 639.189 250.672148 
L 640.026 253.081476 
L 640.212 252.424387 
L 640.956 248.356689 
L 641.142 249.201519 
L 641.514 251.516977 
L 641.7 251.204077 
L 641.886 250.484408 
L 642.258 249.608289 
L 642.816 247.54315 
L 642.909 247.63702 
L 643.095 247.19896 
L 643.56 244.601893 
L 643.746 244.414153 
L 644.397 246.823481 
L 644.583 247.54315 
L 644.862 249.764739 
L 645.141 251.454398 
L 645.234 251.516977 
L 646.257 248.10637 
L 646.35 248.26282 
L 646.629 247.98121 
L 646.815 247.6996 
L 646.908 247.63702 
L 647.466 249.608289 
L 647.559 249.514419 
L 647.838 249.201519 
L 647.931 249.295389 
L 648.396 250.766019 
L 648.489 250.703438 
L 648.768 249.889899 
L 648.954 250.265378 
L 649.047 250.484408 
L 649.326 251.861167 
L 649.512 252.330517 
L 649.605 252.236647 
L 649.791 251.548267 
L 650.07 250.546988 
L 650.442 250.766019 
L 650.907 251.204077 
L 651.465 251.955037 
L 651.744 251.579558 
L 652.116 251.610848 
L 652.767 250.421828 
L 653.511 248.043791 
L 653.697 248.13766 
L 653.883 248.669589 
L 654.069 248.826039 
L 654.162 248.794749 
L 654.255 248.919909 
L 654.441 248.85733 
L 654.534 248.88862 
L 654.627 249.04507 
L 654.72 248.85733 
L 654.813 249.01378 
L 655.371 248.26282 
L 655.743 249.357969 
L 656.208 250.609569 
L 656.487 250.766019 
L 656.859 250.046349 
L 657.045 250.171509 
L 657.417 249.576999 
L 657.696 248.57572 
L 657.789 248.356689 
L 657.882 248.481849 
L 658.161 249.733449 
L 658.533 251.548267 
L 658.626 251.704717 
L 658.812 251.141498 
L 658.998 250.077638 
L 659.463 247.6996 
L 659.835 246.448002 
L 660.021 245.540592 
L 660.114 245.634461 
L 660.207 245.603172 
L 660.486 247.011221 
L 660.765 248.38798 
L 661.044 248.513139 
L 661.23 248.3254 
L 661.788 247.35541 
L 662.16 248.13766 
L 662.439 248.919909 
L 662.625 249.01378 
L 663.09 247.79347 
L 663.276 247.011221 
L 663.834 246.760901 
L 664.113 247.0738 
L 664.764 249.889899 
L 665.043 251.454398 
L 665.229 251.673427 
L 665.322 251.548267 
L 665.601 251.986327 
L 666.066 253.707276 
L 666.159 253.675986 
L 666.438 253.144056 
L 666.624 252.455677 
L 666.903 250.985048 
L 666.996 250.797308 
L 667.182 251.204077 
L 667.554 253.331797 
L 667.74 253.801146 
L 667.926 253.613406 
L 668.205 251.955037 
L 668.577 249.576999 
L 668.763 249.01378 
L 669.042 249.076359 
L 669.135 249.295389 
L 669.786 247.91863 
L 669.972 248.07508 
L 670.437 247.449281 
L 671.088 248.70088 
L 671.646 247.63702 
L 671.739 247.730891 
L 672.297 246.135102 
L 672.483 245.759622 
L 672.576 245.790911 
L 673.041 246.698321 
L 673.785 248.85733 
L 673.878 248.88862 
L 674.157 248.57572 
L 674.436 250.046349 
L 674.901 252.925026 
L 674.994 253.081476 
L 675.18 253.519536 
L 675.645 252.987606 
L 675.738 253.081476 
L 676.017 253.394376 
L 676.11 253.425666 
L 676.482 252.674707 
L 676.575 252.737287 
L 676.854 252.893737 
L 677.04 252.424387 
L 677.784 247.91863 
L 677.877 247.730891 
L 678.063 247.91863 
L 678.714 250.766019 
L 678.9 250.390538 
L 679.272 249.32668 
L 679.365 249.545709 
L 679.458 249.483129 
L 679.923 250.390538 
L 680.202 251.297948 
L 680.388 251.110208 
L 680.667 250.234088 
L 680.853 250.453119 
L 681.132 251.204077 
L 681.318 250.891178 
L 681.69 248.919909 
L 681.783 248.826039 
L 682.155 249.32668 
L 682.434 248.70088 
L 682.62 248.70088 
L 682.992 249.702159 
L 683.364 248.88862 
L 683.55 248.3254 
L 684.108 247.324121 
L 684.201 247.449281 
L 684.387 248.3254 
L 684.852 251.110208 
L 685.038 251.454398 
L 685.224 250.985048 
L 685.968 248.638299 
L 686.34 247.887341 
L 687.27 244.789632 
L 687.363 244.695763 
L 687.549 245.227692 
L 687.921 247.35541 
L 688.293 247.261541 
L 688.479 247.730891 
L 688.944 248.88862 
L 689.037 248.88862 
L 689.595 250.546988 
L 689.688 250.515698 
L 689.781 250.609569 
L 690.153 249.827319 
L 690.339 249.576999 
L 690.432 249.733449 
L 690.711 249.576999 
L 690.804 249.576999 
L 691.083 249.232809 
L 691.269 249.483129 
L 691.641 249.983769 
L 692.013 249.451839 
L 692.478 248.200239 
L 692.664 248.200239 
L 692.943 248.356689 
L 693.129 248.16895 
L 693.315 248.0125 
L 693.408 248.07508 
L 693.594 248.0125 
L 693.873 248.07508 
L 693.966 247.98121 
L 694.338 247.105091 
L 694.71 247.105091 
L 694.989 247.574441 
L 695.454 249.764739 
L 695.733 251.297948 
L 695.826 251.266658 
L 695.919 251.360527 
L 696.105 251.329238 
L 696.198 251.360527 
L 696.477 252.549547 
L 696.663 252.768577 
L 697.221 252.330517 
L 697.314 252.330517 
L 698.058 250.390538 
L 698.523 248.29411 
L 698.709 248.638299 
L 698.988 249.545709 
L 699.081 249.733449 
L 699.267 249.420549 
L 699.639 248.57572 
L 699.825 248.669589 
L 699.918 248.638299 
L 700.104 248.982489 
L 700.383 250.202798 
L 700.941 252.643416 
L 701.034 252.893737 
L 701.127 252.831157 
L 701.22 252.925026 
L 701.499 252.455677 
L 701.592 252.455677 
L 701.964 250.953758 
L 702.429 248.38798 
L 702.522 248.356689 
L 703.173 249.827319 
L 703.452 250.515698 
L 703.545 250.609569 
L 703.731 250.484408 
L 704.382 250.859888 
L 704.568 250.859888 
L 704.754 250.828598 
L 704.94 250.640858 
L 705.033 250.640858 
L 705.312 250.108928 
L 705.591 250.202798 
L 705.777 250.515698 
L 706.056 250.515698 
L 706.335 249.983769 
L 706.521 250.171509 
L 706.707 249.702159 
L 707.079 248.57572 
L 707.265 248.513139 
L 707.451 248.23153 
L 707.637 248.10637 
L 707.823 248.0125 
L 708.009 248.10637 
L 708.102 247.94992 
L 708.567 248.70088 
L 708.66 248.73217 
L 708.939 248.0125 
L 709.125 248.3254 
L 709.218 248.26282 
L 709.311 248.38798 
L 709.497 248.043791 
L 709.683 247.762181 
L 709.962 248.88862 
L 710.241 250.640858 
L 710.52 251.204077 
L 710.706 251.016338 
L 710.799 250.953758 
L 710.985 250.265378 
L 711.45 246.760901 
L 711.543 246.604451 
L 711.822 247.0738 
L 712.008 247.63702 
L 712.101 247.574441 
L 712.38 247.91863 
L 712.473 247.94992 
L 714.519 252.580837 
L 714.612 252.236647 
L 714.705 252.267937 
L 714.891 251.923747 
L 715.263 249.952478 
L 715.635 247.85605 
L 715.821 247.574441 
L 716.007 247.82476 
L 716.751 245.446722 
L 716.937 245.665752 
L 717.402 247.51186 
L 717.774 248.826039 
L 717.96 249.107649 
L 718.239 248.70088 
L 718.425 248.3254 
L 718.518 248.29411 
L 718.704 248.60701 
L 718.89 249.04507 
L 719.355 249.483129 
L 719.727 248.88862 
L 720.006 247.887341 
L 720.285 247.54315 
L 720.657 247.85605 
L 721.494 249.576999 
L 721.773 249.796028 
L 721.959 250.327959 
L 722.052 250.234088 
L 722.238 250.390538 
L 722.331 250.327959 
L 722.517 249.952478 
L 722.61 250.015059 
L 722.889 249.639578 
L 723.168 250.015059 
L 723.354 250.171509 
L 723.447 250.077638 
L 723.819 249.201519 
L 723.912 249.201519 
L 724.377 250.985048 
L 724.47 251.141498 
L 724.563 250.985048 
L 724.842 251.266658 
L 725.028 251.423108 
L 725.121 251.736008 
L 725.214 251.704717 
L 725.493 252.048908 
L 725.958 253.144056 
L 726.144 252.956316 
L 726.237 252.893737 
L 726.702 251.423108 
L 726.888 250.766019 
L 727.353 250.202798 
L 727.539 250.546988 
L 727.911 252.737287 
L 728.097 253.394376 
L 728.19 253.237926 
L 728.562 252.893737 
L 728.841 251.798587 
L 729.585 246.635741 
L 729.864 245.540592 
L 730.143 245.102532 
L 730.236 245.196402 
L 730.422 245.540592 
L 730.608 246.510581 
L 730.887 247.292831 
L 731.073 247.48057 
L 731.166 247.449281 
L 731.538 248.07508 
L 731.631 248.16895 
L 731.817 248.0125 
L 732.096 248.45056 
L 732.561 249.232809 
L 732.747 249.295389 
L 733.119 249.858609 
L 733.305 249.921188 
L 733.956 248.41927 
L 734.142 248.513139 
L 734.235 248.41927 
L 734.421 248.88862 
L 734.979 251.172788 
L 735.165 250.578278 
L 735.816 248.638299 
L 736.095 248.38798 
L 736.188 248.200239 
L 736.467 248.60701 
L 736.932 249.764739 
L 737.118 249.858609 
L 737.211 249.889899 
L 737.862 248.16895 
L 738.048 247.6996 
L 738.141 247.63702 
L 738.513 248.26282 
L 738.885 249.32668 
L 739.257 249.545709 
L 739.443 249.796028 
L 739.629 250.046349 
L 740.094 251.110208 
L 740.559 251.360527 
L 740.652 251.204077 
L 740.745 251.516977 
L 741.303 250.828598 
L 741.396 250.609569 
L 741.582 250.734728 
L 741.768 250.672148 
L 741.954 250.828598 
L 742.14 250.953758 
L 742.326 251.360527 
L 742.419 251.391817 
L 742.512 251.673427 
L 742.605 251.642137 
L 742.698 251.642137 
L 742.791 251.391817 
L 742.884 251.548267 
L 743.349 250.766019 
L 743.628 249.04507 
L 743.721 248.88862 
L 743.907 248.13766 
L 744.093 248.26282 
L 744.279 248.669589 
L 744.558 249.483129 
L 744.744 249.702159 
L 745.209 249.451839 
L 745.674 248.45056 
L 745.767 248.481849 
L 745.953 248.85733 
L 746.046 248.951199 
L 746.325 248.60701 
L 746.418 248.29411 
L 746.511 248.3254 
L 746.697 248.07508 
L 747.069 247.417991 
L 747.72 248.16895 
L 747.813 248.23153 
L 747.906 248.07508 
L 747.999 248.16895 
L 748.278 247.35541 
L 748.464 247.3867 
L 748.557 247.3867 
L 748.929 248.45056 
L 749.301 250.234088 
L 749.58 250.797308 
L 749.766 250.797308 
L 749.952 250.985048 
L 750.231 250.672148 
L 750.324 250.578278 
L 750.51 250.015059 
L 750.603 249.889899 
L 750.882 250.265378 
L 751.068 250.859888 
L 751.347 251.548267 
L 751.626 251.329238 
L 751.812 251.204077 
L 752.277 249.608289 
L 752.649 247.605731 
L 752.928 247.19896 
L 753.207 246.854771 
L 753.393 246.854771 
L 753.765 248.13766 
L 754.23 249.01378 
L 754.602 250.672148 
L 754.974 251.391817 
L 755.16 251.579558 
L 755.253 251.454398 
L 755.346 251.548267 
L 755.718 250.859888 
L 755.904 250.953758 
L 756.183 251.235368 
L 756.276 251.235368 
L 756.741 250.296669 
L 757.02 249.796028 
L 757.113 249.858609 
L 757.299 249.764739 
L 757.578 249.639578 
L 758.043 249.451839 
L 758.136 249.764739 
L 758.229 249.733449 
L 758.973 250.859888 
L 759.252 250.672148 
L 759.438 250.609569 
L 759.81 250.672148 
L 759.903 250.578278 
L 760.089 250.734728 
L 760.275 250.953758 
L 761.019 249.107649 
L 761.391 248.826039 
L 761.856 247.292831 
L 762.042 246.91735 
L 762.135 247.011221 
L 762.228 246.979931 
L 762.507 247.417991 
L 762.786 247.63702 
L 762.879 247.35541 
L 763.809 248.638299 
L 763.902 248.45056 
L 764.088 248.54443 
L 765.018 247.730891 
L 765.297 248.16895 
L 765.483 248.45056 
L 765.669 248.794749 
L 765.948 249.04507 
L 766.134 249.076359 
L 766.32 249.295389 
L 766.878 248.70088 
L 766.971 248.76346 
L 767.622 250.390538 
L 767.808 250.484408 
L 768.366 249.389259 
L 768.831 248.10637 
L 769.203 248.3254 
L 769.296 248.41927 
L 769.575 248.982489 
L 769.668 249.04507 
L 769.854 249.420549 
L 770.04 249.389259 
L 770.226 249.764739 
L 770.319 249.702159 
L 770.505 249.764739 
L 770.598 250.077638 
L 770.691 250.046349 
L 770.877 250.140219 
L 771.063 250.046349 
L 771.435 250.421828 
L 771.528 250.390538 
L 771.807 250.703438 
L 772.458 251.204077 
L 772.644 250.985048 
L 772.737 250.953758 
L 772.923 250.609569 
L 773.016 250.672148 
L 773.109 250.578278 
L 773.574 249.420549 
L 773.667 249.357969 
L 773.853 249.514419 
L 774.039 249.670869 
L 774.318 249.858609 
L 774.504 249.796028 
L 774.597 249.733449 
L 774.783 249.389259 
L 774.876 249.389259 
L 775.062 249.138939 
L 775.341 249.01378 
L 775.527 248.73217 
L 776.085 248.45056 
L 776.364 249.232809 
L 776.643 249.420549 
L 776.922 249.952478 
L 777.201 250.140219 
L 777.294 249.952478 
L 777.387 250.140219 
L 777.573 249.858609 
L 777.852 249.858609 
L 777.945 249.858609 
L 778.317 250.734728 
L 778.41 250.672148 
L 778.503 250.828598 
L 779.526 249.295389 
L 779.898 248.982489 
L 779.991 249.04507 
L 780.177 248.951199 
L 780.549 248.73217 
L 780.735 248.88862 
L 781.107 248.85733 
L 781.758 249.639578 
L 781.851 249.889899 
L 781.944 249.827319 
L 782.037 249.983769 
L 782.781 249.17023 
L 783.06 248.70088 
L 783.246 248.45056 
L 783.711 249.01378 
L 783.804 248.919909 
L 783.897 248.826039 
L 784.362 249.357969 
L 784.548 249.232809 
L 784.827 249.01378 
L 785.385 250.609569 
L 786.036 252.737287 
L 786.222 252.925026 
L 786.594 252.580837 
L 786.78 252.486966 
L 786.966 252.017617 
L 787.617 249.514419 
L 787.896 249.608289 
L 788.268 249.201519 
L 788.64 249.670869 
L 789.012 249.295389 
L 789.105 249.01378 
L 789.291 249.076359 
L 789.663 248.88862 
L 789.849 248.481849 
L 790.035 248.3254 
L 790.221 248.200239 
L 790.314 248.3254 
L 790.686 248.0125 
L 790.779 248.07508 
L 790.965 247.98121 
L 791.151 247.82476 
L 791.337 247.82476 
L 791.709 247.887341 
L 792.639 249.952478 
L 793.011 249.983769 
L 793.197 249.827319 
L 793.383 249.608289 
L 793.569 249.201519 
L 794.034 248.73217 
L 794.406 249.232809 
L 794.499 249.201519 
L 794.592 249.608289 
L 794.685 249.576999 
L 794.871 249.483129 
L 794.964 249.796028 
L 795.15 249.702159 
L 795.243 249.733449 
L 795.336 249.576999 
L 795.429 249.921188 
L 795.522 249.858609 
L 795.615 249.858609 
L 795.708 249.576999 
L 795.801 249.608289 
L 796.08 249.389259 
L 796.266 249.889899 
L 796.359 249.545709 
L 796.452 249.733449 
L 797.289 248.794749 
L 797.382 249.17023 
L 797.568 248.794749 
L 797.754 249.420549 
L 797.94 248.70088 
L 798.219 249.01378 
L 798.405 248.54443 
L 798.777 249.138939 
L 798.87 249.107649 
L 798.963 249.201519 
L 799.149 249.733449 
L 799.335 249.483129 
L 799.707 250.546988 
L 799.986 251.204077 
L 800.172 250.953758 
L 800.358 251.110208 
L 800.451 251.454398 
L 800.637 250.640858 
L 800.916 250.734728 
L 801.009 250.327959 
L 801.195 250.546988 
L 801.288 250.390538 
L 801.474 249.545709 
L 801.567 249.639578 
L 802.125 249.357969 
L 802.404 248.481849 
L 802.497 248.23153 
L 802.683 248.513139 
L 802.869 247.91863 
L 802.962 247.85605 
L 803.055 248.16895 
L 803.148 247.54315 
L 803.427 248.16895 
L 803.52 248.29411 
L 803.613 248.23153 
L 803.706 248.85733 
L 803.799 248.23153 
L 803.892 248.38798 
L 803.985 248.26282 
L 804.171 248.76346 
L 804.264 248.38798 
L 804.357 248.85733 
L 804.636 248.356689 
L 805.008 248.85733 
L 805.101 248.88862 
L 805.566 249.764739 
L 805.659 249.889899 
L 806.031 250.828598 
L 806.31 250.922468 
L 806.496 251.297948 
L 806.682 251.047628 
L 806.775 251.016338 
L 807.147 250.453119 
L 807.24 250.484408 
L 807.519 249.889899 
L 807.612 249.921188 
L 807.984 248.919909 
L 808.077 249.04507 
L 808.263 248.85733 
L 808.356 248.951199 
L 808.449 248.826039 
L 808.728 249.733449 
L 808.821 249.608289 
L 808.914 249.389259 
L 809.007 249.639578 
L 809.1 249.514419 
L 809.193 249.639578 
L 809.658 249.295389 
L 809.751 249.264099 
L 810.03 248.85733 
L 810.216 248.88862 
L 810.309 248.70088 
L 810.402 248.76346 
L 810.96 247.762181 
L 811.053 247.887341 
L 811.239 247.85605 
L 811.89 248.356689 
L 811.983 248.23153 
L 812.076 248.3254 
L 812.169 248.200239 
L 812.634 248.54443 
L 812.727 248.513139 
L 812.913 248.70088 
L 813.564 251.016338 
L 813.657 251.329238 
L 813.75 251.078918 
L 813.936 251.642137 
L 814.215 251.485687 
L 814.308 251.610848 
L 814.68 251.141498 
L 815.145 250.046349 
L 815.331 249.827319 
L 815.424 249.483129 
L 815.517 249.514419 
L 815.61 249.483129 
L 816.168 250.421828 
L 816.261 250.359248 
L 816.354 250.515698 
L 816.819 250.140219 
L 817.098 249.514419 
L 817.377 249.17023 
L 817.935 249.420549 
L 818.028 249.514419 
L 818.121 249.420549 
L 818.307 249.451839 
L 818.4 249.514419 
L 818.586 249.295389 
L 818.679 249.389259 
L 818.772 249.232809 
L 818.865 249.389259 
L 819.144 248.919909 
L 819.237 248.951199 
L 820.074 247.730891 
L 820.353 247.66831 
L 820.818 248.13766 
L 820.911 248.043791 
L 822.213 249.389259 
L 822.492 250.108928 
L 822.585 250.108928 
L 822.864 250.515698 
L 822.957 250.672148 
L 823.236 250.546988 
L 823.515 250.766019 
L 823.794 250.828598 
L 824.631 251.360527 
L 824.817 251.235368 
L 825.282 251.016338 
L 825.933 250.202798 
L 826.026 250.234088 
L 826.491 251.047628 
L 826.584 251.078918 
L 826.77 251.391817 
L 827.049 251.266658 
L 827.142 251.391817 
L 827.514 250.953758 
L 827.607 250.953758 
L 827.793 250.202798 
L 828.444 248.85733 
L 828.909 247.292831 
L 829.56 246.573161 
L 829.746 246.510581 
L 830.025 246.573161 
L 830.676 247.98121 
L 830.862 248.13766 
L 831.327 248.60701 
L 831.606 248.76346 
L 831.885 248.76346 
L 832.443 249.389259 
L 832.908 249.796028 
L 833.373 250.484408 
L 833.466 250.515698 
L 833.745 250.140219 
L 833.838 249.952478 
L 833.931 250.015059 
L 834.489 248.60701 
L 834.675 248.60701 
L 835.233 250.077638 
L 835.419 250.171509 
L 835.605 250.234088 
L 835.698 250.108928 
L 836.07 250.390538 
L 836.814 250.484408 
L 837.093 251.047628 
L 837.093 251.047628 
" clip-path="url(#pa2f5049162)" style="fill: none; stroke: #1f77b4; stroke-width: 1.5; stroke-linecap: square"/>
   </g>
  </g>
 </g>
 <defs>
  <clipPath id="pa2f5049162">
   <rect x="0" y="-0" width="837" height="498.96"/>
  </clipPath>
 </defs>
</svg>
