<?xml version="1.0" encoding="utf-8" standalone="no"?>
<!DOCTYPE svg PUBLIC "-//W3C//DTD SVG 1.1//EN"
  "http://www.w3.org/Graphics/SVG/1.1/DTD/svg11.dtd">
<svg xmlns:xlink="http://www.w3.org/1999/xlink" width="837pt" height="498.96pt" viewBox="0 0 837 498.96" xmlns="http://www.w3.org/2000/svg" version="1.1">
 <metadata>
  <rdf:RDF xmlns:dc="http://purl.org/dc/elements/1.1/" xmlns:cc="http://creativecommons.org/ns#" xmlns:rdf="http://www.w3.org/1999/02/22-rdf-syntax-ns#">
   <cc:Work>
    <dc:type rdf:resource="http://purl.org/dc/dcmitype/StillImage"/>
    <dc:date>2023-06-07T14:15:08.331087</dc:date>
    <dc:format>image/svg+xml</dc:format>
    <dc:creator>
     <cc:Agent>
      <dc:title>Matplotlib v3.7.0, https://matplotlib.org/</dc:title>
     </cc:Agent>
    </dc:creator>
   </cc:Work>
  </rdf:RDF>
 </metadata>
 <defs>
  <style type="text/css">*{stroke-linejoin: round; stroke-linecap: butt}</style>
 </defs>
 <g id="figure_1">
  <g id="patch_1">
   <path d="M 0 498.96 
L 837 498.96 
L 837 -0 
L 0 -0 
z
" style="fill: #ffffff"/>
  </g>
  <g id="axes_1">
   <g id="patch_2">
    <path d="M 0 498.96 
L 837 498.96 
L 837 -0 
L 0 -0 
z
" style="fill: #ffffff"/>
   </g>
   <g id="matplotlib.axis_1"/>
   <g id="matplotlib.axis_2"/>
   <g id="line2d_1">
    <path d="M -0.093 249.45622 
L 0.093 249.481252 
L 76.539 249.506284 
L 76.725 249.543831 
L 76.911 249.468735 
L 77.934 249.431188 
L 78.213 249.5188 
L 78.771 249.493768 
L 78.957 249.45622 
L 79.143 249.443704 
L 79.794 249.543831 
L 80.073 249.468735 
L 80.631 249.543831 
L 81.003 249.468735 
L 81.282 249.5188 
L 81.654 249.431188 
L 82.026 249.468735 
L 83.049 249.5188 
L 83.7 249.443704 
L 84.723 249.481252 
L 85.095 249.443704 
L 85.839 249.506284 
L 86.025 249.468735 
L 86.676 249.481252 
L 87.513 249.531315 
L 88.071 249.406156 
L 88.536 249.493768 
L 89.187 249.493768 
L 89.559 249.568864 
L 89.838 249.443704 
L 90.21 249.468735 
L 90.582 249.543831 
L 90.954 249.39364 
L 91.605 249.45622 
L 95.418 249.543831 
L 95.883 249.606411 
L 96.255 249.418672 
L 96.813 249.418672 
L 97.65 249.531315 
L 98.208 249.506284 
L 98.487 249.581379 
L 98.766 249.468735 
L 98.952 249.45622 
L 99.324 249.531315 
L 99.603 249.431188 
L 100.068 249.431188 
L 100.347 249.531315 
L 100.905 249.418672 
L 103.881 249.506284 
L 104.067 249.468735 
L 104.439 249.443704 
L 104.718 249.45622 
L 105.09 249.406156 
L 105.462 249.493768 
L 105.834 249.506284 
L 106.02 249.493768 
L 106.392 249.531315 
L 106.485 249.556348 
L 106.671 249.468735 
L 107.601 249.406156 
L 107.973 249.493768 
L 108.438 249.543831 
L 108.717 249.481252 
L 108.996 249.45622 
L 109.833 249.418672 
L 110.112 249.443704 
L 111.972 249.481252 
L 112.158 249.568864 
L 112.53 249.468735 
L 112.902 249.468735 
L 113.088 249.506284 
L 113.46 249.468735 
L 113.832 249.431188 
L 114.018 249.45622 
L 142.848 249.506284 
L 143.034 249.556348 
L 143.313 249.493768 
L 144.057 249.493768 
L 144.708 249.45622 
L 145.08 249.543831 
L 146.382 249.443704 
L 147.219 249.406156 
L 147.405 249.443704 
L 147.777 249.443704 
L 148.149 249.468735 
L 148.428 249.606411 
L 148.8 249.506284 
L 149.172 249.356092 
L 149.637 249.431188 
L 150.009 249.493768 
L 150.195 249.481252 
L 150.381 249.406156 
L 150.846 249.618928 
L 151.032 249.318544 
L 151.311 249.368608 
L 151.683 249.593895 
L 152.148 249.356092 
L 152.427 249.806668 
L 152.799 249.368608 
L 152.892 249.468735 
L 153.078 249.581379 
L 153.264 249.280996 
L 153.357 249.343576 
L 153.636 250.207179 
L 153.729 250.094535 
L 154.008 248.842936 
L 154.194 249.105772 
L 154.473 249.643959 
L 154.659 249.606411 
L 154.845 249.906795 
L 155.124 249.568864 
L 155.403 250.232211 
L 155.496 250.082019 
L 155.775 248.968096 
L 155.868 249.055708 
L 156.147 249.681508 
L 156.426 249.255964 
L 156.705 250.069503 
L 156.891 249.381124 
L 157.077 248.64268 
L 157.17 248.842936 
L 157.449 249.944343 
L 157.728 250.082019 
L 157.914 249.481252 
L 158.1 248.792872 
L 158.193 248.792872 
L 158.565 250.357371 
L 158.937 249.356092 
L 159.03 249.280996 
L 159.123 249.406156 
L 159.309 249.856731 
L 159.495 249.443704 
L 159.681 248.530036 
L 159.867 247.503725 
L 159.96 247.403597 
L 160.239 249.055708 
L 160.425 249.844215 
L 160.89 249.255964 
L 161.169 248.167073 
L 161.262 248.254684 
L 161.448 249.093256 
L 161.727 251.54639 
L 161.913 251.67155 
L 162.192 251.17091 
L 162.285 251.42123 
L 162.378 251.133362 
L 162.843 248.117009 
L 163.215 246.74025 
L 163.308 246.92799 
L 163.587 249.306028 
L 163.68 248.905516 
L 163.959 246.652638 
L 164.145 248.39236 
L 164.424 250.995686 
L 164.517 251.04575 
L 165.075 249.706539 
L 165.354 250.595175 
L 165.447 250.194663 
L 165.726 246.790313 
L 165.819 247.053149 
L 166.191 253.060825 
L 166.284 252.660313 
L 166.563 248.855452 
L 166.656 248.930548 
L 166.935 250.382403 
L 167.028 250.132083 
L 167.307 248.792872 
L 167.493 249.2059 
L 167.679 248.867968 
L 167.958 248.229653 
L 168.051 247.979333 
L 168.33 245.914194 
L 168.423 246.101934 
L 168.609 249.418672 
L 168.888 254.400036 
L 168.981 253.861848 
L 169.446 247.716497 
L 169.539 247.729013 
L 169.632 248.142041 
L 170.004 250.958139 
L 170.19 250.632723 
L 170.562 248.930548 
L 170.655 248.993128 
L 170.841 249.168352 
L 170.934 249.130804 
L 171.12 248.692744 
L 171.213 248.817904 
L 171.399 250.082019 
L 171.678 252.54767 
L 171.771 251.85929 
L 172.143 246.965537 
L 172.236 247.115729 
L 172.701 250.720335 
L 172.98 249.556348 
L 173.259 250.883042 
L 173.445 250.257243 
L 173.631 249.406156 
L 173.724 249.794151 
L 173.91 251.496326 
L 174.003 251.008202 
L 174.375 247.703981 
L 174.468 247.804109 
L 174.84 249.506284 
L 175.491 250.695303 
L 175.77 251.646518 
L 175.956 251.48381 
L 176.049 251.083299 
L 176.514 246.452382 
L 176.607 246.61509 
L 177.723 251.220974 
L 177.816 251.208459 
L 178.374 246.74025 
L 178.56 247.678949 
L 179.025 250.282275 
L 179.118 250.144599 
L 179.397 249.293512 
L 179.583 249.719055 
L 179.676 249.593895 
L 180.141 246.777797 
L 180.234 246.940506 
L 180.42 248.204621 
L 180.606 250.670271 
L 180.978 256.252403 
L 181.071 256.064663 
L 181.908 247.040633 
L 182.187 248.104493 
L 182.652 244.186988 
L 182.838 246.539994 
L 183.21 251.35865 
L 183.303 251.371166 
L 183.582 250.094535 
L 183.675 250.557627 
L 183.954 253.911912 
L 184.047 253.311145 
L 184.419 245.826582 
L 184.512 246.327222 
L 184.791 251.23349 
L 184.884 251.020719 
L 185.163 247.441145 
L 185.256 247.453661 
L 185.721 252.184706 
L 185.814 252.059546 
L 186.093 249.306028 
L 186.279 247.603853 
L 186.372 247.779077 
L 186.651 249.443704 
L 186.837 246.502446 
L 187.023 243.58622 
L 187.209 247.228373 
L 187.488 252.247286 
L 187.674 250.507563 
L 187.86 249.506284 
L 188.046 251.070782 
L 188.325 253.523917 
L 188.511 251.446262 
L 188.697 249.093256 
L 188.79 249.293512 
L 189.069 252.334897 
L 189.162 252.17219 
L 189.441 248.192104 
L 189.627 246.227094 
L 189.72 246.439866 
L 190.092 251.158394 
L 190.185 250.695303 
L 190.464 245.526199 
L 190.557 245.601295 
L 190.836 249.318544 
L 190.929 249.243448 
L 191.208 247.303469 
L 191.301 247.641401 
L 191.673 253.023277 
L 191.766 252.898117 
L 192.417 249.030676 
L 192.789 242.860292 
L 192.882 243.498608 
L 193.254 247.979333 
L 193.347 247.954301 
L 193.533 246.86541 
L 193.626 246.99057 
L 193.998 251.846774 
L 194.277 255.676667 
L 194.37 255.601571 
L 194.556 252.998245 
L 194.835 248.630164 
L 195.021 247.991849 
L 195.3 247.503725 
L 195.486 248.867968 
L 195.765 250.870526 
L 195.858 250.757883 
L 196.044 250.144599 
L 196.323 252.397477 
L 196.416 251.884322 
L 196.695 245.563746 
L 196.881 242.77268 
L 196.974 242.985452 
L 197.16 246.039354 
L 197.439 251.158394 
L 197.532 251.283554 
L 197.718 249.994407 
L 197.811 250.031955 
L 197.997 252.973213 
L 198.183 256.753042 
L 198.276 256.778074 
L 198.462 253.261081 
L 198.741 247.403597 
L 198.834 246.86541 
L 198.927 247.265921 
L 199.206 249.994407 
L 199.299 249.280996 
L 199.671 243.235772 
L 199.857 248.104493 
L 200.136 255.864407 
L 200.229 255.376283 
L 200.694 250.369887 
L 200.88 250.570143 
L 201.066 249.105772 
L 201.345 245.851614 
L 201.438 246.202062 
L 201.624 247.391081 
L 201.81 246.590058 
L 201.903 246.715218 
L 202.089 249.356092 
L 202.368 253.173469 
L 202.461 252.384961 
L 202.74 247.603853 
L 202.833 247.991849 
L 203.205 250.795431 
L 203.298 250.970655 
L 203.484 250.432467 
L 203.67 250.069503 
L 203.763 250.595175 
L 204.042 254.1372 
L 204.135 254.099652 
L 204.321 250.056987 
L 204.6 244.212019 
L 204.786 248.467456 
L 205.065 254.149716 
L 205.251 248.817904 
L 205.53 241.383406 
L 205.716 246.915473 
L 205.995 256.452659 
L 206.088 255.989567 
L 206.553 245.325942 
L 206.925 251.10833 
L 207.018 250.444983 
L 207.39 244.549951 
L 207.576 247.854173 
L 207.855 252.898117 
L 208.227 251.871806 
L 208.32 251.971934 
L 208.599 251.809226 
L 208.785 253.348693 
L 208.971 254.57526 
L 209.064 253.999524 
L 209.343 248.016881 
L 209.529 244.249568 
L 209.622 243.924151 
L 209.808 245.426071 
L 210.087 247.916753 
L 210.18 248.129524 
L 210.273 248.041913 
L 210.459 247.015601 
L 210.738 245.401039 
L 210.831 245.73897 
L 211.017 248.842936 
L 211.296 253.611529 
L 211.482 253.999524 
L 211.668 253.861848 
L 211.947 254.525196 
L 212.133 251.521358 
L 212.412 244.900399 
L 212.505 244.549951 
L 212.784 246.477414 
L 212.97 244.549951 
L 213.156 242.359653 
L 213.249 242.872808 
L 213.714 252.034514 
L 213.807 251.971934 
L 213.993 251.646518 
L 214.272 252.685345 
L 214.458 253.298629 
L 214.644 251.646518 
L 214.923 249.26848 
L 215.016 249.230932 
L 215.109 249.343576 
L 215.202 249.230932 
L 215.388 247.879205 
L 215.667 244.712659 
L 215.76 245.125687 
L 216.039 251.709098 
L 216.225 254.249844 
L 216.318 253.599013 
L 216.69 248.379844 
L 217.155 253.448821 
L 217.341 251.934386 
L 217.527 250.119567 
L 217.62 250.244727 
L 217.899 254.212296 
L 217.992 254.162232 
L 218.178 250.945622 
L 218.55 242.997968 
L 218.643 243.410996 
L 218.922 246.464898 
L 219.108 246.640122 
L 219.294 248.142041 
L 219.573 251.471294 
L 219.666 250.933106 
L 220.038 246.777797 
L 220.41 248.742808 
L 220.689 249.45622 
L 220.968 248.204621 
L 221.061 248.32978 
L 221.34 250.344855 
L 221.898 255.977051 
L 222.084 253.361209 
L 222.456 246.752766 
L 222.642 246.414834 
L 222.735 246.890442 
L 222.921 249.944343 
L 223.2 255.701699 
L 223.293 255.413831 
L 223.479 251.020719 
L 223.758 245.263362 
L 223.851 245.588779 
L 224.223 250.069503 
L 224.316 249.45622 
L 224.781 242.472297 
L 224.967 246.089418 
L 225.246 251.98445 
L 225.339 252.097094 
L 225.525 251.60897 
L 225.711 252.797989 
L 225.897 253.323661 
L 226.083 250.357371 
L 226.362 246.101934 
L 226.455 246.377286 
L 226.92 250.545111 
L 227.292 255.764279 
L 227.385 255.451379 
L 227.664 251.17091 
L 228.129 242.071785 
L 228.222 242.209461 
L 228.408 245.050591 
L 228.687 248.592616 
L 228.966 247.966817 
L 229.245 249.819183 
L 229.338 249.643959 
L 229.524 248.567584 
L 229.617 248.605132 
L 229.803 250.970655 
L 230.082 253.936944 
L 230.175 253.561464 
L 230.454 251.346134 
L 230.547 251.67155 
L 230.826 253.223533 
L 231.012 251.346134 
L 231.291 248.692744 
L 231.477 249.819183 
L 231.756 251.508842 
L 231.849 251.48381 
L 232.035 250.207179 
L 232.5 247.053149 
L 232.686 247.366049 
L 232.779 247.215857 
L 232.965 246.61509 
L 233.058 246.640122 
L 233.337 248.680228 
L 233.43 248.655196 
L 233.709 246.327222 
L 233.802 246.565026 
L 234.267 252.848053 
L 234.453 251.208459 
L 234.639 249.944343 
L 234.732 250.344855 
L 235.011 252.910633 
L 235.104 252.985729 
L 235.29 251.909354 
L 235.569 250.645239 
L 235.755 250.607691 
L 235.941 250.657755 
L 236.034 250.244727 
L 236.499 244.612531 
L 236.592 245.55123 
L 237.057 255.914471 
L 237.15 255.451379 
L 237.894 241.683789 
L 238.08 237.891444 
L 238.173 237.941508 
L 238.359 242.484813 
L 238.638 249.543831 
L 238.917 251.158394 
L 239.289 253.411273 
L 239.382 253.398757 
L 239.568 251.846774 
L 239.847 249.869247 
L 239.94 249.919311 
L 240.126 251.54639 
L 240.498 256.077179 
L 240.684 253.699141 
L 240.963 249.381124 
L 241.056 249.093256 
L 241.335 250.344855 
L 241.521 247.528757 
L 241.8 242.459781 
L 241.893 242.397201 
L 242.358 246.464898 
L 242.637 247.566305 
L 243.102 250.632723 
L 243.288 248.780356 
L 243.474 246.86541 
L 243.567 247.253405 
L 243.846 251.596454 
L 244.125 254.600292 
L 244.311 254.95074 
L 244.497 253.749204 
L 244.776 251.634002 
L 244.962 251.258522 
L 245.148 249.481252 
L 245.427 246.602574 
L 245.52 246.890442 
L 245.799 249.155836 
L 245.892 249.306028 
L 246.171 248.755324 
L 246.357 250.369887 
L 246.636 252.42251 
L 246.729 251.846774 
L 247.101 246.23961 
L 247.194 246.30219 
L 247.473 248.066944 
L 247.659 244.625047 
L 247.938 238.855175 
L 248.031 240.582382 
L 248.496 257.303746 
L 248.589 256.91575 
L 248.868 253.624044 
L 248.961 253.586497 
L 249.24 254.337456 
L 249.426 252.898117 
L 249.891 247.503725 
L 249.984 248.079461 
L 250.356 252.372446 
L 250.728 247.779077 
L 250.821 248.292233 
L 251.007 250.269759 
L 251.1 250.257243 
L 251.751 244.725175 
L 251.844 244.850335 
L 252.03 247.078181 
L 252.402 253.536433 
L 252.495 253.674108 
L 252.681 252.272317 
L 253.518 245.576262 
L 253.611 245.651359 
L 253.89 247.190825 
L 254.448 251.996966 
L 254.634 252.685345 
L 255.006 255.451379 
L 255.192 253.786752 
L 255.657 245.463619 
L 255.936 240.87025 
L 256.122 240.30703 
L 256.308 241.871529 
L 257.331 255.363767 
L 257.517 256.289951 
L 257.61 256.089695 
L 258.168 251.709098 
L 258.447 249.606411 
L 258.54 249.531315 
L 258.726 249.719055 
L 258.819 249.481252 
L 259.284 247.040633 
L 259.656 248.605132 
L 259.842 247.078181 
L 260.028 245.563746 
L 260.121 245.563746 
L 260.493 247.115729 
L 260.958 251.29607 
L 261.051 250.970655 
L 261.33 248.041913 
L 261.423 248.179588 
L 261.795 253.123405 
L 261.888 252.998245 
L 262.26 250.745367 
L 262.446 250.958139 
L 262.818 248.242168 
L 263.004 250.344855 
L 263.283 254.062104 
L 263.376 253.661593 
L 263.841 247.315985 
L 263.934 247.541273 
L 264.213 249.481252 
L 264.306 249.343576 
L 264.864 246.439866 
L 264.957 246.652638 
L 265.143 248.905516 
L 265.422 252.384961 
L 265.515 252.535153 
L 265.701 251.220974 
L 266.166 246.264642 
L 266.259 246.089418 
L 266.445 246.790313 
L 267.375 251.696582 
L 267.561 249.981891 
L 267.84 247.566305 
L 268.026 250.006923 
L 268.305 253.311145 
L 268.398 253.148437 
L 268.677 251.195942 
L 268.77 251.371166 
L 269.049 253.098373 
L 269.142 252.535153 
L 269.421 246.36477 
L 269.607 242.885324 
L 269.7 242.497329 
L 269.886 244.775239 
L 270.165 249.318544 
L 270.258 249.08074 
L 270.63 245.325942 
L 270.816 248.943064 
L 271.095 254.662872 
L 271.188 253.824301 
L 271.653 243.110612 
L 271.839 247.729013 
L 272.118 254.70042 
L 272.211 254.087136 
L 272.583 246.953021 
L 272.676 247.315985 
L 273.141 254.26236 
L 273.513 250.056987 
L 273.606 250.107051 
L 273.885 251.996966 
L 273.978 251.896838 
L 274.164 249.105772 
L 274.443 244.762723 
L 274.629 246.92799 
L 274.815 248.943064 
L 274.908 248.805388 
L 275.094 247.491209 
L 275.187 247.691465 
L 275.652 252.134642 
L 275.838 251.884322 
L 275.931 252.272317 
L 276.21 255.100932 
L 276.303 254.800548 
L 276.768 248.242168 
L 276.861 248.279717 
L 276.954 248.179588 
L 277.14 247.165793 
L 277.512 244.637563 
L 277.605 245.038075 
L 278.07 250.720335 
L 278.163 250.269759 
L 278.442 247.966817 
L 278.535 248.467456 
L 278.907 252.697861 
L 279 252.572701 
L 279.279 249.043192 
L 279.558 246.514962 
L 279.744 245.401039 
L 280.023 243.198224 
L 280.116 243.360932 
L 280.302 246.352254 
L 280.581 251.246006 
L 280.674 251.383682 
L 280.86 250.870526 
L 280.953 250.995686 
L 281.325 253.123405 
L 281.511 250.432467 
L 281.883 243.52364 
L 281.976 243.886604 
L 282.441 250.269759 
L 282.72 247.303469 
L 282.813 247.391081 
L 283.185 253.448821 
L 283.278 253.411273 
L 283.743 248.667712 
L 283.929 251.145879 
L 284.115 253.836817 
L 284.208 253.974492 
L 284.58 251.220974 
L 284.766 254.187264 
L 285.138 262.360206 
L 285.231 262.360206 
L 285.417 258.943341 
L 285.696 253.987008 
L 285.789 254.049588 
L 285.975 254.500164 
L 286.068 254.1372 
L 286.812 245.901678 
L 287.463 231.708544 
L 287.742 227.315432 
L 287.835 227.440592 
L 288.021 231.933832 
L 289.137 274.876197 
L 289.23 274.700973 
L 289.416 270.858564 
L 289.881 251.60897 
L 290.253 238.392084 
L 290.439 236.739973 
L 290.532 237.515964 
L 290.718 242.522361 
L 291.183 259.381401 
L 291.276 259.368884 
L 291.462 254.863128 
L 292.113 224.974942 
L 292.206 225.901125 
L 292.392 231.445709 
L 293.136 260.119844 
L 293.229 259.581656 
L 293.415 253.223533 
L 293.88 232.772404 
L 293.973 232.97266 
L 294.159 237.628608 
L 294.438 251.321102 
L 294.996 289.269587 
L 295.089 289.745194 
L 295.275 283.261911 
L 296.112 233.623491 
L 296.484 242.622489 
L 296.577 242.559909 
L 296.949 238.667435 
L 297.228 243.3359 
L 297.414 245.513682 
L 297.507 245.601295 
L 297.786 244.800271 
L 298.065 245.325942 
L 298.158 245.138203 
L 298.344 243.874088 
L 298.53 242.58494 
L 298.623 242.547393 
L 298.716 243.060548 
L 298.902 246.452382 
L 299.367 263.524194 
L 299.646 271.822296 
L 299.739 271.985003 
L 299.925 264.913468 
L 300.297 244.387243 
L 300.39 244.237051 
L 300.669 249.981891 
L 300.762 249.39364 
L 301.134 240.18187 
L 301.32 248.154557 
L 301.599 260.432744 
L 301.692 259.75688 
L 302.064 252.48509 
L 302.343 252.04703 
L 302.622 250.319823 
L 302.715 250.570143 
L 302.994 252.960697 
L 303.087 252.435026 
L 303.273 247.666433 
L 303.738 231.65848 
L 303.831 231.182873 
L 303.924 231.883768 
L 304.947 249.180868 
L 305.04 249.130804 
L 305.226 248.429908 
L 305.319 248.918032 
L 305.505 253.599013 
L 305.877 264.300185 
L 305.97 263.499161 
L 306.435 251.846774 
L 306.714 247.428629 
L 306.807 248.242168 
L 307.365 261.020995 
L 307.551 259.794428 
L 307.737 256.390079 
L 308.016 241.133086 
L 308.295 227.015048 
L 308.388 226.702148 
L 308.574 232.171636 
L 309.411 267.366603 
L 309.504 265.727008 
L 309.69 255.075899 
L 310.062 230.169078 
L 310.155 230.206626 
L 310.341 236.664877 
L 311.271 274.613361 
L 311.364 273.950014 
L 311.55 265.614364 
L 311.922 249.08074 
L 312.387 242.660037 
L 312.759 234.549675 
L 312.852 235.037798 
L 313.038 240.882766 
L 313.41 256.452659 
L 313.782 261.796986 
L 313.875 262.485366 
L 313.968 261.997243 
L 314.526 253.448821 
L 314.619 253.511401 
L 314.712 253.110889 
L 314.898 249.806668 
L 315.549 230.519525 
L 315.642 230.093982 
L 315.735 230.13153 
L 315.921 232.109056 
L 316.944 257.579098 
L 317.223 267.429183 
L 317.316 268.442978 
L 317.409 268.142594 
L 317.781 261.596731 
L 317.967 255.426347 
L 318.339 239.468459 
L 318.432 238.617371 
L 318.525 239.017883 
L 318.711 243.110612 
L 319.176 258.229929 
L 319.362 251.659034 
L 320.199 212.95959 
L 320.292 214.724345 
L 320.478 230.619653 
L 320.757 258.04219 
L 320.85 259.118565 
L 321.036 249.481252 
L 321.222 239.793875 
L 321.315 239.718779 
L 321.501 248.229653 
L 321.78 262.885878 
L 321.873 264.062381 
L 321.966 263.53671 
L 322.431 256.202339 
L 322.71 254.537712 
L 322.803 254.612808 
L 322.989 256.965814 
L 323.454 266.052424 
L 323.547 265.176304 
L 323.733 258.693021 
L 324.198 239.994131 
L 324.291 241.571146 
L 324.57 256.327499 
L 324.942 271.609523 
L 325.221 275.414385 
L 325.314 275.702252 
L 325.407 275.126517 
L 325.593 271.496879 
L 325.872 261.834535 
L 326.337 244.424791 
L 326.616 239.994131 
L 326.709 240.05671 
L 326.895 242.272041 
L 327.36 253.073341 
L 327.639 259.043469 
L 327.732 259.619204 
L 327.825 259.381401 
L 328.011 257.579098 
L 328.197 253.060825 
L 328.476 234.399482 
L 328.755 217.740699 
L 328.848 217.302639 
L 329.034 222.446711 
L 329.406 233.298075 
L 329.685 240.256966 
L 329.964 247.478693 
L 330.522 251.771678 
L 330.615 251.60897 
L 330.801 248.292233 
L 331.173 238.942787 
L 331.266 238.579824 
L 331.359 239.468459 
L 331.917 252.597733 
L 332.475 249.681508 
L 332.94 249.5188 
L 333.126 249.368608 
L 333.219 249.856731 
L 333.405 252.873085 
L 333.777 260.895835 
L 333.87 260.695579 
L 334.242 254.550228 
L 334.335 254.650356 
L 334.521 256.189823 
L 334.614 256.114727 
L 334.8 252.10961 
L 335.172 241.646241 
L 335.265 241.18315 
L 335.451 241.946625 
L 335.73 244.687627 
L 336.195 254.037072 
L 336.288 252.935665 
L 336.753 236.089141 
L 336.846 236.502169 
L 337.776 256.828138 
L 338.055 264.600568 
L 338.148 265.301464 
L 338.241 265.051144 
L 338.427 261.822019 
L 339.078 241.158118 
L 339.264 242.96042 
L 339.636 247.253405 
L 340.101 266.728287 
L 340.194 265.789588 
L 340.752 245.401039 
L 340.938 245.964258 
L 341.031 245.275879 
L 341.403 239.981615 
L 341.589 242.622489 
L 342.147 260.13236 
L 342.24 259.6943 
L 342.426 253.886881 
L 342.891 236.089141 
L 342.984 235.638566 
L 343.077 236.076626 
L 344.379 251.54639 
L 344.751 257.178586 
L 344.844 256.66543 
L 345.123 250.282275 
L 345.402 245.939226 
L 345.495 246.527478 
L 346.053 253.774237 
L 346.146 254.099652 
L 346.239 254.850612 
L 346.518 261.596731 
L 346.89 269.994961 
L 346.983 270.045025 
L 347.169 266.703255 
L 347.448 251.446262 
L 347.82 226.964984 
L 347.913 225.262809 
L 348.006 225.463065 
L 348.192 230.13153 
L 348.471 242.89784 
L 348.843 263.424065 
L 348.936 264.350249 
L 349.029 262.698138 
L 349.773 237.065389 
L 349.866 237.52848 
L 350.052 240.219418 
L 350.703 255.526475 
L 350.796 255.363767 
L 351.168 251.283554 
L 351.447 252.435026 
L 351.633 249.694024 
L 351.912 245.200783 
L 352.098 250.757883 
L 352.47 266.277712 
L 352.563 265.426624 
L 353.028 251.383682 
L 353.307 252.259802 
L 353.493 250.632723 
L 353.772 246.377286 
L 353.865 246.327222 
L 354.051 247.666433 
L 354.237 249.218416 
L 354.33 249.155836 
L 354.516 247.015601 
L 354.795 243.824024 
L 354.981 245.476135 
L 355.26 247.641401 
L 355.446 248.016881 
L 355.539 248.617648 
L 355.725 253.060825 
L 356.19 268.180142 
L 356.283 266.477967 
L 357.027 238.567308 
L 357.492 225.325389 
L 357.585 225.913641 
L 357.771 232.509568 
L 358.143 246.539994 
L 358.329 247.541273 
L 358.515 247.215857 
L 358.701 248.39236 
L 358.98 250.082019 
L 359.166 248.792872 
L 359.724 243.023 
L 359.817 243.58622 
L 360.003 247.716497 
L 360.375 257.128522 
L 360.468 257.191102 
L 360.747 254.587776 
L 360.84 255.050868 
L 361.212 262.059823 
L 361.305 261.959695 
L 361.77 255.926987 
L 361.863 255.952019 
L 362.049 257.378842 
L 362.514 263.248842 
L 362.607 263.236326 
L 362.793 260.945899 
L 363.537 247.966817 
L 364.002 245.526199 
L 364.095 245.563746 
L 364.281 247.240889 
L 364.653 252.560185 
L 364.746 252.61025 
L 364.932 250.044471 
L 365.304 236.652361 
L 365.583 229.19283 
L 365.676 228.554515 
L 365.769 228.679675 
L 366.234 231.320549 
L 366.327 231.72106 
L 366.513 235.288118 
L 367.164 253.298629 
L 367.536 254.763 
L 367.629 254.800548 
L 367.722 254.625324 
L 368.373 251.10833 
L 368.559 250.807947 
L 368.652 250.570143 
L 368.745 250.732851 
L 368.931 253.098373 
L 369.396 261.671827 
L 369.489 261.634279 
L 369.861 259.431464 
L 370.14 260.520355 
L 370.233 260.219972 
L 370.419 257.04091 
L 370.698 251.67155 
L 370.791 251.208459 
L 370.884 251.283554 
L 370.977 251.35865 
L 371.163 250.632723 
L 371.349 249.994407 
L 371.442 250.344855 
L 371.814 255.488927 
L 371.907 255.426347 
L 372.093 252.209738 
L 372.651 239.743811 
L 372.744 239.781359 
L 372.93 242.134365 
L 373.395 251.033235 
L 373.581 252.122126 
L 373.674 252.184706 
L 373.767 251.92187 
L 373.953 249.531315 
L 374.418 241.758885 
L 374.697 240.532318 
L 374.79 240.669994 
L 374.976 242.334621 
L 375.441 248.379844 
L 375.534 248.279717 
L 375.813 247.265921 
L 375.906 247.666433 
L 376.092 250.031955 
L 376.557 257.303746 
L 376.65 257.078458 
L 376.929 255.063384 
L 377.022 255.100932 
L 377.208 256.127243 
L 377.301 255.964535 
L 377.487 252.522637 
L 377.766 246.940506 
L 377.859 246.752766 
L 378.045 247.015601 
L 378.138 246.439866 
L 378.51 240.594898 
L 378.603 241.133086 
L 379.068 251.596454 
L 379.161 250.845495 
L 379.626 241.608693 
L 379.719 241.909077 
L 380.184 246.36477 
L 380.463 245.413555 
L 380.556 245.688906 
L 381.021 250.457499 
L 381.114 250.369887 
L 381.3 250.082019 
L 381.486 250.432467 
L 381.765 251.496326 
L 382.23 256.815622 
L 382.323 256.79059 
L 382.695 255.338735 
L 382.881 255.977051 
L 382.974 255.839375 
L 383.16 252.948181 
L 383.532 245.125687 
L 383.904 242.347137 
L 383.997 242.609973 
L 384.183 245.563746 
L 384.648 254.975772 
L 385.02 257.679226 
L 385.113 257.66671 
L 385.299 256.340015 
L 385.485 254.88816 
L 385.578 254.850612 
L 385.857 255.801827 
L 385.95 255.626603 
L 386.136 254.037072 
L 386.508 250.382403 
L 386.787 248.70526 
L 387.066 244.374728 
L 387.345 240.231934 
L 387.438 240.094258 
L 387.624 241.032958 
L 387.996 243.9617 
L 388.275 246.202062 
L 388.368 245.976774 
L 388.554 243.52364 
L 388.926 236.952745 
L 389.019 236.915197 
L 389.205 239.706263 
L 389.856 255.301187 
L 390.135 256.314983 
L 390.321 256.465175 
L 390.414 256.152275 
L 390.6 254.26236 
L 391.158 246.477414 
L 391.251 246.827862 
L 391.437 249.506284 
L 391.809 255.639119 
L 391.902 255.751763 
L 392.181 255.251123 
L 392.553 257.60413 
L 392.646 257.241166 
L 393.576 248.39236 
L 393.855 247.754045 
L 393.948 247.666433 
L 394.134 246.777797 
L 394.599 243.71138 
L 394.785 243.611252 
L 394.971 243.999248 
L 395.157 244.850335 
L 395.436 246.264642 
L 395.529 246.089418 
L 395.715 244.424791 
L 395.994 241.508566 
L 396.087 241.783917 
L 396.552 246.277158 
L 396.738 246.214578 
L 396.831 246.640122 
L 397.11 250.444983 
L 397.482 254.349972 
L 397.854 256.990846 
L 397.947 256.85317 
L 398.133 254.70042 
L 398.505 249.668991 
L 398.598 250.132083 
L 399.063 256.177307 
L 399.156 256.114727 
L 399.342 255.789311 
L 399.435 255.939503 
L 399.621 257.316262 
L 399.9 259.256241 
L 399.993 259.131081 
L 400.179 257.566582 
L 400.551 250.319823 
L 400.923 245.713939 
L 401.388 241.608693 
L 401.574 243.636284 
L 401.853 246.915473 
L 401.946 246.702702 
L 402.318 244.161955 
L 402.411 244.124408 
L 402.504 244.224535 
L 402.597 244.149439 
L 402.783 243.39848 
L 402.969 242.797713 
L 403.062 242.972937 
L 403.341 244.762723 
L 403.899 248.918032 
L 403.992 249.093256 
L 404.085 248.968096 
L 404.457 247.128245 
L 404.55 247.190825 
L 404.736 248.717776 
L 405.294 254.925708 
L 405.48 255.676667 
L 405.573 255.576539 
L 405.759 254.487648 
L 406.503 248.83042 
L 406.596 249.180868 
L 407.061 253.674108 
L 407.433 252.384961 
L 407.712 253.010761 
L 407.898 251.521358 
L 408.27 246.414834 
L 408.363 246.464898 
L 408.549 248.555068 
L 408.921 254.174748 
L 409.014 254.537712 
L 409.107 254.362488 
L 409.479 252.272317 
L 409.572 252.29735 
L 409.758 253.010761 
L 409.851 253.023277 
L 409.944 252.535153 
L 410.223 248.267201 
L 410.502 245.200783 
L 410.595 245.401039 
L 410.967 247.503725 
L 411.153 246.690186 
L 411.432 245.200783 
L 411.618 246.252126 
L 411.897 247.603853 
L 411.99 247.478693 
L 412.269 246.652638 
L 412.362 246.765282 
L 412.92 249.255964 
L 413.013 249.255964 
L 413.292 248.217137 
L 413.571 245.901678 
L 413.943 242.885324 
L 414.036 242.77268 
L 414.222 243.260804 
L 414.501 245.225815 
L 414.966 249.894279 
L 415.245 250.194663 
L 415.431 251.909354 
L 415.71 254.963255 
L 415.803 255.050868 
L 416.268 252.497605 
L 416.454 253.548949 
L 416.733 254.988288 
L 416.826 255.038352 
L 417.012 254.963255 
L 417.477 255.814343 
L 417.663 255.413831 
L 417.942 253.736688 
L 418.5 247.754045 
L 418.593 247.929269 
L 419.058 250.269759 
L 419.244 250.194663 
L 419.43 250.98317 
L 419.802 253.461337 
L 419.988 253.599013 
L 420.267 252.460057 
L 420.546 249.856731 
L 421.011 244.08686 
L 421.104 244.212019 
L 421.383 245.138203 
L 421.569 244.287115 
L 421.755 243.285836 
L 421.848 243.198224 
L 421.941 243.27332 
L 422.034 243.08558 
L 422.22 241.721337 
L 422.499 239.405879 
L 422.592 239.818907 
L 422.871 244.212019 
L 423.15 247.754045 
L 423.336 248.229653 
L 423.522 247.553789 
L 423.894 245.901678 
L 423.987 245.964258 
L 424.08 246.202062 
L 424.545 248.780356 
L 424.638 248.855452 
L 424.917 248.655196 
L 425.01 249.01816 
L 425.196 251.684066 
L 425.661 259.619204 
L 425.754 259.994684 
L 425.847 259.907072 
L 426.126 258.630441 
L 426.312 256.803106 
L 426.684 252.397477 
L 426.777 252.597733 
L 427.056 254.174748 
L 427.149 254.049588 
L 427.986 248.104493 
L 428.358 243.123128 
L 428.451 242.872808 
L 428.544 243.073064 
L 428.823 245.751486 
L 429.195 251.67155 
L 429.567 257.929546 
L 429.66 258.317541 
L 429.753 258.029673 
L 429.939 256.064663 
L 430.497 248.379844 
L 430.59 248.066944 
L 430.683 248.204621 
L 430.869 249.5188 
L 431.241 252.309866 
L 431.334 252.134642 
L 431.52 250.495047 
L 432.078 240.857734 
L 432.357 237.203064 
L 432.45 237.052873 
L 432.636 238.742531 
L 433.287 248.83042 
L 433.473 247.353533 
L 433.938 243.048032 
L 434.124 242.635004 
L 434.217 242.997968 
L 434.403 245.200783 
L 435.24 258.417669 
L 435.333 258.355089 
L 435.519 257.403874 
L 435.798 255.050868 
L 436.356 248.254684 
L 436.449 248.505004 
L 437.007 252.347413 
L 437.193 251.070782 
L 437.658 245.563746 
L 437.937 244.812787 
L 438.03 244.800271 
L 438.216 245.300911 
L 438.588 246.978053 
L 438.681 246.99057 
L 439.053 246.17703 
L 439.146 246.464898 
L 439.611 249.568864 
L 439.797 249.631444 
L 439.983 250.832979 
L 440.448 255.776795 
L 440.634 254.312424 
L 441.099 249.506284 
L 441.285 248.680228 
L 441.378 248.980612 
L 441.564 251.258522 
L 441.936 256.677946 
L 442.029 256.277435 
L 442.494 250.482531 
L 442.587 250.532595 
L 442.866 251.408714 
L 443.052 250.219695 
L 443.331 247.641401 
L 443.424 247.478693 
L 443.61 248.617648 
L 443.982 251.834258 
L 444.447 253.010761 
L 444.54 253.023277 
L 444.726 252.04703 
L 445.377 246.227094 
L 445.47 245.976774 
L 445.563 246.026838 
L 445.749 246.389802 
L 446.028 247.428629 
L 446.307 249.08074 
L 446.586 250.770399 
L 446.679 250.607691 
L 447.144 248.129524 
L 447.423 247.829141 
L 447.981 246.089418 
L 448.074 246.23961 
L 448.446 247.466177 
L 448.725 248.467456 
L 449.19 250.920591 
L 449.283 250.645239 
L 449.934 246.590058 
L 450.12 247.115729 
L 450.678 250.157115 
L 450.771 249.969375 
L 451.422 246.965537 
L 451.608 246.752766 
L 451.98 245.55123 
L 452.073 245.701422 
L 452.259 246.877926 
L 452.631 249.881763 
L 452.817 250.244727 
L 453.189 250.169631 
L 453.468 251.033235 
L 453.747 251.871806 
L 453.84 251.909354 
L 454.026 251.23349 
L 454.398 249.981891 
L 454.77 250.044471 
L 455.049 250.820463 
L 455.421 252.42251 
L 455.886 253.023277 
L 455.979 253.211017 
L 456.165 252.898117 
L 456.444 252.034514 
L 456.537 252.034514 
L 457.002 254.062104 
L 457.188 253.223533 
L 457.467 251.996966 
L 457.653 251.346134 
L 457.932 250.169631 
L 458.025 250.082019 
L 458.211 250.444983 
L 458.49 250.908075 
L 458.583 251.008202 
L 458.676 250.920591 
L 458.862 250.182147 
L 459.327 247.816625 
L 459.792 246.23961 
L 460.164 243.77396 
L 460.35 244.725175 
L 460.722 246.627606 
L 460.908 246.890442 
L 461.094 247.904237 
L 461.373 249.406156 
L 461.466 249.180868 
L 461.838 247.566305 
L 462.024 248.792872 
L 462.396 251.558906 
L 462.489 251.446262 
L 463.047 249.794151 
L 463.233 249.39364 
L 463.512 247.716497 
L 463.977 244.812787 
L 464.07 244.875367 
L 464.256 246.17703 
L 464.721 250.782915 
L 464.814 250.632723 
L 465.093 249.631444 
L 465.186 249.831699 
L 465.651 253.148437 
L 465.744 253.060825 
L 466.116 252.372446 
L 466.302 252.334897 
L 466.395 252.372446 
L 466.581 251.934386 
L 466.86 250.219695 
L 467.139 249.193384 
L 467.232 249.218416 
L 467.325 249.406156 
L 467.883 252.697861 
L 468.162 253.949461 
L 468.255 253.799268 
L 468.534 251.98445 
L 469.278 245.914194 
L 469.464 245.513682 
L 469.743 247.278437 
L 470.022 248.605132 
L 470.115 248.83042 
L 470.394 250.933106 
L 470.673 253.473853 
L 470.766 253.561464 
L 470.859 253.160953 
L 471.417 248.267201 
L 471.696 247.453661 
L 471.789 247.428629 
L 471.975 248.567584 
L 472.44 252.985729 
L 472.533 253.048309 
L 472.719 252.159673 
L 473.742 244.712659 
L 473.928 244.537435 
L 474.114 244.612531 
L 474.3 245.038075 
L 475.23 249.443704 
L 475.602 251.834258 
L 475.695 251.834258 
L 475.881 251.29607 
L 476.811 247.378565 
L 476.904 247.491209 
L 477.369 250.607691 
L 477.462 250.382403 
L 478.113 247.178309 
L 478.299 246.752766 
L 478.485 246.940506 
L 479.136 249.381124 
L 479.694 252.184706 
L 479.88 251.508842 
L 480.438 248.004365 
L 480.624 247.816625 
L 480.81 247.841657 
L 480.996 248.217137 
L 481.275 248.880484 
L 481.368 248.893 
L 481.647 248.542552 
L 481.74 248.555068 
L 481.926 249.280996 
L 482.205 251.60897 
L 482.484 253.336177 
L 482.577 253.123405 
L 482.856 250.870526 
L 483.135 248.980612 
L 483.228 248.855452 
L 483.414 249.39364 
L 484.065 252.860569 
L 484.251 252.435026 
L 484.623 251.271038 
L 484.995 251.42123 
L 485.181 250.782915 
L 486.018 246.277158 
L 486.111 246.377286 
L 486.669 248.76784 
L 486.855 248.592616 
L 487.32 249.781635 
L 487.506 248.943064 
L 487.785 247.841657 
L 487.878 247.741529 
L 488.343 248.179588 
L 488.715 247.240889 
L 488.901 247.628885 
L 489.645 251.596454 
L 489.738 251.60897 
L 490.11 250.582659 
L 490.203 250.645239 
L 490.575 251.821742 
L 490.761 250.770399 
L 491.04 249.055708 
L 491.226 249.443704 
L 491.412 250.019439 
L 491.598 249.581379 
L 491.784 248.980612 
L 491.877 249.068224 
L 492.063 250.107051 
L 492.342 252.021998 
L 492.528 252.184706 
L 492.807 251.909354 
L 493.179 251.433746 
L 493.458 249.806668 
L 494.109 245.313427 
L 494.202 245.150719 
L 494.295 245.300911 
L 494.853 248.655196 
L 494.946 248.567584 
L 495.039 248.555068 
L 495.225 249.531315 
L 495.504 251.821742 
L 495.597 251.73413 
L 495.783 249.493768 
L 496.062 245.86413 
L 496.155 245.876646 
L 496.434 249.431188 
L 496.713 251.35865 
L 496.992 251.346134 
L 497.178 251.571422 
L 497.271 251.496326 
L 497.457 250.695303 
L 497.736 249.280996 
L 497.922 249.030676 
L 498.108 248.066944 
L 498.48 245.013043 
L 498.573 245.388522 
L 498.852 248.880484 
L 499.131 251.396198 
L 499.224 251.634002 
L 499.317 251.583938 
L 499.503 251.321102 
L 499.968 250.582659 
L 500.247 250.807947 
L 500.433 250.570143 
L 500.619 250.069503 
L 500.712 250.082019 
L 500.805 250.257243 
L 501.177 251.79671 
L 501.27 251.721614 
L 501.456 250.720335 
L 502.014 246.890442 
L 502.293 245.776518 
L 502.479 245.050591 
L 502.572 245.075623 
L 502.851 247.065665 
L 503.13 248.980612 
L 503.409 249.994407 
L 503.688 251.696582 
L 503.781 251.571422 
L 503.967 250.082019 
L 504.246 247.816625 
L 504.339 247.891721 
L 504.804 251.04575 
L 504.897 250.920591 
L 505.176 249.806668 
L 505.269 249.969375 
L 505.548 251.246006 
L 505.734 250.244727 
L 506.106 246.627606 
L 506.292 247.278437 
L 507.222 253.148437 
L 507.315 253.298629 
L 507.408 253.198501 
L 507.687 251.35865 
L 507.966 249.944343 
L 508.431 251.35865 
L 508.524 251.17091 
L 509.082 248.630164 
L 509.454 248.592616 
L 509.919 248.004365 
L 510.198 249.193384 
L 510.756 252.597733 
L 510.849 252.472573 
L 511.035 250.144599 
L 511.407 245.025559 
L 511.5 245.513682 
L 511.965 250.294791 
L 512.244 249.293512 
L 512.337 249.543831 
L 512.523 251.371166 
L 512.802 253.711657 
L 512.895 253.686624 
L 513.36 251.383682 
L 514.011 246.840377 
L 514.104 247.090697 
L 514.383 249.443704 
L 514.569 250.282275 
L 514.662 249.994407 
L 515.034 247.240889 
L 515.127 247.303469 
L 515.592 251.008202 
L 515.685 250.807947 
L 515.964 248.980612 
L 516.057 248.993128 
L 516.336 250.082019 
L 516.429 249.919311 
L 516.894 247.303469 
L 517.08 248.066944 
L 517.266 248.980612 
L 517.359 249.043192 
L 517.545 248.730292 
L 517.638 248.817904 
L 517.824 249.806668 
L 518.103 251.408714 
L 518.196 251.42123 
L 518.475 250.732851 
L 518.568 250.858011 
L 518.847 251.884322 
L 518.94 251.659034 
L 519.126 249.819183 
L 519.498 244.587499 
L 519.591 244.587499 
L 519.777 247.090697 
L 520.149 252.785473 
L 520.242 252.647797 
L 520.521 250.182147 
L 520.8 248.542552 
L 520.986 248.842936 
L 521.172 249.318544 
L 521.265 249.193384 
L 521.637 247.466177 
L 521.73 247.566305 
L 522.288 250.169631 
L 522.381 250.006923 
L 522.474 250.107051 
L 522.66 251.195942 
L 523.032 253.573981 
L 523.125 253.736688 
L 523.218 253.674108 
L 523.311 253.373725 
L 523.497 251.621486 
L 523.962 245.688906 
L 524.148 245.313427 
L 524.334 245.663874 
L 524.613 246.252126 
L 524.985 246.402318 
L 525.264 247.816625 
L 525.45 248.51752 
L 525.543 248.530036 
L 525.822 248.32978 
L 525.915 248.467456 
L 526.473 250.307307 
L 526.752 250.595175 
L 527.124 252.334897 
L 527.217 252.134642 
L 527.589 249.631444 
L 527.682 249.681508 
L 528.054 251.73413 
L 528.147 251.471294 
L 528.426 248.254684 
L 528.705 246.164514 
L 528.891 246.627606 
L 529.17 247.416113 
L 529.356 247.190825 
L 529.821 246.064386 
L 530.007 247.040633 
L 530.379 249.493768 
L 530.844 250.908075 
L 531.123 252.17219 
L 531.216 252.147158 
L 531.402 251.471294 
L 531.588 250.870526 
L 531.681 250.870526 
L 531.867 251.871806 
L 532.239 254.51268 
L 532.332 254.675388 
L 532.425 254.4501 
L 532.611 253.135921 
L 533.448 245.526199 
L 533.634 246.389802 
L 533.82 247.315985 
L 533.913 247.253405 
L 534.285 245.889162 
L 534.471 246.978053 
L 534.936 250.182147 
L 535.122 250.394919 
L 535.68 250.795431 
L 535.773 250.657755 
L 535.959 250.870526 
L 536.331 251.909354 
L 536.424 251.79671 
L 536.982 250.082019 
L 537.168 250.720335 
L 537.447 251.884322 
L 537.54 251.996966 
L 537.726 251.533874 
L 538.005 250.419951 
L 538.377 248.379844 
L 538.47 248.404877 
L 538.656 249.318544 
L 538.935 250.444983 
L 539.121 249.944343 
L 539.865 247.541273 
L 540.051 247.754045 
L 540.33 248.354812 
L 540.702 248.304748 
L 541.167 248.054429 
L 541.353 248.70526 
L 541.725 250.044471 
L 542.004 249.756603 
L 542.19 249.068224 
L 542.562 246.978053 
L 542.655 246.940506 
L 542.841 248.079461 
L 543.213 250.870526 
L 543.399 249.794151 
L 543.678 247.929269 
L 543.771 247.766561 
L 543.957 248.079461 
L 544.143 248.780356 
L 544.701 252.147158 
L 544.794 252.04703 
L 545.445 250.219695 
L 545.631 250.632723 
L 546.003 252.29735 
L 546.189 251.67155 
L 546.468 250.244727 
L 546.561 250.144599 
L 546.84 250.695303 
L 546.933 250.732851 
L 547.305 250.056987 
L 547.491 249.581379 
L 547.77 248.817904 
L 547.956 248.467456 
L 548.328 247.729013 
L 548.421 247.804109 
L 548.7 248.354812 
L 548.886 247.879205 
L 549.072 247.528757 
L 549.258 248.066944 
L 549.63 249.468735 
L 550.002 250.182147 
L 550.281 250.620207 
L 550.374 250.632723 
L 550.56 250.545111 
L 550.746 251.070782 
L 551.118 252.622765 
L 551.211 252.560185 
L 551.397 251.48381 
L 551.862 248.304748 
L 551.955 248.204621 
L 552.234 248.792872 
L 552.327 248.980612 
L 552.513 248.692744 
L 552.792 247.628885 
L 552.885 247.716497 
L 553.443 250.482531 
L 553.629 250.107051 
L 554.466 247.391081 
L 554.745 247.353533 
L 554.931 247.578821 
L 555.675 249.831699 
L 555.954 250.757883 
L 556.419 249.994407 
L 556.605 250.094535 
L 556.791 249.694024 
L 557.256 247.891721 
L 557.442 247.904237 
L 557.721 248.45494 
L 557.814 248.442424 
L 558.279 246.953021 
L 558.465 247.403597 
L 559.116 250.232211 
L 559.209 250.194663 
L 559.674 248.918032 
L 559.86 249.794151 
L 560.232 252.122126 
L 560.325 252.322382 
L 560.418 252.259802 
L 560.883 251.79671 
L 561.069 251.10833 
L 561.441 249.2059 
L 561.627 249.068224 
L 562.092 249.744088 
L 562.278 250.444983 
L 562.65 251.92187 
L 562.743 251.946902 
L 563.673 249.819183 
L 564.045 249.956859 
L 564.417 249.255964 
L 564.603 249.906795 
L 564.882 251.446262 
L 564.975 251.533874 
L 565.068 251.346134 
L 565.533 249.368608 
L 565.719 249.26848 
L 566.091 249.280996 
L 566.835 249.431188 
L 566.928 249.356092 
L 567.114 248.630164 
L 567.393 247.566305 
L 567.486 247.578821 
L 567.858 248.167073 
L 568.137 248.204621 
L 568.323 248.567584 
L 568.602 249.39364 
L 568.881 249.706539 
L 569.067 249.756603 
L 569.253 249.130804 
L 569.625 247.616369 
L 570.183 247.553789 
L 570.369 248.267201 
L 570.648 249.531315 
L 570.741 249.418672 
L 571.206 247.441145 
L 571.485 248.016881 
L 572.415 250.707819 
L 572.508 250.607691 
L 573.066 249.180868 
L 573.345 249.055708 
L 573.624 249.593895 
L 574.275 251.333618 
L 574.461 251.471294 
L 574.833 251.60897 
L 575.298 251.321102 
L 575.577 250.958139 
L 575.856 249.606411 
L 576.228 247.729013 
L 576.321 247.553789 
L 576.414 247.603853 
L 576.6 248.304748 
L 576.972 250.257243 
L 577.251 250.895559 
L 577.437 250.920591 
L 577.623 250.157115 
L 578.088 247.491209 
L 578.274 247.366049 
L 578.46 247.478693 
L 578.646 247.954301 
L 579.018 249.180868 
L 579.39 249.068224 
L 579.762 249.856731 
L 579.855 249.744088 
L 580.599 248.041913 
L 580.785 247.966817 
L 580.971 248.379844 
L 581.25 249.618928 
L 581.622 251.371166 
L 581.808 251.67155 
L 582.273 251.321102 
L 582.459 251.258522 
L 582.645 250.607691 
L 583.11 248.342297 
L 583.296 248.217137 
L 583.482 248.254684 
L 583.947 248.742808 
L 584.226 249.130804 
L 584.412 249.130804 
L 585.156 248.505004 
L 585.435 248.717776 
L 585.807 249.706539 
L 585.993 250.006923 
L 586.179 250.006923 
L 586.365 249.794151 
L 586.644 249.593895 
L 586.737 249.731571 
L 587.109 251.070782 
L 587.202 251.070782 
L 587.388 250.332339 
L 587.76 248.742808 
L 587.853 248.855452 
L 588.132 250.319823 
L 588.411 251.571422 
L 588.504 251.571422 
L 588.69 250.995686 
L 588.969 250.119567 
L 589.155 250.019439 
L 589.62 249.944343 
L 589.992 250.307307 
L 590.271 249.5188 
L 590.457 248.943064 
L 590.55 248.855452 
L 590.736 249.180868 
L 591.015 249.881763 
L 591.201 249.719055 
L 591.48 249.280996 
L 591.852 249.030676 
L 592.038 248.567584 
L 592.317 247.891721 
L 592.503 248.304748 
L 592.968 249.881763 
L 593.154 250.169631 
L 593.433 250.670271 
L 593.619 250.545111 
L 593.898 249.406156 
L 594.27 247.779077 
L 594.363 247.779077 
L 595.2 249.969375 
L 595.572 250.670271 
L 595.758 250.444983 
L 595.944 249.844215 
L 596.409 247.353533 
L 596.502 247.228373 
L 596.688 247.466177 
L 597.153 248.692744 
L 597.432 249.931827 
L 597.711 251.008202 
L 597.804 251.070782 
L 598.176 250.545111 
L 598.641 250.908075 
L 599.106 249.956859 
L 599.385 249.931827 
L 599.571 249.543831 
L 600.036 248.041913 
L 600.594 247.754045 
L 600.687 247.766561 
L 601.059 248.680228 
L 601.245 248.95558 
L 601.431 248.980612 
L 601.524 249.130804 
L 602.082 251.158394 
L 602.175 251.033235 
L 602.454 250.357371 
L 602.64 250.720335 
L 602.919 251.92187 
L 603.012 251.909354 
L 603.198 251.095815 
L 603.477 249.981891 
L 603.663 250.207179 
L 603.849 250.482531 
L 604.128 250.357371 
L 604.593 250.069503 
L 605.244 248.730292 
L 605.43 248.605132 
L 605.895 248.655196 
L 606.081 248.292233 
L 606.174 248.279717 
L 606.36 248.805388 
L 606.825 251.458778 
L 606.918 251.433746 
L 607.104 250.832979 
L 607.569 248.805388 
L 608.034 248.154557 
L 608.127 248.041913 
L 608.406 248.893 
L 608.778 249.994407 
L 608.871 249.944343 
L 609.243 249.293512 
L 609.429 249.068224 
L 609.708 247.979333 
L 609.987 246.840377 
L 610.08 246.777797 
L 610.266 247.265921 
L 610.638 248.467456 
L 610.917 248.780356 
L 611.382 249.944343 
L 611.568 249.894279 
L 612.126 249.243448 
L 612.405 249.005644 
L 612.684 249.443704 
L 613.149 250.044471 
L 613.335 250.044471 
L 613.893 249.243448 
L 613.986 249.356092 
L 614.358 250.132083 
L 614.451 250.069503 
L 614.544 250.006923 
L 615.009 249.155836 
L 615.102 249.105772 
L 615.288 249.243448 
L 615.474 249.26848 
L 615.66 249.2059 
L 615.753 249.193384 
L 616.497 250.282275 
L 616.962 249.543831 
L 617.241 249.068224 
L 617.52 249.068224 
L 617.799 249.643959 
L 618.357 251.070782 
L 618.636 251.35865 
L 618.822 251.246006 
L 619.101 250.720335 
L 619.566 249.45622 
L 619.752 249.431188 
L 620.031 249.919311 
L 620.403 250.720335 
L 620.589 250.732851 
L 620.682 250.732851 
L 621.24 249.218416 
L 621.519 248.717776 
L 621.705 248.76784 
L 622.077 249.255964 
L 622.356 249.581379 
L 622.635 250.044471 
L 622.821 249.919311 
L 623.658 248.179588 
L 624.123 247.366049 
L 624.309 247.328501 
L 624.495 247.165793 
L 624.681 247.228373 
L 625.239 248.117009 
L 625.518 248.367328 
L 626.355 250.107051 
L 626.634 249.819183 
L 626.913 249.593895 
L 627.285 249.769119 
L 627.936 249.368608 
L 628.122 249.581379 
L 628.494 250.169631 
L 628.959 250.845495 
L 630.075 249.606411 
L 630.261 249.994407 
L 630.633 250.582659 
L 630.726 250.582659 
L 631.098 249.869247 
L 631.563 250.019439 
L 632.121 249.694024 
L 632.307 249.643959 
L 632.493 249.318544 
L 633.051 247.891721 
L 633.609 248.780356 
L 633.888 248.930548 
L 634.26 249.381124 
L 634.446 249.356092 
L 635.376 250.132083 
L 635.562 250.182147 
L 635.934 250.294791 
L 636.492 249.343576 
L 636.864 248.542552 
L 636.957 248.542552 
L 637.515 249.45622 
L 637.887 249.168352 
L 638.073 249.306028 
L 638.352 249.681508 
L 638.538 249.618928 
L 638.817 249.418672 
L 639.375 250.244727 
L 639.654 250.482531 
L 639.933 250.845495 
L 640.026 250.920591 
L 640.212 250.657755 
L 640.956 249.030676 
L 641.142 249.368608 
L 641.514 250.294791 
L 641.7 250.169631 
L 641.886 249.881763 
L 642.351 249.381124 
L 642.723 248.730292 
L 643.095 248.567584 
L 643.56 247.528757 
L 643.746 247.453661 
L 644.397 248.417392 
L 644.583 248.70526 
L 644.862 249.593895 
L 645.141 250.269759 
L 645.234 250.294791 
L 646.257 248.930548 
L 646.443 248.95558 
L 646.908 248.742808 
L 647.559 249.493768 
L 647.931 249.406156 
L 648.396 249.994407 
L 648.489 249.969375 
L 648.768 249.643959 
L 649.047 249.881763 
L 649.326 250.432467 
L 649.605 250.582659 
L 649.977 250.019439 
L 650.163 249.944343 
L 650.349 249.994407 
L 650.721 250.056987 
L 651.558 250.407435 
L 651.93 250.307307 
L 652.302 250.244727 
L 652.674 249.931827 
L 652.953 249.593895 
L 653.418 248.930548 
L 653.697 248.943064 
L 653.883 249.155836 
L 654.255 249.255964 
L 654.534 249.243448 
L 654.627 249.306028 
L 654.813 249.293512 
L 655.371 248.993128 
L 655.836 249.556348 
L 656.115 249.906795 
L 656.58 249.919311 
L 656.859 249.706539 
L 657.138 249.706539 
L 657.324 249.643959 
L 657.789 249.030676 
L 657.975 249.2059 
L 658.626 250.369887 
L 658.719 250.294791 
L 658.998 249.719055 
L 659.463 248.76784 
L 659.928 248.104493 
L 660.114 247.941785 
L 660.207 247.929269 
L 660.486 248.492488 
L 660.765 249.043192 
L 661.137 249.068224 
L 661.974 248.730292 
L 662.439 249.255964 
L 662.718 249.193384 
L 662.904 249.08074 
L 663.276 248.492488 
L 663.927 248.417392 
L 664.113 248.51752 
L 664.764 249.643959 
L 665.043 250.269759 
L 665.229 250.357371 
L 665.415 250.357371 
L 665.601 250.482531 
L 666.066 251.17091 
L 666.345 251.058266 
L 666.624 250.670271 
L 666.903 250.082019 
L 666.996 250.006923 
L 667.182 250.169631 
L 667.554 251.020719 
L 667.833 251.158394 
L 667.926 251.133362 
L 668.205 250.470015 
L 668.67 249.33106 
L 668.949 249.33106 
L 669.321 249.243448 
L 669.693 248.880484 
L 670.53 248.755324 
L 671.088 249.168352 
L 671.646 248.742808 
L 671.739 248.780356 
L 672.576 248.004365 
L 673.134 248.492488 
L 673.599 249.180868 
L 673.878 249.243448 
L 674.157 249.118288 
L 674.436 249.706539 
L 674.901 250.858011 
L 675.366 251.04575 
L 675.738 250.920591 
L 676.11 251.058266 
L 676.668 250.795431 
L 676.947 250.782915 
L 677.133 250.394919 
L 677.877 248.780356 
L 678.063 248.855452 
L 678.714 249.994407 
L 678.993 249.731571 
L 679.272 249.418672 
L 679.551 249.543831 
L 679.644 249.531315 
L 680.202 250.207179 
L 680.388 250.132083 
L 680.667 249.781635 
L 680.853 249.869247 
L 681.132 250.169631 
L 681.318 250.044471 
L 681.69 249.255964 
L 681.876 249.26848 
L 682.155 249.418672 
L 682.527 249.168352 
L 682.62 249.168352 
L 682.992 249.568864 
L 683.364 249.243448 
L 683.55 249.01816 
L 684.201 248.667712 
L 684.387 249.01816 
L 684.852 250.132083 
L 685.038 250.269759 
L 685.317 249.944343 
L 685.689 249.306028 
L 686.154 249.005644 
L 686.805 248.279717 
L 687.363 247.566305 
L 687.549 247.779077 
L 687.921 248.630164 
L 688.386 248.655196 
L 688.944 249.243448 
L 689.037 249.243448 
L 689.595 249.906795 
L 689.967 249.756603 
L 690.339 249.5188 
L 690.525 249.543831 
L 690.804 249.5188 
L 691.083 249.381124 
L 691.455 249.593895 
L 691.641 249.681508 
L 692.106 249.343576 
L 692.571 248.943064 
L 692.943 249.030676 
L 693.222 248.918032 
L 693.594 248.893 
L 693.966 248.880484 
L 694.338 248.530036 
L 694.803 248.5801 
L 695.361 249.318544 
L 695.733 250.207179 
L 696.198 250.232211 
L 696.477 250.707819 
L 696.756 250.757883 
L 697.221 250.620207 
L 697.407 250.532595 
L 698.058 249.844215 
L 698.523 249.005644 
L 698.709 249.14332 
L 699.081 249.581379 
L 699.546 249.230932 
L 699.732 249.155836 
L 700.011 249.180868 
L 700.29 249.481252 
L 700.755 250.582659 
L 701.034 250.845495 
L 701.592 250.670271 
L 701.964 250.069503 
L 702.429 249.043192 
L 702.708 249.105772 
L 703.545 249.931827 
L 703.731 249.881763 
L 704.661 250.044471 
L 705.219 249.819183 
L 705.405 249.744088 
L 705.591 249.769119 
L 705.777 249.894279 
L 706.056 249.894279 
L 706.335 249.681508 
L 706.614 249.694024 
L 707.172 249.105772 
L 707.544 248.968096 
L 707.823 248.893 
L 708.009 248.930548 
L 708.102 248.867968 
L 708.66 249.180868 
L 708.939 248.893 
L 709.125 249.01816 
L 709.776 248.905516 
L 710.52 250.169631 
L 710.985 249.794151 
L 711.45 248.39236 
L 711.636 248.39236 
L 711.822 248.51752 
L 712.008 248.742808 
L 712.194 248.780356 
L 712.566 248.95558 
L 712.845 249.26848 
L 713.403 249.831699 
L 713.682 250.082019 
L 714.147 250.557627 
L 714.426 250.645239 
L 714.519 250.720335 
L 714.705 250.595175 
L 714.891 250.457499 
L 715.263 249.668991 
L 715.635 248.83042 
L 715.821 248.717776 
L 716.007 248.817904 
L 716.751 247.866689 
L 716.937 247.954301 
L 718.053 249.293512 
L 718.239 249.168352 
L 718.518 249.005644 
L 718.704 249.130804 
L 718.983 249.343576 
L 719.355 249.481252 
L 719.82 249.055708 
L 720.099 248.780356 
L 720.285 248.70526 
L 720.75 248.918032 
L 721.959 249.819183 
L 722.145 249.819183 
L 722.331 249.819183 
L 722.517 249.668991 
L 722.703 249.618928 
L 723.075 249.606411 
L 723.354 249.756603 
L 723.54 249.593895 
L 723.912 249.368608 
L 724.47 250.144599 
L 724.656 250.132083 
L 724.935 250.207179 
L 725.679 250.682787 
L 725.958 250.945622 
L 726.144 250.870526 
L 726.33 250.745367 
L 726.795 250.044471 
L 727.353 249.769119 
L 727.539 249.906795 
L 728.004 250.895559 
L 728.097 251.04575 
L 728.376 250.920591 
L 728.469 250.958139 
L 728.841 250.407435 
L 729.585 248.342297 
L 729.864 247.904237 
L 730.329 247.816625 
L 730.515 248.029397 
L 730.794 248.542552 
L 731.538 248.918032 
L 731.724 248.893 
L 732.003 248.918032 
L 732.282 249.168352 
L 733.305 249.656475 
L 734.049 249.093256 
L 734.328 249.130804 
L 734.514 249.418672 
L 734.886 250.144599 
L 735.072 250.082019 
L 735.537 249.418672 
L 736.095 249.043192 
L 736.281 249.01816 
L 737.025 249.593895 
L 737.211 249.643959 
L 738.234 248.805388 
L 739.071 249.481252 
L 739.257 249.506284 
L 739.536 249.643959 
L 740.559 250.232211 
L 740.652 250.169631 
L 740.838 250.257243 
L 741.303 250.019439 
L 741.489 249.969375 
L 742.14 250.069503 
L 742.512 250.357371 
L 743.163 250.169631 
L 743.349 249.994407 
L 743.628 249.306028 
L 743.814 249.055708 
L 744 248.95558 
L 744.279 249.155836 
L 744.558 249.481252 
L 744.744 249.568864 
L 745.209 249.468735 
L 745.674 249.068224 
L 745.767 249.08074 
L 745.953 249.230932 
L 746.139 249.230932 
L 746.325 249.130804 
L 746.511 249.01816 
L 746.79 248.842936 
L 747.162 248.70526 
L 747.441 248.817904 
L 747.813 248.980612 
L 748.464 248.64268 
L 748.65 248.730292 
L 749.022 249.293512 
L 749.487 250.006923 
L 750.324 249.919311 
L 750.51 249.694024 
L 750.696 249.681508 
L 750.882 249.794151 
L 751.161 250.119567 
L 751.347 250.307307 
L 752.184 249.806668 
L 752.649 248.730292 
L 753.393 248.429908 
L 753.765 248.943064 
L 754.323 249.5188 
L 754.881 250.169631 
L 755.16 250.319823 
L 755.811 250.031955 
L 756.276 250.182147 
L 756.834 249.731571 
L 757.578 249.543831 
L 758.043 249.468735 
L 758.229 249.581379 
L 759.066 250.019439 
L 759.531 249.944343 
L 759.717 249.931827 
L 760.275 250.069503 
L 761.112 249.306028 
L 761.298 249.255964 
L 761.484 249.068224 
L 762.135 248.492488 
L 762.321 248.567584 
L 762.693 248.70526 
L 762.786 248.742808 
L 762.972 248.680228 
L 763.251 248.817904 
L 763.716 249.14332 
L 764.274 249.093256 
L 764.553 248.893 
L 765.018 248.780356 
L 765.576 249.180868 
L 766.413 249.356092 
L 766.878 249.168352 
L 767.064 249.306028 
L 767.343 249.581379 
L 767.529 249.819183 
L 767.901 249.819183 
L 768.924 248.943064 
L 769.11 248.95558 
L 769.947 249.418672 
L 770.505 249.593895 
L 770.691 249.706539 
L 772.551 250.094535 
L 772.83 249.994407 
L 773.76 249.493768 
L 774.132 249.593895 
L 774.411 249.631444 
L 775.341 249.293512 
L 775.62 249.155836 
L 775.992 249.043192 
L 776.178 249.2059 
L 776.457 249.39364 
L 776.736 249.568864 
L 777.201 249.744088 
L 777.294 249.668991 
L 777.48 249.681508 
L 777.759 249.618928 
L 778.038 249.731571 
L 778.317 249.981891 
L 779.061 249.668991 
L 779.712 249.356092 
L 780.549 249.180868 
L 780.828 249.230932 
L 781.107 249.230932 
L 782.13 249.643959 
L 782.409 249.493768 
L 782.688 249.431188 
L 783.246 249.068224 
L 783.99 249.26848 
L 784.269 249.356092 
L 784.455 249.418672 
L 784.827 249.293512 
L 785.385 249.931827 
L 786.129 250.858011 
L 786.315 250.807947 
L 786.594 250.720335 
L 786.873 250.607691 
L 787.152 250.157115 
L 787.431 249.618928 
L 787.617 249.493768 
L 787.989 249.493768 
L 788.454 249.468735 
L 788.64 249.556348 
L 790.221 248.968096 
L 790.407 248.980612 
L 791.709 248.842936 
L 792.732 249.668991 
L 793.011 249.681508 
L 793.941 249.180868 
L 794.22 249.230932 
L 794.685 249.5188 
L 794.871 249.481252 
L 795.057 249.568864 
L 795.894 249.506284 
L 796.08 249.443704 
L 796.266 249.643959 
L 796.359 249.506284 
L 796.545 249.543831 
L 797.289 249.2059 
L 797.382 249.356092 
L 797.568 249.2059 
L 797.754 249.45622 
L 798.033 249.218416 
L 798.219 249.293512 
L 798.405 249.105772 
L 799.149 249.581379 
L 799.335 249.481252 
L 799.707 249.906795 
L 800.079 250.069503 
L 800.358 250.132083 
L 800.451 250.269759 
L 800.637 249.944343 
L 800.916 249.981891 
L 801.102 249.856731 
L 801.288 249.844215 
L 801.567 249.543831 
L 802.218 249.255964 
L 802.497 248.980612 
L 802.683 249.093256 
L 802.869 248.855452 
L 802.962 248.83042 
L 803.055 248.95558 
L 803.148 248.70526 
L 803.52 249.005644 
L 803.613 248.980612 
L 803.706 249.230932 
L 803.799 248.980612 
L 803.892 249.043192 
L 803.985 248.993128 
L 804.171 249.193384 
L 804.264 249.043192 
L 804.357 249.230932 
L 804.636 249.030676 
L 806.496 250.207179 
L 806.961 249.931827 
L 807.24 249.881763 
L 807.519 249.643959 
L 807.612 249.656475 
L 807.984 249.255964 
L 808.077 249.306028 
L 808.263 249.230932 
L 808.635 249.356092 
L 808.728 249.581379 
L 808.821 249.531315 
L 808.914 249.443704 
L 809.1 249.493768 
L 809.286 249.506284 
L 809.658 249.406156 
L 809.937 249.280996 
L 810.309 249.168352 
L 810.495 249.118288 
L 810.96 248.792872 
L 811.332 248.867968 
L 811.611 248.930548 
L 811.797 249.055708 
L 812.262 249.005644 
L 812.541 249.105772 
L 812.913 249.168352 
L 813.936 250.344855 
L 814.866 249.981891 
L 815.145 249.706539 
L 815.703 249.556348 
L 816.168 249.856731 
L 817.098 249.493768 
L 817.377 249.356092 
L 818.493 249.406156 
L 819.051 249.33106 
L 819.609 249.01816 
L 819.702 249.030676 
L 819.981 248.805388 
L 820.446 248.792872 
L 821.655 249.168352 
L 822.027 249.306028 
L 822.213 249.443704 
L 822.492 249.731571 
L 822.678 249.819183 
L 822.957 249.956859 
L 823.236 249.906795 
L 823.608 249.994407 
L 823.887 250.044471 
L 825.189 250.132083 
L 826.119 249.869247 
L 826.305 249.981891 
L 826.677 250.207179 
L 826.956 250.219695 
L 827.607 250.069503 
L 827.886 249.694024 
L 828.258 249.406156 
L 828.444 249.230932 
L 828.909 248.605132 
L 829.653 248.279717 
L 830.118 248.404877 
L 830.769 248.893 
L 831.42 249.168352 
L 831.885 249.193384 
L 832.722 249.5188 
L 832.815 249.506284 
L 833.28 249.869247 
L 833.559 249.856731 
L 834.582 249.14332 
L 834.675 249.130804 
L 835.233 249.719055 
L 835.977 249.806668 
L 836.349 249.844215 
L 836.814 249.881763 
L 837.093 250.107051 
L 837.093 250.107051 
" clip-path="url(#pd688f042a7)" style="fill: none; stroke: #1f77b4; stroke-width: 1.5; stroke-linecap: square"/>
   </g>
  </g>
 </g>
 <defs>
  <clipPath id="pd688f042a7">
   <rect x="0" y="-0" width="837" height="498.96"/>
  </clipPath>
 </defs>
</svg>
