<?xml version="1.0" encoding="utf-8" standalone="no"?>
<!DOCTYPE svg PUBLIC "-//W3C//DTD SVG 1.1//EN"
  "http://www.w3.org/Graphics/SVG/1.1/DTD/svg11.dtd">
<svg xmlns:xlink="http://www.w3.org/1999/xlink" width="837pt" height="498.96pt" viewBox="0 0 837 498.96" xmlns="http://www.w3.org/2000/svg" version="1.1">
 <metadata>
  <rdf:RDF xmlns:dc="http://purl.org/dc/elements/1.1/" xmlns:cc="http://creativecommons.org/ns#" xmlns:rdf="http://www.w3.org/1999/02/22-rdf-syntax-ns#">
   <cc:Work>
    <dc:type rdf:resource="http://purl.org/dc/dcmitype/StillImage"/>
    <dc:date>2023-06-07T14:13:41.373075</dc:date>
    <dc:format>image/svg+xml</dc:format>
    <dc:creator>
     <cc:Agent>
      <dc:title>Matplotlib v3.7.0, https://matplotlib.org/</dc:title>
     </cc:Agent>
    </dc:creator>
   </cc:Work>
  </rdf:RDF>
 </metadata>
 <defs>
  <style type="text/css">*{stroke-linejoin: round; stroke-linecap: butt}</style>
 </defs>
 <g id="figure_1">
  <g id="patch_1">
   <path d="M 0 498.96 
L 837 498.96 
L 837 -0 
L 0 -0 
z
" style="fill: #ffffff"/>
  </g>
  <g id="axes_1">
   <g id="patch_2">
    <path d="M 0 498.96 
L 837 498.96 
L 837 -0 
L 0 -0 
z
" style="fill: #ffffff"/>
   </g>
   <g id="matplotlib.axis_1"/>
   <g id="matplotlib.axis_2"/>
   <g id="line2d_1">
    <path d="M -0.093 238.278631 
L 0 238.056823 
L 0.186 238.426506 
L 0.465 238.426506 
L 0.558 238.204695 
L 0.651 238.426506 
L 0.837 238.278631 
L 0.93 238.500442 
L 1.023 238.352567 
L 1.116 238.426506 
L 1.209 238.352567 
L 1.302 238.426506 
L 1.395 238.204695 
L 1.488 238.278631 
L 1.581 238.204695 
L 1.674 238.426506 
L 1.86 238.204695 
L 2.046 238.426506 
L 2.139 238.574378 
L 2.418 238.056823 
L 2.697 238.352567 
L 2.79 238.278631 
L 2.883 238.500442 
L 2.976 238.278631 
L 3.069 238.352567 
L 3.162 238.574378 
L 3.255 238.426506 
L 3.534 238.722249 
L 3.72 238.500442 
L 3.999 238.426506 
L 4.092 238.204695 
L 4.185 238.426506 
L 4.278 238.352567 
L 4.371 238.574378 
L 4.464 238.500442 
L 4.557 238.278631 
L 4.65 238.648313 
L 4.743 238.278631 
L 4.836 238.574378 
L 4.929 238.426506 
L 5.022 238.796185 
L 5.208 238.352567 
L 5.301 238.278631 
L 5.487 238.500442 
L 5.58 238.278631 
L 5.673 238.722249 
L 5.766 238.278631 
L 5.859 238.648313 
L 5.952 238.204695 
L 6.045 238.426506 
L 6.138 238.278631 
L 6.231 238.352567 
L 6.324 238.648313 
L 6.417 238.500442 
L 6.696 238.648313 
L 6.882 238.130759 
L 6.975 238.574378 
L 7.161 238.426506 
L 7.347 238.722249 
L 7.533 238.426506 
L 7.626 238.500442 
L 7.719 238.204695 
L 7.812 238.352567 
L 7.905 238.204695 
L 8.091 238.648313 
L 8.277 238.500442 
L 8.37 238.204695 
L 8.556 238.426506 
L 8.835 238.426506 
L 8.928 238.574378 
L 9.021 238.352567 
L 9.207 238.94406 
L 9.672 238.130759 
L 9.765 238.204695 
L 9.951 238.130759 
L 10.137 238.426506 
L 10.23 238.278631 
L 10.416 238.648313 
L 10.509 238.574378 
L 10.695 238.278631 
L 10.788 238.278631 
L 10.881 237.982885 
L 11.067 238.574378 
L 11.253 238.352567 
L 11.346 238.278631 
L 11.439 238.500442 
L 11.532 238.130759 
L 11.625 238.648313 
L 11.811 238.500442 
L 11.904 238.648313 
L 11.997 238.500442 
L 12.09 238.648313 
L 12.369 238.352567 
L 12.462 238.426506 
L 12.555 238.130759 
L 12.648 238.278631 
L 12.741 238.204695 
L 12.834 238.500442 
L 12.927 238.426506 
L 13.02 238.278631 
L 13.113 238.500442 
L 13.206 238.426506 
L 13.299 238.500442 
L 13.485 238.278631 
L 13.578 238.352567 
L 13.671 238.130759 
L 13.857 238.500442 
L 14.043 238.352567 
L 14.136 238.500442 
L 14.322 238.426506 
L 14.415 238.574378 
L 14.694 238.278631 
L 15.066 238.278631 
L 15.159 238.130759 
L 15.345 238.574378 
L 15.531 238.204695 
L 15.717 238.574378 
L 15.81 238.352567 
L 16.089 238.648313 
L 16.182 238.278631 
L 16.275 238.500442 
L 16.461 238.426506 
L 16.74 238.648313 
L 16.833 238.204695 
L 16.926 238.278631 
L 17.019 238.056823 
L 17.205 238.352567 
L 17.484 238.648313 
L 17.67 238.278631 
L 17.763 238.500442 
L 17.856 238.352567 
L 17.949 238.722249 
L 18.042 238.278631 
L 18.135 238.574378 
L 18.228 238.500442 
L 18.321 238.278631 
L 18.414 238.426506 
L 18.6 238.056823 
L 18.693 237.908949 
L 18.879 238.204695 
L 19.065 238.278631 
L 19.158 238.204695 
L 19.251 238.278631 
L 19.344 238.204695 
L 19.437 238.574378 
L 19.53 238.352567 
L 19.623 238.426506 
L 19.809 238.278631 
L 19.995 238.278631 
L 20.088 238.500442 
L 20.181 238.352567 
L 20.274 238.500442 
L 20.367 238.278631 
L 20.46 238.426506 
L 20.646 238.130759 
L 20.832 238.130759 
L 21.018 238.352567 
L 21.111 238.426506 
L 21.204 238.352567 
L 21.297 238.722249 
L 21.483 238.204695 
L 21.576 238.278631 
L 21.669 238.204695 
L 21.948 238.500442 
L 22.041 238.352567 
L 22.134 238.426506 
L 22.227 238.204695 
L 22.32 238.278631 
L 22.413 238.796185 
L 22.506 238.426506 
L 22.599 238.722249 
L 22.692 238.500442 
L 22.878 238.574378 
L 22.971 238.352567 
L 23.064 238.574378 
L 23.343 238.056823 
L 23.436 238.278631 
L 23.529 238.130759 
L 23.715 238.352567 
L 23.808 238.648313 
L 23.901 238.574378 
L 23.994 238.500442 
L 24.087 238.796185 
L 24.273 238.352567 
L 24.645 238.426506 
L 24.738 238.796185 
L 24.831 238.500442 
L 24.924 238.648313 
L 25.203 238.352567 
L 25.296 238.056823 
L 25.482 238.500442 
L 25.575 238.648313 
L 25.668 238.352567 
L 25.761 238.500442 
L 25.947 238.278631 
L 26.04 238.500442 
L 26.133 238.352567 
L 26.226 238.574378 
L 26.412 238.278631 
L 26.505 238.352567 
L 26.691 238.574378 
L 26.877 238.426506 
L 26.97 238.352567 
L 27.249 238.648313 
L 27.435 238.352567 
L 27.528 238.426506 
L 27.714 238.204695 
L 27.9 238.352567 
L 28.272 238.278631 
L 28.365 238.204695 
L 28.551 238.500442 
L 28.644 238.500442 
L 28.83 238.722249 
L 29.016 238.352567 
L 29.109 238.352567 
L 29.202 238.500442 
L 29.295 238.204695 
L 29.388 238.278631 
L 29.481 238.204695 
L 29.667 238.648313 
L 29.853 238.426506 
L 30.039 238.500442 
L 30.132 238.278631 
L 30.225 238.352567 
L 30.318 238.204695 
L 30.411 238.426506 
L 30.504 238.204695 
L 30.69 238.722249 
L 31.062 238.352567 
L 31.155 238.204695 
L 31.434 238.352567 
L 31.527 238.352567 
L 31.62 238.500442 
L 31.806 238.278631 
L 31.899 238.574378 
L 32.085 238.204695 
L 32.178 238.648313 
L 32.271 238.574378 
L 32.457 238.426506 
L 32.55 238.796185 
L 32.736 238.130759 
L 32.829 238.278631 
L 32.922 238.204695 
L 33.015 238.352567 
L 33.108 238.278631 
L 33.201 238.574378 
L 33.294 238.204695 
L 33.48 238.648313 
L 33.573 238.352567 
L 33.759 238.796185 
L 34.224 238.204695 
L 34.317 238.130759 
L 34.503 238.278631 
L 34.596 238.204695 
L 34.689 238.648313 
L 34.782 238.278631 
L 34.875 238.500442 
L 35.061 238.278631 
L 35.154 238.278631 
L 35.247 238.056823 
L 35.34 238.574378 
L 35.433 238.278631 
L 35.526 238.722249 
L 35.619 238.648313 
L 35.712 238.648313 
L 35.805 238.426506 
L 35.898 238.500442 
L 35.991 238.796185 
L 36.084 238.278631 
L 36.177 238.352567 
L 36.27 238.426506 
L 36.456 238.204695 
L 36.642 238.500442 
L 36.735 238.278631 
L 36.828 238.352567 
L 37.107 238.130759 
L 37.2 238.648313 
L 37.293 238.574378 
L 37.386 238.352567 
L 37.479 238.500442 
L 37.758 238.056823 
L 38.037 238.352567 
L 38.223 238.574378 
L 38.409 238.500442 
L 38.595 238.426506 
L 38.688 238.574378 
L 38.874 238.204695 
L 38.967 238.352567 
L 39.06 238.204695 
L 39.153 238.278631 
L 39.246 238.056823 
L 39.339 238.500442 
L 39.432 238.204695 
L 39.618 238.500442 
L 39.711 238.574378 
L 39.804 238.870124 
L 39.897 238.352567 
L 39.99 238.574378 
L 40.176 238.204695 
L 40.734 238.722249 
L 40.92 238.574378 
L 41.013 238.574378 
L 41.106 238.130759 
L 41.292 238.352567 
L 41.385 238.278631 
L 41.571 238.352567 
L 41.664 238.796185 
L 41.757 238.204695 
L 41.943 238.648313 
L 42.036 238.426506 
L 42.222 238.574378 
L 42.501 238.574378 
L 42.594 238.278631 
L 42.687 238.352567 
L 42.78 238.352567 
L 42.966 238.574378 
L 43.431 238.500442 
L 43.617 238.426506 
L 43.803 238.648313 
L 43.896 238.500442 
L 43.989 238.722249 
L 44.175 238.426506 
L 44.361 238.352567 
L 44.454 238.648313 
L 44.547 238.500442 
L 44.64 238.574378 
L 44.826 238.352567 
L 44.919 238.130759 
L 45.105 238.278631 
L 45.198 238.352567 
L 45.384 238.574378 
L 45.849 238.278631 
L 45.942 238.352567 
L 46.035 238.278631 
L 46.221 238.352567 
L 46.314 238.130759 
L 46.593 238.426506 
L 46.779 238.500442 
L 46.872 238.648313 
L 47.058 238.574378 
L 47.244 238.500442 
L 47.616 238.204695 
L 47.709 238.278631 
L 47.802 238.500442 
L 47.895 238.426506 
L 47.988 238.500442 
L 48.081 238.426506 
L 48.174 238.722249 
L 48.36 238.426506 
L 48.546 238.204695 
L 48.639 238.426506 
L 48.732 238.278631 
L 48.825 238.352567 
L 48.918 238.278631 
L 49.011 238.500442 
L 49.197 238.130759 
L 49.662 238.574378 
L 49.848 238.352567 
L 50.22 238.426506 
L 50.313 238.722249 
L 50.406 238.500442 
L 50.592 238.648313 
L 50.778 238.204695 
L 50.871 238.278631 
L 50.964 238.056823 
L 51.15 238.204695 
L 51.615 238.500442 
L 51.708 238.352567 
L 51.801 238.426506 
L 51.987 238.278631 
L 52.08 238.500442 
L 52.173 238.352567 
L 52.266 238.426506 
L 52.359 238.130759 
L 52.545 238.426506 
L 52.731 238.278631 
L 52.824 238.352567 
L 53.01 238.722249 
L 53.568 238.278631 
L 53.661 238.056823 
L 53.754 238.426506 
L 53.847 238.278631 
L 54.033 238.722249 
L 54.126 238.500442 
L 54.219 238.574378 
L 54.312 238.278631 
L 54.405 238.574378 
L 54.591 238.278631 
L 54.777 238.648313 
L 54.963 238.352567 
L 55.056 238.574378 
L 55.149 238.426506 
L 55.242 238.574378 
L 55.428 238.352567 
L 55.521 238.204695 
L 55.614 238.574378 
L 55.8 238.352567 
L 55.893 238.574378 
L 55.986 238.204695 
L 56.079 238.426506 
L 56.172 238.204695 
L 56.265 238.574378 
L 56.451 238.278631 
L 56.544 238.574378 
L 56.637 238.130759 
L 56.73 238.352567 
L 56.823 238.130759 
L 56.916 238.648313 
L 57.102 238.500442 
L 57.195 238.574378 
L 57.381 238.204695 
L 57.474 238.278631 
L 57.66 238.130759 
L 57.753 238.426506 
L 57.846 238.352567 
L 57.939 238.500442 
L 58.032 238.426506 
L 58.125 238.500442 
L 58.311 238.204695 
L 58.404 238.352567 
L 58.59 238.056823 
L 58.683 238.352567 
L 58.776 238.278631 
L 58.869 238.352567 
L 58.962 238.278631 
L 59.055 238.648313 
L 59.241 238.426506 
L 59.334 238.574378 
L 59.799 238.204695 
L 60.078 238.648313 
L 60.171 238.278631 
L 60.264 238.426506 
L 60.45 238.278631 
L 60.636 238.204695 
L 60.822 238.500442 
L 60.915 238.574378 
L 61.008 238.500442 
L 61.101 238.130759 
L 61.194 238.204695 
L 61.287 238.130759 
L 61.38 238.204695 
L 61.566 238.500442 
L 61.659 238.500442 
L 61.845 238.278631 
L 62.124 238.500442 
L 62.31 238.352567 
L 62.496 238.500442 
L 62.589 238.500442 
L 62.682 238.130759 
L 62.868 238.352567 
L 62.961 238.352567 
L 63.054 238.648313 
L 63.24 238.500442 
L 63.333 238.574378 
L 63.426 238.500442 
L 63.519 238.648313 
L 63.612 238.426506 
L 63.705 238.574378 
L 63.798 238.426506 
L 63.984 238.500442 
L 64.263 238.278631 
L 64.356 238.426506 
L 64.449 238.204695 
L 64.542 238.426506 
L 64.635 238.352567 
L 64.728 238.574378 
L 64.821 238.278631 
L 64.914 238.426506 
L 65.1 238.352567 
L 65.193 238.648313 
L 65.286 238.204695 
L 65.379 238.574378 
L 65.565 238.426506 
L 65.658 238.648313 
L 65.751 238.278631 
L 65.844 238.500442 
L 65.937 238.204695 
L 66.216 238.648313 
L 66.309 238.722249 
L 66.402 238.426506 
L 66.495 238.796185 
L 66.588 238.500442 
L 66.681 238.648313 
L 66.774 238.426506 
L 66.867 238.648313 
L 67.053 238.574378 
L 67.146 238.722249 
L 67.239 238.574378 
L 67.332 238.648313 
L 67.425 238.278631 
L 67.518 238.648313 
L 67.611 238.278631 
L 67.704 238.352567 
L 67.89 238.130759 
L 67.983 238.500442 
L 68.076 238.352567 
L 68.169 238.574378 
L 68.262 238.352567 
L 68.355 238.722249 
L 68.541 238.426506 
L 68.634 238.574378 
L 68.727 238.426506 
L 68.82 238.500442 
L 68.913 238.130759 
L 69.006 238.426506 
L 69.099 238.352567 
L 69.285 238.204695 
L 69.378 238.278631 
L 69.471 238.056823 
L 70.029 238.574378 
L 70.122 238.352567 
L 70.308 238.722249 
L 70.401 238.648313 
L 70.494 238.648313 
L 70.587 238.94406 
L 70.68 238.722249 
L 70.773 238.796185 
L 70.866 238.648313 
L 70.959 238.722249 
L 71.238 238.426506 
L 71.424 238.130759 
L 71.517 238.278631 
L 71.703 237.982885 
L 71.889 238.352567 
L 72.075 238.278631 
L 72.168 238.500442 
L 72.261 238.352567 
L 72.354 238.722249 
L 72.54 238.500442 
L 72.633 238.500442 
L 72.726 238.722249 
L 72.912 238.426506 
L 73.005 238.500442 
L 73.284 238.130759 
L 73.47 238.352567 
L 73.563 238.130759 
L 73.656 238.204695 
L 73.749 238.574378 
L 73.842 238.204695 
L 74.121 238.648313 
L 74.214 238.278631 
L 74.4 238.500442 
L 74.493 238.500442 
L 74.679 238.722249 
L 75.144 238.130759 
L 75.237 238.056823 
L 75.33 238.130759 
L 75.423 237.982885 
L 75.609 238.426506 
L 75.702 238.426506 
L 75.888 238.722249 
L 75.981 238.648313 
L 76.074 238.204695 
L 76.167 238.722249 
L 76.26 238.426506 
L 76.446 238.796185 
L 76.539 238.574378 
L 76.632 239.165868 
L 76.911 238.352567 
L 77.004 238.278631 
L 77.19 237.835013 
L 77.283 237.908949 
L 77.376 237.761077 
L 77.562 238.204695 
L 77.934 238.130759 
L 78.12 238.648313 
L 78.306 238.722249 
L 78.399 238.796185 
L 78.585 238.574378 
L 78.771 238.500442 
L 78.864 238.056823 
L 78.957 238.278631 
L 79.05 238.056823 
L 79.422 238.500442 
L 79.515 238.278631 
L 79.794 238.796185 
L 79.887 238.426506 
L 79.98 238.648313 
L 80.073 238.352567 
L 80.259 238.648313 
L 80.352 238.574378 
L 80.445 238.722249 
L 80.538 238.426506 
L 80.631 238.796185 
L 80.724 238.500442 
L 80.817 238.648313 
L 81.003 238.352567 
L 81.096 238.574378 
L 81.189 238.426506 
L 81.282 238.648313 
L 81.375 238.426506 
L 81.468 238.500442 
L 81.654 238.130759 
L 81.747 238.352567 
L 81.84 238.056823 
L 82.026 238.352567 
L 82.119 238.426506 
L 82.305 238.352567 
L 82.398 238.352567 
L 82.584 238.574378 
L 82.677 238.500442 
L 82.77 238.870124 
L 82.863 238.500442 
L 83.049 238.648313 
L 83.328 238.278631 
L 83.421 238.426506 
L 83.514 238.056823 
L 83.607 238.278631 
L 83.7 238.204695 
L 83.886 238.426506 
L 84.072 238.574378 
L 84.165 238.500442 
L 84.258 238.648313 
L 84.351 238.204695 
L 84.444 238.426506 
L 84.537 238.278631 
L 84.723 238.426506 
L 84.816 238.204695 
L 84.909 238.426506 
L 85.095 238.204695 
L 85.188 238.278631 
L 85.281 238.130759 
L 85.374 238.352567 
L 85.467 238.130759 
L 85.56 238.426506 
L 85.653 238.352567 
L 85.839 238.574378 
L 85.932 238.130759 
L 86.025 238.352567 
L 86.118 238.278631 
L 86.211 238.352567 
L 86.304 238.130759 
L 86.397 238.204695 
L 86.583 238.426506 
L 86.862 238.352567 
L 86.955 238.278631 
L 87.234 238.574378 
L 87.327 238.426506 
L 87.513 238.722249 
L 87.606 238.500442 
L 87.699 238.722249 
L 87.978 237.982885 
L 88.071 237.982885 
L 88.164 238.204695 
L 88.257 238.056823 
L 88.35 238.574378 
L 88.443 238.500442 
L 88.629 238.426506 
L 88.722 238.278631 
L 88.815 237.835013 
L 89.094 238.500442 
L 89.187 238.500442 
L 89.373 238.796185 
L 89.466 238.500442 
L 89.559 238.94406 
L 89.745 238.352567 
L 89.931 238.130759 
L 90.024 238.204695 
L 90.117 237.982885 
L 90.303 238.574378 
L 90.489 238.574378 
L 90.582 238.796185 
L 90.768 238.278631 
L 90.861 238.204695 
L 90.954 237.908949 
L 91.419 238.796185 
L 91.605 238.278631 
L 91.698 238.278631 
L 91.791 238.130759 
L 91.884 238.352567 
L 91.977 238.204695 
L 92.07 238.500442 
L 92.256 238.130759 
L 92.349 238.426506 
L 92.535 238.278631 
L 92.628 238.278631 
L 92.721 238.426506 
L 92.814 238.796185 
L 92.907 238.648313 
L 93.093 238.870124 
L 93.186 238.796185 
L 93.279 238.500442 
L 93.372 238.870124 
L 93.465 238.278631 
L 93.558 238.574378 
L 93.651 238.278631 
L 93.744 238.574378 
L 93.93 238.056823 
L 94.023 238.648313 
L 94.116 237.908949 
L 94.209 238.352567 
L 94.302 237.835013 
L 94.488 238.130759 
L 94.86 238.352567 
L 94.953 238.204695 
L 95.232 238.796185 
L 95.325 238.648313 
L 95.697 239.165868 
L 95.79 239.017996 
L 95.883 239.165868 
L 96.162 238.352567 
L 96.441 237.761077 
L 96.534 238.130759 
L 96.627 237.908949 
L 96.72 238.130759 
L 96.813 238.056823 
L 96.999 238.426506 
L 97.092 238.352567 
L 97.464 238.426506 
L 97.65 238.722249 
L 97.743 238.648313 
L 97.836 238.722249 
L 98.022 238.426506 
L 98.115 238.426506 
L 98.208 238.574378 
L 98.301 238.94406 
L 98.394 238.796185 
L 98.487 239.017996 
L 98.673 238.870124 
L 98.859 238.056823 
L 99.138 238.574378 
L 99.324 238.722249 
L 99.51 238.278631 
L 99.882 237.835013 
L 100.161 238.574378 
L 100.347 238.722249 
L 100.719 238.056823 
L 100.812 238.278631 
L 100.998 238.056823 
L 101.184 238.574378 
L 101.463 238.278631 
L 101.742 237.761077 
L 102.114 238.574378 
L 102.486 238.130759 
L 102.579 238.130759 
L 102.765 238.574378 
L 103.137 238.500442 
L 103.323 238.278631 
L 103.602 238.278631 
L 103.695 238.574378 
L 103.788 238.426506 
L 103.974 238.722249 
L 104.16 238.204695 
L 104.346 238.426506 
L 104.439 238.204695 
L 104.532 238.352567 
L 105.09 237.982885 
L 105.183 238.278631 
L 105.276 238.056823 
L 105.555 238.574378 
L 105.741 238.426506 
L 105.834 238.574378 
L 105.927 238.204695 
L 106.206 238.796185 
L 106.485 238.870124 
L 106.578 238.278631 
L 106.671 238.352567 
L 106.764 238.278631 
L 106.95 238.574378 
L 107.043 238.648313 
L 107.415 238.204695 
L 107.601 237.982885 
L 107.694 238.278631 
L 107.787 238.130759 
L 107.88 238.574378 
L 107.973 238.500442 
L 108.159 238.722249 
L 108.252 238.574378 
L 108.345 239.165868 
L 108.624 238.500442 
L 108.717 238.426506 
L 108.81 238.574378 
L 108.903 238.130759 
L 108.996 238.278631 
L 109.089 238.204695 
L 109.182 237.908949 
L 109.275 238.204695 
L 109.368 238.130759 
L 109.554 238.352567 
L 109.647 238.352567 
L 109.833 238.056823 
L 109.926 238.278631 
L 110.019 238.130759 
L 110.391 238.426506 
L 110.484 238.648313 
L 110.67 238.278631 
L 110.763 238.426506 
L 110.856 238.130759 
L 110.949 238.574378 
L 111.042 238.426506 
L 111.228 238.648313 
L 111.321 238.426506 
L 111.414 238.648313 
L 111.507 238.056823 
L 111.6 238.130759 
L 111.693 237.835013 
L 111.972 238.426506 
L 112.065 239.017996 
L 112.158 238.94406 
L 112.251 238.94406 
L 112.437 238.426506 
L 112.623 238.204695 
L 112.809 238.426506 
L 112.902 238.352567 
L 112.995 238.648313 
L 113.088 238.574378 
L 113.181 238.352567 
L 113.274 238.426506 
L 113.367 238.056823 
L 113.46 238.352567 
L 113.553 238.204695 
L 113.739 238.574378 
L 113.832 238.130759 
L 113.925 238.648313 
L 114.111 238.278631 
L 114.204 238.278631 
L 114.39 238.130759 
L 114.483 238.056823 
L 114.669 238.204695 
L 114.855 238.426506 
L 114.948 238.574378 
L 115.134 238.500442 
L 115.227 238.500442 
L 115.32 238.278631 
L 115.506 238.426506 
L 115.878 238.352567 
L 115.971 237.908949 
L 116.064 237.982885 
L 116.157 238.130759 
L 116.25 237.982885 
L 116.622 238.722249 
L 116.994 238.426506 
L 117.087 238.500442 
L 117.273 238.204695 
L 117.459 238.352567 
L 117.552 237.982885 
L 117.738 238.278631 
L 117.831 238.130759 
L 118.11 238.648313 
L 118.203 238.574378 
L 118.296 238.870124 
L 118.761 238.130759 
L 118.947 238.574378 
L 119.04 238.574378 
L 119.133 238.870124 
L 119.505 238.278631 
L 119.598 238.500442 
L 119.691 238.278631 
L 119.877 238.574378 
L 120.063 238.574378 
L 120.156 238.352567 
L 120.249 238.426506 
L 120.435 238.352567 
L 120.621 238.500442 
L 120.714 238.500442 
L 120.807 238.796185 
L 120.993 238.426506 
L 121.086 238.796185 
L 121.272 238.648313 
L 121.551 238.722249 
L 121.644 238.500442 
L 121.737 238.722249 
L 122.016 238.204695 
L 122.202 237.982885 
L 122.388 238.352567 
L 122.481 238.204695 
L 122.574 238.722249 
L 122.667 238.648313 
L 122.76 238.870124 
L 122.946 238.426506 
L 123.039 238.648313 
L 123.132 238.500442 
L 123.225 238.648313 
L 123.318 238.426506 
L 123.411 238.796185 
L 123.504 238.426506 
L 123.597 238.648313 
L 123.783 238.426506 
L 123.876 238.204695 
L 124.062 238.574378 
L 124.155 238.426506 
L 124.248 238.574378 
L 124.527 238.130759 
L 124.806 238.130759 
L 125.271 238.870124 
L 125.364 238.796185 
L 125.457 238.426506 
L 125.55 238.796185 
L 125.643 238.204695 
L 125.736 238.278631 
L 125.922 237.982885 
L 126.201 238.648313 
L 126.294 238.352567 
L 126.48 238.722249 
L 126.666 238.500442 
L 126.852 238.352567 
L 127.131 238.426506 
L 127.317 238.574378 
L 127.41 238.426506 
L 127.503 238.500442 
L 127.596 238.204695 
L 127.689 238.352567 
L 127.782 237.908949 
L 127.875 238.056823 
L 128.154 237.908949 
L 128.247 238.056823 
L 128.34 238.500442 
L 128.433 238.352567 
L 128.526 238.722249 
L 128.805 238.204695 
L 128.991 238.426506 
L 129.084 238.426506 
L 129.177 238.574378 
L 129.456 238.352567 
L 129.549 238.574378 
L 129.642 238.204695 
L 129.735 238.426506 
L 129.828 238.278631 
L 130.2 238.574378 
L 130.293 238.352567 
L 130.479 238.722249 
L 130.944 238.056823 
L 131.13 238.500442 
L 131.223 238.278631 
L 131.409 238.500442 
L 131.595 238.130759 
L 131.688 238.278631 
L 131.781 238.130759 
L 132.246 238.722249 
L 132.432 238.574378 
L 132.525 238.648313 
L 132.618 238.500442 
L 132.711 238.722249 
L 133.176 238.056823 
L 133.269 238.204695 
L 133.362 238.130759 
L 133.548 238.426506 
L 133.827 238.278631 
L 134.013 238.648313 
L 134.199 238.574378 
L 134.571 238.056823 
L 134.664 238.278631 
L 134.757 237.908949 
L 134.85 238.648313 
L 134.943 238.500442 
L 135.036 238.426506 
L 135.129 238.722249 
L 135.222 238.278631 
L 135.315 238.426506 
L 135.408 238.352567 
L 135.501 238.500442 
L 135.687 238.426506 
L 135.78 238.426506 
L 135.873 238.722249 
L 135.966 238.278631 
L 136.059 238.426506 
L 136.245 238.278631 
L 136.338 238.426506 
L 136.431 238.278631 
L 136.617 238.574378 
L 136.71 238.722249 
L 136.896 238.574378 
L 136.989 238.722249 
L 137.175 238.426506 
L 137.361 238.500442 
L 137.454 238.648313 
L 137.547 238.352567 
L 137.64 238.648313 
L 137.919 238.130759 
L 138.105 238.278631 
L 138.198 238.204695 
L 138.291 238.648313 
L 138.384 238.574378 
L 138.57 238.426506 
L 138.663 238.574378 
L 138.849 238.352567 
L 138.942 238.352567 
L 139.035 238.204695 
L 139.128 238.352567 
L 139.221 238.130759 
L 139.314 238.574378 
L 139.407 238.352567 
L 139.5 238.574378 
L 139.686 238.352567 
L 139.779 238.500442 
L 139.872 238.426506 
L 139.965 238.574378 
L 140.058 238.278631 
L 140.151 238.648313 
L 140.337 238.426506 
L 140.43 238.278631 
L 140.523 238.352567 
L 140.709 238.204695 
L 140.895 238.352567 
L 141.081 238.352567 
L 141.174 238.574378 
L 141.36 238.426506 
L 141.453 238.648313 
L 141.732 238.278631 
L 141.918 238.500442 
L 142.011 238.500442 
L 142.104 238.648313 
L 142.197 238.278631 
L 142.29 238.870124 
L 142.383 238.574378 
L 142.476 238.648313 
L 142.569 238.870124 
L 142.662 238.722249 
L 142.755 238.870124 
L 142.848 238.574378 
L 142.941 238.94406 
L 143.034 238.870124 
L 143.22 238.426506 
L 143.406 238.574378 
L 143.499 238.500442 
L 143.592 238.722249 
L 143.685 238.648313 
L 143.778 238.722249 
L 143.871 238.500442 
L 143.964 238.574378 
L 144.243 238.352567 
L 144.336 238.056823 
L 144.429 238.278631 
L 144.522 238.204695 
L 144.615 238.500442 
L 144.708 238.278631 
L 144.894 238.574378 
L 144.987 238.574378 
L 145.173 238.796185 
L 145.359 238.278631 
L 145.452 238.574378 
L 145.545 238.278631 
L 145.824 238.94406 
L 146.01 238.870124 
L 146.103 238.796185 
L 146.289 238.352567 
L 146.568 238.056823 
L 146.661 238.130759 
L 146.754 237.982885 
L 146.847 238.056823 
L 147.033 237.835013 
L 147.126 237.835013 
L 147.219 237.982885 
L 147.312 238.426506 
L 147.405 238.204695 
L 147.591 238.648313 
L 147.684 238.574378 
L 147.87 238.204695 
L 147.963 238.130759 
L 148.149 238.352567 
L 148.335 239.165868 
L 148.521 239.165868 
L 148.8 238.574378 
L 149.172 237.687141 
L 149.265 237.908949 
L 149.358 237.761077 
L 149.451 238.278631 
L 149.637 238.130759 
L 149.823 238.056823 
L 150.102 238.796185 
L 150.381 237.982885 
L 150.567 239.091932 
L 150.753 239.831296 
L 150.846 239.239806 
L 151.032 237.465331 
L 151.218 237.539267 
L 151.404 238.204695 
L 151.683 239.091932 
L 152.148 237.687141 
L 152.427 240.348853 
L 152.799 237.761077 
L 152.892 238.352567 
L 152.985 239.091932 
L 153.078 239.017996 
L 153.264 237.243521 
L 153.357 237.613203 
L 153.636 242.714818 
L 153.729 242.049389 
L 154.008 234.655748 
L 154.194 236.208412 
L 154.473 239.387678 
L 154.566 239.461614 
L 154.659 239.165868 
L 154.845 240.940343 
L 155.031 238.870124 
L 155.124 238.94406 
L 155.403 242.86269 
L 155.496 241.975453 
L 155.775 235.39511 
L 155.868 235.912666 
L 156.054 239.683424 
L 156.147 239.609488 
L 156.333 236.873838 
L 156.426 237.095649 
L 156.705 241.901517 
L 156.891 237.835013 
L 157.077 233.472763 
L 157.17 234.655748 
L 157.449 241.162153 
L 157.635 241.901517 
L 157.728 241.975453 
L 157.914 238.426506 
L 158.1 234.360001 
L 158.193 234.360001 
L 158.565 243.602054 
L 158.937 237.687141 
L 159.03 237.243521 
L 159.123 237.982885 
L 159.309 240.644596 
L 159.402 239.905232 
L 159.681 232.807337 
L 159.867 226.74455 
L 159.96 226.153057 
L 160.239 235.912666 
L 160.425 240.57066 
L 160.89 237.095649 
L 161.169 230.663179 
L 161.262 231.180734 
L 161.448 236.134474 
L 161.727 250.626016 
L 161.82 251.439316 
L 161.913 251.36538 
L 162.099 248.260051 
L 162.192 248.407923 
L 162.285 249.886651 
L 162.378 248.186112 
L 162.843 230.367433 
L 163.215 222.234427 
L 163.308 223.343474 
L 163.587 237.391395 
L 163.68 235.02543 
L 163.959 221.716871 
L 164.145 231.994034 
L 164.424 247.372812 
L 164.517 247.668558 
L 165.075 239.75736 
L 165.354 245.006847 
L 165.447 242.640882 
L 165.726 222.530171 
L 165.819 224.082836 
L 166.191 259.572324 
L 166.284 257.206357 
L 166.563 234.729684 
L 166.656 235.173302 
L 166.935 243.749928 
L 167.028 242.2712 
L 167.307 234.360001 
L 167.493 236.799903 
L 167.679 234.80362 
L 167.958 231.032862 
L 168.051 229.554133 
L 168.33 217.354623 
L 168.423 218.463669 
L 168.609 238.056823 
L 168.888 267.483523 
L 168.981 264.304255 
L 169.446 228.001468 
L 169.539 228.075404 
L 169.632 230.515308 
L 170.004 247.151004 
L 170.19 245.228657 
L 170.562 235.173302 
L 170.655 235.542984 
L 170.841 236.578095 
L 170.934 236.356284 
L 171.12 233.768509 
L 171.213 234.507873 
L 171.399 241.975453 
L 171.678 256.540931 
L 171.771 252.474427 
L 172.143 223.565282 
L 172.236 224.452518 
L 172.701 245.746211 
L 172.98 238.870124 
L 173.259 246.707384 
L 173.445 243.010564 
L 173.631 237.982885 
L 173.724 240.274914 
L 173.91 250.33027 
L 174.003 247.446748 
L 174.375 227.927532 
L 174.468 228.519022 
L 174.84 238.574378 
L 175.026 241.383961 
L 175.212 243.010564 
L 175.398 243.749928 
L 175.677 251.291444 
L 175.77 251.217506 
L 175.956 250.256334 
L 176.049 247.890368 
L 176.514 220.533888 
L 176.607 221.495063 
L 177.723 248.703669 
L 177.816 248.629733 
L 178.374 222.234427 
L 178.56 227.779658 
L 179.025 243.158436 
L 179.118 242.345135 
L 179.397 237.317459 
L 179.583 239.831296 
L 179.676 239.091932 
L 180.141 222.456235 
L 180.234 223.41741 
L 180.42 230.88499 
L 180.606 245.450465 
L 180.978 278.426114 
L 181.071 277.317068 
L 181.908 224.0089 
L 182.094 230.367433 
L 182.187 230.293497 
L 182.652 207.151395 
L 182.838 221.051442 
L 183.21 249.516969 
L 183.303 249.590905 
L 183.582 242.049389 
L 183.675 244.785037 
L 183.954 264.600001 
L 184.047 261.051053 
L 184.419 216.837066 
L 184.512 219.794524 
L 184.791 248.777605 
L 184.884 247.520686 
L 185.163 226.374867 
L 185.256 226.448803 
L 185.721 254.396774 
L 185.814 253.657409 
L 186.093 237.391395 
L 186.279 227.33604 
L 186.372 228.37115 
L 186.651 238.204695 
L 186.837 220.829634 
L 187.023 203.602445 
L 187.209 225.117946 
L 187.488 254.766456 
L 187.674 244.489293 
L 187.86 238.574378 
L 188.046 247.81643 
L 188.325 262.307972 
L 188.511 250.034523 
L 188.697 236.134474 
L 188.79 237.317459 
L 189.069 255.28401 
L 189.162 254.322838 
L 189.441 230.811051 
L 189.627 219.203034 
L 189.72 220.459952 
L 190.092 248.333987 
L 190.185 245.598339 
L 190.464 215.062594 
L 190.557 215.506212 
L 190.836 237.465331 
L 190.929 237.021713 
L 191.208 225.561565 
L 191.301 227.55785 
L 191.673 259.350514 
L 191.766 258.61115 
L 192.417 235.764792 
L 192.789 199.314133 
L 192.882 203.084891 
L 193.254 229.554133 
L 193.347 229.406261 
L 193.533 222.973792 
L 193.626 223.713156 
L 193.998 252.400491 
L 194.277 275.025038 
L 194.37 274.581418 
L 194.556 259.202642 
L 194.835 233.398827 
L 195.021 229.628069 
L 195.3 226.74455 
L 195.486 234.80362 
L 195.765 246.633448 
L 195.858 245.968021 
L 196.044 242.345135 
L 196.323 255.653692 
L 196.416 252.622299 
L 196.695 215.284401 
L 196.881 198.796577 
L 196.974 200.053498 
L 197.16 218.093987 
L 197.439 248.333987 
L 197.532 249.073351 
L 197.718 241.457899 
L 197.811 241.679707 
L 197.997 259.054768 
L 198.183 281.383569 
L 198.276 281.531444 
L 198.462 260.755307 
L 198.741 226.153057 
L 198.834 222.973792 
L 198.927 225.339757 
L 199.206 241.457899 
L 199.299 237.243521 
L 199.671 201.532227 
L 199.857 230.293497 
L 200.136 276.134085 
L 200.229 273.250563 
L 200.694 243.67599 
L 200.88 244.858975 
L 201.066 236.208412 
L 201.345 216.98494 
L 201.438 219.055159 
L 201.624 226.079121 
L 201.81 221.347189 
L 201.903 222.086553 
L 202.089 237.687141 
L 202.368 260.237751 
L 202.461 255.579756 
L 202.74 227.33604 
L 202.833 229.628069 
L 203.205 246.189829 
L 203.298 247.22494 
L 203.484 244.045672 
L 203.577 241.827581 
L 203.67 241.901517 
L 203.763 245.006847 
L 204.042 265.930855 
L 204.135 265.709048 
L 204.321 241.827581 
L 204.6 207.299267 
L 204.786 232.437654 
L 205.065 266.004794 
L 205.251 234.507873 
L 205.53 190.589635 
L 205.716 223.269535 
L 205.995 279.609097 
L 206.088 276.873447 
L 206.553 213.879609 
L 206.925 248.03824 
L 207.018 244.11961 
L 207.39 209.29555 
L 207.576 228.814768 
L 207.855 258.61115 
L 208.227 252.548363 
L 208.32 253.139855 
L 208.599 252.178681 
L 208.785 261.272861 
L 208.971 268.518631 
L 209.064 265.117555 
L 209.343 229.775943 
L 209.529 207.521078 
L 209.622 205.598728 
L 209.808 214.471101 
L 210.087 229.184451 
L 210.18 230.441369 
L 210.273 229.923815 
L 210.459 223.861028 
L 210.738 214.323229 
L 210.831 216.319512 
L 211.017 234.655748 
L 211.296 262.825526 
L 211.482 265.117555 
L 211.668 264.304255 
L 211.854 268.296823 
L 211.947 268.222887 
L 212.133 250.478141 
L 212.412 211.365772 
L 212.505 209.29555 
L 212.784 220.68176 
L 212.877 217.132812 
L 213.156 196.356676 
L 213.249 199.388069 
L 213.714 253.509537 
L 213.807 253.139855 
L 213.993 251.217506 
L 214.272 257.354231 
L 214.458 260.977115 
L 214.644 251.217506 
L 214.923 237.169585 
L 215.016 236.947777 
L 215.109 237.613203 
L 215.202 236.947777 
L 215.388 228.96264 
L 215.667 210.256725 
L 215.76 212.696626 
L 216.039 251.587188 
L 216.225 266.596284 
L 216.318 262.75159 
L 216.69 231.920098 
L 217.155 261.864354 
L 217.341 252.918045 
L 217.527 242.197264 
L 217.62 242.936626 
L 217.899 266.374476 
L 217.992 266.07873 
L 218.178 247.077066 
L 218.55 200.127434 
L 218.643 202.567335 
L 218.922 220.607824 
L 219.015 220.829634 
L 219.108 221.642935 
L 219.294 230.515308 
L 219.573 250.182398 
L 219.666 247.00313 
L 220.038 222.456235 
L 220.41 234.064255 
L 220.596 238.426506 
L 220.689 238.278631 
L 220.968 230.88499 
L 221.061 231.624352 
L 221.34 243.528118 
L 221.898 276.799511 
L 222.084 261.346797 
L 222.456 222.308363 
L 222.642 220.312078 
L 222.735 223.121664 
L 222.921 241.162153 
L 223.2 275.17291 
L 223.293 273.472371 
L 223.479 247.520686 
L 223.758 213.509926 
L 223.851 215.432276 
L 224.223 241.901517 
L 224.316 238.278631 
L 224.781 197.022104 
L 224.967 218.389731 
L 225.246 253.213791 
L 225.339 253.87922 
L 225.525 250.995698 
L 225.711 258.019657 
L 225.804 261.198925 
L 225.897 261.124989 
L 226.083 243.602054 
L 226.362 218.463669 
L 226.455 220.09027 
L 226.92 244.711101 
L 227.292 275.542593 
L 227.385 273.694182 
L 227.664 248.407923 
L 228.129 194.656137 
L 228.222 195.469439 
L 228.408 212.253008 
L 228.687 233.177019 
L 228.966 229.480197 
L 229.245 240.422789 
L 229.338 239.387678 
L 229.524 233.029145 
L 229.617 233.250955 
L 229.803 247.22494 
L 230.082 264.747873 
L 230.175 262.52978 
L 230.454 249.443033 
L 230.547 251.36538 
L 230.826 260.533497 
L 231.012 249.443033 
L 231.291 233.768509 
L 231.477 240.422789 
L 231.756 250.404205 
L 231.849 250.256334 
L 232.035 242.714818 
L 232.5 224.082836 
L 232.686 225.931247 
L 232.779 225.044011 
L 232.965 221.495063 
L 233.058 221.642935 
L 233.337 233.694573 
L 233.43 233.546701 
L 233.709 219.794524 
L 233.802 221.199317 
L 234.267 258.315404 
L 234.453 248.629733 
L 234.639 241.162153 
L 234.732 243.528118 
L 235.011 258.685086 
L 235.104 259.128704 
L 235.29 252.770173 
L 235.569 245.302593 
L 235.755 245.080783 
L 235.848 245.450465 
L 235.941 245.376529 
L 236.034 242.936626 
L 236.499 209.665232 
L 236.592 215.210465 
L 237.057 276.429829 
L 237.15 273.694182 
L 237.894 192.364108 
L 238.08 169.96137 
L 238.173 170.257116 
L 238.359 197.09604 
L 238.638 238.796185 
L 238.917 248.333987 
L 239.289 261.642543 
L 239.382 261.568607 
L 239.568 252.400491 
L 239.847 240.718535 
L 239.94 241.014279 
L 240.126 250.626016 
L 240.498 277.391004 
L 240.684 263.343082 
L 240.963 237.835013 
L 241.056 236.134474 
L 241.335 243.528118 
L 241.521 226.892421 
L 241.8 196.948168 
L 241.893 196.578486 
L 242.358 220.607824 
L 242.637 227.114232 
L 243.102 245.228657 
L 243.288 234.286065 
L 243.474 222.973792 
L 243.567 225.265821 
L 243.846 250.921762 
L 244.125 268.666505 
L 244.311 270.736724 
L 244.497 263.638826 
L 244.776 251.14357 
L 244.962 248.925477 
L 245.148 238.426506 
L 245.427 221.421124 
L 245.52 223.121664 
L 245.799 236.504156 
L 245.892 237.391395 
L 246.171 234.138191 
L 246.357 243.67599 
L 246.636 255.801567 
L 246.729 252.400491 
L 247.101 219.27697 
L 247.194 219.646652 
L 247.473 230.071687 
L 247.659 209.739168 
L 247.938 175.654475 
L 248.031 185.857702 
L 248.496 284.636773 
L 248.589 282.344744 
L 248.868 262.899462 
L 248.961 262.677654 
L 249.24 267.11384 
L 249.426 258.61115 
L 249.891 226.74455 
L 249.984 230.145625 
L 250.356 255.50582 
L 250.728 228.37115 
L 250.821 231.402544 
L 251.007 243.0845 
L 251.1 243.010564 
L 251.751 210.330661 
L 251.844 211.070025 
L 252.03 224.23071 
L 252.402 262.381908 
L 252.495 263.195208 
L 252.681 254.914328 
L 253.518 215.358337 
L 253.611 215.801958 
L 253.89 224.896139 
L 254.448 253.287727 
L 254.541 254.544646 
L 254.727 262.307972 
L 255.006 273.694182 
L 255.192 263.860637 
L 255.657 214.692911 
L 255.936 187.558241 
L 256.029 184.157166 
L 256.122 184.231102 
L 256.308 193.473154 
L 257.331 273.176627 
L 257.517 278.647922 
L 257.61 277.46494 
L 258.168 251.587188 
L 258.447 239.165868 
L 258.54 238.722249 
L 258.726 239.831296 
L 258.819 238.426506 
L 259.284 224.0089 
L 259.656 233.250955 
L 259.842 224.23071 
L 260.028 215.284401 
L 260.121 215.284401 
L 260.493 224.452518 
L 260.958 249.147287 
L 261.051 247.22494 
L 261.33 229.923815 
L 261.423 230.737115 
L 261.795 259.942007 
L 261.888 259.202642 
L 262.26 245.894083 
L 262.353 247.22494 
L 262.446 247.151004 
L 262.818 231.106798 
L 263.004 243.528118 
L 263.283 265.487237 
L 263.376 263.121272 
L 263.841 225.635503 
L 263.934 226.966357 
L 264.213 238.426506 
L 264.306 237.613203 
L 264.864 220.459952 
L 264.957 221.716871 
L 265.143 235.02543 
L 265.422 255.579756 
L 265.515 256.466993 
L 265.701 248.703669 
L 266.166 219.424842 
L 266.259 218.389731 
L 266.445 222.530171 
L 267.375 251.513252 
L 267.561 241.383961 
L 267.84 227.114232 
L 268.026 241.531835 
L 268.305 261.051053 
L 268.398 260.089879 
L 268.677 248.555795 
L 268.77 249.590905 
L 269.049 259.794132 
L 269.142 256.466993 
L 269.421 220.016334 
L 269.607 199.462005 
L 269.7 197.169976 
L 269.886 210.626407 
L 270.165 237.465331 
L 270.258 236.060538 
L 270.63 213.879609 
L 270.816 235.247238 
L 271.095 269.036187 
L 271.188 264.082447 
L 271.653 200.792862 
L 271.839 228.075404 
L 272.118 269.257995 
L 272.211 265.635112 
L 272.583 223.491346 
L 272.676 225.635503 
L 273.141 266.67022 
L 273.513 241.827581 
L 273.606 242.123325 
L 273.885 253.287727 
L 273.978 252.696235 
L 274.164 236.208412 
L 274.443 210.552471 
L 274.629 223.343474 
L 274.815 235.247238 
L 274.908 234.433937 
L 275.094 226.670611 
L 275.187 227.853594 
L 275.652 254.101027 
L 275.838 252.622299 
L 275.931 254.914328 
L 276.21 271.623963 
L 276.303 269.849488 
L 276.768 231.106798 
L 276.861 231.328608 
L 276.954 230.737115 
L 277.14 224.748264 
L 277.512 209.813107 
L 277.605 212.179072 
L 278.07 245.746211 
L 278.163 243.0845 
L 278.442 229.480197 
L 278.535 232.437654 
L 278.907 257.428167 
L 279 256.688803 
L 279.279 235.83873 
L 279.558 220.90357 
L 279.744 214.323229 
L 280.023 201.310416 
L 280.116 202.271591 
L 280.302 219.942398 
L 280.581 248.851541 
L 280.674 249.664841 
L 280.86 246.633448 
L 280.953 247.372812 
L 281.325 259.942007 
L 281.511 244.045672 
L 281.883 203.232763 
L 281.976 205.37692 
L 282.441 243.0845 
L 282.72 225.561565 
L 282.813 226.079121 
L 283.185 261.864354 
L 283.278 261.642543 
L 283.743 233.620637 
L 283.929 248.260051 
L 284.115 264.156383 
L 284.208 264.969683 
L 284.58 248.703669 
L 284.766 266.226602 
L 285.138 314.507091 
L 285.231 314.507091 
L 285.417 294.322446 
L 285.696 265.043619 
L 285.789 265.413301 
L 285.975 268.075013 
L 286.068 265.930855 
L 286.812 217.280684 
L 287.463 133.436773 
L 287.742 107.485086 
L 287.835 108.22445 
L 288.021 134.76763 
L 289.137 388.443521 
L 289.23 387.408412 
L 289.416 364.709926 
L 289.881 250.995698 
L 290.253 172.918828 
L 290.439 163.159219 
L 290.532 167.743277 
L 290.718 197.31785 
L 291.183 296.910222 
L 291.276 296.836283 
L 291.462 270.21917 
L 292.113 93.658975 
L 292.206 99.13027 
L 292.392 131.884108 
L 293.136 301.27247 
L 293.229 298.093204 
L 293.415 260.533497 
L 293.88 139.721371 
L 293.973 140.904353 
L 294.159 168.408705 
L 294.438 249.295159 
L 294.996 473.470417 
L 295.089 476.28 
L 295.275 437.98093 
L 296.112 144.749047 
L 296.484 197.90934 
L 296.577 197.539658 
L 296.949 174.545428 
L 297.228 202.123717 
L 297.414 214.988655 
L 297.507 215.506212 
L 297.786 210.774279 
L 298.065 213.879609 
L 298.158 212.770562 
L 298.344 205.302984 
L 298.53 197.68753 
L 298.623 197.465722 
L 298.716 200.497116 
L 298.902 220.533888 
L 299.367 321.38318 
L 299.646 370.403034 
L 299.739 371.364206 
L 299.925 329.590122 
L 300.297 208.334378 
L 300.39 207.447139 
L 300.669 241.383961 
L 300.762 237.908949 
L 301.134 183.491737 
L 301.32 230.589243 
L 301.599 303.120881 
L 301.692 299.128315 
L 302.064 256.171249 
L 302.343 253.583473 
L 302.622 243.380246 
L 302.715 244.858975 
L 302.994 258.980832 
L 303.087 255.875502 
L 303.273 227.705722 
L 303.738 133.141027 
L 303.831 130.331444 
L 303.924 134.471884 
L 304.947 236.652031 
L 305.04 236.356284 
L 305.226 232.215844 
L 305.319 235.099366 
L 305.505 262.75159 
L 305.877 325.967239 
L 305.97 321.235306 
L 306.435 252.400491 
L 306.714 226.300929 
L 306.807 231.106798 
L 307.365 306.595892 
L 307.551 299.350123 
L 307.737 279.239415 
L 308.016 189.110906 
L 308.295 105.710613 
L 308.388 103.862202 
L 308.574 136.172421 
L 309.411 344.081664 
L 309.504 334.395991 
L 309.69 271.476088 
L 310.062 124.342593 
L 310.155 124.564403 
L 310.341 162.7156 
L 311.271 386.890856 
L 311.364 382.972226 
L 311.55 333.730562 
L 311.922 236.060538 
L 312.387 198.131151 
L 312.759 150.220344 
L 312.852 153.103863 
L 313.038 187.632177 
L 313.41 279.609097 
L 313.782 311.179951 
L 313.875 315.246455 
L 313.968 312.362936 
L 314.526 261.864354 
L 314.619 262.234036 
L 314.712 259.868068 
L 314.898 240.348853 
L 315.549 126.412811 
L 315.642 123.898974 
L 315.735 124.120782 
L 315.921 135.802738 
L 316.944 286.263374 
L 317.223 344.451346 
L 317.316 350.440197 
L 317.409 348.665722 
L 317.781 309.996968 
L 317.967 273.54631 
L 318.339 179.277361 
L 318.432 174.249682 
L 318.525 176.61565 
L 318.711 200.792862 
L 319.176 290.10807 
L 319.362 251.291444 
L 320.199 22.68 
L 320.292 33.105038 
L 320.478 127.004304 
L 320.757 288.999024 
L 320.85 295.357557 
L 321.036 238.426506 
L 321.222 181.199708 
L 321.315 180.75609 
L 321.501 231.032862 
L 321.78 317.612422 
L 321.873 324.562446 
L 321.966 321.457116 
L 322.431 278.130368 
L 322.71 268.296823 
L 322.803 268.740441 
L 322.989 282.64049 
L 323.454 336.318338 
L 323.547 331.142787 
L 323.733 292.843718 
L 324.198 182.382691 
L 324.291 191.698681 
L 324.57 278.869732 
L 324.942 369.146113 
L 325.221 391.622789 
L 325.314 393.323325 
L 325.407 389.922249 
L 325.593 368.480684 
L 325.872 311.401761 
L 326.337 208.556186 
L 326.616 182.382691 
L 326.709 182.752373 
L 326.895 195.839122 
L 327.36 259.64626 
L 327.639 294.913936 
L 327.732 298.315012 
L 327.825 296.910222 
L 328.011 286.263374 
L 328.197 259.572324 
L 328.476 149.333105 
L 328.755 50.923717 
L 328.848 48.335941 
L 329.034 78.723815 
L 329.406 142.8267 
L 329.685 183.935355 
L 329.964 226.596675 
L 330.522 251.95687 
L 330.615 250.995698 
L 330.801 231.402544 
L 331.173 176.172029 
L 331.266 174.027874 
L 331.359 179.277361 
L 331.917 256.836675 
L 332.475 239.609488 
L 332.568 239.53555 
L 332.661 239.609488 
L 333.126 237.761077 
L 333.219 240.644596 
L 333.405 258.463278 
L 333.777 305.856528 
L 333.87 304.673546 
L 334.242 268.370759 
L 334.335 268.962251 
L 334.521 278.056432 
L 334.614 277.612811 
L 334.8 253.953156 
L 335.172 192.1423 
L 335.265 189.406652 
L 335.451 193.916772 
L 335.73 210.108851 
L 336.195 265.339365 
L 336.288 258.83296 
L 336.753 159.314525 
L 336.846 161.754426 
L 337.776 281.82719 
L 338.055 327.741711 
L 338.148 331.882151 
L 338.241 330.403423 
L 338.427 311.327825 
L 339.078 189.258778 
L 339.264 199.905623 
L 339.636 225.265821 
L 340.101 340.310906 
L 340.194 334.765673 
L 340.752 214.323229 
L 340.938 217.650367 
L 341.031 213.583865 
L 341.403 182.308755 
L 341.496 187.188559 
L 341.682 214.027483 
L 342.147 301.346406 
L 342.24 298.758633 
L 342.426 264.452129 
L 342.891 159.314525 
L 342.984 156.652813 
L 343.077 159.240589 
L 344.379 250.626016 
L 344.751 283.897409 
L 344.844 280.866015 
L 345.123 243.158436 
L 345.402 217.502495 
L 345.495 220.977506 
L 346.053 263.786701 
L 346.146 265.709048 
L 346.239 270.145234 
L 346.518 309.996968 
L 346.89 359.608314 
L 346.983 359.90406 
L 347.169 340.163032 
L 347.448 250.034523 
L 347.82 105.414867 
L 347.913 95.359512 
L 348.006 96.542494 
L 348.192 124.120782 
L 348.471 199.535941 
L 348.843 320.791688 
L 348.936 326.262983 
L 349.029 316.503376 
L 349.773 165.081566 
L 349.866 167.817213 
L 350.052 183.713545 
L 350.703 274.1378 
L 350.796 273.176627 
L 351.168 249.073351 
L 351.447 255.875502 
L 351.633 239.683424 
L 351.912 213.140244 
L 352.098 245.968021 
L 352.47 337.649195 
L 352.563 332.621516 
L 353.028 249.664841 
L 353.307 254.840392 
L 353.493 245.228657 
L 353.772 220.09027 
L 353.865 219.794524 
L 354.051 227.705722 
L 354.237 236.873838 
L 354.33 236.504156 
L 354.516 223.861028 
L 354.795 205.007238 
L 354.981 214.766847 
L 355.26 227.55785 
L 355.353 228.223276 
L 355.446 229.775943 
L 355.539 233.324891 
L 355.725 259.572324 
L 356.19 348.88753 
L 356.283 338.832177 
L 357.027 173.953938 
L 357.492 95.729194 
L 357.585 99.204205 
L 357.771 138.168706 
L 358.143 221.051442 
L 358.329 226.966357 
L 358.515 225.044011 
L 358.701 231.994034 
L 358.98 241.975453 
L 359.166 234.360001 
L 359.724 200.275306 
L 359.817 203.602445 
L 360.003 228.001468 
L 360.375 283.601663 
L 360.468 283.971345 
L 360.747 268.592569 
L 360.84 271.328216 
L 361.212 312.732618 
L 361.305 312.141125 
L 361.77 276.503767 
L 361.863 276.651639 
L 362.049 285.080391 
L 362.514 319.756577 
L 362.607 319.682641 
L 362.793 306.152274 
L 363.537 229.480197 
L 364.002 215.062594 
L 364.095 215.284401 
L 364.281 225.191882 
L 364.653 256.614867 
L 364.746 256.910613 
L 364.932 241.753643 
L 365.304 162.641664 
L 365.583 118.575552 
L 365.676 114.804794 
L 365.769 115.544158 
L 366.234 131.144744 
L 366.327 133.510709 
L 366.513 154.582592 
L 367.164 260.977115 
L 367.536 269.627677 
L 367.629 269.849488 
L 367.722 268.814377 
L 368.373 248.03824 
L 368.559 246.263765 
L 368.652 244.858975 
L 368.745 245.820147 
L 368.931 259.794132 
L 369.396 310.440589 
L 369.489 310.218778 
L 369.861 297.205966 
L 370.14 303.638435 
L 370.233 301.863962 
L 370.419 283.084108 
L 370.698 251.36538 
L 370.791 248.629733 
L 370.884 249.073351 
L 370.977 249.516969 
L 371.163 245.228657 
L 371.349 241.457899 
L 371.442 243.528118 
L 371.814 273.915992 
L 371.907 273.54631 
L 372.093 254.544646 
L 372.651 180.903962 
L 372.744 181.125772 
L 372.93 195.025819 
L 373.395 247.594622 
L 373.581 254.027092 
L 373.674 254.396774 
L 373.767 252.844109 
L 373.953 238.722249 
L 374.418 192.807728 
L 374.697 185.561956 
L 374.79 186.375256 
L 374.976 196.208804 
L 375.441 231.920098 
L 375.534 231.328608 
L 375.813 225.339757 
L 375.906 227.705722 
L 376.092 241.679707 
L 376.557 284.636773 
L 376.65 283.305919 
L 376.929 271.402152 
L 377.022 271.623963 
L 377.208 277.68675 
L 377.301 276.725575 
L 377.487 256.393057 
L 377.766 223.41741 
L 377.859 222.308363 
L 378.045 223.861028 
L 378.138 220.459952 
L 378.51 185.931638 
L 378.603 189.110906 
L 379.068 250.921762 
L 379.161 246.485576 
L 379.626 191.920489 
L 379.719 193.694964 
L 380.184 220.016334 
L 380.463 214.397165 
L 380.556 216.023766 
L 381.021 244.193546 
L 381.114 243.67599 
L 381.3 241.975453 
L 381.393 242.566946 
L 381.672 247.151004 
L 381.858 255.579756 
L 382.23 281.753252 
L 382.323 281.60538 
L 382.695 273.028753 
L 382.881 276.799511 
L 382.974 275.986211 
L 383.16 258.906896 
L 383.532 212.696626 
L 383.904 196.28274 
L 383.997 197.835405 
L 384.183 215.284401 
L 384.648 270.884598 
L 385.02 286.854866 
L 385.113 286.78093 
L 385.299 278.943668 
L 385.485 270.367042 
L 385.578 270.145234 
L 385.857 275.764403 
L 385.95 274.729292 
L 386.136 265.339365 
L 386.508 243.749928 
L 386.787 233.842445 
L 387.066 208.260442 
L 387.345 183.787483 
L 387.438 182.974181 
L 387.624 188.519414 
L 387.996 205.820539 
L 388.275 219.055159 
L 388.368 217.724305 
L 388.554 203.232763 
L 388.926 164.416137 
L 389.019 164.194329 
L 389.205 180.682151 
L 389.856 272.806945 
L 390.042 277.68675 
L 390.228 279.904843 
L 390.321 279.683033 
L 390.414 277.834622 
L 390.6 266.67022 
L 391.158 220.68176 
L 391.251 222.751981 
L 391.437 238.574378 
L 391.809 274.803228 
L 391.902 275.468657 
L 392.088 272.363327 
L 392.181 272.511199 
L 392.553 286.411248 
L 392.646 284.267091 
L 393.576 231.994034 
L 393.855 228.223276 
L 393.948 227.705722 
L 394.134 222.456235 
L 394.599 204.34181 
L 394.785 203.75032 
L 394.971 206.042349 
L 395.157 211.070025 
L 395.436 219.424842 
L 395.529 218.389731 
L 395.715 208.556186 
L 395.994 191.328999 
L 396.087 192.9556 
L 396.552 219.498778 
L 396.645 219.055159 
L 396.738 219.129095 
L 396.831 221.642935 
L 397.11 244.11961 
L 397.482 267.187776 
L 397.854 282.788362 
L 397.947 281.975062 
L 398.133 269.257995 
L 398.505 239.53555 
L 398.598 242.2712 
L 399.063 277.982494 
L 399.156 277.612811 
L 399.342 275.690465 
L 399.435 276.577703 
L 399.621 284.710709 
L 399.9 296.170857 
L 399.993 295.431493 
L 400.179 286.189438 
L 400.551 243.380246 
L 400.923 216.17164 
L 401.388 191.920489 
L 401.574 203.898192 
L 401.853 223.269535 
L 401.946 222.012617 
L 402.318 207.003521 
L 402.411 206.781713 
L 402.504 207.373203 
L 402.597 206.929585 
L 402.783 202.493399 
L 402.969 198.944451 
L 403.062 199.979562 
L 403.248 206.707775 
L 403.992 236.134474 
L 404.085 235.39511 
L 404.457 224.526456 
L 404.55 224.896139 
L 404.736 233.916383 
L 405.294 270.588852 
L 405.48 275.025038 
L 405.573 274.433546 
L 405.759 268.001077 
L 406.503 234.581809 
L 406.596 236.652031 
L 407.061 263.195208 
L 407.433 255.579756 
L 407.712 259.276578 
L 407.898 250.478141 
L 408.27 220.312078 
L 408.363 220.607824 
L 408.549 232.955209 
L 408.921 266.152666 
L 409.014 268.296823 
L 409.107 267.261712 
L 409.479 254.914328 
L 409.572 255.062202 
L 409.758 259.276578 
L 409.851 259.350514 
L 409.944 256.466993 
L 410.223 231.254672 
L 410.502 213.140244 
L 410.595 214.323229 
L 410.967 226.74455 
L 411.153 221.938681 
L 411.432 213.140244 
L 411.618 219.350906 
L 411.897 227.33604 
L 411.99 226.596675 
L 412.269 221.716871 
L 412.362 222.382299 
L 412.92 237.095649 
L 413.013 237.095649 
L 413.292 230.958926 
L 413.478 223.491346 
L 413.943 199.462005 
L 414.036 198.796577 
L 414.222 201.680098 
L 414.501 213.288119 
L 414.966 240.866407 
L 415.245 242.640882 
L 415.431 252.770173 
L 415.71 270.81066 
L 415.803 271.328216 
L 416.268 256.245185 
L 416.454 262.455844 
L 416.733 270.958534 
L 416.826 271.254281 
L 416.919 270.662788 
L 417.012 270.81066 
L 417.477 275.838339 
L 417.663 273.472371 
L 417.942 263.56489 
L 418.5 228.223276 
L 418.593 229.258387 
L 419.058 243.0845 
L 419.244 242.640882 
L 419.43 247.298876 
L 419.802 261.93829 
L 419.988 262.75159 
L 420.267 256.023374 
L 420.546 240.644596 
L 421.011 206.559903 
L 421.104 207.299267 
L 421.383 212.770562 
L 421.569 207.742886 
L 421.755 201.82797 
L 421.848 201.310416 
L 421.941 201.754034 
L 422.034 200.644988 
L 422.22 192.585918 
L 422.499 178.907679 
L 422.592 181.34758 
L 422.871 207.299267 
L 423.15 228.223276 
L 423.336 231.032862 
L 423.522 227.040293 
L 423.894 217.280684 
L 423.987 217.650367 
L 424.08 219.055159 
L 424.545 234.286065 
L 424.638 234.729684 
L 424.824 233.103081 
L 424.917 233.546701 
L 425.01 235.690856 
L 425.196 251.439316 
L 425.661 298.315012 
L 425.754 300.533105 
L 425.847 300.015551 
L 426.126 292.474035 
L 426.312 281.679316 
L 426.684 255.653692 
L 426.777 256.836675 
L 427.056 266.152666 
L 427.149 265.413301 
L 427.986 230.293497 
L 428.358 200.866798 
L 428.451 199.388069 
L 428.544 200.571052 
L 428.823 216.393448 
L 429.195 251.36538 
L 429.567 288.333595 
L 429.66 290.625624 
L 429.753 288.925085 
L 429.939 277.317068 
L 430.497 231.920098 
L 430.59 230.071687 
L 430.683 230.88499 
L 430.869 238.648313 
L 431.241 255.136138 
L 431.334 254.101027 
L 431.52 244.415354 
L 432.078 187.484303 
L 432.357 165.894866 
L 432.45 165.00763 
L 432.636 174.989047 
L 433.287 234.581809 
L 433.473 225.857311 
L 433.938 200.42318 
L 434.124 197.983276 
L 434.217 200.127434 
L 434.403 213.140244 
L 435.24 291.217117 
L 435.333 290.847435 
L 435.519 285.228266 
L 435.798 271.328216 
L 436.356 231.180734 
L 436.449 232.659462 
L 437.007 255.357946 
L 437.193 247.81643 
L 437.658 215.284401 
L 437.937 210.848215 
L 438.03 210.774279 
L 438.216 213.731737 
L 438.588 223.639218 
L 438.681 223.713156 
L 439.053 218.907287 
L 439.146 220.607824 
L 439.611 238.94406 
L 439.797 239.313742 
L 439.983 246.41164 
L 440.448 275.616529 
L 440.634 266.965966 
L 441.099 238.574378 
L 441.285 233.694573 
L 441.378 235.469048 
L 441.564 248.925477 
L 441.936 280.939951 
L 442.029 278.573986 
L 442.494 244.341418 
L 442.587 244.637165 
L 442.866 249.812715 
L 443.052 242.788754 
L 443.331 227.55785 
L 443.424 226.596675 
L 443.61 233.324891 
L 443.982 252.326552 
L 444.447 259.276578 
L 444.54 259.350514 
L 444.726 253.583473 
L 445.377 219.203034 
L 445.47 217.724305 
L 445.563 218.020049 
L 445.749 220.164206 
L 446.028 226.300929 
L 446.307 236.060538 
L 446.586 246.041957 
L 446.679 245.080783 
L 447.144 230.441369 
L 447.423 228.666897 
L 447.981 218.389731 
L 448.074 219.27697 
L 448.446 226.522739 
L 448.632 230.071687 
L 448.911 239.239806 
L 449.19 246.929194 
L 449.283 245.302593 
L 449.934 221.347189 
L 450.12 224.452518 
L 450.678 242.419071 
L 450.771 241.310025 
L 451.422 223.565282 
L 451.608 222.308363 
L 451.98 215.210465 
L 452.073 216.097702 
L 452.259 223.047728 
L 452.631 240.792471 
L 452.817 242.936626 
L 453.096 242.419071 
L 453.189 242.493007 
L 453.375 245.006847 
L 453.747 252.548363 
L 453.84 252.770173 
L 454.026 248.777605 
L 454.398 241.383961 
L 454.584 241.457899 
L 454.77 241.753643 
L 455.049 246.337704 
L 455.421 255.801567 
L 455.886 259.350514 
L 455.979 260.459561 
L 456.165 258.61115 
L 456.444 253.509537 
L 456.537 253.509537 
L 457.002 265.487237 
L 457.188 260.533497 
L 457.467 253.287727 
L 457.653 249.443033 
L 457.932 242.493007 
L 458.025 241.975453 
L 458.118 242.640882 
L 458.49 246.855258 
L 458.583 247.446748 
L 458.676 246.929194 
L 458.862 242.566946 
L 459.327 228.592958 
L 459.792 219.27697 
L 460.164 204.711492 
L 460.35 210.330661 
L 460.722 221.568999 
L 460.908 223.121664 
L 461.094 229.110515 
L 461.373 237.982885 
L 461.466 236.652031 
L 461.838 227.114232 
L 462.024 234.360001 
L 462.396 250.699952 
L 462.489 250.034523 
L 463.047 240.274914 
L 463.233 237.908949 
L 463.512 228.001468 
L 463.977 210.848215 
L 464.07 211.217897 
L 464.256 218.907287 
L 464.721 246.115893 
L 464.814 245.228657 
L 465.093 239.313742 
L 465.186 240.496724 
L 465.651 260.089879 
L 465.744 259.572324 
L 466.116 255.50582 
L 466.209 255.210074 
L 466.302 255.28401 
L 466.395 255.50582 
L 466.581 252.918045 
L 466.86 242.788754 
L 467.139 236.725967 
L 467.232 236.873838 
L 467.325 237.982885 
L 467.883 257.428167 
L 468.162 264.821811 
L 468.255 263.934573 
L 468.534 253.213791 
L 469.278 217.354623 
L 469.464 214.988655 
L 469.743 225.413693 
L 470.022 233.250955 
L 470.115 234.581809 
L 470.394 247.00313 
L 470.673 262.012226 
L 470.766 262.52978 
L 470.859 260.163815 
L 471.417 231.254672 
L 471.696 226.448803 
L 471.789 226.300929 
L 471.975 233.029145 
L 472.44 259.128704 
L 472.533 259.498386 
L 472.719 254.248899 
L 473.742 210.256725 
L 473.928 209.221614 
L 474.021 209.29555 
L 474.114 209.665232 
L 474.3 212.179072 
L 475.23 238.204695 
L 475.602 252.326552 
L 475.695 252.326552 
L 475.881 249.147287 
L 476.811 226.005185 
L 476.904 226.670611 
L 477.369 245.080783 
L 477.462 243.749928 
L 478.113 224.8222 
L 478.299 222.308363 
L 478.485 223.41741 
L 479.136 237.835013 
L 479.601 254.47071 
L 479.694 254.396774 
L 479.88 250.404205 
L 480.438 229.702005 
L 480.624 228.592958 
L 480.717 228.592958 
L 480.81 228.740832 
L 480.996 230.958926 
L 481.275 234.877556 
L 481.368 234.951492 
L 481.647 232.881273 
L 481.74 232.955209 
L 481.926 237.243521 
L 482.205 250.995698 
L 482.484 261.198925 
L 482.577 259.942007 
L 482.856 246.633448 
L 483.135 235.469048 
L 483.228 234.729684 
L 483.414 237.908949 
L 484.065 258.38934 
L 484.158 257.649978 
L 484.623 248.999415 
L 484.716 249.369097 
L 484.902 250.626016 
L 485.088 248.555795 
L 485.553 233.546701 
L 486.018 219.498778 
L 486.111 220.09027 
L 486.669 234.212127 
L 486.855 233.177019 
L 487.041 236.725967 
L 487.227 240.127042 
L 487.32 240.200978 
L 487.506 235.247238 
L 487.785 228.740832 
L 487.878 228.14934 
L 488.064 229.554133 
L 488.25 230.737115 
L 488.343 230.737115 
L 488.715 225.191882 
L 488.901 227.483914 
L 489.645 250.921762 
L 489.738 250.995698 
L 490.11 244.932911 
L 490.203 245.302593 
L 490.575 252.252616 
L 490.761 246.041957 
L 491.04 235.912666 
L 491.226 238.204695 
L 491.412 241.605771 
L 491.598 239.017996 
L 491.784 235.469048 
L 491.877 235.986602 
L 492.063 242.123325 
L 492.342 253.435599 
L 492.528 254.396774 
L 492.714 253.583473 
L 493.179 249.960587 
L 493.458 240.348853 
L 494.109 213.805673 
L 494.202 212.8445 
L 494.295 213.731737 
L 494.853 233.546701 
L 494.946 233.029145 
L 495.039 232.955209 
L 495.132 234.729684 
L 495.504 252.252616 
L 495.597 251.735062 
L 495.783 238.500442 
L 496.062 217.058876 
L 496.155 217.132812 
L 496.434 238.130759 
L 496.713 249.516969 
L 496.899 249.073351 
L 497.085 250.256334 
L 497.178 250.773888 
L 497.271 250.33027 
L 497.457 245.598339 
L 497.736 237.243521 
L 497.922 235.764792 
L 498.108 230.071687 
L 498.48 212.0312 
L 498.573 214.249291 
L 498.852 234.877556 
L 499.131 249.738779 
L 499.224 251.14357 
L 499.41 250.33027 
L 499.968 244.932911 
L 500.247 246.263765 
L 500.433 244.858975 
L 500.619 241.901517 
L 500.712 241.975453 
L 500.805 243.010564 
L 501.177 252.104745 
L 501.27 251.661126 
L 501.456 245.746211 
L 502.014 223.121664 
L 502.293 216.54132 
L 502.479 212.253008 
L 502.572 212.400882 
L 502.851 224.156774 
L 503.13 235.469048 
L 503.409 241.457899 
L 503.688 251.513252 
L 503.781 250.773888 
L 503.967 241.975453 
L 504.246 228.592958 
L 504.339 229.036579 
L 504.804 247.668558 
L 504.897 246.929194 
L 505.176 240.348853 
L 505.269 241.310025 
L 505.548 248.851541 
L 505.641 247.00313 
L 505.827 236.208412 
L 506.106 221.568999 
L 506.292 225.413693 
L 507.222 260.089879 
L 507.315 260.977115 
L 507.408 260.385625 
L 507.687 249.516969 
L 507.966 241.162153 
L 508.431 249.516969 
L 508.524 248.407923 
L 509.082 233.398827 
L 509.175 233.472763 
L 509.268 233.177019 
L 509.361 233.324891 
L 509.454 233.177019 
L 509.919 229.702005 
L 510.198 236.725967 
L 510.756 256.836675 
L 510.849 256.09731 
L 511.035 242.345135 
L 511.407 212.105136 
L 511.5 214.988655 
L 511.965 243.232372 
L 512.244 237.317459 
L 512.337 238.796185 
L 512.523 249.590905 
L 512.802 263.417018 
L 512.895 263.269144 
L 513.36 249.664841 
L 514.011 222.825917 
L 514.104 224.304646 
L 514.383 238.204695 
L 514.569 243.158436 
L 514.662 241.457899 
L 515.034 225.191882 
L 515.127 225.561565 
L 515.592 247.446748 
L 515.685 246.263765 
L 515.964 235.469048 
L 516.057 235.542984 
L 516.336 241.975453 
L 516.429 241.014279 
L 516.894 225.561565 
L 517.08 230.071687 
L 517.266 235.469048 
L 517.359 235.83873 
L 517.545 233.990319 
L 517.638 234.507873 
L 517.824 240.348853 
L 518.103 249.812715 
L 518.196 249.886651 
L 518.475 245.820147 
L 518.568 246.559512 
L 518.847 252.622299 
L 518.94 251.291444 
L 519.126 240.422789 
L 519.498 209.517361 
L 519.591 209.517361 
L 519.777 224.304646 
L 520.149 257.945721 
L 520.242 257.132421 
L 520.521 242.566946 
L 520.8 232.881273 
L 520.893 233.398827 
L 521.172 237.465331 
L 521.265 236.725967 
L 521.637 226.522739 
L 521.73 227.114232 
L 522.288 242.493007 
L 522.381 241.531835 
L 522.474 242.123325 
L 522.66 248.555795 
L 523.032 262.603718 
L 523.125 263.56489 
L 523.218 263.195208 
L 523.311 261.420735 
L 523.497 251.069634 
L 523.962 216.023766 
L 524.148 213.805673 
L 524.334 215.875894 
L 524.613 219.350906 
L 524.706 219.646652 
L 524.799 219.572716 
L 524.892 219.498778 
L 524.985 220.238142 
L 525.264 228.592958 
L 525.45 232.733398 
L 525.543 232.807337 
L 525.729 231.550416 
L 525.822 231.624352 
L 525.915 232.437654 
L 526.473 243.306308 
L 526.659 244.045672 
L 526.752 245.006847 
L 527.124 255.28401 
L 527.217 254.101027 
L 527.589 239.313742 
L 527.682 239.609488 
L 528.054 251.735062 
L 528.147 250.182398 
L 528.426 231.180734 
L 528.705 218.833351 
L 528.798 219.646652 
L 529.17 226.226993 
L 529.263 225.931247 
L 529.449 223.1956 
L 529.728 218.241859 
L 529.821 218.241859 
L 530.007 224.0089 
L 530.379 238.500442 
L 530.844 246.855258 
L 531.123 254.322838 
L 531.216 254.174963 
L 531.402 250.182398 
L 531.588 246.633448 
L 531.681 246.633448 
L 531.867 252.548363 
L 532.239 268.148949 
L 532.332 269.110123 
L 532.425 267.779266 
L 532.611 260.015943 
L 533.448 215.062594 
L 533.634 220.164206 
L 533.82 225.635503 
L 533.913 225.265821 
L 534.285 217.206748 
L 534.378 219.203034 
L 534.936 242.566946 
L 535.122 243.823864 
L 535.587 246.337704 
L 535.68 246.189829 
L 535.773 245.376529 
L 535.959 246.633448 
L 536.331 252.770173 
L 536.424 252.104745 
L 536.982 241.975453 
L 537.168 245.746211 
L 537.447 252.622299 
L 537.54 253.287727 
L 537.726 250.55208 
L 538.005 243.971736 
L 538.377 231.920098 
L 538.47 232.067972 
L 538.656 237.465331 
L 538.935 244.11961 
L 539.121 241.162153 
L 539.865 226.966357 
L 539.958 227.33604 
L 540.051 228.223276 
L 540.237 231.254672 
L 540.423 231.772226 
L 540.795 231.106798 
L 541.074 229.702005 
L 541.167 229.997751 
L 541.353 233.842445 
L 541.725 241.753643 
L 542.004 240.053106 
L 542.19 235.986602 
L 542.562 223.639218 
L 542.655 223.41741 
L 542.841 230.145625 
L 543.213 246.633448 
L 543.399 240.274914 
L 543.678 229.258387 
L 543.771 228.297214 
L 543.957 230.145625 
L 544.143 234.286065 
L 544.701 254.174963 
L 544.794 253.583473 
L 545.445 242.788754 
L 545.631 245.228657 
L 546.003 255.062202 
L 546.189 251.36538 
L 546.468 242.936626 
L 546.561 242.345135 
L 546.84 245.598339 
L 546.933 245.820147 
L 547.212 243.380246 
L 547.956 232.437654 
L 548.328 228.075404 
L 548.421 228.519022 
L 548.7 231.772226 
L 548.886 228.96264 
L 549.072 226.892421 
L 549.258 230.071687 
L 549.63 238.352567 
L 550.002 242.566946 
L 550.281 245.154719 
L 550.374 245.228657 
L 550.467 244.563229 
L 550.56 244.711101 
L 550.653 245.672275 
L 551.118 256.984549 
L 551.211 256.614867 
L 551.397 250.256334 
L 551.862 231.47648 
L 551.955 230.88499 
L 552.141 233.103081 
L 552.327 235.469048 
L 552.42 234.951492 
L 552.513 233.768509 
L 552.792 227.483914 
L 552.885 228.001468 
L 553.443 244.341418 
L 553.629 242.123325 
L 554.466 226.079121 
L 554.559 225.857311 
L 554.652 226.079121 
L 554.745 225.857311 
L 554.931 227.188168 
L 555.675 240.496724 
L 555.954 245.968021 
L 556.419 241.457899 
L 556.512 242.123325 
L 556.605 242.049389 
L 556.791 239.683424 
L 557.163 230.219561 
L 557.349 228.888704 
L 557.442 229.110515 
L 557.721 232.363716 
L 557.814 232.28978 
L 558.279 223.491346 
L 558.465 226.153057 
L 559.116 242.86269 
L 559.209 242.640882 
L 559.674 235.099366 
L 559.86 240.274914 
L 560.232 254.027092 
L 560.325 255.210074 
L 560.604 254.101027 
L 560.976 250.626016 
L 561.534 236.060538 
L 561.627 235.986602 
L 562.092 239.97917 
L 562.278 244.11961 
L 562.65 252.844109 
L 562.743 252.991981 
L 563.673 240.422789 
L 563.952 241.457899 
L 564.045 241.236089 
L 564.417 237.095649 
L 564.603 240.940343 
L 564.882 250.034523 
L 564.975 250.55208 
L 565.068 249.443033 
L 565.533 237.761077 
L 565.719 237.169585 
L 565.812 237.021713 
L 565.998 237.317459 
L 566.091 237.243521 
L 566.277 237.539267 
L 566.37 237.465331 
L 566.742 238.648313 
L 566.928 237.687141 
L 567.114 233.398827 
L 567.393 227.114232 
L 567.486 227.188168 
L 567.858 230.663179 
L 567.951 230.515308 
L 568.044 230.589243 
L 568.137 230.88499 
L 568.323 233.029145 
L 568.602 237.908949 
L 568.881 239.75736 
L 568.974 240.274914 
L 569.067 240.053106 
L 569.253 236.356284 
L 569.625 227.409976 
L 569.718 227.33604 
L 569.904 227.779658 
L 569.997 227.631786 
L 570.183 227.040293 
L 570.369 231.254672 
L 570.648 238.722249 
L 570.741 238.056823 
L 571.206 226.374867 
L 571.485 229.775943 
L 572.415 245.672275 
L 572.508 245.080783 
L 573.066 236.652031 
L 573.252 235.764792 
L 573.345 235.912666 
L 573.624 239.091932 
L 574.275 249.369097 
L 574.461 250.182398 
L 574.833 250.995698 
L 575.205 249.369097 
L 575.298 249.295159 
L 575.484 248.333987 
L 575.67 245.154719 
L 576.321 227.040293 
L 576.414 227.33604 
L 576.6 231.47648 
L 576.972 243.010564 
L 577.251 246.781322 
L 577.344 247.22494 
L 577.437 246.929194 
L 577.623 242.419071 
L 578.088 226.670611 
L 578.274 225.931247 
L 578.46 226.596675 
L 578.646 229.406261 
L 578.925 236.134474 
L 579.018 236.652031 
L 579.111 236.43022 
L 579.297 235.542984 
L 579.39 235.986602 
L 579.576 238.94406 
L 579.762 240.644596 
L 579.948 238.574378 
L 580.32 232.141908 
L 580.692 229.406261 
L 580.785 229.480197 
L 580.878 230.219561 
L 581.157 236.282348 
L 581.715 250.995698 
L 581.808 251.36538 
L 582.18 248.999415 
L 582.366 249.443033 
L 582.459 248.925477 
L 582.552 247.742494 
L 583.203 231.106798 
L 583.389 230.958926 
L 583.575 231.624352 
L 584.319 236.578095 
L 584.412 236.356284 
L 584.691 235.39511 
L 584.877 234.655748 
L 585.156 232.659462 
L 585.435 233.916383 
L 585.714 238.352567 
L 585.993 241.531835 
L 586.086 241.753643 
L 586.272 241.162153 
L 586.551 239.165868 
L 586.644 239.091932 
L 586.737 239.905232 
L 587.109 247.81643 
L 587.202 247.81643 
L 587.295 246.485576 
L 587.76 234.064255 
L 587.853 234.729684 
L 588.132 243.380246 
L 588.411 250.773888 
L 588.504 250.773888 
L 588.69 247.372812 
L 588.969 242.197264 
L 589.062 241.531835 
L 589.155 241.605771 
L 589.527 240.57066 
L 589.992 243.306308 
L 590.271 238.648313 
L 590.457 235.247238 
L 590.55 234.729684 
L 590.736 236.652031 
L 591.015 240.792471 
L 591.108 240.57066 
L 591.666 237.021713 
L 591.759 236.873838 
L 592.038 233.029145 
L 592.317 229.036579 
L 592.503 231.47648 
L 592.968 240.792471 
L 593.061 241.310025 
L 593.433 245.450465 
L 593.619 244.711101 
L 593.898 237.982885 
L 594.27 228.37115 
L 594.363 228.37115 
L 594.921 237.317459 
L 595.479 244.932911 
L 595.572 245.450465 
L 595.758 244.11961 
L 595.944 240.57066 
L 596.409 225.857311 
L 596.502 225.117946 
L 596.595 225.487629 
L 596.967 230.293497 
L 597.339 238.426506 
L 597.711 247.446748 
L 597.804 247.81643 
L 598.083 245.080783 
L 598.176 244.711101 
L 598.548 247.22494 
L 598.641 246.855258 
L 599.106 241.236089 
L 599.292 241.531835 
L 599.478 240.422789 
L 600.129 229.554133 
L 600.222 229.554133 
L 600.315 229.332323 
L 600.501 228.37115 
L 600.594 228.223276 
L 600.687 228.297214 
L 600.873 230.663179 
L 601.152 235.02543 
L 601.245 235.321174 
L 601.338 235.02543 
L 601.524 236.356284 
L 602.082 248.333987 
L 602.175 247.594622 
L 602.454 243.602054 
L 602.547 244.193546 
L 602.733 248.555795 
L 602.919 252.844109 
L 603.012 252.770173 
L 603.198 247.964304 
L 603.477 241.383961 
L 603.663 242.714818 
L 603.849 244.341418 
L 603.942 244.267482 
L 604.593 241.901517 
L 605.244 233.990319 
L 605.43 233.250955 
L 605.523 233.324891 
L 605.709 233.842445 
L 605.895 233.546701 
L 606.081 231.402544 
L 606.174 231.328608 
L 606.36 234.433937 
L 606.825 250.108462 
L 606.918 249.960587 
L 607.104 246.41164 
L 607.569 234.433937 
L 607.941 230.88499 
L 608.127 229.923815 
L 608.313 232.215844 
L 608.685 241.236089 
L 608.778 241.457899 
L 608.871 241.162153 
L 609.15 237.687141 
L 609.336 236.725967 
L 609.522 234.360001 
L 610.08 222.456235 
L 610.266 225.339757 
L 610.638 232.437654 
L 610.917 234.286065 
L 611.382 241.162153 
L 611.475 241.162153 
L 611.847 239.75736 
L 612.405 235.61692 
L 612.591 237.021713 
L 612.963 240.57066 
L 613.149 241.753643 
L 613.335 241.753643 
L 613.707 238.500442 
L 613.893 237.021713 
L 614.079 238.722249 
L 614.358 242.2712 
L 614.544 241.531835 
L 614.916 236.725967 
L 615.102 236.208412 
L 615.288 237.021713 
L 615.381 237.317459 
L 615.474 237.169585 
L 615.567 236.578095 
L 615.66 236.799903 
L 615.753 236.725967 
L 616.497 243.158436 
L 616.962 238.796185 
L 617.241 235.986602 
L 617.427 235.61692 
L 617.52 235.986602 
L 617.799 239.387678 
L 618.357 247.81643 
L 618.636 249.516969 
L 618.729 249.369097 
L 619.008 247.372812 
L 619.566 238.278631 
L 619.659 238.278631 
L 619.752 238.130759 
L 620.031 241.014279 
L 620.403 245.746211 
L 620.496 246.189829 
L 620.682 245.820147 
L 621.24 236.873838 
L 621.519 233.916383 
L 621.705 234.212127 
L 622.077 237.095649 
L 622.356 239.017996 
L 622.635 241.753643 
L 622.728 241.531835 
L 622.821 241.014279 
L 623.472 232.733398 
L 623.658 230.737115 
L 624.123 225.931247 
L 624.216 225.931247 
L 624.309 225.709439 
L 624.495 224.748264 
L 624.681 225.117946 
L 625.146 229.997751 
L 625.518 231.846162 
L 626.355 242.123325 
L 626.541 241.236089 
L 626.82 239.165868 
L 626.913 239.091932 
L 627.285 240.127042 
L 627.564 238.574378 
L 627.843 237.465331 
L 628.029 238.056823 
L 628.866 246.41164 
L 628.959 246.485576 
L 629.703 240.496724 
L 629.982 238.796185 
L 630.168 239.831296 
L 630.54 245.080783 
L 630.726 244.932911 
L 631.098 240.718535 
L 631.191 240.940343 
L 631.284 240.718535 
L 631.377 240.940343 
L 631.563 241.605771 
L 632.028 239.831296 
L 632.121 239.683424 
L 632.214 239.831296 
L 632.4 238.870124 
L 633.051 229.036579 
L 633.609 234.286065 
L 633.702 234.433937 
L 633.888 235.173302 
L 634.167 237.613203 
L 634.26 237.835013 
L 634.446 237.687141 
L 634.911 240.866407 
L 635.097 241.531835 
L 635.376 242.2712 
L 635.469 242.197264 
L 635.841 243.380246 
L 635.934 243.232372 
L 636.492 237.613203 
L 636.864 232.881273 
L 636.957 232.881273 
L 637.515 238.278631 
L 637.887 236.578095 
L 637.98 236.799903 
L 638.352 239.609488 
L 638.445 239.53555 
L 638.817 238.056823 
L 639.189 241.236089 
L 640.026 246.929194 
L 640.212 245.376529 
L 640.956 235.764792 
L 641.142 237.761077 
L 641.514 243.232372 
L 641.7 242.493007 
L 641.886 240.792471 
L 642.258 238.722249 
L 642.816 233.842445 
L 642.909 234.064255 
L 643.095 233.029145 
L 643.56 226.892421 
L 643.746 226.448803 
L 644.397 232.141908 
L 644.583 233.842445 
L 644.862 239.091932 
L 645.141 243.0845 
L 645.234 243.232372 
L 646.257 235.173302 
L 646.35 235.542984 
L 646.629 234.877556 
L 646.815 234.212127 
L 646.908 234.064255 
L 647.466 238.722249 
L 647.559 238.500442 
L 647.838 237.761077 
L 647.931 237.982885 
L 648.396 241.457899 
L 648.489 241.310025 
L 648.768 239.387678 
L 648.954 240.274914 
L 649.047 240.792471 
L 649.326 244.045672 
L 649.512 245.154719 
L 649.605 244.932911 
L 649.791 243.306308 
L 650.07 240.940343 
L 650.163 241.162153 
L 650.256 241.014279 
L 650.442 241.457899 
L 650.814 242.123325 
L 651.465 244.267482 
L 651.744 243.380246 
L 651.93 243.306308 
L 652.023 243.232372 
L 652.116 243.454182 
L 652.767 240.644596 
L 653.511 235.02543 
L 653.697 235.247238 
L 653.883 236.504156 
L 654.069 236.873838 
L 654.162 236.799903 
L 654.255 237.095649 
L 654.348 236.873838 
L 654.534 237.021713 
L 654.627 237.391395 
L 654.72 236.947777 
L 654.813 237.317459 
L 655.371 235.542984 
L 655.743 238.130759 
L 656.208 241.088217 
L 656.487 241.457899 
L 656.859 239.75736 
L 657.045 240.053106 
L 657.417 238.648313 
L 657.696 236.282348 
L 657.789 235.764792 
L 657.882 236.060538 
L 658.161 239.017996 
L 658.533 243.306308 
L 658.626 243.67599 
L 658.812 242.345135 
L 658.998 239.831296 
L 659.463 234.212127 
L 659.835 231.254672 
L 660.021 229.110515 
L 660.114 229.332323 
L 660.207 229.258387 
L 660.486 232.585526 
L 660.765 235.83873 
L 660.951 236.208412 
L 661.044 236.134474 
L 661.23 235.690856 
L 661.788 233.398827 
L 662.16 235.247238 
L 662.439 237.095649 
L 662.625 237.317459 
L 663.09 234.433937 
L 663.276 232.585526 
L 663.369 232.437654 
L 663.462 231.994034 
L 663.555 232.363716 
L 663.648 232.28978 
L 663.834 231.994034 
L 664.02 232.363716 
L 664.206 233.546701 
L 664.485 235.83873 
L 664.764 239.387678 
L 665.043 243.0845 
L 665.229 243.602054 
L 665.322 243.306308 
L 665.601 244.341418 
L 666.066 248.407923 
L 666.159 248.333987 
L 666.438 247.077066 
L 666.624 245.450465 
L 666.903 241.975453 
L 666.996 241.531835 
L 667.182 242.493007 
L 667.554 247.520686 
L 667.74 248.629733 
L 667.926 248.186112 
L 668.205 244.267482 
L 668.577 238.648313 
L 668.763 237.317459 
L 669.042 237.465331 
L 669.135 237.982885 
L 669.786 234.729684 
L 669.972 235.099366 
L 670.437 233.620637 
L 670.995 236.652031 
L 671.088 236.578095 
L 671.646 234.064255 
L 671.739 234.286065 
L 672.204 231.550416 
L 672.483 229.628069 
L 672.576 229.702005 
L 673.041 231.846162 
L 673.785 236.947777 
L 673.878 237.021713 
L 674.157 236.282348 
L 674.436 239.75736 
L 674.901 246.559512 
L 674.994 246.929194 
L 675.18 247.964304 
L 675.645 246.707384 
L 676.11 247.742494 
L 676.482 245.968021 
L 676.575 246.115893 
L 676.761 246.337704 
L 676.854 246.485576 
L 677.04 245.376529 
L 677.784 234.729684 
L 677.877 234.286065 
L 678.063 234.729684 
L 678.714 241.457899 
L 678.9 240.57066 
L 679.272 238.056823 
L 679.365 238.574378 
L 679.458 238.426506 
L 679.923 240.57066 
L 680.202 242.714818 
L 680.388 242.2712 
L 680.667 240.200978 
L 680.76 240.348853 
L 680.946 241.531835 
L 681.132 242.493007 
L 681.225 242.2712 
L 681.318 241.753643 
L 681.69 237.095649 
L 681.783 236.873838 
L 682.155 238.056823 
L 682.434 236.578095 
L 682.62 236.578095 
L 682.992 238.94406 
L 683.364 237.021713 
L 683.55 235.690856 
L 684.108 233.324891 
L 684.201 233.620637 
L 684.387 235.690856 
L 684.852 242.2712 
L 685.038 243.0845 
L 685.224 241.975453 
L 685.968 236.43022 
L 686.34 234.655748 
L 687.27 227.33604 
L 687.363 227.114232 
L 687.549 228.37115 
L 687.921 233.398827 
L 688.293 233.177019 
L 688.479 234.286065 
L 688.944 237.021713 
L 689.037 237.021713 
L 689.595 240.940343 
L 689.688 240.866407 
L 689.781 241.088217 
L 690.153 239.239806 
L 690.339 238.648313 
L 690.432 239.017996 
L 690.525 238.796185 
L 690.618 238.870124 
L 691.083 237.835013 
L 691.176 237.982885 
L 691.548 239.461614 
L 691.641 239.609488 
L 692.013 238.352567 
L 692.478 235.39511 
L 692.571 235.247238 
L 692.943 235.764792 
L 693.036 235.247238 
L 693.129 235.321174 
L 693.315 234.951492 
L 693.408 235.099366 
L 693.501 234.877556 
L 693.687 235.099366 
L 693.78 235.321174 
L 693.966 234.877556 
L 694.338 232.807337 
L 694.431 232.807337 
L 694.524 232.659462 
L 694.803 233.103081 
L 695.268 236.356284 
L 695.919 242.86269 
L 696.012 242.640882 
L 696.198 242.86269 
L 696.477 245.672275 
L 696.663 246.189829 
L 697.128 245.154719 
L 697.314 245.154719 
L 698.058 240.57066 
L 698.523 235.61692 
L 698.616 235.83873 
L 699.081 239.017996 
L 699.174 238.722249 
L 699.639 236.282348 
L 699.732 236.504156 
L 699.918 236.43022 
L 700.011 236.652031 
L 700.29 238.426506 
L 700.755 244.932911 
L 701.034 246.485576 
L 701.127 246.337704 
L 701.22 246.559512 
L 701.499 245.450465 
L 701.592 245.450465 
L 701.964 241.901517 
L 702.429 235.83873 
L 702.522 235.764792 
L 703.173 239.239806 
L 703.452 240.866407 
L 703.545 241.088217 
L 703.638 240.718535 
L 703.731 240.792471 
L 704.103 241.383961 
L 704.196 241.310025 
L 704.382 241.679707 
L 704.475 241.605771 
L 704.661 241.753643 
L 704.754 241.605771 
L 704.94 241.162153 
L 705.033 241.162153 
L 705.312 239.905232 
L 705.591 240.127042 
L 705.777 240.866407 
L 705.963 241.014279 
L 706.056 240.866407 
L 706.335 239.609488 
L 706.521 240.053106 
L 706.707 238.94406 
L 707.079 236.282348 
L 707.265 236.134474 
L 707.451 235.469048 
L 707.544 235.39511 
L 707.823 234.951492 
L 707.916 235.247238 
L 708.009 235.173302 
L 708.102 234.80362 
L 708.567 236.578095 
L 708.66 236.652031 
L 708.939 234.951492 
L 709.125 235.690856 
L 709.218 235.542984 
L 709.311 235.83873 
L 709.497 235.02543 
L 709.683 234.360001 
L 709.962 237.021713 
L 710.241 241.162153 
L 710.52 242.493007 
L 710.706 242.049389 
L 710.799 241.901517 
L 710.985 240.274914 
L 711.45 231.994034 
L 711.543 231.624352 
L 711.822 232.733398 
L 712.008 234.064255 
L 712.101 233.916383 
L 712.38 234.729684 
L 712.473 234.80362 
L 712.938 237.835013 
L 713.217 239.165868 
L 714.426 245.302593 
L 714.519 245.746211 
L 714.612 244.932911 
L 714.705 245.006847 
L 714.798 244.785037 
L 714.984 243.232372 
L 715.263 239.53555 
L 715.635 234.581809 
L 715.821 233.916383 
L 716.007 234.507873 
L 716.751 228.888704 
L 716.844 229.036579 
L 717.03 230.145625 
L 717.96 237.539267 
L 718.146 237.243521 
L 718.425 235.690856 
L 718.518 235.61692 
L 718.611 235.83873 
L 719.076 237.908949 
L 719.169 238.204695 
L 719.262 238.056823 
L 719.355 238.426506 
L 719.727 237.021713 
L 720.006 234.655748 
L 720.192 233.768509 
L 720.285 233.842445 
L 720.657 234.581809 
L 721.494 238.648313 
L 721.587 238.796185 
L 721.68 238.722249 
L 722.145 240.422789 
L 722.238 240.57066 
L 722.331 240.422789 
L 722.517 239.53555 
L 722.61 239.683424 
L 722.889 238.796185 
L 723.168 239.683424 
L 723.354 240.053106 
L 723.447 239.831296 
L 723.819 237.761077 
L 723.912 237.761077 
L 724.377 241.975453 
L 724.47 242.345135 
L 724.563 241.975453 
L 724.842 242.640882 
L 724.935 242.714818 
L 725.028 243.010564 
L 725.121 243.749928 
L 725.214 243.67599 
L 725.307 243.8978 
L 725.4 243.749928 
L 725.865 246.855258 
L 725.958 247.077066 
L 726.051 246.559512 
L 726.144 246.633448 
L 726.237 246.485576 
L 726.702 243.010564 
L 726.888 241.457899 
L 727.353 240.127042 
L 727.539 240.940343 
L 727.911 246.115893 
L 728.097 247.668558 
L 728.376 246.929194 
L 728.469 247.151004 
L 728.841 243.8978 
L 729.585 231.69829 
L 729.864 229.110515 
L 730.05 228.445086 
L 730.143 228.075404 
L 730.329 228.592958 
L 730.515 229.849879 
L 730.794 232.881273 
L 731.073 233.694573 
L 731.166 233.620637 
L 731.538 235.099366 
L 731.631 235.321174 
L 731.817 234.951492 
L 731.91 235.173302 
L 732.003 235.099366 
L 732.189 236.43022 
L 732.375 236.873838 
L 732.654 237.908949 
L 732.747 237.982885 
L 733.119 239.313742 
L 733.212 239.313742 
L 733.305 239.461614 
L 733.956 235.912666 
L 734.142 236.134474 
L 734.235 235.912666 
L 734.421 237.021713 
L 734.979 242.419071 
L 735.165 241.014279 
L 735.816 236.43022 
L 735.909 236.282348 
L 736.188 235.39511 
L 736.467 236.356284 
L 736.932 239.091932 
L 737.025 239.091932 
L 737.211 239.387678 
L 737.676 236.652031 
L 737.955 234.507873 
L 738.141 234.064255 
L 738.513 235.542984 
L 738.885 238.056823 
L 739.257 238.574378 
L 739.443 239.165868 
L 739.629 239.75736 
L 739.908 240.866407 
L 740.373 242.936626 
L 740.559 242.86269 
L 740.652 242.493007 
L 740.745 243.232372 
L 741.117 242.2712 
L 741.21 242.345135 
L 741.396 241.088217 
L 741.582 241.383961 
L 741.768 241.236089 
L 741.954 241.605771 
L 742.047 241.679707 
L 742.14 241.901517 
L 742.326 242.86269 
L 742.419 242.936626 
L 742.512 243.602054 
L 742.605 243.528118 
L 742.698 243.528118 
L 742.791 242.936626 
L 742.884 243.306308 
L 743.349 241.457899 
L 743.628 237.391395 
L 743.721 237.021713 
L 743.907 235.247238 
L 744 235.321174 
L 744.186 235.912666 
L 744.744 238.94406 
L 744.837 238.870124 
L 744.93 238.574378 
L 745.023 238.648313 
L 745.116 238.648313 
L 745.395 237.391395 
L 745.581 236.134474 
L 745.674 235.986602 
L 745.767 236.060538 
L 745.953 236.947777 
L 746.046 237.169585 
L 746.325 236.356284 
L 746.418 235.61692 
L 746.511 235.690856 
L 746.604 235.542984 
L 747.069 233.546701 
L 747.72 235.321174 
L 747.813 235.469048 
L 747.906 235.099366 
L 747.999 235.321174 
L 748.278 233.398827 
L 748.371 233.546701 
L 748.557 233.472763 
L 748.929 235.986602 
L 749.301 240.200978 
L 749.58 241.531835 
L 749.673 241.457899 
L 749.766 241.531835 
L 749.952 241.975453 
L 750.138 241.531835 
L 750.324 241.014279 
L 750.51 239.683424 
L 750.603 239.387678 
L 750.882 240.274914 
L 751.068 241.679707 
L 751.347 243.306308 
L 751.626 242.788754 
L 751.719 242.714818 
L 751.812 242.493007 
L 752.277 238.722249 
L 752.649 233.990319 
L 752.835 233.472763 
L 753.207 232.215844 
L 753.3 232.067972 
L 753.393 232.215844 
L 753.765 235.247238 
L 754.23 237.317459 
L 754.602 241.236089 
L 754.974 242.936626 
L 755.16 243.380246 
L 755.253 243.0845 
L 755.346 243.306308 
L 755.718 241.679707 
L 755.811 241.679707 
L 756.276 242.566946 
L 756.369 241.975453 
L 756.462 242.123325 
L 756.741 240.348853 
L 757.02 239.165868 
L 757.113 239.313742 
L 757.206 239.017996 
L 757.299 239.091932 
L 757.392 238.870124 
L 757.485 238.94406 
L 757.95 238.352567 
L 758.043 238.352567 
L 758.136 239.091932 
L 758.229 239.017996 
L 758.973 241.679707 
L 759.066 241.605771 
L 759.345 241.014279 
L 759.531 241.162153 
L 759.624 241.457899 
L 759.717 241.088217 
L 759.81 241.236089 
L 759.903 241.014279 
L 760.089 241.383961 
L 760.182 241.531835 
L 760.275 241.901517 
L 761.019 237.539267 
L 761.112 237.391395 
L 761.205 237.465331 
L 761.484 235.986602 
L 762.042 232.363716 
L 762.135 232.585526 
L 762.228 232.51159 
L 762.507 233.546701 
L 762.786 234.064255 
L 762.879 233.398827 
L 763.809 236.43022 
L 763.902 235.986602 
L 764.088 236.208412 
L 764.181 235.986602 
L 764.274 236.134474 
L 764.46 235.247238 
L 764.832 234.286065 
L 764.925 234.507873 
L 765.018 234.286065 
L 765.297 235.321174 
L 765.483 235.986602 
L 765.669 236.799903 
L 765.948 237.391395 
L 766.041 237.317459 
L 766.227 237.761077 
L 766.32 237.982885 
L 766.878 236.578095 
L 766.971 236.725967 
L 767.529 240.422789 
L 767.808 240.792471 
L 768.366 238.204695 
L 768.831 235.173302 
L 768.924 235.247238 
L 769.017 235.173302 
L 769.11 235.321174 
L 769.854 238.278631 
L 769.947 238.056823 
L 770.04 238.204695 
L 770.226 239.091932 
L 770.319 238.94406 
L 770.505 239.091932 
L 770.598 239.831296 
L 770.691 239.75736 
L 770.877 239.97917 
L 771.063 239.75736 
L 771.435 240.644596 
L 771.528 240.57066 
L 771.807 241.310025 
L 772.365 242.419071 
L 772.458 242.493007 
L 772.644 241.975453 
L 772.737 241.901517 
L 772.923 241.088217 
L 773.016 241.236089 
L 773.109 241.014279 
L 773.574 238.278631 
L 773.667 238.130759 
L 773.853 238.500442 
L 773.946 238.574378 
L 774.225 239.313742 
L 774.411 239.313742 
L 774.597 239.017996 
L 774.783 238.204695 
L 774.876 238.204695 
L 775.062 237.613203 
L 775.341 237.317459 
L 775.527 236.652031 
L 775.713 236.208412 
L 775.899 235.764792 
L 776.085 235.986602 
L 776.364 237.835013 
L 776.55 238.056823 
L 776.643 238.278631 
L 776.922 239.53555 
L 777.201 239.97917 
L 777.294 239.53555 
L 777.387 239.97917 
L 777.573 239.313742 
L 777.666 239.387678 
L 777.759 239.239806 
L 777.945 239.313742 
L 778.317 241.383961 
L 778.41 241.236089 
L 778.503 241.605771 
L 779.526 237.982885 
L 779.898 237.243521 
L 779.991 237.391395 
L 780.084 237.095649 
L 780.177 237.169585 
L 780.363 236.799903 
L 780.456 236.873838 
L 780.549 236.652031 
L 780.735 237.021713 
L 780.828 236.947777 
L 780.921 236.725967 
L 781.107 236.947777 
L 781.293 237.169585 
L 781.386 237.243521 
L 781.665 238.426506 
L 782.037 239.609488 
L 782.13 239.387678 
L 782.316 238.648313 
L 782.409 238.500442 
L 782.502 238.574378 
L 782.781 237.687141 
L 783.06 236.578095 
L 783.246 235.986602 
L 783.711 237.317459 
L 783.804 237.095649 
L 783.897 236.873838 
L 784.362 238.130759 
L 784.455 238.056823 
L 784.734 237.169585 
L 784.827 237.317459 
L 785.292 240.274914 
L 786.036 246.115893 
L 786.222 246.559512 
L 786.594 245.746211 
L 786.78 245.524401 
L 786.966 244.415354 
L 787.617 238.500442 
L 787.803 238.722249 
L 787.896 238.722249 
L 788.268 237.761077 
L 788.64 238.870124 
L 788.826 238.352567 
L 789.105 237.317459 
L 789.198 237.539267 
L 789.384 237.391395 
L 789.477 237.465331 
L 789.942 235.690856 
L 790.035 235.690856 
L 790.221 235.39511 
L 790.314 235.690856 
L 790.5 235.39511 
L 790.593 235.39511 
L 790.686 234.951492 
L 790.779 235.099366 
L 790.872 234.80362 
L 790.965 234.877556 
L 791.058 234.80362 
L 791.244 234.360001 
L 791.43 234.581809 
L 791.523 234.507873 
L 791.616 234.951492 
L 791.709 234.655748 
L 792.639 239.53555 
L 792.732 239.53555 
L 792.825 239.75736 
L 792.918 239.53555 
L 793.011 239.609488 
L 793.197 239.239806 
L 793.29 239.091932 
L 793.941 236.652031 
L 794.034 236.652031 
L 794.406 237.835013 
L 794.499 237.761077 
L 794.592 238.722249 
L 794.685 238.648313 
L 794.871 238.426506 
L 794.964 239.165868 
L 795.15 238.94406 
L 795.243 239.017996 
L 795.336 238.648313 
L 795.429 239.461614 
L 795.522 239.313742 
L 795.615 239.313742 
L 795.708 238.648313 
L 795.801 238.722249 
L 795.894 238.574378 
L 796.08 238.204695 
L 796.266 239.387678 
L 796.359 238.574378 
L 796.452 239.017996 
L 797.103 237.539267 
L 797.289 236.799903 
L 797.382 237.687141 
L 797.568 236.799903 
L 797.754 238.278631 
L 797.94 236.578095 
L 798.126 237.391395 
L 798.219 237.317459 
L 798.405 236.208412 
L 798.777 237.613203 
L 798.87 237.539267 
L 798.963 237.761077 
L 799.149 239.017996 
L 799.335 238.426506 
L 799.707 240.940343 
L 799.986 242.493007 
L 800.172 241.901517 
L 800.265 241.975453 
L 800.358 242.2712 
L 800.451 243.0845 
L 800.637 241.162153 
L 800.916 241.383961 
L 801.009 240.422789 
L 801.195 240.940343 
L 801.288 240.57066 
L 801.474 238.574378 
L 801.567 238.796185 
L 801.66 238.648313 
L 801.753 238.796185 
L 801.939 237.982885 
L 802.032 238.352567 
L 802.125 238.130759 
L 802.404 236.060538 
L 802.497 235.469048 
L 802.683 236.134474 
L 802.869 234.729684 
L 802.962 234.581809 
L 803.055 235.321174 
L 803.148 233.842445 
L 803.427 235.321174 
L 803.52 235.61692 
L 803.613 235.469048 
L 803.706 236.947777 
L 803.799 235.469048 
L 803.892 235.83873 
L 803.985 235.542984 
L 804.171 236.725967 
L 804.264 235.83873 
L 804.357 236.947777 
L 804.45 236.282348 
L 804.543 236.356284 
L 804.636 235.764792 
L 804.915 237.021713 
L 805.008 236.947777 
L 805.101 237.021713 
L 805.566 239.091932 
L 805.659 239.387678 
L 806.031 241.605771 
L 806.217 241.679707 
L 806.31 241.827581 
L 806.496 242.714818 
L 806.682 242.123325 
L 806.775 242.049389 
L 807.147 240.718535 
L 807.24 240.792471 
L 807.519 239.387678 
L 807.612 239.461614 
L 807.984 237.095649 
L 808.077 237.391395 
L 808.17 236.873838 
L 808.263 236.947777 
L 808.356 237.169585 
L 808.449 236.873838 
L 808.728 239.017996 
L 808.821 238.722249 
L 808.914 238.204695 
L 809.007 238.796185 
L 809.1 238.500442 
L 809.193 238.796185 
L 809.565 238.056823 
L 809.751 237.908949 
L 810.03 236.947777 
L 810.216 237.021713 
L 810.309 236.578095 
L 810.402 236.725967 
L 810.96 234.360001 
L 811.053 234.655748 
L 811.146 234.433937 
L 811.611 235.173302 
L 811.704 236.060538 
L 811.797 235.912666 
L 811.983 235.469048 
L 812.076 235.690856 
L 812.169 235.39511 
L 812.541 236.208412 
L 812.727 236.134474 
L 812.913 236.578095 
L 813.471 241.162153 
L 813.657 242.788754 
L 813.75 242.197264 
L 813.936 243.528118 
L 814.215 243.158436 
L 814.308 243.454182 
L 814.68 242.345135 
L 815.145 239.75736 
L 815.331 239.239806 
L 815.424 238.426506 
L 815.517 238.500442 
L 815.61 238.426506 
L 816.168 240.644596 
L 816.261 240.496724 
L 816.354 240.866407 
L 816.819 239.97917 
L 817.098 238.500442 
L 817.377 237.687141 
L 817.563 237.761077 
L 817.656 237.761077 
L 818.028 238.500442 
L 818.121 238.278631 
L 818.214 238.500442 
L 818.307 238.352567 
L 818.4 238.500442 
L 818.586 237.982885 
L 818.679 238.204695 
L 818.772 237.835013 
L 818.865 238.204695 
L 819.144 237.095649 
L 819.237 237.169585 
L 820.074 234.286065 
L 820.26 233.916383 
L 820.818 235.247238 
L 820.911 235.02543 
L 821.655 236.578095 
L 821.748 236.652031 
L 822.027 237.391395 
L 822.12 237.613203 
L 822.585 239.905232 
L 822.864 240.866407 
L 822.957 241.236089 
L 823.05 241.014279 
L 823.143 241.088217 
L 823.236 240.940343 
L 823.515 241.457899 
L 823.701 241.383961 
L 823.98 241.827581 
L 824.073 241.901517 
L 824.166 242.345135 
L 824.259 242.2712 
L 824.352 242.493007 
L 824.445 242.345135 
L 824.631 242.86269 
L 824.817 242.566946 
L 824.91 242.493007 
L 825.003 242.566946 
L 825.282 242.049389 
L 825.84 240.053106 
L 825.933 240.127042 
L 826.026 240.200978 
L 826.398 241.901517 
L 826.77 242.936626 
L 826.863 242.714818 
L 826.956 242.788754 
L 827.049 242.640882 
L 827.142 242.936626 
L 827.514 241.901517 
L 827.607 241.901517 
L 827.793 240.127042 
L 828.444 236.947777 
L 828.909 233.250955 
L 829.374 231.47648 
L 829.56 231.550416 
L 829.653 231.328608 
L 829.839 231.402544 
L 829.932 231.402544 
L 830.025 231.550416 
L 830.676 234.877556 
L 830.769 234.951492 
L 831.327 236.356284 
L 831.42 236.578095 
L 831.513 236.504156 
L 831.699 236.725967 
L 831.792 236.799903 
L 831.885 236.725967 
L 832.443 238.204695 
L 832.722 238.648313 
L 832.815 238.574378 
L 833.187 240.274914 
L 833.373 240.792471 
L 833.466 240.866407 
L 833.745 239.97917 
L 833.838 239.53555 
L 833.931 239.683424 
L 834.489 236.356284 
L 834.582 236.43022 
L 834.675 236.356284 
L 835.233 239.831296 
L 835.326 239.831296 
L 835.512 240.200978 
L 835.605 240.200978 
L 835.698 239.905232 
L 836.07 240.57066 
L 836.442 240.496724 
L 836.628 240.348853 
L 837.093 242.123325 
L 837.093 242.123325 
" clip-path="url(#p8dc44d15e1)" style="fill: none; stroke: #1f77b4; stroke-width: 1.5; stroke-linecap: square"/>
   </g>
  </g>
 </g>
 <defs>
  <clipPath id="p8dc44d15e1">
   <rect x="0" y="-0" width="837" height="498.96"/>
  </clipPath>
 </defs>
</svg>
