<?xml version="1.0" standalone="no"?>
<!DOCTYPE svg PUBLIC "-//W3C//DTD SVG 20010904//EN"
 "http://www.w3.org/TR/2001/REC-SVG-20010904/DTD/svg10.dtd">
<svg version="1.0" xmlns="http://www.w3.org/2000/svg"
 width="290.000000pt" height="174.000000pt" viewBox="0 0 290.000000 174.000000"
 preserveAspectRatio="xMidYMid meet">
<metadata>
Created by potrace 1.10, written by Peter Selinger 2001-2011
</metadata>
<g transform="translate(0.000000,174.000000) scale(0.100000,-0.100000)"
fill="#000000" stroke="none">
<path d="M1312 1620 c0 -14 2 -19 5 -12 2 6 2 18 0 25 -3 6 -5 1 -5 -13z"/>
<path d="M1399 1623 c-13 -16 -12 -17 4 -4 16 13 21 21 13 21 -2 0 -10 -8 -17
-17z"/>
<path d="M1008 1623 c6 -2 18 -2 25 0 6 3 1 5 -13 5 -14 0 -19 -2 -12 -5z"/>
<path d="M1357 1523 c-2 -48 -5 -174 -6 -279 -1 -105 -4 -203 -7 -218 -3 -18
-1 -25 6 -21 5 3 10 1 10 -4 0 -6 -4 -11 -10 -11 -5 0 -10 -5 -10 -11 0 -5 5
-7 10 -4 9 5 17 -225 10 -302 -1 -13 4 -23 11 -23 9 0 9 -3 -1 -14 -6 -8 -10
-28 -9 -43 2 -15 0 -34 -4 -41 -5 -6 -4 -12 2 -12 6 0 8 -24 5 -64 -3 -39 -1
-67 6 -71 6 -4 10 9 10 34 0 39 2 41 30 41 29 0 30 -1 30 -47 l0 -48 -47 3
-48 4 1 271 c0 215 -1 241 -6 122 l-6 -150 -2 183 c-1 127 -5 181 -13 177 -7
-5 -8 -79 -3 -243 4 -138 3 -233 -2 -231 -5 3 -21 11 -36 19 -29 14 -40 47
-13 36 40 -16 48 -16 23 0 -24 16 -27 24 -30 96 -2 43 0 78 5 78 4 0 6 35 5
78 l-1 77 -7 -60 c-5 -46 -7 -52 -10 -25 -1 19 -2 41 -1 49 2 8 -2 10 -10 5
-8 -5 -9 -3 -3 7 5 8 7 56 5 107 -2 87 -1 94 18 99 11 3 19 9 16 13 -2 4 7 12
20 18 22 10 25 9 25 -8 0 -11 4 -20 8 -20 5 0 8 16 8 35 -1 19 -4 35 -8 35 -5
0 -8 -4 -8 -9 0 -5 -9 -13 -21 -16 -12 -4 -39 -23 -60 -42 l-39 -35 0 29 c0
27 7 33 69 64 39 19 70 38 70 42 2 14 -33 2 -86 -30 -51 -32 -52 -32 -56 -10
-3 17 -5 15 -6 -7 0 -17 -12 -42 -27 -57 -23 -24 -27 -37 -31 -115 -6 -133
-22 -139 -22 -9 0 61 -3 131 -6 156 -6 45 -4 48 34 78 21 17 41 31 44 31 4 0
23 11 43 25 20 14 55 30 77 36 24 6 36 14 30 20 -12 12 -82 -15 -153 -59 -87
-55 -86 -51 -94 -202 -4 -74 -9 -156 -12 -182 -2 -26 1 -58 6 -70 6 -17 9 -2
9 56 1 116 10 88 16 -50 4 -86 10 -128 22 -151 10 -18 21 -33 25 -33 5 0 8
-32 8 -72 l0 -72 -39 38 -40 39 5 81 c3 45 7 93 9 109 3 15 0 27 -5 27 -5 0
-10 -26 -12 -57 -2 -39 -6 -15 -11 72 -4 72 -11 164 -16 205 -8 63 -9 50 -6
-75 2 -82 6 -163 9 -180 2 -16 7 -91 10 -166 5 -113 4 -136 -8 -136 -8 0 -12
6 -9 14 3 8 -2 13 -12 13 -15 0 -15 2 -4 16 16 19 21 44 8 44 -5 0 -9 -6 -9
-13 0 -8 -7 -14 -15 -14 -9 0 -11 4 -6 11 11 15 10 46 -2 46 -5 0 -7 -7 -4
-15 4 -8 2 -17 -3 -20 -6 -4 -10 -1 -10 5 0 6 -5 8 -12 4 -9 -5 -9 -2 1 9 13
17 12 18 -21 21 -6 1 -12 -9 -13 -22 -1 -12 4 -22 12 -22 7 0 13 -7 13 -16 0
-8 5 -12 10 -9 6 3 10 2 10 -4 0 -6 18 -27 40 -47 22 -20 37 -41 33 -47 -3 -6
-1 -7 4 -4 6 4 41 -11 77 -33 36 -22 92 -47 124 -56 l59 -16 -1 -69 c-1 -38 2
-69 7 -69 4 0 7 35 8 78 0 42 3 71 6 65 3 -8 24 -13 53 -13 l48 0 -3 -35 c-2
-19 1 -35 7 -35 5 0 9 21 8 48 -1 26 -1 65 -1 87 l1 41 38 -4 c21 -2 65 5 100
17 35 12 68 18 74 15 7 -4 8 -3 4 4 -4 6 12 22 38 37 42 24 117 99 143 141 10
16 12 12 12 -31 1 -74 18 -42 23 43 2 39 1 72 -2 72 -3 0 -6 10 -5 23 1 69
-18 387 -24 387 -3 0 -6 -30 -6 -67 0 -38 -2 -97 -6 -133 l-6 -65 -1 88 c-1
56 -6 87 -13 87 -11 0 -9 -45 9 -260 l7 -85 11 95 11 95 2 -101 c1 -88 -2
-103 -18 -118 -21 -19 -35 -8 -24 20 6 16 5 17 -9 4 -14 -13 -14 -17 -1 -32
17 -19 9 -41 -27 -73 l-22 -19 4 96 c2 53 0 91 -4 85 -4 -7 -8 13 -9 43 -4
136 -15 284 -21 270 -4 -8 -10 -68 -13 -133 -4 -65 -8 -117 -10 -115 -2 2 -5
49 -7 106 -3 56 -9 107 -14 112 -7 7 -10 -3 -9 -27 1 -21 -2 -83 -5 -138 -5
-72 -7 -84 -8 -42 -1 36 -6 56 -12 52 -6 -4 -7 2 -2 17 4 13 5 46 2 73 l-5 50
-7 -55 c-8 -55 -12 -166 -7 -185 1 -5 5 13 9 40 6 46 7 42 10 -37 2 -49 3 -93
4 -100 1 -6 -5 -13 -11 -15 -9 -3 -13 11 -13 49 0 30 -3 58 -7 62 -5 4 -9 29
-9 54 -5 154 -8 183 -16 188 -4 3 -6 10 -3 15 4 5 3 9 -2 9 -4 0 -9 -46 -11
-102 -5 -162 -17 -133 -17 38 0 137 -5 177 -20 162 -3 -2 -7 -42 -10 -89 -3
-46 -8 -93 -10 -104 -2 -11 -4 -42 -4 -68 -1 -27 -5 -46 -10 -43 -5 3 -8 -25
-6 -62 1 -37 -2 -73 -8 -79 -11 -15 -11 -15 21 -18 12 -1 22 2 22 6 0 5 -4 9
-10 9 -5 0 -10 11 -10 25 0 14 3 25 8 25 4 0 6 22 5 50 0 27 2 91 7 142 7 89
7 90 9 28 1 -36 4 -107 8 -158 5 -83 4 -92 -11 -86 -9 3 -16 2 -16 -3 0 -5 13
-9 29 -9 17 0 27 4 24 9 -5 9 6 201 12 195 3 -3 14 -231 15 -290 0 -5 5 -8 11
-8 6 0 9 7 5 15 -3 9 3 19 15 26 18 9 20 8 17 -12 -3 -24 -101 -81 -125 -72
-7 3 -13 0 -13 -7 0 -6 -4 -8 -10 -5 -5 3 -19 1 -30 -5 -27 -14 -110 -3 -110
15 0 8 12 16 28 18 26 4 26 4 2 5 l-25 2 2 127 c1 86 -1 113 -6 83 -5 -25 -9
157 -9 404 -1 247 -3 451 -5 453 -3 2 -7 -36 -10 -84z m-170 -461 c1 -9 0 -23
-2 -30 -3 -7 -6 -88 -8 -180 -2 -99 -1 -134 3 -87 l6 80 3 -80 c9 -257 8 -315
-6 -304 -14 12 -17 129 -4 129 9 0 1 72 -9 85 -11 14 -17 297 -6 314 6 9 5 12
-1 8 -16 -10 -22 41 -7 54 8 6 14 18 14 27 0 19 13 7 17 -16z m36 -129 c-2
-90 0 -131 6 -118 9 18 10 17 10 -7 1 -16 7 -28 14 -29 10 0 10 -2 0 -6 -9 -3
-13 -35 -13 -111 0 -84 -3 -103 -12 -94 -9 9 -12 46 -12 120 1 77 0 93 -5 57
-5 -32 -8 12 -9 124 -1 153 4 201 22 201 2 0 1 -62 -1 -137z m-74 -170 c0 -79
-3 -113 -10 -103 -5 8 -8 35 -7 61 1 25 0 49 -3 55 -4 8 -4 43 -1 87 1 9 6 17
12 17 6 0 9 -47 9 -117z m597 0 c5 -92 -6 -132 -35 -134 -11 0 -12 -2 -3 -6
10 -4 8 -8 -5 -18 -10 -7 -14 -17 -10 -22 10 -9 47 33 47 53 0 8 3 14 8 14 4
0 7 -33 7 -73 0 -56 -4 -78 -17 -91 -32 -31 -164 -87 -222 -93 l-56 -6 0 47
c0 43 2 46 28 47 54 3 68 7 117 34 86 47 80 31 84 244 0 46 3 82 5 80 3 -2 7
-47 9 -99 6 -116 5 -113 20 -70 7 19 10 37 7 40 -3 3 -3 38 -2 78 2 41 6 71 9
68 3 -3 7 -45 9 -93z m-497 -229 c26 -13 30 -19 20 -30 -8 -10 -8 -14 0 -14 6
0 11 4 11 9 0 12 49 20 56 10 3 -5 1 -9 -5 -9 -5 0 -11 -22 -13 -49 l-3 -48
-52 20 -53 20 0 53 c0 30 2 54 3 54 2 0 18 -7 36 -16z m-132 -74 c-10 -12 -9
-13 3 -4 11 9 22 7 45 -7 46 -29 118 -61 140 -62 16 -2 20 -9 20 -39 1 -41 -7
-45 -52 -27 -84 35 -102 44 -145 72 -47 31 -48 33 -48 85 l0 53 24 -28 c19
-22 22 -31 13 -43z m324 -107 c1 -10 2 -31 3 -46 2 -19 0 -25 -8 -17 -5 5 -29
10 -53 10 -42 0 -43 0 -43 35 l0 35 50 0 c41 0 50 -3 51 -17z"/>
<path d="M1675 541 c-3 -5 -1 -12 4 -15 5 -3 11 1 15 9 6 16 -9 21 -19 6z"/>
<path d="M1620 500 c0 -5 5 -10 11 -10 5 0 7 5 4 10 -3 6 -8 10 -11 10 -2 0
-4 -4 -4 -10z"/>
<path d="M1705 500 c-3 -5 -1 -10 4 -10 6 0 11 5 11 10 0 6 -2 10 -4 10 -3 0
-8 -4 -11 -10z"/>
<path d="M1500 460 c0 -5 16 -9 35 -8 41 1 39 9 -5 14 -16 2 -30 -1 -30 -6z"/>
<path d="M1618 463 c7 -3 16 -2 19 1 4 3 -2 6 -13 5 -11 0 -14 -3 -6 -6z"/>
<path d="M1595 449 c3 -4 -1 -10 -7 -12 -9 -4 -8 -5 2 -6 8 0 24 4 35 8 17 7
17 8 -7 13 -15 3 -25 2 -23 -3z"/>
<path d="M1272 454 c-14 -16 -5 -18 17 -5 7 5 9 11 5 14 -5 3 -15 -1 -22 -9z"/>
<path d="M1125 429 c-4 -6 -5 -12 -2 -15 2 -3 7 2 10 11 7 17 1 20 -8 4z"/>
<path d="M1193 396 c0 -8 8 -11 20 -8 14 4 16 7 5 13 -19 12 -25 11 -25 -5z"/>
<path d="M1287 359 c7 -7 15 -10 18 -7 3 3 -2 9 -12 12 -14 6 -15 5 -6 -5z"/>
<path d="M1248 353 c7 -3 16 -2 19 1 4 3 -2 6 -13 5 -11 0 -14 -3 -6 -6z"/>
<path d="M1378 343 c7 -3 16 -2 19 1 4 3 -2 6 -13 5 -11 0 -14 -3 -6 -6z"/>
<path d="M1018 1593 c7 -3 16 -2 19 1 4 3 -2 6 -13 5 -11 0 -14 -3 -6 -6z"/>
<path d="M686 1567 c3 -10 9 -15 12 -12 3 3 0 11 -7 18 -10 9 -11 8 -5 -6z"/>
<path d="M740 1570 c-13 -8 -12 -10 3 -10 9 0 17 5 17 10 0 12 -1 12 -20 0z"/>
<path d="M770 1570 c0 -6 7 -10 15 -10 8 0 15 2 15 4 0 2 -7 6 -15 10 -8 3
-15 1 -15 -4z"/>
<path d="M1000 1570 c0 -5 5 -10 10 -10 6 0 10 5 10 10 0 6 -4 10 -10 10 -5 0
-10 -4 -10 -10z"/>
<path d="M1033 1555 c0 -14 3 -25 8 -25 5 0 9 11 9 25 0 14 -4 25 -9 25 -5 0
-8 -11 -8 -25z"/>
<path d="M1060 1570 c0 -5 5 -10 10 -10 6 0 10 5 10 10 0 6 -4 10 -10 10 -5 0
-10 -4 -10 -10z"/>
<path d="M947 1556 c-4 -10 -5 -21 -2 -24 9 -9 17 6 13 25 -3 17 -4 17 -11 -1z"/>
<path d="M973 1550 c-1 -11 2 -20 8 -20 5 0 9 9 9 20 0 11 -4 20 -8 20 -4 0
-8 -9 -9 -20z"/>
<path d="M1128 1563 c7 -3 16 -2 19 1 4 3 -2 6 -13 5 -11 0 -14 -3 -6 -6z"/>
<path d="M1480 1566 c0 -9 30 -14 35 -6 4 6 -3 10 -14 10 -12 0 -21 -2 -21 -4z"/>
<path d="M826 1551 c-4 -7 -5 -15 -2 -18 9 -9 19 4 14 18 -4 11 -6 11 -12 0z"/>
<path d="M1421 1548 c-1 -10 6 -18 15 -18 11 0 15 -6 11 -20 -3 -11 -1 -18 4
-14 5 3 9 14 9 25 0 11 4 18 9 14 5 -3 13 0 17 6 5 8 -3 10 -24 7 -17 -2 -34
0 -36 6 -2 6 -5 3 -5 -6z"/>
<path d="M2157 1549 c7 -7 15 -10 18 -7 3 3 -2 9 -12 12 -14 6 -15 5 -6 -5z"/>
<path d="M705 1540 c-4 -7 13 -10 49 -8 31 2 56 6 56 11 0 11 -98 8 -105 -3z"/>
<path d="M850 1540 c0 -5 5 -10 10 -10 6 0 10 5 10 10 0 6 -4 10 -10 10 -5 0
-10 -4 -10 -10z"/>
<path d="M880 1540 c0 -5 5 -10 10 -10 6 0 10 5 10 10 0 6 -4 10 -10 10 -5 0
-10 -4 -10 -10z"/>
<path d="M1000 1540 c0 -5 5 -10 10 -10 6 0 10 5 10 10 0 6 -4 10 -10 10 -5 0
-10 -4 -10 -10z"/>
<path d="M1060 1539 c0 -5 11 -9 25 -9 14 0 25 4 25 9 0 5 -11 9 -25 9 -14 0
-25 -4 -25 -9z"/>
<path d="M1178 1523 c7 -3 16 -2 19 1 4 3 -2 6 -13 5 -11 0 -14 -3 -6 -6z"/>
<path d="M1291 1514 c0 -11 3 -14 6 -6 3 7 2 16 -1 19 -3 4 -6 -2 -5 -13z"/>
<path d="M1496 1513 c-6 -14 -5 -15 5 -6 7 7 10 15 7 18 -3 3 -9 -2 -12 -12z"/>
<path d="M680 1510 c0 -5 5 -10 10 -10 6 0 10 5 10 10 0 6 -4 10 -10 10 -5 0
-10 -4 -10 -10z"/>
<path d="M710 1509 c0 -5 9 -9 20 -9 11 0 20 4 20 8 0 4 -9 8 -20 9 -11 1 -20
-2 -20 -8z"/>
<path d="M770 1512 c0 -4 9 -8 20 -8 11 0 20 4 20 8 0 4 -9 8 -20 8 -11 0 -20
-4 -20 -8z"/>
<path d="M820 1510 c0 -5 5 -10 10 -10 6 0 10 5 10 10 0 6 -4 10 -10 10 -5 0
-10 -4 -10 -10z"/>
<path d="M850 1509 c0 -5 5 -7 10 -4 6 3 10 8 10 11 0 2 -4 4 -10 4 -5 0 -10
-5 -10 -11z"/>
<path d="M880 1510 c0 -5 5 -10 10 -10 6 0 10 5 10 10 0 6 -4 10 -10 10 -5 0
-10 -4 -10 -10z"/>
<path d="M910 1510 c0 -5 5 -10 10 -10 6 0 10 5 10 10 0 6 -4 10 -10 10 -5 0
-10 -4 -10 -10z"/>
<path d="M940 1510 c0 -5 5 -10 10 -10 6 0 10 5 10 10 0 6 -4 10 -10 10 -5 0
-10 -4 -10 -10z"/>
<path d="M970 1510 c0 -5 5 -10 10 -10 6 0 10 5 10 10 0 6 -4 10 -10 10 -5 0
-10 -4 -10 -10z"/>
<path d="M1000 1510 c0 -5 5 -10 10 -10 6 0 10 5 10 10 0 6 -4 10 -10 10 -5 0
-10 -4 -10 -10z"/>
<path d="M1030 1510 c0 -5 5 -10 10 -10 6 0 10 5 10 10 0 6 -4 10 -10 10 -5 0
-10 -4 -10 -10z"/>
<path d="M1060 1510 c0 -5 5 -10 10 -10 6 0 10 5 10 10 0 6 -4 10 -10 10 -5 0
-10 -4 -10 -10z"/>
<path d="M1090 1510 c0 -5 5 -10 10 -10 6 0 10 5 10 10 0 6 -4 10 -10 10 -5 0
-10 -4 -10 -10z"/>
<path d="M1120 1510 c0 -5 5 -10 10 -10 6 0 10 5 10 10 0 6 -4 10 -10 10 -5 0
-10 -4 -10 -10z"/>
<path d="M1823 1508 c2 -7 10 -12 16 -10 6 1 11 -3 11 -10 0 -6 3 -8 6 -5 8 8
-14 37 -28 37 -5 0 -8 -6 -5 -12z"/>
<path d="M1906 1503 c-6 -14 -5 -15 5 -6 7 7 10 15 7 18 -3 3 -9 -2 -12 -12z"/>
<path d="M2110 1510 c0 -6 23 -10 52 -10 62 0 60 5 -4 13 -29 4 -48 3 -48 -3z"/>
<path d="M496 1483 c12 -12 16 -12 28 0 12 12 10 14 -14 14 -24 0 -26 -2 -14
-14z"/>
<path d="M590 1486 c0 -9 5 -16 10 -16 6 0 10 4 10 9 0 6 -4 13 -10 16 -5 3
-10 -1 -10 -9z"/>
<path d="M1685 1490 c-3 -5 -1 -10 4 -10 6 0 11 5 11 10 0 6 -2 10 -4 10 -3 0
-8 -4 -11 -10z"/>
<path d="M1718 1493 c6 -2 18 -2 25 0 6 3 1 5 -13 5 -14 0 -19 -2 -12 -5z"/>
<path d="M1780 1488 c-14 -6 -20 -12 -14 -14 15 -6 60 11 48 18 -5 3 -20 1
-34 -4z"/>
<path d="M1926 1492 c-2 -4 4 -9 15 -9 11 -1 17 2 14 8 -7 11 -22 12 -29 1z"/>
<path d="M2060 1486 c0 -9 5 -16 10 -16 6 0 10 4 10 9 0 6 -4 13 -10 16 -5 3
-10 -1 -10 -9z"/>
<path d="M2406 1487 c3 -10 9 -15 12 -12 3 3 0 11 -7 18 -10 9 -11 8 -5 -6z"/>
<path d="M645 1480 c-3 -5 -1 -10 4 -10 6 0 11 5 11 10 0 6 -2 10 -4 10 -3 0
-8 -4 -11 -10z"/>
<path d="M688 1483 c6 -2 18 -2 25 0 6 3 1 5 -13 5 -14 0 -19 -2 -12 -5z"/>
<path d="M735 1480 c-3 -5 -1 -10 4 -10 6 0 11 5 11 10 0 6 -2 10 -4 10 -3 0
-8 -4 -11 -10z"/>
<path d="M764 1478 c-3 -5 9 -8 25 -8 17 0 31 4 31 10 0 11 -49 9 -56 -2z"/>
<path d="M915 1480 c3 -5 8 -10 11 -10 2 0 4 5 4 10 0 6 -5 10 -11 10 -5 0 -7
-4 -4 -10z"/>
<path d="M940 1480 c0 -5 5 -10 10 -10 6 0 10 5 10 10 0 6 -4 10 -10 10 -5 0
-10 -4 -10 -10z"/>
<path d="M970 1480 c0 -5 5 -10 10 -10 6 0 10 5 10 10 0 6 -4 10 -10 10 -5 0
-10 -4 -10 -10z"/>
<path d="M1000 1480 c0 -5 5 -10 10 -10 6 0 10 5 10 10 0 6 -4 10 -10 10 -5 0
-10 -4 -10 -10z"/>
<path d="M1030 1480 c0 -5 5 -10 10 -10 6 0 10 5 10 10 0 6 -4 10 -10 10 -5 0
-10 -4 -10 -10z"/>
<path d="M1060 1480 c0 -5 5 -10 10 -10 6 0 10 5 10 10 0 6 -4 10 -10 10 -5 0
-10 -4 -10 -10z"/>
<path d="M1090 1480 c0 -5 5 -10 10 -10 6 0 10 5 10 10 0 6 -4 10 -10 10 -5 0
-10 -4 -10 -10z"/>
<path d="M1120 1480 c0 -13 11 -13 30 0 12 8 11 10 -7 10 -13 0 -23 -4 -23
-10z"/>
<path d="M1870 1480 c0 -5 5 -10 10 -10 6 0 10 5 10 10 0 6 -4 10 -10 10 -5 0
-10 -4 -10 -10z"/>
<path d="M2000 1479 c0 -5 11 -9 25 -9 14 0 25 4 25 9 0 5 -11 9 -25 9 -14 0
-25 -4 -25 -9z"/>
<path d="M2090 1480 c0 -5 5 -10 10 -10 6 0 10 5 10 10 0 6 -4 10 -10 10 -5 0
-10 -4 -10 -10z"/>
<path d="M2120 1479 c0 -4 18 -7 40 -7 22 0 40 4 40 8 0 4 -18 7 -40 7 -22 0
-40 -4 -40 -8z"/>
<path d="M420 1470 c-18 -12 -2 -12 25 0 13 6 15 9 5 9 -8 0 -22 -4 -30 -9z"/>
<path d="M535 1470 c-3 -5 1 -10 10 -10 9 0 13 5 10 10 -3 6 -8 10 -10 10 -2
0 -7 -4 -10 -10z"/>
<path d="M1900 1475 c0 -5 5 -17 10 -25 5 -8 10 -10 10 -5 0 6 -5 17 -10 25
-5 8 -10 11 -10 5z"/>
<path d="M903 1451 c0 -11 5 -18 9 -15 4 3 5 11 1 19 -7 21 -12 19 -10 -4z"/>
<path d="M1800 1459 c0 -5 5 -7 10 -4 6 3 10 8 10 11 0 2 -4 4 -10 4 -5 0 -10
-5 -10 -11z"/>
<path d="M460 1450 c0 -5 6 -10 14 -10 8 0 18 5 21 10 3 6 -3 10 -14 10 -12 0
-21 -4 -21 -10z"/>
<path d="M624 1450 c-12 -5 -25 -15 -29 -22 -6 -10 -5 -11 6 0 16 14 33 16 24
2 -3 -5 -1 -10 4 -10 6 0 11 7 11 15 0 9 6 12 15 9 8 -4 15 -1 15 5 0 13 -16
13 -46 1z"/>
<path d="M714 1451 c7 -10 31 -9 42 2 4 4 -5 7 -20 7 -15 0 -25 -4 -22 -9z"/>
<path d="M770 1450 c0 -5 5 -10 10 -10 6 0 10 5 10 10 0 6 -4 10 -10 10 -5 0
-10 -4 -10 -10z"/>
<path d="M941 1453 c0 -5 4 -17 9 -28 8 -18 9 -17 9 8 1 15 -3 27 -9 27 -5 0
-10 -3 -9 -7z"/>
<path d="M970 1450 c0 -5 5 -10 10 -10 6 0 10 5 10 10 0 6 -4 10 -10 10 -5 0
-10 -4 -10 -10z"/>
<path d="M1000 1450 c0 -5 5 -10 10 -10 6 0 10 5 10 10 0 6 -4 10 -10 10 -5 0
-10 -4 -10 -10z"/>
<path d="M1030 1450 c0 -5 5 -10 10 -10 6 0 10 5 10 10 0 6 -4 10 -10 10 -5 0
-10 -4 -10 -10z"/>
<path d="M1060 1450 c0 -5 5 -10 10 -10 6 0 10 5 10 10 0 6 -4 10 -10 10 -5 0
-10 -4 -10 -10z"/>
<path d="M1090 1450 c0 -5 5 -10 10 -10 6 0 10 5 10 10 0 6 -4 10 -10 10 -5 0
-10 -4 -10 -10z"/>
<path d="M1120 1450 c0 -5 5 -10 10 -10 6 0 10 5 10 10 0 6 -4 10 -10 10 -5 0
-10 -4 -10 -10z"/>
<path d="M1150 1449 c0 -11 37 -12 43 -1 3 4 -6 8 -19 8 -13 1 -24 -2 -24 -7z"/>
<path d="M1733 1440 c1 -11 7 -20 15 -20 7 0 11 4 7 9 -3 6 3 14 12 20 16 9
14 10 -9 11 -21 0 -26 -5 -25 -20z"/>
<path d="M1825 1450 c-3 -5 -1 -10 4 -10 6 0 11 5 11 10 0 6 -2 10 -4 10 -3 0
-8 -4 -11 -10z"/>
<path d="M1970 1450 c0 -5 5 -10 10 -10 6 0 10 5 10 10 0 6 -4 10 -10 10 -5 0
-10 -4 -10 -10z"/>
<path d="M2000 1450 c0 -5 5 -10 10 -10 6 0 10 5 10 10 0 6 -4 10 -10 10 -5 0
-10 -4 -10 -10z"/>
<path d="M2030 1450 c0 -5 5 -10 10 -10 6 0 10 5 10 10 0 6 -4 10 -10 10 -5 0
-10 -4 -10 -10z"/>
<path d="M2060 1450 c0 -5 5 -10 10 -10 6 0 10 5 10 10 0 6 -4 10 -10 10 -5 0
-10 -4 -10 -10z"/>
<path d="M2090 1450 c0 -5 5 -10 10 -10 6 0 10 5 10 10 0 6 -4 10 -10 10 -5 0
-10 -4 -10 -10z"/>
<path d="M2120 1449 c0 -5 5 -7 10 -4 6 3 10 8 10 11 0 2 -4 4 -10 4 -5 0 -10
-5 -10 -11z"/>
<path d="M2150 1452 c0 -4 9 -8 20 -9 11 -1 20 2 20 5 0 4 -9 8 -20 9 -11 1
-20 -2 -20 -5z"/>
<path d="M2200 1450 c0 -5 5 -10 10 -10 6 0 10 5 10 10 0 6 -4 10 -10 10 -5 0
-10 -4 -10 -10z"/>
<path d="M2230 1448 c0 -5 11 -8 25 -8 14 0 25 3 25 8 0 4 -11 7 -25 7 -14 0
-25 -3 -25 -7z"/>
<path d="M2290 1450 c0 -5 5 -10 10 -10 6 0 10 5 10 10 0 6 -4 10 -10 10 -5 0
-10 -4 -10 -10z"/>
<path d="M2330 1450 c0 -5 5 -10 10 -10 6 0 10 5 10 10 0 6 -4 10 -10 10 -5 0
-10 -4 -10 -10z"/>
<path d="M683 1435 c0 -8 4 -15 9 -15 4 0 8 4 8 9 0 6 -4 12 -8 15 -5 3 -9 -1
-9 -9z"/>
<path d="M2417 1443 c-10 -10 -8 -33 2 -33 6 0 9 9 8 20 -1 23 -1 22 -10 13z"/>
<path d="M500 1425 c0 -8 5 -15 10 -15 6 0 10 7 10 15 0 8 -4 15 -10 15 -5 0
-10 -7 -10 -15z"/>
<path d="M536 1431 c-4 -7 -5 -15 -2 -18 9 -9 19 4 14 18 -4 11 -6 11 -12 0z"/>
<path d="M565 1430 c-3 -5 -1 -10 4 -10 6 0 11 5 11 10 0 6 -2 10 -4 10 -3 0
-8 -4 -11 -10z"/>
<path d="M1856 1431 c-4 -7 -5 -15 -2 -18 9 -9 19 4 14 18 -4 11 -6 11 -12 0z"/>
<path d="M2470 1425 c0 -8 4 -15 10 -15 5 0 7 7 4 15 -4 8 -8 15 -10 15 -2 0
-4 -7 -4 -15z"/>
<path d="M710 1418 c0 -3 9 -6 20 -5 11 1 20 5 20 9 0 3 -9 6 -20 5 -11 -1
-20 -5 -20 -9z"/>
<path d="M760 1420 c0 -5 5 -10 10 -10 6 0 10 5 10 10 0 6 -4 10 -10 10 -5 0
-10 -4 -10 -10z"/>
<path d="M1030 1420 c0 -5 5 -10 10 -10 6 0 10 5 10 10 0 6 -4 10 -10 10 -5 0
-10 -4 -10 -10z"/>
<path d="M1060 1420 c0 -5 5 -10 10 -10 6 0 10 5 10 10 0 6 -4 10 -10 10 -5 0
-10 -4 -10 -10z"/>
<path d="M1090 1420 c0 -5 5 -10 10 -10 6 0 10 5 10 10 0 6 -4 10 -10 10 -5 0
-10 -4 -10 -10z"/>
<path d="M1120 1420 c0 -5 5 -10 10 -10 6 0 10 5 10 10 0 6 -4 10 -10 10 -5 0
-10 -4 -10 -10z"/>
<path d="M1150 1414 c0 -14 3 -14 15 -4 8 7 15 14 15 16 0 2 -7 4 -15 4 -8 0
-15 -7 -15 -16z"/>
<path d="M1407 1423 c-13 -12 -7 -23 14 -23 11 0 18 4 14 9 -3 6 12 12 32 14
36 3 36 4 -8 5 -25 1 -49 -1 -52 -5z"/>
<path d="M1790 1426 c0 -2 7 -7 16 -10 8 -3 12 -2 9 4 -6 10 -25 14 -25 6z"/>
<path d="M1880 1398 c0 -36 4 -35 14 5 4 16 2 27 -4 27 -5 0 -10 -14 -10 -32z"/>
<path d="M1940 1420 c0 -5 5 -10 10 -10 6 0 10 5 10 10 0 6 -4 10 -10 10 -5 0
-10 -4 -10 -10z"/>
<path d="M1970 1405 c0 -14 4 -25 9 -25 5 0 9 11 9 25 0 14 -4 25 -9 25 -5 0
-9 -11 -9 -25z"/>
<path d="M2000 1420 c0 -5 5 -10 10 -10 6 0 10 5 10 10 0 6 -4 10 -10 10 -5 0
-10 -4 -10 -10z"/>
<path d="M2030 1420 c0 -5 5 -10 10 -10 6 0 10 5 10 10 0 6 -4 10 -10 10 -5 0
-10 -4 -10 -10z"/>
<path d="M2060 1420 c0 -5 5 -10 10 -10 6 0 10 5 10 10 0 6 -4 10 -10 10 -5 0
-10 -4 -10 -10z"/>
<path d="M2090 1420 c0 -5 5 -10 10 -10 6 0 10 5 10 10 0 6 -4 10 -10 10 -5 0
-10 -4 -10 -10z"/>
<path d="M2120 1419 c0 -5 5 -7 10 -4 6 3 10 8 10 11 0 2 -4 4 -10 4 -5 0 -10
-5 -10 -11z"/>
<path d="M2150 1422 c0 -4 9 -8 20 -8 11 0 20 4 20 8 0 4 -9 8 -20 8 -11 0
-20 -4 -20 -8z"/>
<path d="M2200 1420 c0 -5 5 -10 10 -10 6 0 10 5 10 10 0 6 -4 10 -10 10 -5 0
-10 -4 -10 -10z"/>
<path d="M2230 1420 c0 -5 5 -10 10 -10 6 0 10 5 10 10 0 6 -4 10 -10 10 -5 0
-10 -4 -10 -10z"/>
<path d="M2260 1420 c0 -5 5 -10 10 -10 6 0 10 5 10 10 0 6 -4 10 -10 10 -5 0
-10 -4 -10 -10z"/>
<path d="M2290 1420 c0 -5 5 -10 10 -10 6 0 10 5 10 10 0 6 -4 10 -10 10 -5 0
-10 -4 -10 -10z"/>
<path d="M2350 1420 c0 -5 5 -10 10 -10 6 0 10 5 10 10 0 6 -4 10 -10 10 -5 0
-10 -4 -10 -10z"/>
<path d="M2387 1423 c-10 -9 -8 -43 2 -43 5 0 9 11 9 25 0 27 -1 28 -11 18z"/>
<path d="M2440 1420 c0 -5 5 -10 10 -10 6 0 10 5 10 10 0 6 -4 10 -10 10 -5 0
-10 -4 -10 -10z"/>
<path d="M2677 1414 c3 -10 -2 -14 -18 -14 -33 0 -13 -15 22 -16 22 -1 27 2
19 11 -5 6 -7 14 -4 17 2 3 -2 8 -10 11 -10 4 -13 1 -9 -9z"/>
<path d="M229 1407 c6 -8 8 -16 6 -19 -3 -3 7 -3 22 1 25 5 26 6 6 9 -13 2
-23 8 -23 13 0 5 -5 9 -11 9 -8 0 -9 -4 0 -13z"/>
<path d="M1286 1405 c-5 -7 -20 -10 -32 -7 -12 2 -25 -1 -29 -8 -4 -7 -11 -8
-19 -1 -8 7 -12 5 -13 -7 -2 -23 27 -24 89 -5 49 15 74 43 36 40 -12 -1 -26
-6 -32 -12z"/>
<path d="M1535 1407 c-4 -10 -5 -21 -1 -24 10 -10 18 4 13 24 -4 17 -4 17 -12
0z"/>
<path d="M2323 1400 c-1 -11 2 -20 8 -20 5 0 9 9 9 20 0 11 -4 20 -8 20 -4 0
-8 -9 -9 -20z"/>
<path d="M2513 1413 c9 -2 25 -2 35 0 9 3 1 5 -18 5 -19 0 -27 -2 -17 -5z"/>
<path d="M442 1386 c1 -15 6 -26 10 -26 12 0 10 38 -2 45 -6 4 -9 -5 -8 -19z"/>
<path d="M916 1393 c-6 -14 -5 -15 5 -6 7 7 10 15 7 18 -3 3 -9 -2 -12 -12z"/>
<path d="M979 1408 c-6 -24 -5 -58 2 -58 5 0 9 14 9 30 0 17 -2 30 -5 30 -3 0
-5 -1 -6 -2z"/>
<path d="M1500 1396 c0 -9 5 -16 10 -16 6 0 10 4 10 9 0 6 -4 13 -10 16 -5 3
-10 -1 -10 -9z"/>
<path d="M1560 1396 c0 -9 5 -16 10 -16 6 0 10 4 10 9 0 6 -4 13 -10 16 -5 3
-10 -1 -10 -9z"/>
<path d="M1646 1395 c10 -8 23 -15 28 -15 6 0 1 7 -10 15 -10 8 -23 15 -28 15
-6 0 -1 -7 10 -15z"/>
<path d="M470 1390 c0 -5 5 -10 10 -10 6 0 10 5 10 10 0 6 -4 10 -10 10 -5 0
-10 -4 -10 -10z"/>
<path d="M500 1390 c0 -5 5 -10 10 -10 6 0 10 5 10 10 0 6 -4 10 -10 10 -5 0
-10 -4 -10 -10z"/>
<path d="M563 1375 c0 -14 3 -25 8 -25 5 0 9 11 9 25 0 14 -4 25 -9 25 -5 0
-8 -11 -8 -25z"/>
<path d="M620 1390 c0 -5 5 -10 10 -10 6 0 10 5 10 10 0 6 -4 10 -10 10 -5 0
-10 -4 -10 -10z"/>
<path d="M650 1391 c0 -5 11 -8 25 -8 14 0 25 3 25 8 0 5 -11 9 -25 9 -14 0
-25 -4 -25 -9z"/>
<path d="M737 1377 c3 -17 11 -23 26 -22 12 1 28 -2 35 -8 7 -6 12 -6 12 0 0
5 10 9 23 8 12 -1 22 -7 22 -13 0 -7 5 -12 10 -11 27 3 -7 39 -37 39 -10 0
-18 5 -18 11 0 6 -5 7 -12 2 -20 -12 -48 -14 -48 -4 0 5 6 12 13 14 6 3 2 6
-9 6 -17 1 -20 -4 -17 -22z"/>
<path d="M1000 1390 c0 -5 5 -10 10 -10 6 0 10 5 10 10 0 6 -4 10 -10 10 -5 0
-10 -4 -10 -10z"/>
<path d="M1030 1381 c0 -11 4 -22 9 -25 5 -3 9 6 9 19 0 14 -4 25 -9 25 -5 0
-9 -9 -9 -19z"/>
<path d="M1060 1390 c0 -5 5 -10 10 -10 6 0 10 5 10 10 0 6 -4 10 -10 10 -5 0
-10 -4 -10 -10z"/>
<path d="M1090 1390 c0 -5 5 -10 10 -10 6 0 10 5 10 10 0 6 -4 10 -10 10 -5 0
-10 -4 -10 -10z"/>
<path d="M1120 1389 c0 -5 5 -7 10 -4 6 3 10 8 10 11 0 2 -4 4 -10 4 -5 0 -10
-5 -10 -11z"/>
<path d="M1477 1393 c-10 -9 -8 -43 2 -43 5 0 9 11 9 25 0 27 -1 28 -11 18z"/>
<path d="M1590 1391 c0 -6 7 -11 15 -11 8 0 15 -7 15 -15 0 -16 15 -20 24 -7
7 12 -7 29 -31 36 -14 5 -23 3 -23 -3z"/>
<path d="M1798 1380 c-7 -24 -3 -38 8 -28 3 4 4 17 2 30 l-3 23 -7 -25z"/>
<path d="M1820 1390 c0 -5 5 -10 11 -10 5 0 7 5 4 10 -3 6 -8 10 -11 10 -2 0
-4 -4 -4 -10z"/>
<path d="M1850 1390 c0 -5 5 -10 10 -10 6 0 10 5 10 10 0 6 -4 10 -10 10 -5 0
-10 -4 -10 -10z"/>
<path d="M1912 1375 c-1 -14 2 -25 7 -25 5 0 9 11 9 25 0 14 -3 25 -7 25 -4 0
-8 -11 -9 -25z"/>
<path d="M1940 1390 c0 -5 5 -10 10 -10 6 0 10 5 10 10 0 6 -4 10 -10 10 -5 0
-10 -4 -10 -10z"/>
<path d="M2000 1390 c0 -5 5 -10 10 -10 6 0 10 5 10 10 0 6 -4 10 -10 10 -5 0
-10 -4 -10 -10z"/>
<path d="M2030 1390 c0 -5 5 -10 10 -10 6 0 10 5 10 10 0 6 -4 10 -10 10 -5 0
-10 -4 -10 -10z"/>
<path d="M2060 1389 c0 -5 5 -7 10 -4 6 3 10 8 10 11 0 2 -4 4 -10 4 -5 0 -10
-5 -10 -11z"/>
<path d="M2090 1389 c0 -5 5 -7 10 -4 6 3 10 8 10 11 0 2 -4 4 -10 4 -5 0 -10
-5 -10 -11z"/>
<path d="M2120 1391 c0 -4 14 -7 30 -5 17 2 30 -1 30 -6 0 -6 -13 -10 -30 -10
-16 0 -30 -4 -30 -9 0 -4 14 -7 30 -5 32 4 42 -11 13 -19 -15 -4 -15 -5 -2 -6
11 -1 17 -10 17 -27 0 -17 -5 -24 -14 -20 -8 3 -14 1 -14 -4 0 -6 9 -10 20
-10 18 0 20 7 20 65 l0 65 -35 0 c-19 0 -35 -4 -35 -9z"/>
<path d="M2205 1390 c3 -5 8 -10 11 -10 2 0 4 5 4 10 0 6 -5 10 -11 10 -5 0
-7 -4 -4 -10z"/>
<path d="M2230 1390 c0 -5 5 -10 10 -10 6 0 10 5 10 10 0 6 -4 10 -10 10 -5 0
-10 -4 -10 -10z"/>
<path d="M2260 1390 c0 -5 5 -10 10 -10 6 0 10 5 10 10 0 6 -4 10 -10 10 -5 0
-10 -4 -10 -10z"/>
<path d="M2290 1390 c0 -5 5 -10 10 -10 6 0 10 5 10 10 0 6 -4 10 -10 10 -5 0
-10 -4 -10 -10z"/>
<path d="M2350 1390 c0 -5 5 -10 10 -10 6 0 10 5 10 10 0 6 -4 10 -10 10 -5 0
-10 -4 -10 -10z"/>
<path d="M2410 1390 c0 -5 5 -10 10 -10 6 0 10 5 10 10 0 6 -4 10 -10 10 -5 0
-10 -4 -10 -10z"/>
<path d="M2440 1390 c0 -5 5 -10 10 -10 6 0 10 5 10 10 0 6 -4 10 -10 10 -5 0
-10 -4 -10 -10z"/>
<path d="M2470 1390 c0 -5 5 -10 10 -10 6 0 10 5 10 10 0 6 -4 10 -10 10 -5 0
-10 -4 -10 -10z"/>
<path d="M2500 1391 c0 -4 16 -8 35 -7 46 1 46 16 0 16 -19 0 -35 -4 -35 -9z"/>
<path d="M2580 1390 c0 -5 5 -10 10 -10 6 0 10 5 10 10 0 6 -4 10 -10 10 -5 0
-10 -4 -10 -10z"/>
<path d="M2614 1385 c4 -12 -4 -15 -39 -15 -25 0 -45 -3 -45 -7 0 -5 23 -8 50
-8 45 0 50 2 50 23 0 12 -5 22 -11 22 -6 0 -9 -7 -5 -15z"/>
<path d="M110 1370 c0 -5 5 -10 10 -10 6 0 10 5 10 10 0 6 -4 10 -10 10 -5 0
-10 -4 -10 -10z"/>
<path d="M530 1364 c0 -8 5 -12 10 -9 6 4 8 11 5 16 -9 14 -15 11 -15 -7z"/>
<path d="M592 1357 c1 -15 6 -27 10 -27 9 0 5 36 -5 46 -4 4 -6 -5 -5 -19z"/>
<path d="M1446 1371 c-4 -7 -5 -15 -2 -18 9 -9 19 4 14 18 -4 11 -6 11 -12 0z"/>
<path d="M1700 1365 c0 -7 11 -12 25 -11 14 0 25 6 25 11 0 6 -11 11 -25 11
-14 1 -25 -4 -25 -11z"/>
<path d="M1765 1371 c-3 -5 -1 -12 5 -16 5 -3 10 1 10 9 0 18 -6 21 -15 7z"/>
<path d="M180 1318 c0 -26 4 -48 8 -48 5 0 8 18 7 40 -1 27 3 40 12 40 7 0 13
4 13 8 0 4 -9 8 -20 8 -17 0 -20 -7 -20 -48z"/>
<path d="M654 1358 c-5 -8 -2 -9 9 -5 14 5 17 0 17 -23 0 -17 4 -30 9 -30 9 0
7 43 -4 59 -8 14 -22 14 -31 -1z"/>
<path d="M705 1360 c4 -6 11 -8 16 -5 14 9 11 15 -7 15 -8 0 -12 -5 -9 -10z"/>
<path d="M1000 1320 c0 -28 5 -50 10 -50 6 0 10 6 9 13 -4 30 2 46 19 50 13 4
12 5 -5 6 -16 1 -21 6 -17 16 4 8 1 15 -5 15 -7 0 -11 -20 -11 -50z"/>
<path d="M1060 1360 c0 -5 5 -10 10 -10 6 0 10 5 10 10 0 6 -4 10 -10 10 -5 0
-10 -4 -10 -10z"/>
<path d="M1090 1355 c0 -8 -6 -15 -13 -15 -21 0 -18 -39 4 -51 16 -8 26 -5 51
16 17 14 37 24 44 21 8 -3 24 -1 36 4 21 8 21 9 3 10 -17 0 -17 2 -5 10 21 13
3 13 -22 -1 -15 -8 -19 -8 -14 0 12 18 -9 12 -48 -14 -51 -34 -68 -31 -28 5
28 26 30 30 12 30 -11 0 -20 -7 -20 -15z"/>
<path d="M1500 1354 c0 -8 5 -12 10 -9 6 3 10 10 10 16 0 5 -4 9 -10 9 -5 0
-10 -7 -10 -16z"/>
<path d="M1530 1359 c0 -5 5 -7 10 -4 6 3 10 8 10 11 0 2 -4 4 -10 4 -5 0 -10
-5 -10 -11z"/>
<path d="M1560 1360 c0 -5 5 -10 10 -10 6 0 10 5 10 10 0 6 -4 10 -10 10 -5 0
-10 -4 -10 -10z"/>
<path d="M1592 1335 c-1 -19 2 -35 6 -35 4 0 7 16 8 35 0 19 -3 35 -6 35 -4 0
-7 -16 -8 -35z"/>
<path d="M1670 1363 c0 -5 5 -15 10 -23 8 -12 10 -11 10 8 0 12 -4 22 -10 22
-5 0 -10 -3 -10 -7z"/>
<path d="M1820 1360 c0 -5 5 -10 10 -10 6 0 10 5 10 10 0 6 -4 10 -10 10 -5 0
-10 -4 -10 -10z"/>
<path d="M1850 1360 c0 -5 5 -10 10 -10 6 0 10 5 10 10 0 6 -4 10 -10 10 -5 0
-10 -4 -10 -10z"/>
<path d="M1940 1360 c0 -5 5 -10 10 -10 6 0 10 5 10 10 0 6 -4 10 -10 10 -5 0
-10 -4 -10 -10z"/>
<path d="M1970 1360 c0 -5 5 -10 10 -10 6 0 10 5 10 10 0 6 -4 10 -10 10 -5 0
-10 -4 -10 -10z"/>
<path d="M2000 1360 c0 -5 5 -10 10 -10 6 0 10 5 10 10 0 6 -4 10 -10 10 -5 0
-10 -4 -10 -10z"/>
<path d="M2030 1359 c0 -5 5 -7 10 -4 6 3 10 8 10 11 0 2 -4 4 -10 4 -5 0 -10
-5 -10 -11z"/>
<path d="M2060 1359 c0 -5 5 -7 10 -4 6 3 10 8 10 11 0 2 -4 4 -10 4 -5 0 -10
-5 -10 -11z"/>
<path d="M2090 1359 c0 -5 5 -7 10 -4 6 3 10 8 10 11 0 2 -4 4 -10 4 -5 0 -10
-5 -10 -11z"/>
<path d="M2205 1320 c0 -27 3 -50 8 -50 4 0 7 23 7 50 0 28 -3 50 -7 50 -5 0
-8 -22 -8 -50z"/>
<path d="M2235 1360 c3 -5 8 -10 11 -10 2 0 4 5 4 10 0 6 -5 10 -11 10 -5 0
-7 -4 -4 -10z"/>
<path d="M2265 1360 c3 -5 8 -10 11 -10 2 0 4 5 4 10 0 6 -5 10 -11 10 -5 0
-7 -4 -4 -10z"/>
<path d="M2290 1360 c0 -5 5 -10 10 -10 6 0 10 5 10 10 0 6 -4 10 -10 10 -5 0
-10 -4 -10 -10z"/>
<path d="M2320 1360 c0 -5 5 -10 10 -10 6 0 10 5 10 10 0 6 -4 10 -10 10 -5 0
-10 -4 -10 -10z"/>
<path d="M2350 1360 c0 -5 5 -10 10 -10 6 0 10 5 10 10 0 6 -4 10 -10 10 -5 0
-10 -4 -10 -10z"/>
<path d="M2380 1360 c0 -5 5 -10 10 -10 6 0 10 5 10 10 0 6 -4 10 -10 10 -5 0
-10 -4 -10 -10z"/>
<path d="M2410 1360 c0 -5 5 -10 10 -10 6 0 10 5 10 10 0 6 -4 10 -10 10 -5 0
-10 -4 -10 -10z"/>
<path d="M2440 1359 c0 -5 5 -7 10 -4 6 3 10 8 10 11 0 2 -4 4 -10 4 -5 0 -10
-5 -10 -11z"/>
<path d="M2470 1360 c0 -5 5 -10 10 -10 6 0 10 5 10 10 0 6 -4 10 -10 10 -5 0
-10 -4 -10 -10z"/>
<path d="M2500 1335 c0 -19 3 -35 8 -35 4 0 7 16 7 35 0 19 -3 35 -7 35 -5 0
-8 -16 -8 -35z"/>
<path d="M2676 1339 c3 -24 1 -30 -11 -25 -8 3 -19 -3 -24 -12 -9 -14 -10 -13
-11 11 0 15 -4 27 -9 27 -4 0 -7 -11 -6 -25 2 -14 -1 -25 -6 -25 -5 0 -9 11
-9 25 0 20 -5 25 -22 24 -17 -1 -19 -2 -5 -6 20 -5 24 -53 4 -53 -7 0 -13 -9
-14 -20 -1 -11 4 -20 12 -20 8 0 12 6 9 14 -4 10 11 19 48 30 51 16 80 46 77
80 0 6 -4 2 -9 -9 -7 -17 -9 -17 -9 -2 -1 9 -5 17 -10 17 -4 0 -7 -14 -5 -31z"/>
<path d="M945 1351 c-3 -5 -2 -12 3 -15 5 -3 9 1 9 9 0 17 -3 19 -12 6z"/>
<path d="M1889 1358 c-7 -13 -5 -88 2 -88 5 0 9 20 9 45 0 37 -5 55 -11 43z"/>
<path d="M151 1328 c-5 -15 -4 -26 3 -30 6 -5 2 -8 -11 -8 -13 0 -23 -4 -23
-9 0 -5 11 -8 25 -7 22 1 24 5 23 39 -2 43 -5 46 -17 15z"/>
<path d="M278 1342 c-30 -3 -38 -7 -38 -23 0 -10 4 -19 10 -19 5 0 7 7 4 15
-4 8 -1 15 5 15 6 0 11 -7 11 -15 0 -10 10 -15 30 -15 17 0 30 -4 30 -10 0 -5
-13 -8 -30 -6 -16 2 -30 -1 -30 -5 0 -5 13 -9 29 -9 20 0 31 -6 34 -17 3 -10
5 5 6 33 1 57 -3 61 -61 56z m22 -22 c0 -5 -4 -10 -10 -10 -5 0 -10 5 -10 10
0 6 5 10 10 10 6 0 10 -4 10 -10z m30 0 c0 -5 -4 -10 -10 -10 -5 0 -10 5 -10
10 0 6 5 10 10 10 6 0 10 -4 10 -10z"/>
<path d="M413 1325 c0 -14 3 -25 8 -25 5 0 9 11 9 25 0 14 -4 25 -9 25 -5 0
-8 -11 -8 -25z"/>
<path d="M504 1228 c-1 -134 -15 -561 -19 -566 -1 -1 -5 60 -9 135 -7 139 -15
168 -38 144 -11 -10 -9 -11 5 -5 16 6 17 2 11 -47 -19 -150 -20 -151 -29 -51
-4 50 -11 92 -15 92 -5 0 -11 -35 -15 -77 -10 -111 -24 -125 -26 -28 -1 44 -1
85 0 92 1 6 -3 14 -7 17 -5 3 -15 -38 -22 -92 -7 -53 -14 -92 -16 -87 -1 6 -6
59 -9 118 -4 60 -10 105 -13 102 -4 -3 -11 -57 -17 -118 l-11 -112 -8 123 c-4
67 -11 120 -16 117 -4 -2 -11 -44 -15 -92 -15 -185 -19 -190 -34 -50 -8 70
-18 127 -23 127 -5 0 -8 -8 -7 -17 1 -10 0 -61 -1 -113 -3 -94 -3 -95 -12 -40
-5 30 -12 71 -15 90 l-6 35 -7 -30 c-4 -16 -8 -52 -9 -78 -2 -74 -18 -47 -26
43 -4 44 -11 80 -15 80 -5 0 -11 -39 -15 -87 -9 -127 -10 -128 -25 -25 -16
115 -27 103 -34 -39 -5 -102 -5 -102 4 -25 13 109 16 112 24 24 12 -126 22
-146 30 -63 9 88 18 143 22 130 1 -5 5 -45 9 -87 4 -43 11 -78 15 -78 5 0 12
37 16 83 7 79 8 80 15 37 4 -25 10 -75 14 -113 4 -38 11 -65 16 -61 5 3 9 11
8 17 -1 7 0 57 1 112 3 107 9 92 25 -58 10 -103 19 -85 31 66 4 48 11 87 15
87 5 0 9 -35 10 -77 0 -85 6 -153 13 -160 2 -2 7 39 11 93 11 142 23 169 26
59 3 -117 4 -123 10 -129 3 -3 6 9 8 27 1 18 8 66 15 107 l13 75 3 -55 c1 -30
5 -77 9 -105 5 -41 8 -46 13 -25 4 14 10 61 14 105 6 62 10 73 15 50 4 -16 7
-60 8 -97 0 -37 5 -69 10 -72 9 -6 20 60 22 123 0 29 2 32 9 16 5 -11 9 -65
10 -120 1 -55 5 -127 9 -160 l6 -60 7 90 c4 50 11 187 15 305 l8 215 6 -145
c4 -80 7 -211 8 -292 0 -82 5 -148 10 -148 5 0 12 60 16 133 12 215 20 234 29
65 5 -82 11 -148 15 -148 9 0 21 204 21 339 0 46 2 82 4 80 2 -2 7 -38 10 -79
8 -115 26 -273 30 -278 7 -7 15 55 32 238 8 89 14 88 14 -2 0 -41 3 -117 7
-169 8 -117 18 -89 28 78 4 65 9 120 11 122 5 5 12 -37 19 -111 8 -83 25 -90
25 -10 0 31 3 82 7 112 7 51 8 47 19 -75 8 -86 9 -132 2 -136 -6 -4 -4 -8 5
-12 7 -3 20 -1 28 4 8 5 9 9 3 9 -6 0 -10 10 -8 23 1 12 3 67 5 122 2 96 3 97
10 40 4 -36 5 7 3 105 -2 91 -4 175 -4 188 0 12 -3 22 -7 22 -5 0 -8 -33 -8
-72 0 -156 -5 -341 -9 -337 -2 2 -6 31 -9 64 -16 170 -20 201 -28 215 -5 9 -9
-13 -10 -57 -1 -40 -3 -77 -4 -83 -1 -5 -4 -31 -5 -57 -3 -48 -3 -48 -11 17
-5 36 -7 79 -5 95 2 23 -2 31 -13 32 -13 1 -16 -14 -19 -91 -5 -160 -20 -168
-22 -11 -1 77 -1 147 0 155 1 10 -2 12 -8 5 -6 -5 -18 -77 -27 -160 -9 -82
-18 -151 -19 -153 -2 -1 -9 64 -16 145 -6 81 -15 168 -19 193 -8 45 -8 44 -14
-30 -4 -41 -9 -127 -12 -190 -3 -62 -7 -116 -9 -118 -2 -1 -7 56 -11 127 -4
72 -11 131 -15 131 -6 0 -16 -116 -22 -264 -1 -28 -5 17 -8 99 -3 83 -1 153 4
156 4 4 2 9 -5 12 -12 5 -12 7 0 15 7 5 9 11 3 13 -7 3 -26 269 -24 342 0 9
-2 17 -6 17 -4 0 -7 -55 -8 -122z"/>
<path d="M1647 1344 c-2 -3 -3 -14 0 -25 5 -19 43 -28 43 -9 0 5 -8 6 -17 3
-12 -5 -15 -2 -10 10 6 16 -5 32 -16 21z"/>
<path d="M210 1305 c0 -19 3 -35 8 -35 4 0 7 16 7 35 0 19 -3 35 -7 35 -5 0
-8 -16 -8 -35z"/>
<path d="M354 1320 c0 -11 4 -20 8 -20 4 0 8 9 8 20 0 11 -4 20 -8 20 -4 0 -8
-9 -8 -20z"/>
<path d="M389 1338 c-6 -21 -5 -38 2 -38 5 0 9 9 9 20 0 16 -7 28 -11 18z"/>
<path d="M444 1320 c0 -11 4 -20 8 -20 4 0 8 9 8 20 0 11 -4 20 -8 20 -4 0 -8
-9 -8 -20z"/>
<path d="M473 1305 c0 -19 3 -35 8 -35 5 0 8 16 7 35 -1 19 -4 35 -8 35 -3 0
-6 -16 -7 -35z"/>
<path d="M640 1333 c0 -17 19 -37 27 -29 4 5 2 11 -5 13 -6 3 -10 9 -6 14 3 5
0 9 -5 9 -6 0 -11 -3 -11 -7z"/>
<path d="M713 1315 c2 -23 -2 -30 -15 -29 -10 1 -18 -2 -18 -7 0 -15 38 -10
44 6 3 8 15 15 27 15 17 0 19 3 10 14 -9 11 -9 15 1 19 8 4 7 6 -4 6 -10 1
-18 -6 -18 -14 0 -21 -17 -19 -24 3 -2 9 -4 4 -3 -13z"/>
<path d="M825 1330 c3 -5 8 -10 11 -10 2 0 4 5 4 10 0 6 -5 10 -11 10 -5 0 -7
-4 -4 -10z"/>
<path d="M970 1310 c0 -16 5 -30 10 -30 6 0 10 14 10 30 0 17 -4 30 -10 30 -5
0 -10 -13 -10 -30z"/>
<path d="M1417 1333 c-9 -9 -9 -63 1 -63 4 0 8 16 9 35 3 36 1 40 -10 28z"/>
<path d="M1443 1320 c1 -11 5 -20 9 -20 3 0 6 9 5 20 -1 11 -5 20 -9 20 -3 0
-6 -9 -5 -20z"/>
<path d="M1470 1325 c0 -8 5 -15 10 -15 6 0 10 7 10 15 0 8 -4 15 -10 15 -5 0
-10 -7 -10 -15z"/>
<path d="M1533 1320 c-1 -11 2 -20 5 -20 4 0 8 9 9 20 1 11 -2 20 -5 20 -4 0
-8 -9 -9 -20z"/>
<path d="M1621 1308 c-1 -27 3 -38 14 -38 8 0 15 -7 15 -15 0 -10 11 -15 35
-15 19 0 35 4 35 9 0 4 -13 7 -30 5 -16 -2 -30 1 -30 6 0 6 7 10 15 10 8 0 15
4 15 9 0 4 -14 7 -31 5 -22 -3 -30 0 -26 9 2 6 1 21 -4 32 -6 15 -8 11 -8 -17z"/>
<path d="M1763 1320 c1 -11 5 -20 9 -20 3 0 6 9 5 20 -1 11 -5 20 -9 20 -3 0
-6 -9 -5 -20z"/>
<path d="M1823 1320 c-1 -11 2 -20 5 -20 4 0 8 9 9 20 1 11 -2 20 -5 20 -4 0
-8 -9 -9 -20z"/>
<path d="M1853 1305 c0 -19 3 -35 8 -35 5 0 9 16 9 35 0 19 -4 35 -8 35 -4 0
-8 -16 -9 -35z"/>
<path d="M1940 1305 c0 -19 3 -35 8 -35 4 0 7 16 8 35 0 19 -3 35 -8 35 -4 0
-8 -16 -8 -35z"/>
<path d="M1970 1305 c0 -19 4 -35 9 -35 5 0 8 16 8 35 -1 19 -5 35 -9 35 -4 0
-8 -16 -8 -35z"/>
<path d="M2000 1305 c0 -19 3 -35 8 -35 4 0 7 16 7 35 0 19 -3 35 -7 35 -5 0
-8 -16 -8 -35z"/>
<path d="M2293 1320 c1 -11 5 -20 9 -20 3 0 6 9 5 20 -1 11 -5 20 -9 20 -3 0
-6 -9 -5 -20z"/>
<path d="M2413 1320 c-1 -11 2 -20 8 -20 5 0 9 9 9 20 0 11 -4 20 -8 20 -4 0
-8 -9 -9 -20z"/>
<path d="M2530 1313 c0 -14 3 -23 7 -19 10 10 11 46 1 46 -4 0 -8 -12 -8 -27z"/>
<path d="M120 1319 c0 -5 5 -7 10 -4 6 3 10 8 10 11 0 2 -4 4 -10 4 -5 0 -10
-5 -10 -11z"/>
<path d="M1506 1321 c-4 -7 -5 -15 -2 -18 9 -9 19 4 14 18 -4 11 -6 11 -12 0z"/>
<path d="M535 1310 c-3 -5 -1 -10 4 -10 6 0 11 5 11 10 0 6 -2 10 -4 10 -3 0
-8 -4 -11 -10z"/>
<path d="M590 1310 c0 -5 5 -10 10 -10 6 0 10 5 10 10 0 6 -4 10 -10 10 -5 0
-10 -4 -10 -10z"/>
<path d="M620 1310 c0 -5 5 -10 11 -10 5 0 7 5 4 10 -3 6 -8 10 -11 10 -2 0
-4 -4 -4 -10z"/>
<path d="M814 1305 c18 -18 18 -19 0 -26 -17 -7 -17 -8 4 -8 13 -1 22 5 22 14
0 8 4 15 10 15 5 0 7 -7 4 -15 -4 -8 -1 -15 5 -15 6 0 11 9 11 20 0 13 -7 20
-19 20 -11 0 -28 3 -38 7 -17 7 -17 6 1 -12z"/>
<path d="M880 1311 c0 -6 5 -13 10 -16 6 -3 10 1 10 9 0 9 -4 16 -10 16 -5 0
-10 -4 -10 -9z"/>
<path d="M951 1304 c0 -11 3 -14 6 -6 3 7 2 16 -1 19 -3 4 -6 -2 -5 -13z"/>
<path d="M1030 1310 c0 -5 5 -10 11 -10 5 0 7 5 4 10 -3 6 -8 10 -11 10 -2 0
-4 -4 -4 -10z"/>
<path d="M1560 1310 c0 -5 5 -10 11 -10 5 0 7 5 4 10 -3 6 -8 10 -11 10 -2 0
-4 -4 -4 -10z"/>
<path d="M1705 1310 c-3 -5 -1 -10 4 -10 6 0 11 5 11 10 0 6 -2 10 -4 10 -3 0
-8 -4 -11 -10z"/>
<path d="M1735 1310 c-3 -5 -1 -10 4 -10 6 0 11 5 11 10 0 6 -2 10 -4 10 -3 0
-8 -4 -11 -10z"/>
<path d="M1795 1310 c-3 -5 -1 -10 4 -10 6 0 11 5 11 10 0 6 -2 10 -4 10 -3 0
-8 -4 -11 -10z"/>
<path d="M1910 1310 c0 -5 5 -10 10 -10 6 0 10 5 10 10 0 6 -4 10 -10 10 -5 0
-10 -4 -10 -10z"/>
<path d="M2030 1310 c0 -5 5 -10 11 -10 5 0 7 5 4 10 -3 6 -8 10 -11 10 -2 0
-4 -4 -4 -10z"/>
<path d="M2060 1310 c0 -5 5 -10 11 -10 5 0 7 5 4 10 -3 6 -8 10 -11 10 -2 0
-4 -4 -4 -10z"/>
<path d="M2090 1310 c0 -5 5 -10 11 -10 5 0 7 5 4 10 -3 6 -8 10 -11 10 -2 0
-4 -4 -4 -10z"/>
<path d="M2120 1310 c0 -5 5 -10 11 -10 5 0 7 5 4 10 -3 6 -8 10 -11 10 -2 0
-4 -4 -4 -10z"/>
<path d="M2230 1310 c0 -5 5 -10 10 -10 6 0 10 5 10 10 0 6 -4 10 -10 10 -5 0
-10 -4 -10 -10z"/>
<path d="M2265 1310 c-3 -5 -1 -10 4 -10 6 0 11 5 11 10 0 6 -2 10 -4 10 -3 0
-8 -4 -11 -10z"/>
<path d="M2320 1310 c0 -5 5 -10 10 -10 6 0 10 5 10 10 0 6 -4 10 -10 10 -5 0
-10 -4 -10 -10z"/>
<path d="M2350 1310 c0 -5 5 -10 10 -10 6 0 10 5 10 10 0 6 -4 10 -10 10 -5 0
-10 -4 -10 -10z"/>
<path d="M2385 1310 c-3 -5 -1 -10 4 -10 6 0 11 5 11 10 0 6 -2 10 -4 10 -3 0
-8 -4 -11 -10z"/>
<path d="M2440 1310 c0 -5 5 -10 11 -10 5 0 7 5 4 10 -3 6 -8 10 -11 10 -2 0
-4 -4 -4 -10z"/>
<path d="M2470 1310 c0 -5 5 -10 11 -10 5 0 7 5 4 10 -3 6 -8 10 -11 10 -2 0
-4 -4 -4 -10z"/>
<path d="M2560 1304 c0 -8 5 -12 10 -9 6 4 8 11 5 16 -9 14 -15 11 -15 -7z"/>
<path d="M560 1290 c0 -11 5 -20 10 -20 6 0 10 9 10 20 0 11 -4 20 -10 20 -5
0 -10 -9 -10 -20z"/>
<path d="M90 1285 c0 -5 5 -17 10 -25 5 -8 10 -10 10 -5 0 6 -5 17 -10 25 -5
8 -10 11 -10 5z"/>
<path d="M240 1280 c0 -5 5 -10 10 -10 6 0 10 5 10 10 0 6 -4 10 -10 10 -5 0
-10 -4 -10 -10z"/>
<path d="M355 1280 c-3 -5 -1 -10 4 -10 6 0 11 5 11 10 0 6 -2 10 -4 10 -3 0
-8 -4 -11 -10z"/>
<path d="M385 1280 c-3 -5 -1 -10 4 -10 6 0 11 5 11 10 0 6 -2 10 -4 10 -3 0
-8 -4 -11 -10z"/>
<path d="M410 1280 c0 -5 5 -10 10 -10 6 0 10 5 10 10 0 6 -4 10 -10 10 -5 0
-10 -4 -10 -10z"/>
<path d="M440 1280 c0 -5 5 -10 10 -10 6 0 10 5 10 10 0 6 -4 10 -10 10 -5 0
-10 -4 -10 -10z"/>
<path d="M530 1280 c0 -5 5 -10 11 -10 5 0 7 5 4 10 -3 6 -8 10 -11 10 -2 0
-4 -4 -4 -10z"/>
<path d="M590 1280 c0 -5 5 -10 10 -10 6 0 10 5 10 10 0 6 -4 10 -10 10 -5 0
-10 -4 -10 -10z"/>
<path d="M620 1280 c0 -5 5 -10 10 -10 6 0 10 5 10 10 0 6 -4 10 -10 10 -5 0
-10 -4 -10 -10z"/>
<path d="M650 1280 c0 -5 5 -10 10 -10 6 0 10 5 10 10 0 6 -4 10 -10 10 -5 0
-10 -4 -10 -10z"/>
<path d="M735 1280 c-3 -5 -5 -10 -3 -11 19 -4 51 -9 47 -6 -2 1 -11 8 -21 15
-11 9 -18 10 -23 2z"/>
<path d="M1030 1283 c0 -7 -18 -36 -40 -65 -22 -29 -38 -59 -35 -66 3 -7 1
-10 -4 -7 -5 3 -12 1 -16 -5 -4 -6 -11 -7 -17 -4 -6 4 -8 1 -6 -7 3 -8 12 -13
19 -11 8 1 6 -4 -5 -13 -14 -11 -23 -12 -33 -4 -9 8 -13 8 -13 0 0 -6 4 -11 8
-11 7 0 9 -114 4 -273 -1 -38 -6 -66 -11 -63 -5 3 -8 -11 -7 -32 2 -20 3 -83
4 -139 1 -66 6 -103 13 -103 7 0 9 30 7 89 -2 62 0 87 8 84 6 -2 9 -19 7 -37
-4 -39 20 -67 39 -48 9 9 8 12 -5 12 -10 0 -16 7 -15 18 3 40 -3 72 -13 70
-16 -4 -19 31 -11 162 l6 115 7 -71 c4 -39 10 -95 15 -125 l8 -54 11 70 12 70
4 -65 c2 -36 4 -82 4 -102 2 -37 15 -68 15 -34 0 9 4 15 8 12 4 -2 8 4 8 14 0
10 -5 16 -10 13 -5 -4 -7 1 -3 11 4 10 7 41 8 69 1 51 1 51 10 17 15 -62 15
-150 -1 -160 -13 -8 -12 -10 3 -10 13 0 17 -9 18 -37 l1 -38 8 40 c4 22 6 43
4 47 -2 3 -5 43 -5 89 -1 52 -4 77 -10 68 -5 -9 -9 23 -9 84 0 58 -4 97 -10
97 -5 0 -10 -26 -11 -57 0 -32 -4 -76 -9 -98 -7 -30 -8 -14 -6 65 3 87 8 115
29 163 15 32 35 70 47 84 11 14 20 35 20 46 0 18 -4 15 -26 -14 -59 -79 -90
-163 -100 -277 -4 -40 -8 -71 -9 -70 -2 2 -9 56 -15 121 -10 93 -10 124 0 147
7 17 16 30 21 30 5 0 9 8 9 18 0 9 9 30 19 46 11 17 17 34 14 39 -3 6 -2 7 4
4 5 -3 28 14 51 37 33 34 39 45 27 50 -10 3 -15 -1 -15 -11 0 -14 -2 -14 -15
3 -8 10 -15 13 -15 7z"/>
<path d="M1385 1281 c-3 -5 -1 -12 5 -16 5 -3 10 1 10 9 0 18 -6 21 -15 7z"/>
<path d="M1440 1280 c0 -5 5 -10 10 -10 6 0 10 5 10 10 0 6 -4 10 -10 10 -5 0
-10 -4 -10 -10z"/>
<path d="M1500 1280 c0 -5 5 -10 10 -10 6 0 10 5 10 10 0 6 -4 10 -10 10 -5 0
-10 -4 -10 -10z"/>
<path d="M1530 1280 c0 -5 5 -10 10 -10 6 0 10 5 10 10 0 6 -4 10 -10 10 -5 0
-10 -4 -10 -10z"/>
<path d="M1560 1280 c0 -5 5 -10 10 -10 6 0 10 5 10 10 0 6 -4 10 -10 10 -5 0
-10 -4 -10 -10z"/>
<path d="M1590 1280 c0 -5 5 -10 11 -10 5 0 7 5 4 10 -3 6 -8 10 -11 10 -2 0
-4 -4 -4 -10z"/>
<path d="M1705 1280 c-3 -5 -1 -10 4 -10 6 0 11 5 11 10 0 6 -2 10 -4 10 -3 0
-8 -4 -11 -10z"/>
<path d="M1735 1280 c-3 -5 -1 -10 4 -10 6 0 11 5 11 10 0 6 -2 10 -4 10 -3 0
-8 -4 -11 -10z"/>
<path d="M1765 1280 c-3 -5 -1 -10 4 -10 6 0 11 5 11 10 0 6 -2 10 -4 10 -3 0
-8 -4 -11 -10z"/>
<path d="M1795 1280 c-3 -5 -1 -10 4 -10 6 0 11 5 11 10 0 6 -2 10 -4 10 -3 0
-8 -4 -11 -10z"/>
<path d="M1820 1280 c0 -5 5 -10 10 -10 6 0 10 5 10 10 0 6 -4 10 -10 10 -5 0
-10 -4 -10 -10z"/>
<path d="M1910 1280 c0 -5 5 -10 10 -10 6 0 10 5 10 10 0 6 -4 10 -10 10 -5 0
-10 -4 -10 -10z"/>
<path d="M2030 1280 c0 -5 5 -10 10 -10 6 0 10 5 10 10 0 6 -4 10 -10 10 -5 0
-10 -4 -10 -10z"/>
<path d="M2060 1280 c0 -5 5 -10 11 -10 5 0 7 5 4 10 -3 6 -8 10 -11 10 -2 0
-4 -4 -4 -10z"/>
<path d="M2090 1280 c0 -5 5 -10 11 -10 5 0 7 5 4 10 -3 6 -8 10 -11 10 -2 0
-4 -4 -4 -10z"/>
<path d="M2120 1280 c0 -5 5 -10 11 -10 5 0 7 5 4 10 -3 6 -8 10 -11 10 -2 0
-4 -4 -4 -10z"/>
<path d="M2230 1280 c0 -5 5 -10 10 -10 6 0 10 5 10 10 0 6 -4 10 -10 10 -5 0
-10 -4 -10 -10z"/>
<path d="M2260 1280 c0 -5 5 -10 10 -10 6 0 10 5 10 10 0 6 -4 10 -10 10 -5 0
-10 -4 -10 -10z"/>
<path d="M2290 1280 c0 -5 5 -10 10 -10 6 0 10 5 10 10 0 6 -4 10 -10 10 -5 0
-10 -4 -10 -10z"/>
<path d="M2320 1280 c0 -5 5 -10 10 -10 6 0 10 5 10 10 0 6 -4 10 -10 10 -5 0
-10 -4 -10 -10z"/>
<path d="M2350 1280 c0 -5 5 -10 10 -10 6 0 10 5 10 10 0 6 -4 10 -10 10 -5 0
-10 -4 -10 -10z"/>
<path d="M2380 1280 c0 -5 5 -10 10 -10 6 0 10 5 10 10 0 6 -4 10 -10 10 -5 0
-10 -4 -10 -10z"/>
<path d="M2410 1275 c0 -8 5 -15 10 -15 6 0 10 7 10 15 0 8 -4 15 -10 15 -5 0
-10 -7 -10 -15z"/>
<path d="M2440 1280 c0 -5 5 -10 11 -10 5 0 7 5 4 10 -3 6 -8 10 -11 10 -2 0
-4 -4 -4 -10z"/>
<path d="M2470 1280 c0 -5 5 -10 10 -10 6 0 10 5 10 10 0 6 -4 10 -10 10 -5 0
-10 -4 -10 -10z"/>
<path d="M2500 1274 c0 -8 5 -12 10 -9 6 3 10 10 10 16 0 5 -4 9 -10 9 -5 0
-10 -7 -10 -16z"/>
<path d="M1470 1222 c0 -50 -3 -60 -15 -56 -8 4 -15 1 -15 -5 0 -6 5 -10 11
-8 6 1 14 -4 16 -11 3 -8 -1 -10 -11 -6 -9 3 -16 1 -16 -6 0 -6 4 -9 9 -5 5 3
12 1 16 -5 3 -5 1 -10 -5 -10 -6 0 -8 -5 -4 -12 4 -6 7 -97 7 -202 0 -159 1
-174 7 -86 6 105 6 105 9 30 1 -41 2 -99 1 -127 -1 -33 3 -53 9 -53 8 0 10 44
6 148 -3 81 -7 219 -10 306 -5 155 -15 230 -15 108z"/>
<path d="M2690 1270 c0 -6 7 -10 15 -10 8 0 15 2 15 4 0 2 -7 6 -15 10 -8 3
-15 1 -15 -4z"/>
<path d="M916 1258 c3 -4 9 -8 15 -8 5 0 9 4 9 8 0 5 -7 9 -15 9 -8 0 -12 -4
-9 -9z"/>
<path d="M150 1250 c0 -5 5 -10 10 -10 6 0 10 5 10 10 0 6 -4 10 -10 10 -5 0
-10 -4 -10 -10z"/>
<path d="M180 1250 c0 -5 5 -10 11 -10 5 0 7 5 4 10 -3 6 -8 10 -11 10 -2 0
-4 -4 -4 -10z"/>
<path d="M210 1250 c0 -5 5 -10 11 -10 5 0 7 5 4 10 -3 6 -8 10 -11 10 -2 0
-4 -4 -4 -10z"/>
<path d="M240 1248 c0 -5 11 -8 25 -8 14 0 25 4 25 9 0 5 -11 8 -25 7 -14 0
-25 -4 -25 -8z"/>
<path d="M300 1250 c0 -5 5 -10 11 -10 5 0 7 5 4 10 -3 6 -8 10 -11 10 -2 0
-4 -4 -4 -10z"/>
<path d="M350 1250 c0 -5 5 -10 10 -10 6 0 10 5 10 10 0 6 -4 10 -10 10 -5 0
-10 -4 -10 -10z"/>
<path d="M380 1250 c0 -5 5 -10 10 -10 6 0 10 5 10 10 0 6 -4 10 -10 10 -5 0
-10 -4 -10 -10z"/>
<path d="M410 1250 c0 -5 5 -10 10 -10 6 0 10 5 10 10 0 6 -4 10 -10 10 -5 0
-10 -4 -10 -10z"/>
<path d="M440 1250 c0 -5 5 -10 10 -10 6 0 10 5 10 10 0 6 -4 10 -10 10 -5 0
-10 -4 -10 -10z"/>
<path d="M470 1250 c0 -5 5 -10 10 -10 6 0 10 5 10 10 0 6 -4 10 -10 10 -5 0
-10 -4 -10 -10z"/>
<path d="M535 1250 c-3 -5 -1 -10 4 -10 6 0 11 5 11 10 0 6 -2 10 -4 10 -3 0
-8 -4 -11 -10z"/>
<path d="M560 1250 c0 -5 5 -10 10 -10 6 0 10 5 10 10 0 6 -4 10 -10 10 -5 0
-10 -4 -10 -10z"/>
<path d="M590 1250 c0 -5 5 -10 10 -10 6 0 10 5 10 10 0 6 -4 10 -10 10 -5 0
-10 -4 -10 -10z"/>
<path d="M620 1250 c0 -5 5 -10 10 -10 6 0 10 5 10 10 0 6 -4 10 -10 10 -5 0
-10 -4 -10 -10z"/>
<path d="M650 1249 c0 -5 9 -9 20 -9 11 0 20 4 20 8 0 4 -9 8 -20 9 -11 1 -20
-2 -20 -8z"/>
<path d="M855 1250 c3 -5 8 -10 11 -10 2 0 4 5 4 10 0 6 -5 10 -11 10 -5 0 -7
-4 -4 -10z"/>
<path d="M880 1245 c0 -8 2 -15 4 -15 2 0 6 7 10 15 3 8 1 15 -4 15 -6 0 -10
-7 -10 -15z"/>
<path d="M1125 1250 c-3 -6 1 -7 9 -4 18 7 21 14 7 14 -6 0 -13 -4 -16 -10z"/>
<path d="M1290 1250 c0 -6 7 -10 15 -10 8 0 15 2 15 4 0 2 -7 6 -15 10 -8 3
-15 1 -15 -4z"/>
<path d="M1422 1240 c0 -14 2 -19 5 -12 2 6 2 18 0 25 -3 6 -5 1 -5 -13z"/>
<path d="M1441 1244 c0 -11 3 -14 6 -6 3 7 2 16 -1 19 -3 4 -6 -2 -5 -13z"/>
<path d="M1507 1253 c-10 -9 -8 -43 2 -43 5 0 9 11 9 25 0 27 -1 28 -11 18z"/>
<path d="M1530 1250 c0 -5 5 -10 11 -10 5 0 7 5 4 10 -3 6 -8 10 -11 10 -2 0
-4 -4 -4 -10z"/>
<path d="M1560 1250 c0 -5 5 -10 10 -10 6 0 10 5 10 10 0 6 -4 10 -10 10 -5 0
-10 -4 -10 -10z"/>
<path d="M1590 1250 c0 -5 5 -10 10 -10 6 0 10 5 10 10 0 6 -4 10 -10 10 -5 0
-10 -4 -10 -10z"/>
<path d="M1620 1250 c0 -5 5 -10 11 -10 5 0 7 5 4 10 -3 6 -8 10 -11 10 -2 0
-4 -4 -4 -10z"/>
<path d="M1735 1250 c-3 -5 -1 -10 4 -10 6 0 11 5 11 10 0 6 -2 10 -4 10 -3 0
-8 -4 -11 -10z"/>
<path d="M1765 1250 c-3 -5 -1 -10 4 -10 6 0 11 5 11 10 0 6 -2 10 -4 10 -3 0
-8 -4 -11 -10z"/>
<path d="M1795 1250 c-3 -5 -1 -10 4 -10 6 0 11 5 11 10 0 6 -2 10 -4 10 -3 0
-8 -4 -11 -10z"/>
<path d="M1820 1250 c0 -5 5 -10 10 -10 6 0 10 5 10 10 0 6 -4 10 -10 10 -5 0
-10 -4 -10 -10z"/>
<path d="M1850 1250 c0 -5 5 -10 10 -10 6 0 10 5 10 10 0 6 -4 10 -10 10 -5 0
-10 -4 -10 -10z"/>
<path d="M1880 1250 c0 -5 5 -10 10 -10 6 0 10 5 10 10 0 6 -4 10 -10 10 -5 0
-10 -4 -10 -10z"/>
<path d="M1910 1250 c0 -5 5 -10 10 -10 6 0 10 5 10 10 0 6 -4 10 -10 10 -5 0
-10 -4 -10 -10z"/>
<path d="M1940 1250 c0 -5 5 -10 10 -10 6 0 10 5 10 10 0 6 -4 10 -10 10 -5 0
-10 -4 -10 -10z"/>
<path d="M1970 1250 c0 -5 5 -10 10 -10 6 0 10 5 10 10 0 6 -4 10 -10 10 -5 0
-10 -4 -10 -10z"/>
<path d="M2000 1250 c0 -5 5 -10 10 -10 6 0 10 5 10 10 0 6 -4 10 -10 10 -5 0
-10 -4 -10 -10z"/>
<path d="M2030 1250 c0 -5 5 -10 11 -10 5 0 7 5 4 10 -3 6 -8 10 -11 10 -2 0
-4 -4 -4 -10z"/>
<path d="M2069 1255 c-1 0 -7 -197 -8 -304 0 -68 -3 -122 -6 -120 -2 3 -5 60
-6 127 0 67 -5 122 -9 122 -4 0 -11 -66 -15 -147 -4 -82 -11 -177 -15 -213
l-7 -65 -2 61 c-3 147 -15 304 -23 304 -11 0 -11 -177 1 -182 6 -2 20 -206 21
-316 0 -7 4 -11 8 -8 5 3 9 44 11 93 2 48 6 131 11 183 l7 95 3 -95 c1 -52 6
-124 10 -160 6 -60 7 -56 10 55 6 262 17 272 18 18 1 -139 6 -253 11 -253 5 0
12 95 16 211 4 115 8 209 10 207 5 -6 14 -154 15 -243 1 -60 4 -83 10 -70 5
11 8 99 7 195 0 129 -2 155 -7 100 -5 -61 -7 -47 -8 78 -1 93 -6 152 -12 152
-5 0 -10 -19 -10 -42 -2 -97 -12 -333 -16 -337 -2 -2 -4 81 -5 185 0 104 -2
226 -4 272 l-3 82 54 0 c30 0 54 3 54 8 0 5 -107 12 -121 7z"/>
<path d="M2205 1250 c-3 -5 -1 -10 4 -10 6 0 11 5 11 10 0 6 -2 10 -4 10 -3 0
-8 -4 -11 -10z"/>
<path d="M2230 1250 c0 -5 5 -10 10 -10 6 0 10 5 10 10 0 6 -4 10 -10 10 -5 0
-10 -4 -10 -10z"/>
<path d="M2260 1250 c0 -5 5 -10 10 -10 6 0 10 5 10 10 0 6 -4 10 -10 10 -5 0
-10 -4 -10 -10z"/>
<path d="M2290 1250 c0 -5 5 -10 10 -10 6 0 10 5 10 10 0 6 -4 10 -10 10 -5 0
-10 -4 -10 -10z"/>
<path d="M2320 1250 c0 -5 5 -10 10 -10 6 0 10 5 10 10 0 6 -4 10 -10 10 -5 0
-10 -4 -10 -10z"/>
<path d="M2350 1250 c0 -5 5 -10 10 -10 6 0 10 5 10 10 0 6 -4 10 -10 10 -5 0
-10 -4 -10 -10z"/>
<path d="M2380 1244 c0 -8 5 -12 10 -9 6 3 10 10 10 16 0 5 -4 9 -10 9 -5 0
-10 -7 -10 -16z"/>
<path d="M120 1240 c0 -5 5 -10 10 -10 6 0 10 5 10 10 0 6 -4 10 -10 10 -5 0
-10 -4 -10 -10z"/>
<path d="M801 1228 c-1 -21 3 -25 19 -21 22 6 27 28 8 39 -8 5 -9 2 -5 -9 3
-10 2 -17 -3 -17 -5 0 -11 8 -13 18 -3 11 -5 7 -6 -10z"/>
<path d="M2488 1229 c7 -9 10 -25 6 -35 -5 -18 -5 -18 6 0 10 15 9 21 -6 35
-16 14 -17 14 -6 0z"/>
<path d="M150 1220 c0 -5 5 -10 10 -10 6 0 10 5 10 10 0 6 -4 10 -10 10 -5 0
-10 -4 -10 -10z"/>
<path d="M180 1220 c0 -5 5 -10 10 -10 6 0 10 5 10 10 0 6 -4 10 -10 10 -5 0
-10 -4 -10 -10z"/>
<path d="M210 1214 c0 -8 5 -12 10 -9 6 3 10 10 10 16 0 5 -4 9 -10 9 -5 0
-10 -7 -10 -16z"/>
<path d="M240 1219 c0 -5 5 -7 10 -4 6 3 10 8 10 11 0 2 -4 4 -10 4 -5 0 -10
-5 -10 -11z"/>
<path d="M274 1223 c9 -9 126 -16 126 -7 0 5 -30 10 -66 11 -36 1 -63 -1 -60
-4z"/>
<path d="M410 1220 c0 -5 5 -10 10 -10 6 0 10 5 10 10 0 6 -4 10 -10 10 -5 0
-10 -4 -10 -10z"/>
<path d="M440 1220 c0 -5 5 -10 10 -10 6 0 10 5 10 10 0 6 -4 10 -10 10 -5 0
-10 -4 -10 -10z"/>
<path d="M470 1220 c0 -5 5 -10 10 -10 6 0 10 5 10 10 0 6 -4 10 -10 10 -5 0
-10 -4 -10 -10z"/>
<path d="M530 1220 c0 -5 5 -10 10 -10 6 0 10 5 10 10 0 6 -4 10 -10 10 -5 0
-10 -4 -10 -10z"/>
<path d="M560 1220 c0 -5 5 -10 10 -10 6 0 10 5 10 10 0 6 -4 10 -10 10 -5 0
-10 -4 -10 -10z"/>
<path d="M590 1220 c0 -5 5 -10 10 -10 6 0 10 5 10 10 0 6 -4 10 -10 10 -5 0
-10 -4 -10 -10z"/>
<path d="M620 1220 c0 -5 5 -10 10 -10 6 0 10 5 10 10 0 6 -4 10 -10 10 -5 0
-10 -4 -10 -10z"/>
<path d="M650 1220 c0 -5 5 -10 10 -10 6 0 10 5 10 10 0 6 -4 10 -10 10 -5 0
-10 -4 -10 -10z"/>
<path d="M894 1214 c-4 -10 -9 -22 -11 -26 -2 -5 0 -8 5 -8 10 0 24 41 17 48
-3 3 -8 -4 -11 -14z"/>
<path d="M1290 1220 c0 -5 -8 -7 -17 -4 -14 5 -15 4 -4 -4 11 -8 9 -11 -8 -17
-13 -4 -20 -9 -17 -12 2 -3 18 3 35 13 31 18 40 34 21 34 -5 0 -10 -4 -10 -10z"/>
<path d="M1391 1212 c-13 -25 -14 -32 -2 -32 9 0 23 41 16 48 -2 2 -8 -5 -14
-16z"/>
<path d="M1530 1220 c0 -5 5 -10 10 -10 6 0 10 5 10 10 0 6 -4 10 -10 10 -5 0
-10 -4 -10 -10z"/>
<path d="M1560 1220 c0 -5 5 -10 10 -10 6 0 10 5 10 10 0 6 -4 10 -10 10 -5 0
-10 -4 -10 -10z"/>
<path d="M1590 1220 c0 -5 5 -10 10 -10 6 0 10 5 10 10 0 6 -4 10 -10 10 -5 0
-10 -4 -10 -10z"/>
<path d="M1620 1220 c0 -5 5 -10 11 -10 5 0 7 5 4 10 -3 6 -8 10 -11 10 -2 0
-4 -4 -4 -10z"/>
<path d="M1650 1218 c0 -4 9 -8 20 -8 11 0 20 4 20 8 0 4 -9 8 -20 8 -11 0
-20 -4 -20 -8z"/>
<path d="M1705 1220 c-3 -5 -1 -10 4 -10 6 0 11 5 11 10 0 6 -2 10 -4 10 -3 0
-8 -4 -11 -10z"/>
<path d="M1730 1220 c0 -5 5 -10 10 -10 6 0 10 5 10 10 0 6 -4 10 -10 10 -5 0
-10 -4 -10 -10z"/>
<path d="M1760 1220 c0 -5 5 -10 10 -10 6 0 10 5 10 10 0 6 -4 10 -10 10 -5 0
-10 -4 -10 -10z"/>
<path d="M1790 1220 c0 -5 5 -10 10 -10 6 0 10 5 10 10 0 6 -4 10 -10 10 -5 0
-10 -4 -10 -10z"/>
<path d="M1820 1220 c0 -5 5 -10 10 -10 6 0 10 5 10 10 0 6 -4 10 -10 10 -5 0
-10 -4 -10 -10z"/>
<path d="M1850 1220 c0 -5 5 -10 10 -10 6 0 10 5 10 10 0 6 -4 10 -10 10 -5 0
-10 -4 -10 -10z"/>
<path d="M1880 1220 c0 -5 5 -10 10 -10 6 0 10 5 10 10 0 6 -4 10 -10 10 -5 0
-10 -4 -10 -10z"/>
<path d="M1910 1220 c0 -5 5 -10 10 -10 6 0 10 5 10 10 0 6 -4 10 -10 10 -5 0
-10 -4 -10 -10z"/>
<path d="M1940 1220 c0 -5 5 -10 10 -10 6 0 10 5 10 10 0 6 -4 10 -10 10 -5 0
-10 -4 -10 -10z"/>
<path d="M1970 1220 c0 -5 5 -10 10 -10 6 0 10 5 10 10 0 6 -4 10 -10 10 -5 0
-10 -4 -10 -10z"/>
<path d="M2000 1220 c0 -5 5 -10 10 -10 6 0 10 5 10 10 0 6 -4 10 -10 10 -5 0
-10 -4 -10 -10z"/>
<path d="M2030 1220 c0 -5 5 -10 10 -10 6 0 10 5 10 10 0 6 -4 10 -10 10 -5 0
-10 -4 -10 -10z"/>
<path d="M2110 1220 c-13 -8 -12 -10 3 -10 9 0 17 5 17 10 0 12 -1 12 -20 0z"/>
<path d="M2144 1218 c-3 -4 6 -8 20 -8 14 0 26 4 26 8 0 4 -9 8 -21 8 -11 0
-23 -4 -25 -8z"/>
<path d="M2200 1220 c0 -5 5 -10 10 -10 6 0 10 5 10 10 0 6 -4 10 -10 10 -5 0
-10 -4 -10 -10z"/>
<path d="M2230 1220 c0 -5 5 -10 10 -10 6 0 10 5 10 10 0 6 -4 10 -10 10 -5 0
-10 -4 -10 -10z"/>
<path d="M2260 1220 c0 -5 5 -10 10 -10 6 0 10 5 10 10 0 6 -4 10 -10 10 -5 0
-10 -4 -10 -10z"/>
<path d="M2290 1220 c0 -5 5 -10 10 -10 6 0 10 5 10 10 0 6 -4 10 -10 10 -5 0
-10 -4 -10 -10z"/>
<path d="M2320 1220 c0 -5 5 -10 10 -10 6 0 10 5 10 10 0 6 -4 10 -10 10 -5 0
-10 -4 -10 -10z"/>
<path d="M2350 1220 c0 -5 5 -10 10 -10 6 0 10 5 10 10 0 6 -4 10 -10 10 -5 0
-10 -4 -10 -10z"/>
<path d="M2520 1220 c0 -6 11 -10 25 -10 14 0 25 4 25 8 0 4 -11 9 -25 10 -14
1 -25 -3 -25 -8z"/>
<path d="M1210 1216 c0 -2 7 -7 16 -10 8 -3 12 -2 9 4 -6 10 -25 14 -25 6z"/>
<path d="M2590 1209 c0 -5 5 -7 10 -4 6 3 10 8 10 11 0 2 -4 4 -10 4 -5 0 -10
-5 -10 -11z"/>
<path d="M1416 1201 c-4 -7 -5 -15 -2 -18 9 -9 19 4 14 18 -4 11 -6 11 -12 0z"/>
<path d="M2419 1173 c-2 -24 -1 -43 3 -43 5 0 8 7 8 15 0 8 6 15 13 15 8 0 9
2 1 8 -7 4 -14 16 -16 27 -3 11 -6 2 -9 -22z"/>
<path d="M140 1196 c0 -2 7 -6 15 -10 8 -3 15 -1 15 4 0 6 -7 10 -15 10 -8 0
-15 -2 -15 -4z"/>
<path d="M180 1189 c0 -5 5 -7 10 -4 6 3 10 8 10 11 0 2 -4 4 -10 4 -5 0 -10
-5 -10 -11z"/>
<path d="M370 1195 c0 -3 8 -14 17 -25 19 -22 43 -27 43 -9 0 6 -7 9 -15 5
-10 -4 -15 1 -15 14 0 11 -7 20 -15 20 -8 0 -15 -2 -15 -5z"/>
<path d="M410 1190 c0 -5 5 -10 10 -10 6 0 10 5 10 10 0 6 -4 10 -10 10 -5 0
-10 -4 -10 -10z"/>
<path d="M440 1190 c0 -5 5 -10 10 -10 6 0 10 5 10 10 0 6 -4 10 -10 10 -5 0
-10 -4 -10 -10z"/>
<path d="M470 1190 c0 -5 5 -10 10 -10 6 0 10 5 10 10 0 6 -4 10 -10 10 -5 0
-10 -4 -10 -10z"/>
<path d="M535 1190 c3 -5 8 -10 11 -10 2 0 4 5 4 10 0 6 -5 10 -11 10 -5 0 -7
-4 -4 -10z"/>
<path d="M560 1190 c0 -5 5 -10 10 -10 6 0 10 5 10 10 0 6 -4 10 -10 10 -5 0
-10 -4 -10 -10z"/>
<path d="M590 1190 c0 -5 5 -10 10 -10 6 0 10 5 10 10 0 6 -4 10 -10 10 -5 0
-10 -4 -10 -10z"/>
<path d="M620 1190 c0 -5 5 -10 11 -10 5 0 7 5 4 10 -3 6 -8 10 -11 10 -2 0
-4 -4 -4 -10z"/>
<path d="M650 1190 c0 -5 5 -10 10 -10 6 0 10 5 10 10 0 6 -4 10 -10 10 -5 0
-10 -4 -10 -10z"/>
<path d="M680 1190 c0 -5 5 -10 11 -10 5 0 7 5 4 10 -3 6 -8 10 -11 10 -2 0
-4 -4 -4 -10z"/>
<path d="M820 1190 c0 -5 5 -10 10 -10 6 0 10 5 10 10 0 6 -4 10 -10 10 -5 0
-10 -4 -10 -10z"/>
<path d="M850 1190 c0 -5 5 -10 10 -10 6 0 10 5 10 10 0 6 -4 10 -10 10 -5 0
-10 -4 -10 -10z"/>
<path d="M1025 1191 c-3 -5 -2 -12 3 -15 5 -3 9 1 9 9 0 17 -3 19 -12 6z"/>
<path d="M1440 1189 c0 -5 5 -7 10 -4 6 3 10 8 10 11 0 2 -4 4 -10 4 -5 0 -10
-5 -10 -11z"/>
<path d="M1500 1190 c0 -5 5 -10 10 -10 6 0 10 5 10 10 0 6 -4 10 -10 10 -5 0
-10 -4 -10 -10z"/>
<path d="M1530 1190 c0 -5 5 -10 10 -10 6 0 10 5 10 10 0 6 -4 10 -10 10 -5 0
-10 -4 -10 -10z"/>
<path d="M1560 1190 c0 -5 5 -10 10 -10 6 0 10 5 10 10 0 6 -4 10 -10 10 -5 0
-10 -4 -10 -10z"/>
<path d="M1590 1190 c0 -5 5 -10 10 -10 6 0 10 5 10 10 0 6 -4 10 -10 10 -5 0
-10 -4 -10 -10z"/>
<path d="M1620 1190 c0 -5 5 -10 11 -10 5 0 7 5 4 10 -3 6 -8 10 -11 10 -2 0
-4 -4 -4 -10z"/>
<path d="M1650 1188 c0 -5 16 -8 35 -8 19 0 35 3 35 8 0 4 -16 7 -35 7 -19 0
-35 -3 -35 -7z"/>
<path d="M1735 1190 c-3 -5 -1 -10 4 -10 6 0 11 5 11 10 0 6 -2 10 -4 10 -3 0
-8 -4 -11 -10z"/>
<path d="M1760 1190 c0 -5 5 -10 10 -10 6 0 10 5 10 10 0 6 -4 10 -10 10 -5 0
-10 -4 -10 -10z"/>
<path d="M1790 1190 c0 -5 5 -10 10 -10 6 0 10 5 10 10 0 6 -4 10 -10 10 -5 0
-10 -4 -10 -10z"/>
<path d="M1820 1190 c0 -5 5 -10 10 -10 6 0 10 5 10 10 0 6 -4 10 -10 10 -5 0
-10 -4 -10 -10z"/>
<path d="M1850 1190 c0 -5 5 -10 10 -10 6 0 10 5 10 10 0 6 -4 10 -10 10 -5 0
-10 -4 -10 -10z"/>
<path d="M1880 1190 c0 -5 5 -10 10 -10 6 0 10 5 10 10 0 6 -4 10 -10 10 -5 0
-10 -4 -10 -10z"/>
<path d="M1910 1190 c0 -5 5 -10 10 -10 6 0 10 5 10 10 0 6 -4 10 -10 10 -5 0
-10 -4 -10 -10z"/>
<path d="M1940 1190 c0 -5 5 -10 10 -10 6 0 10 5 10 10 0 6 -4 10 -10 10 -5 0
-10 -4 -10 -10z"/>
<path d="M1970 1190 c0 -5 5 -10 10 -10 6 0 10 5 10 10 0 6 -4 10 -10 10 -5 0
-10 -4 -10 -10z"/>
<path d="M2000 1190 c0 -5 5 -10 10 -10 6 0 10 5 10 10 0 6 -4 10 -10 10 -5 0
-10 -4 -10 -10z"/>
<path d="M2030 1190 c0 -5 5 -10 10 -10 6 0 10 5 10 10 0 6 -4 10 -10 10 -5 0
-10 -4 -10 -10z"/>
<path d="M2154 1000 c4 -113 9 -225 11 -250 2 -25 4 -98 4 -163 1 -65 5 -116
10 -113 5 3 12 80 16 171 4 91 11 165 16 165 5 0 9 61 9 135 0 74 -3 135 -8
135 -4 0 -7 -12 -7 -27 0 -55 -17 -394 -20 -391 -3 3 -16 323 -19 470 -1 31
-6 61 -10 65 -5 4 -6 -84 -2 -197z"/>
<path d="M2175 1190 c-3 -5 -1 -10 4 -10 6 0 11 5 11 10 0 6 -2 10 -4 10 -3 0
-8 -4 -11 -10z"/>
<path d="M2205 1190 c-3 -5 -1 -10 4 -10 6 0 11 5 11 10 0 6 -2 10 -4 10 -3 0
-8 -4 -11 -10z"/>
<path d="M2230 1190 c0 -5 5 -10 10 -10 6 0 10 5 10 10 0 6 -4 10 -10 10 -5 0
-10 -4 -10 -10z"/>
<path d="M2260 1190 c0 -5 5 -10 10 -10 6 0 10 5 10 10 0 6 -4 10 -10 10 -5 0
-10 -4 -10 -10z"/>
<path d="M2290 1190 c0 -5 5 -10 10 -10 6 0 10 5 10 10 0 6 -4 10 -10 10 -5 0
-10 -4 -10 -10z"/>
<path d="M2320 1190 c0 -5 5 -10 10 -10 6 0 10 5 10 10 0 6 -4 10 -10 10 -5 0
-10 -4 -10 -10z"/>
<path d="M2350 1190 c0 -5 5 -10 10 -10 6 0 10 5 10 10 0 6 -4 10 -10 10 -5 0
-10 -4 -10 -10z"/>
<path d="M2380 1190 c0 -5 5 -10 10 -10 6 0 10 5 10 10 0 6 -4 10 -10 10 -5 0
-10 -4 -10 -10z"/>
<path d="M2530 1190 c0 -5 5 -10 10 -10 6 0 10 5 10 10 0 6 -4 10 -10 10 -5 0
-10 -4 -10 -10z"/>
<path d="M440 1160 c0 -5 5 -10 10 -10 6 0 10 5 10 10 0 6 -4 10 -10 10 -5 0
-10 -4 -10 -10z"/>
<path d="M470 1160 c0 -5 5 -10 10 -10 6 0 10 5 10 10 0 6 -4 10 -10 10 -5 0
-10 -4 -10 -10z"/>
<path d="M535 1160 c3 -5 8 -10 11 -10 2 0 4 5 4 10 0 6 -5 10 -11 10 -5 0 -7
-4 -4 -10z"/>
<path d="M560 1160 c0 -5 5 -10 10 -10 6 0 10 5 10 10 0 6 -4 10 -10 10 -5 0
-10 -4 -10 -10z"/>
<path d="M590 1160 c0 -5 5 -10 10 -10 6 0 10 5 10 10 0 6 -4 10 -10 10 -5 0
-10 -4 -10 -10z"/>
<path d="M620 1160 c0 -5 5 -10 10 -10 6 0 10 5 10 10 0 6 -4 10 -10 10 -5 0
-10 -4 -10 -10z"/>
<path d="M650 1160 c0 -5 5 -10 10 -10 6 0 10 5 10 10 0 6 -4 10 -10 10 -5 0
-10 -4 -10 -10z"/>
<path d="M680 1159 c0 -5 19 -9 42 -9 23 0 38 3 34 7 -11 11 -76 13 -76 2z"/>
<path d="M776 1158 c7 -11 34 -10 34 1 0 6 -9 9 -19 8 -11 0 -17 -5 -15 -9z"/>
<path d="M820 1160 c0 -5 5 -10 10 -10 6 0 10 5 10 10 0 6 -4 10 -10 10 -5 0
-10 -4 -10 -10z"/>
<path d="M850 1160 c0 -5 5 -10 10 -10 6 0 10 5 10 10 0 6 -4 10 -10 10 -5 0
-10 -4 -10 -10z"/>
<path d="M880 1160 c0 -5 5 -10 10 -10 6 0 10 5 10 10 0 6 -4 10 -10 10 -5 0
-10 -4 -10 -10z"/>
<path d="M910 1160 c0 -5 5 -10 10 -10 6 0 10 5 10 10 0 6 -4 10 -10 10 -5 0
-10 -4 -10 -10z"/>
<path d="M1388 1162 c10 -7 11 -46 5 -185 -5 -97 -5 -177 -2 -177 11 0 20 112
19 238 0 83 3 121 10 117 5 -3 10 -1 10 4 0 6 -12 11 -27 11 -18 0 -24 -3 -15
-8z"/>
<path d="M1500 1160 c0 -5 5 -10 10 -10 6 0 10 5 10 10 0 6 -4 10 -10 10 -5 0
-10 -4 -10 -10z"/>
<path d="M1530 1160 c0 -5 5 -10 10 -10 6 0 10 5 10 10 0 6 -4 10 -10 10 -5 0
-10 -4 -10 -10z"/>
<path d="M1560 1160 c0 -5 5 -10 10 -10 6 0 10 5 10 10 0 6 -4 10 -10 10 -5 0
-10 -4 -10 -10z"/>
<path d="M1590 1161 c0 -5 11 -8 25 -8 14 0 25 3 25 8 0 5 -11 9 -25 9 -14 0
-25 -4 -25 -9z"/>
<path d="M1650 1160 c0 -5 9 -10 20 -10 11 0 20 5 20 10 0 6 -9 10 -20 10 -11
0 -20 -4 -20 -10z"/>
<path d="M1700 1160 c0 -5 5 -10 10 -10 6 0 10 5 10 10 0 6 -4 10 -10 10 -5 0
-10 -4 -10 -10z"/>
<path d="M1735 1160 c3 -5 8 -10 11 -10 2 0 4 5 4 10 0 6 -5 10 -11 10 -5 0
-7 -4 -4 -10z"/>
<path d="M1760 1160 c0 -5 5 -10 10 -10 6 0 10 5 10 10 0 6 -4 10 -10 10 -5 0
-10 -4 -10 -10z"/>
<path d="M1790 1160 c0 -5 5 -10 10 -10 6 0 10 5 10 10 0 6 -4 10 -10 10 -5 0
-10 -4 -10 -10z"/>
<path d="M1820 1160 c0 -5 5 -10 10 -10 6 0 10 5 10 10 0 6 -4 10 -10 10 -5 0
-10 -4 -10 -10z"/>
<path d="M1850 1160 c0 -5 5 -10 10 -10 6 0 10 5 10 10 0 6 -4 10 -10 10 -5 0
-10 -4 -10 -10z"/>
<path d="M1880 1160 c0 -5 5 -10 10 -10 6 0 10 5 10 10 0 6 -4 10 -10 10 -5 0
-10 -4 -10 -10z"/>
<path d="M1909 1163 c0 -5 -2 -17 -4 -28 -3 -11 -6 -105 -8 -210 -3 -110 -1
-154 2 -105 6 76 7 68 9 -72 1 -98 6 -158 12 -158 6 0 10 17 10 38 0 22 2 81
4 133 3 71 3 82 -4 44 -5 -33 -7 22 -6 158 0 114 -2 207 -6 207 -5 0 -8 -3 -9
-7z"/>
<path d="M1940 1160 c0 -5 5 -10 10 -10 6 0 10 5 10 10 0 6 -4 10 -10 10 -5 0
-10 -4 -10 -10z"/>
<path d="M1970 1160 c0 -5 5 -10 10 -10 6 0 10 5 10 10 0 6 -4 10 -10 10 -5 0
-10 -4 -10 -10z"/>
<path d="M2000 1159 c0 -5 11 -9 25 -9 14 0 25 4 25 9 0 5 -11 9 -25 9 -14 0
-25 -4 -25 -9z"/>
<path d="M2105 1160 c-3 -5 1 -10 9 -10 8 0 18 5 21 10 3 6 -1 10 -9 10 -8 0
-18 -4 -21 -10z"/>
<path d="M2200 1160 c0 -5 5 -10 10 -10 6 0 10 5 10 10 0 6 -4 10 -10 10 -5 0
-10 -4 -10 -10z"/>
<path d="M2230 1160 c0 -5 5 -10 10 -10 6 0 10 5 10 10 0 6 -4 10 -10 10 -5 0
-10 -4 -10 -10z"/>
<path d="M2260 1160 c0 -5 5 -10 10 -10 6 0 10 5 10 10 0 6 -4 10 -10 10 -5 0
-10 -4 -10 -10z"/>
<path d="M2290 1160 c0 -5 5 -10 10 -10 6 0 10 5 10 10 0 6 -4 10 -10 10 -5 0
-10 -4 -10 -10z"/>
<path d="M2320 1160 c0 -5 5 -10 10 -10 6 0 10 5 10 10 0 6 -4 10 -10 10 -5 0
-10 -4 -10 -10z"/>
<path d="M2350 1160 c0 -5 5 -10 10 -10 6 0 10 5 10 10 0 6 -4 10 -10 10 -5 0
-10 -4 -10 -10z"/>
<path d="M2380 1160 c0 -5 5 -10 10 -10 6 0 10 5 10 10 0 6 -4 10 -10 10 -5 0
-10 -4 -10 -10z"/>
<path d="M407 1126 c-4 -10 -1 -13 9 -9 15 6 19 23 5 23 -5 0 -11 -7 -14 -14z"/>
<path d="M440 1130 c0 -5 5 -10 10 -10 6 0 10 5 10 10 0 6 -4 10 -10 10 -5 0
-10 -4 -10 -10z"/>
<path d="M470 1130 c0 -5 5 -10 10 -10 6 0 10 5 10 10 0 6 -4 10 -10 10 -5 0
-10 -4 -10 -10z"/>
<path d="M560 1130 c0 -5 5 -10 10 -10 6 0 10 5 10 10 0 6 -4 10 -10 10 -5 0
-10 -4 -10 -10z"/>
<path d="M590 1130 c0 -5 5 -10 10 -10 6 0 10 5 10 10 0 6 -4 10 -10 10 -5 0
-10 -4 -10 -10z"/>
<path d="M620 1130 c0 -5 5 -10 10 -10 6 0 10 5 10 10 0 6 -4 10 -10 10 -5 0
-10 -4 -10 -10z"/>
<path d="M650 1130 c0 -5 5 -10 10 -10 6 0 10 5 10 10 0 6 -4 10 -10 10 -5 0
-10 -4 -10 -10z"/>
<path d="M680 1130 c0 -5 5 -10 10 -10 6 0 10 5 10 10 0 6 -4 10 -10 10 -5 0
-10 -4 -10 -10z"/>
<path d="M710 1130 c0 -5 5 -10 10 -10 6 0 10 5 10 10 0 6 -4 10 -10 10 -5 0
-10 -4 -10 -10z"/>
<path d="M740 1132 c0 -4 9 -8 20 -8 11 0 20 4 20 8 0 4 -9 8 -20 8 -11 0 -20
-4 -20 -8z"/>
<path d="M790 1131 c0 -5 11 -8 25 -7 33 1 33 16 0 16 -14 0 -25 -4 -25 -9z"/>
<path d="M880 1130 c0 -5 5 -10 10 -10 6 0 10 5 10 10 0 6 -4 10 -10 10 -5 0
-10 -4 -10 -10z"/>
<path d="M1500 1130 c0 -5 5 -10 10 -10 6 0 10 5 10 10 0 6 -4 10 -10 10 -5 0
-10 -4 -10 -10z"/>
<path d="M1530 1130 c0 -5 5 -10 10 -10 6 0 10 5 10 10 0 6 -4 10 -10 10 -5 0
-10 -4 -10 -10z"/>
<path d="M1560 1130 c0 -5 5 -10 10 -10 6 0 10 5 10 10 0 6 -4 10 -10 10 -5 0
-10 -4 -10 -10z"/>
<path d="M1590 1129 c0 -5 5 -7 10 -4 6 3 10 8 10 11 0 2 -4 4 -10 4 -5 0 -10
-5 -10 -11z"/>
<path d="M1620 1126 c0 -7 7 -19 15 -26 8 -7 15 -19 15 -26 0 -8 4 -14 9 -14
5 0 8 8 7 18 0 9 5 16 12 15 6 -2 12 2 12 7 0 6 -6 10 -12 9 -33 -4 -47 2 -42
16 4 8 1 15 -5 15 -6 0 -11 -6 -11 -14z"/>
<path d="M1650 1131 c0 -9 56 -9 65 0 3 3 -11 6 -30 7 -19 1 -35 -3 -35 -7z"/>
<path d="M1730 1130 c0 -5 5 -10 10 -10 6 0 10 5 10 10 0 6 -4 10 -10 10 -5 0
-10 -4 -10 -10z"/>
<path d="M1760 1130 c0 -5 5 -10 10 -10 6 0 10 5 10 10 0 6 -4 10 -10 10 -5 0
-10 -4 -10 -10z"/>
<path d="M1786 1124 c-3 -9 -8 -100 -10 -203 -2 -119 -1 -152 3 -91 l7 95 3
-70 c2 -38 4 -86 6 -105 2 -19 4 -51 5 -70 2 -32 3 -33 9 -10 11 37 12 181 1
150 -6 -16 -8 14 -7 88 1 61 -1 112 -4 112 -10 0 -5 34 6 43 6 4 5 10 -4 16
-11 7 -11 9 0 14 12 4 11 7 -1 16 -10 7 -11 11 -2 11 6 0 12 5 12 10 0 16 -17
12 -24 -6z"/>
<path d="M1820 1130 c0 -5 5 -10 10 -10 6 0 10 5 10 10 0 6 -4 10 -10 10 -5 0
-10 -4 -10 -10z"/>
<path d="M1850 1130 c0 -5 5 -10 10 -10 6 0 10 5 10 10 0 6 -4 10 -10 10 -5 0
-10 -4 -10 -10z"/>
<path d="M1880 1129 c0 -5 5 -7 10 -4 6 3 10 8 10 11 0 2 -4 4 -10 4 -5 0 -10
-5 -10 -11z"/>
<path d="M1940 1130 c0 -5 5 -10 10 -10 6 0 10 5 10 10 0 6 -4 10 -10 10 -5 0
-10 -4 -10 -10z"/>
<path d="M1970 1130 c0 -5 5 -10 10 -10 6 0 10 5 10 10 0 6 -4 10 -10 10 -5 0
-10 -4 -10 -10z"/>
<path d="M2000 1130 c0 -5 5 -10 10 -10 6 0 10 5 10 10 0 6 -4 10 -10 10 -5 0
-10 -4 -10 -10z"/>
<path d="M2030 1129 c0 -5 5 -7 10 -4 6 3 10 8 10 11 0 2 -4 4 -10 4 -5 0 -10
-5 -10 -11z"/>
<path d="M2115 1130 c4 -6 11 -8 16 -5 14 9 11 15 -7 15 -8 0 -12 -5 -9 -10z"/>
<path d="M2200 1130 c0 -5 5 -10 10 -10 6 0 10 5 10 10 0 6 -4 10 -10 10 -5 0
-10 -4 -10 -10z"/>
<path d="M2230 1130 c0 -5 5 -10 10 -10 6 0 10 5 10 10 0 6 -4 10 -10 10 -5 0
-10 -4 -10 -10z"/>
<path d="M2260 1130 c0 -5 5 -10 10 -10 6 0 10 5 10 10 0 6 -4 10 -10 10 -5 0
-10 -4 -10 -10z"/>
<path d="M2290 1130 c0 -5 5 -10 10 -10 6 0 10 5 10 10 0 6 -4 10 -10 10 -5 0
-10 -4 -10 -10z"/>
<path d="M2320 1130 c0 -5 5 -10 10 -10 6 0 10 5 10 10 0 6 -4 10 -10 10 -5 0
-10 -4 -10 -10z"/>
<path d="M2350 1130 c0 -5 5 -10 10 -10 6 0 10 5 10 10 0 6 -4 10 -10 10 -5 0
-10 -4 -10 -10z"/>
<path d="M440 1100 c0 -5 5 -10 10 -10 6 0 10 5 10 10 0 6 -4 10 -10 10 -5 0
-10 -4 -10 -10z"/>
<path d="M470 1100 c0 -5 5 -10 10 -10 6 0 10 5 10 10 0 6 -4 10 -10 10 -5 0
-10 -4 -10 -10z"/>
<path d="M560 1100 c0 -5 5 -10 10 -10 6 0 10 5 10 10 0 6 -4 10 -10 10 -5 0
-10 -4 -10 -10z"/>
<path d="M590 1100 c0 -5 5 -10 10 -10 6 0 10 5 10 10 0 6 -4 10 -10 10 -5 0
-10 -4 -10 -10z"/>
<path d="M620 1100 c0 -5 5 -10 10 -10 6 0 10 5 10 10 0 6 -4 10 -10 10 -5 0
-10 -4 -10 -10z"/>
<path d="M650 1100 c0 -5 5 -10 10 -10 6 0 10 5 10 10 0 6 -4 10 -10 10 -5 0
-10 -4 -10 -10z"/>
<path d="M680 1100 c0 -5 5 -10 10 -10 6 0 10 5 10 10 0 6 -4 10 -10 10 -5 0
-10 -4 -10 -10z"/>
<path d="M710 1097 c0 -4 29 -7 65 -6 36 1 65 5 65 10 0 4 -29 7 -65 6 -36 -1
-65 -6 -65 -10z"/>
<path d="M1290 1100 c0 -5 5 -10 10 -10 6 0 10 5 10 10 0 6 -4 10 -10 10 -5 0
-10 -4 -10 -10z"/>
<path d="M1420 1100 c0 -5 5 -10 11 -10 5 0 7 5 4 10 -3 6 -8 10 -11 10 -2 0
-4 -4 -4 -10z"/>
<path d="M1500 1100 c0 -5 5 -10 10 -10 6 0 10 5 10 10 0 6 -4 10 -10 10 -5 0
-10 -4 -10 -10z"/>
<path d="M1530 1099 c0 -5 5 -7 10 -4 6 3 10 8 10 11 0 2 -4 4 -10 4 -5 0 -10
-5 -10 -11z"/>
<path d="M1700 1100 c0 -5 5 -10 10 -10 6 0 10 5 10 10 0 6 -4 10 -10 10 -5 0
-10 -4 -10 -10z"/>
<path d="M1730 1100 c0 -5 5 -10 10 -10 6 0 10 5 10 10 0 6 -4 10 -10 10 -5 0
-10 -4 -10 -10z"/>
<path d="M1820 1101 c0 -5 11 -8 25 -8 14 0 25 3 25 8 0 5 -11 9 -25 9 -14 0
-25 -4 -25 -9z"/>
<path d="M1940 1100 c0 -5 5 -10 10 -10 6 0 10 5 10 10 0 6 -4 10 -10 10 -5 0
-10 -4 -10 -10z"/>
<path d="M1970 1100 c0 -5 5 -10 10 -10 6 0 10 5 10 10 0 6 -4 10 -10 10 -5 0
-10 -4 -10 -10z"/>
<path d="M2000 1100 c0 -5 5 -10 10 -10 6 0 10 5 10 10 0 6 -4 10 -10 10 -5 0
-10 -4 -10 -10z"/>
<path d="M2030 1100 c0 -5 5 -10 10 -10 6 0 10 5 10 10 0 6 -4 10 -10 10 -5 0
-10 -4 -10 -10z"/>
<path d="M2200 1100 c0 -5 5 -10 10 -10 6 0 10 5 10 10 0 6 -4 10 -10 10 -5 0
-10 -4 -10 -10z"/>
<path d="M2230 1100 c0 -5 5 -10 10 -10 6 0 10 5 10 10 0 6 -4 10 -10 10 -5 0
-10 -4 -10 -10z"/>
<path d="M2260 1100 c0 -5 5 -10 10 -10 6 0 10 5 10 10 0 6 -4 10 -10 10 -5 0
-10 -4 -10 -10z"/>
<path d="M2290 1100 c0 -5 5 -10 10 -10 6 0 10 5 10 10 0 6 -4 10 -10 10 -5 0
-10 -4 -10 -10z"/>
<path d="M2320 1100 c0 -5 5 -10 10 -10 6 0 10 5 10 10 0 6 -4 10 -10 10 -5 0
-10 -4 -10 -10z"/>
<path d="M2350 1099 c0 -5 5 -7 10 -4 6 3 10 8 10 11 0 2 -4 4 -10 4 -5 0 -10
-5 -10 -11z"/>
<path d="M2410 1099 c0 -6 7 -9 15 -6 9 4 18 -5 27 -28 7 -21 16 -31 21 -26 5
5 0 22 -14 40 -22 31 -49 41 -49 20z"/>
<path d="M1590 1075 c0 -7 11 -12 25 -12 14 0 25 3 25 7 0 4 -11 10 -25 12
-16 3 -25 1 -25 -7z"/>
<path d="M440 1070 c0 -5 5 -10 10 -10 6 0 10 5 10 10 0 6 -4 10 -10 10 -5 0
-10 -4 -10 -10z"/>
<path d="M470 1070 c0 -5 5 -10 10 -10 6 0 10 5 10 10 0 6 -4 10 -10 10 -5 0
-10 -4 -10 -10z"/>
<path d="M560 1070 c0 -5 5 -10 10 -10 6 0 10 5 10 10 0 6 -4 10 -10 10 -5 0
-10 -4 -10 -10z"/>
<path d="M590 1070 c0 -5 5 -10 10 -10 6 0 10 5 10 10 0 6 -4 10 -10 10 -5 0
-10 -4 -10 -10z"/>
<path d="M650 1070 c0 -5 5 -10 10 -10 6 0 10 5 10 10 0 6 -4 10 -10 10 -5 0
-10 -4 -10 -10z"/>
<path d="M680 1070 c0 -5 5 -10 10 -10 6 0 10 5 10 10 0 6 -4 10 -10 10 -5 0
-10 -4 -10 -10z"/>
<path d="M710 1072 c0 -5 22 -8 50 -8 27 1 50 4 50 9 0 4 -22 7 -50 7 -27 0
-50 -4 -50 -8z"/>
<path d="M825 1070 c3 -5 8 -10 11 -10 2 0 4 5 4 10 0 6 -5 10 -11 10 -5 0 -7
-4 -4 -10z"/>
<path d="M1265 996 c0 -46 3 -82 8 -79 4 2 8 -31 9 -74 1 -43 3 -91 4 -108 1
-16 3 -57 3 -89 1 -33 4 -57 7 -53 11 11 16 178 6 190 -6 7 -11 67 -11 133 -2
115 -1 122 19 127 11 3 20 13 19 24 -1 16 -2 16 -6 1 -5 -22 -33 -24 -33 -3 0
8 -6 15 -12 15 -10 0 -13 -24 -13 -84z"/>
<path d="M1500 1060 c0 -11 2 -20 4 -20 2 0 6 9 9 20 3 11 1 20 -4 20 -5 0 -9
-9 -9 -20z"/>
<path d="M1680 1072 c0 -5 7 -9 15 -9 8 0 15 4 15 9 0 4 -7 8 -15 8 -8 0 -15
-4 -15 -8z"/>
<path d="M1820 1070 c0 -5 5 -10 10 -10 6 0 10 5 10 10 0 6 -4 10 -10 10 -5 0
-10 -4 -10 -10z"/>
<path d="M1940 1070 c0 -5 5 -10 10 -10 6 0 10 5 10 10 0 6 -4 10 -10 10 -5 0
-10 -4 -10 -10z"/>
<path d="M1970 1070 c0 -5 5 -10 10 -10 6 0 10 5 10 10 0 6 -4 10 -10 10 -5 0
-10 -4 -10 -10z"/>
<path d="M2000 1069 c0 -5 5 -7 10 -4 6 3 10 8 10 11 0 2 -4 4 -10 4 -5 0 -10
-5 -10 -11z"/>
<path d="M2230 1070 c0 -5 5 -10 10 -10 6 0 10 5 10 10 0 6 -4 10 -10 10 -5 0
-10 -4 -10 -10z"/>
<path d="M2260 1070 c0 -5 5 -10 10 -10 6 0 10 5 10 10 0 6 -4 10 -10 10 -5 0
-10 -4 -10 -10z"/>
<path d="M2290 1066 c0 -8 3 -22 6 -31 9 -23 23 0 17 26 -6 22 -23 26 -23 5z"/>
<path d="M2320 1070 c0 -5 5 -10 10 -10 6 0 10 5 10 10 0 6 -4 10 -10 10 -5 0
-10 -4 -10 -10z"/>
<path d="M2394 1068 c-4 -6 -3 -8 4 -4 5 3 13 0 15 -6 3 -8 6 -6 6 5 1 19 -14
23 -25 5z"/>
<path d="M970 1039 c-6 -11 -10 -25 -8 -30 2 -5 8 4 15 21 13 34 9 40 -7 9z"/>
<path d="M440 1040 c0 -5 5 -10 10 -10 6 0 10 5 10 10 0 6 -4 10 -10 10 -5 0
-10 -4 -10 -10z"/>
<path d="M470 1040 c0 -5 5 -10 10 -10 6 0 10 5 10 10 0 6 -4 10 -10 10 -5 0
-10 -4 -10 -10z"/>
<path d="M563 1025 c0 -14 3 -25 8 -25 5 0 9 11 9 25 0 14 -4 25 -9 25 -5 0
-8 -11 -8 -25z"/>
<path d="M590 1039 c0 -5 5 -7 10 -4 6 3 10 8 10 11 0 2 -4 4 -10 4 -5 0 -10
-5 -10 -11z"/>
<path d="M650 1040 c0 -5 5 -10 10 -10 6 0 10 5 10 10 0 6 -4 10 -10 10 -5 0
-10 -4 -10 -10z"/>
<path d="M680 1042 c0 -4 36 -7 80 -7 44 0 80 3 80 8 0 4 -36 7 -80 7 -44 0
-80 -4 -80 -8z"/>
<path d="M1586 1034 c-5 -14 -4 -15 9 -4 17 14 19 20 6 20 -5 0 -12 -7 -15
-16z"/>
<path d="M1620 1039 c0 -5 5 -7 10 -4 6 3 10 8 10 11 0 2 -4 4 -10 4 -5 0 -10
-5 -10 -11z"/>
<path d="M1650 1039 c0 -5 5 -7 10 -4 6 3 10 8 10 11 0 2 -4 4 -10 4 -5 0 -10
-5 -10 -11z"/>
<path d="M1680 1042 c0 -4 9 -8 20 -9 11 -1 18 2 15 8 -7 11 -35 12 -35 1z"/>
<path d="M1740 1040 c0 -5 7 -7 15 -4 8 4 15 8 15 10 0 2 -7 4 -15 4 -8 0 -15
-4 -15 -10z"/>
<path d="M1820 1040 c0 -5 5 -10 10 -10 6 0 10 5 10 10 0 6 -4 10 -10 10 -5 0
-10 -4 -10 -10z"/>
<path d="M1940 1040 c0 -5 5 -10 10 -10 6 0 10 5 10 10 0 6 -4 10 -10 10 -5 0
-10 -4 -10 -10z"/>
<path d="M1970 1040 c0 -5 5 -10 10 -10 6 0 10 5 10 10 0 6 -4 10 -10 10 -5 0
-10 -4 -10 -10z"/>
<path d="M2000 1039 c0 -5 5 -7 10 -4 6 3 10 8 10 11 0 2 -4 4 -10 4 -5 0 -10
-5 -10 -11z"/>
<path d="M2230 1040 c0 -5 5 -10 11 -10 5 0 7 5 4 10 -3 6 -8 10 -11 10 -2 0
-4 -4 -4 -10z"/>
<path d="M2380 1040 c0 -5 5 -10 10 -10 6 0 10 5 10 10 0 6 -4 10 -10 10 -5 0
-10 -4 -10 -10z"/>
<path d="M1307 1023 c-12 -12 -7 -22 8 -17 8 4 15 10 15 15 0 11 -14 12 -23 2z"/>
<path d="M2339 1017 c-15 -11 -15 -15 -2 -32 15 -19 15 -19 8 4 -5 18 -4 22 5
16 8 -5 11 -4 6 3 -3 5 0 13 6 15 7 3 9 6 3 6 -5 0 -17 -5 -26 -12z"/>
<path d="M440 1011 c0 -6 5 -13 10 -16 6 -3 10 1 10 9 0 9 -4 16 -10 16 -5 0
-10 -4 -10 -9z"/>
<path d="M470 1010 c0 -5 5 -10 10 -10 6 0 10 5 10 10 0 6 -4 10 -10 10 -5 0
-10 -4 -10 -10z"/>
<path d="M590 1009 c0 -5 5 -7 10 -4 6 3 10 8 10 11 0 2 -4 4 -10 4 -5 0 -10
-5 -10 -11z"/>
<path d="M650 1015 c0 -7 30 -13 34 -7 3 4 -4 9 -15 9 -10 1 -19 0 -19 -2z"/>
<path d="M735 1010 c3 -5 8 -10 11 -10 2 0 4 5 4 10 0 6 -5 10 -11 10 -5 0 -7
-4 -4 -10z"/>
<path d="M770 1009 c0 -5 5 -7 10 -4 6 3 10 8 10 11 0 2 -4 4 -10 4 -5 0 -10
-5 -10 -11z"/>
<path d="M1507 1013 c-10 -9 -7 -174 3 -198 6 -13 9 20 9 93 1 61 0 112 -2
112 -2 0 -7 -3 -10 -7z"/>
<path d="M1620 1010 c0 -5 5 -10 10 -10 6 0 10 5 10 10 0 6 -4 10 -10 10 -5 0
-10 -4 -10 -10z"/>
<path d="M1650 1009 c0 -5 5 -7 10 -4 6 3 10 8 10 11 0 2 -4 4 -10 4 -5 0 -10
-5 -10 -11z"/>
<path d="M1825 1010 c3 -5 8 -10 11 -10 2 0 4 5 4 10 0 6 -5 10 -11 10 -5 0
-7 -4 -4 -10z"/>
<path d="M1940 1010 c0 -5 5 -10 10 -10 6 0 10 5 10 10 0 6 -4 10 -10 10 -5 0
-10 -4 -10 -10z"/>
<path d="M2000 1009 c0 -5 5 -7 10 -4 6 3 10 8 10 11 0 2 -4 4 -10 4 -5 0 -10
-5 -10 -11z"/>
<path d="M2527 1009 c7 -7 15 -10 18 -7 3 3 -2 9 -12 12 -14 6 -15 5 -6 -5z"/>
<path d="M2698 1003 c7 -3 16 -2 19 1 4 3 -2 6 -13 5 -11 0 -14 -3 -6 -6z"/>
<path d="M1430 914 c0 -61 -3 -84 -10 -74 -7 10 -10 -26 -10 -112 0 -70 3
-129 8 -131 4 -3 7 44 7 104 0 60 4 109 8 109 5 0 8 -39 7 -87 -2 -146 0 -183
9 -183 5 0 11 19 15 42 4 23 12 46 19 50 9 6 9 8 0 8 -8 0 -14 14 -15 33 -1
27 -2 26 -8 -13 -7 -44 -10 7 -14 257 -2 105 -16 102 -16 -3z"/>
<path d="M2430 990 c0 -5 5 -10 10 -10 6 0 10 5 10 10 0 6 -4 10 -10 10 -5 0
-10 -4 -10 -10z"/>
<path d="M2470 985 c-7 -9 -11 -17 -9 -20 3 -2 10 5 17 15 14 24 10 26 -8 5z"/>
<path d="M426 977 c3 -10 9 -15 12 -12 3 3 0 11 -7 18 -10 9 -11 8 -5 -6z"/>
<path d="M470 976 c0 -23 16 -27 17 -5 1 10 -2 19 -8 19 -5 0 -9 -6 -9 -14z"/>
<path d="M560 980 c0 -5 5 -10 10 -10 6 0 10 5 10 10 0 6 -4 10 -10 10 -5 0
-10 -4 -10 -10z"/>
<path d="M655 980 c3 -5 8 -10 11 -10 2 0 4 5 4 10 0 6 -5 10 -11 10 -5 0 -7
-4 -4 -10z"/>
<path d="M735 980 c3 -5 8 -10 11 -10 2 0 4 5 4 10 0 6 -5 10 -11 10 -5 0 -7
-4 -4 -10z"/>
<path d="M1945 893 c4 -54 11 -127 15 -163 7 -64 7 -65 8 -15 3 94 -11 275
-21 275 -7 0 -7 -34 -2 -97z"/>
<path d="M2235 980 c4 -6 11 -8 16 -5 14 9 11 15 -7 15 -8 0 -12 -5 -9 -10z"/>
<path d="M2388 984 c-5 -4 -8 -35 -9 -68 0 -34 -4 -83 -9 -111 l-7 -50 -2 55
c-2 30 -6 75 -10 100 l-7 45 -8 -60 c-14 -122 -22 -127 -30 -17 -8 114 -25
129 -27 24 -1 -96 -16 -137 -19 -52 -3 86 -17 136 -19 65 -1 -27 -6 -68 -12
-90 -12 -46 -19 -214 -9 -220 7 -4 18 109 21 205 l2 45 8 -45 c4 -25 8 -64 8
-88 1 -62 21 -43 22 21 0 29 4 70 8 92 l9 40 1 -36 c4 -132 30 -220 32 -106 0
28 4 70 8 92 6 34 9 23 16 -70 9 -118 22 -115 24 6 1 36 6 70 11 75 6 6 10 42
8 83 -2 40 -6 69 -10 65z"/>
<path d="M2710 980 c0 -5 5 -10 11 -10 5 0 7 5 4 10 -3 6 -8 10 -11 10 -2 0
-4 -4 -4 -10z"/>
<path d="M2587 906 c-4 -43 -7 -111 -7 -150 -1 -114 -17 -56 -25 89 -8 135
-21 148 -26 25 -2 -45 -4 -53 -6 -27 -2 20 -8 35 -14 32 -12 -8 -12 -82 1 -90
6 -3 11 -25 11 -48 1 -38 2 -37 10 18 14 94 16 89 24 -63 4 -78 11 -144 15
-147 5 -3 12 64 16 147 l8 153 11 -95 c9 -85 11 -91 18 -55 4 22 7 65 8 95 1
54 1 54 11 20 5 -19 8 -69 6 -110 -4 -73 -3 -76 19 -78 13 -1 23 2 23 7 0 5
-8 8 -17 7 -15 -1 -17 5 -13 29 5 33 4 74 -6 217 -6 102 -23 126 -25 35 0 -29
-4 -72 -8 -97 l-8 -45 -2 60 c-2 33 -6 80 -10 105 -7 44 -7 43 -14 -34z"/>
<path d="M2781 970 c-2 -3 -5 -38 -8 -79 -3 -52 -2 -71 6 -67 8 5 11 -17 12
-71 2 -108 14 -221 21 -203 4 8 10 63 13 123 7 104 8 107 29 103 13 -2 29 0
37 5 9 6 0 9 -28 9 l-43 0 0 -52 c0 -78 -19 -39 -21 42 -1 67 -14 199 -18 190z"/>
<path d="M2416 893 c-15 -162 -17 -243 -7 -243 7 0 11 36 12 98 1 96 15 91 18
-6 1 -55 21 -46 22 11 1 23 5 56 9 72 6 21 8 5 7 -51 -2 -66 1 -80 12 -76 14
5 12 62 -6 197 -6 42 -8 46 -14 25 -4 -14 -7 -46 -8 -72 -1 -26 -5 -50 -11
-53 -6 -4 -10 23 -10 74 0 99 -16 115 -24 24z"/>
<path d="M2738 873 c-2 -67 -2 -68 -5 -13 -6 82 -23 87 -23 7 0 -42 4 -67 11
-67 7 0 10 -23 7 -65 -4 -76 8 -73 17 5 15 134 17 200 6 200 -7 0 -12 -26 -13
-67z"/>
<path d="M2678 923 c7 -3 16 -2 19 1 4 3 -2 6 -13 5 -11 0 -14 -3 -6 -6z"/>
<path d="M2670 840 c0 -22 5 -40 10 -40 6 0 10 -22 10 -50 0 -30 4 -50 11 -50
11 0 10 10 -7 138 -8 53 -24 55 -24 2z"/>
<path d="M2842 845 c-11 -12 -10 -15 3 -15 8 0 15 7 15 15 0 18 -2 18 -18 0z"/>
<path d="M2767 803 c-6 -11 -10 -129 -4 -123 3 3 8 33 11 68 5 57 3 74 -7 55z"/>
<path d="M112 650 c-7 -11 -8 -20 -3 -20 9 0 24 30 18 36 -1 2 -8 -6 -15 -16z"/>
<path d="M760 660 c0 -5 5 -10 10 -10 6 0 10 5 10 10 0 6 -4 10 -10 10 -5 0
-10 -4 -10 -10z"/>
<path d="M795 660 c-3 -5 -1 -10 4 -10 6 0 11 5 11 10 0 6 -2 10 -4 10 -3 0
-8 -4 -11 -10z"/>
<path d="M940 660 c0 -5 5 -10 10 -10 6 0 10 5 10 10 0 6 -4 10 -10 10 -5 0
-10 -4 -10 -10z"/>
<path d="M2265 660 c3 -5 8 -10 11 -10 2 0 4 5 4 10 0 6 -5 10 -11 10 -5 0 -7
-4 -4 -10z"/>
<path d="M2290 660 c0 -5 5 -10 10 -10 6 0 10 5 10 10 0 6 -4 10 -10 10 -5 0
-10 -4 -10 -10z"/>
<path d="M2320 660 c0 -5 5 -10 10 -10 6 0 10 5 10 10 0 6 -4 10 -10 10 -5 0
-10 -4 -10 -10z"/>
<path d="M2470 660 c0 -5 5 -10 10 -10 6 0 10 5 10 10 0 6 -4 10 -10 10 -5 0
-10 -4 -10 -10z"/>
<path d="M2688 663 c7 -3 16 -2 19 1 4 3 -2 6 -13 5 -11 0 -14 -3 -6 -6z"/>
<path d="M1970 651 c0 -6 -16 -37 -36 -71 -19 -33 -32 -65 -29 -71 9 -13 32 6
51 43 15 30 30 108 20 108 -3 0 -6 -4 -6 -9z"/>
<path d="M2500 639 c0 -11 4 -18 10 -14 5 3 7 12 3 20 -7 21 -13 19 -13 -6z"/>
<path d="M2754 649 c-3 -6 -2 -15 3 -20 5 -5 9 -1 9 11 0 23 -2 24 -12 9z"/>
<path d="M31 647 c2 -1 13 -9 24 -17 19 -14 19 -14 6 3 -7 9 -18 17 -24 17 -6
0 -8 -1 -6 -3z"/>
<path d="M2861 634 c0 -11 3 -14 6 -6 3 7 2 16 -1 19 -3 4 -6 -2 -5 -13z"/>
<path d="M397 630 c6 -8 13 -26 15 -40 3 -23 4 -22 9 7 3 18 3 31 1 28 -3 -3
-12 1 -21 8 -14 10 -14 10 -4 -3z"/>
<path d="M764 633 c10 -10 46 -11 46 -1 0 4 -12 8 -27 8 -14 0 -23 -3 -19 -7z"/>
<path d="M945 630 c3 -5 8 -10 11 -10 2 0 4 5 4 10 0 6 -5 10 -11 10 -5 0 -7
-4 -4 -10z"/>
<path d="M1595 630 c3 -5 8 -10 11 -10 2 0 4 5 4 10 0 6 -5 10 -11 10 -5 0 -7
-4 -4 -10z"/>
<path d="M2436 628 c3 -5 10 -6 15 -3 13 9 11 12 -6 12 -8 0 -12 -4 -9 -9z"/>
<path d="M2470 630 c0 -5 5 -10 10 -10 6 0 10 5 10 10 0 6 -4 10 -10 10 -5 0
-10 -4 -10 -10z"/>
<path d="M2400 622 c0 -7 -9 -12 -20 -12 -13 0 -18 -5 -14 -15 5 -12 9 -11 27
5 11 11 17 23 14 27 -4 3 -7 1 -7 -5z"/>
<path d="M2732 605 c0 -16 2 -22 5 -12 2 9 2 23 0 30 -3 6 -5 -1 -5 -18z"/>
<path d="M441 604 c0 -11 3 -14 6 -6 3 7 2 16 -1 19 -3 4 -6 -2 -5 -13z"/>
<path d="M760 599 c11 -8 12 -12 3 -16 -7 -2 -13 -9 -13 -14 0 -6 5 -7 12 -3
8 5 9 2 5 -9 -4 -11 -1 -17 7 -17 8 0 11 10 8 32 -4 26 -2 30 12 25 9 -4 16
-2 16 3 0 6 -15 10 -32 10 -26 0 -30 -3 -18 -11z"/>
<path d="M825 600 c3 -5 8 -10 11 -10 2 0 4 5 4 10 0 6 -5 10 -11 10 -5 0 -7
-4 -4 -10z"/>
<path d="M850 599 c0 -5 5 -7 10 -4 6 3 10 8 10 11 0 2 -4 4 -10 4 -5 0 -10
-5 -10 -11z"/>
<path d="M956 598 c7 -11 34 -10 34 1 0 6 -9 9 -19 8 -11 0 -17 -5 -15 -9z"/>
<path d="M1121 594 c0 -11 3 -14 6 -6 3 7 2 16 -1 19 -3 4 -6 -2 -5 -13z"/>
<path d="M1500 600 c0 -5 5 -10 10 -10 6 0 10 5 10 10 0 6 -4 10 -10 10 -5 0
-10 -4 -10 -10z"/>
<path d="M1530 600 c0 -5 5 -10 10 -10 6 0 10 5 10 10 0 6 -4 10 -10 10 -5 0
-10 -4 -10 -10z"/>
<path d="M1560 599 c0 -5 5 -7 10 -4 6 3 10 8 10 11 0 2 -4 4 -10 4 -5 0 -10
-5 -10 -11z"/>
<path d="M2480 600 c-18 -12 -2 -12 25 0 13 6 15 9 5 9 -8 0 -22 -4 -30 -9z"/>
<path d="M2415 581 c-9 -8 -5 -131 4 -131 5 0 7 27 5 60 -2 56 -1 60 17 55 13
-4 19 -2 19 9 0 13 -34 19 -45 7z"/>
<path d="M2508 583 c-10 -16 -9 -133 0 -133 5 0 8 25 7 55 -2 30 1 58 6 61 5
3 9 -15 9 -40 0 -27 5 -46 11 -46 6 0 9 7 5 15 -3 8 -1 15 4 15 6 0 5 12 -2
28 -15 34 -34 56 -40 45z"/>
<path d="M665 570 c-8 -13 3 -30 18 -30 8 0 7 3 -2 9 -7 5 -10 14 -7 20 4 6 5
11 2 11 -3 0 -8 -4 -11 -10z"/>
<path d="M795 570 c3 -5 8 -10 11 -10 2 0 4 5 4 10 0 6 -5 10 -11 10 -5 0 -7
-4 -4 -10z"/>
<path d="M825 570 c3 -5 8 -10 11 -10 2 0 4 5 4 10 0 6 -5 10 -11 10 -5 0 -7
-4 -4 -10z"/>
<path d="M1000 569 c0 -5 5 -7 10 -4 6 3 10 8 10 11 0 2 -4 4 -10 4 -5 0 -10
-5 -10 -11z"/>
<path d="M1534 565 c3 -10 -1 -15 -14 -16 -33 -2 -38 -4 -47 -13 -4 -5 9 -6
32 -1 22 4 45 8 51 9 6 1 22 9 35 18 l24 15 -27 0 c-16 0 -28 -3 -28 -8 0 -5
-5 -9 -11 -9 -5 0 -7 5 -4 10 3 6 1 10 -5 10 -7 0 -10 -7 -6 -15z"/>
<path d="M2390 566 c0 -7 -9 -16 -20 -19 -20 -5 -29 -37 -10 -37 6 0 10 7 10
15 0 8 7 15 15 15 8 0 15 9 15 20 0 11 -2 20 -5 20 -3 0 -5 -6 -5 -14z"/>
<path d="M2871 564 c0 -11 3 -14 6 -6 3 7 2 16 -1 19 -3 4 -6 -2 -5 -13z"/>
<path d="M2480 560 c0 -5 -9 -10 -20 -10 -13 0 -20 -7 -20 -20 0 -11 4 -20 10
-20 5 0 7 7 4 15 -4 8 -1 15 5 15 6 0 11 -19 11 -45 0 -67 15 -54 17 15 1 33
0 60 -2 60 -3 0 -5 -4 -5 -10z"/>
<path d="M710 551 c0 -6 4 -13 10 -16 6 -3 7 1 4 9 -7 18 -14 21 -14 7z"/>
<path d="M797 537 c-3 -8 -1 -20 4 -28 6 -10 9 -7 9 14 0 29 -5 35 -13 14z"/>
<path d="M824 530 c0 -11 4 -20 8 -20 4 0 8 9 8 20 0 11 -4 20 -8 20 -4 0 -8
-9 -8 -20z"/>
<path d="M2838 543 c7 -3 16 -2 19 1 4 3 -2 6 -13 5 -11 0 -14 -3 -6 -6z"/>
<path d="M919 528 c-7 -25 -7 -48 1 -48 6 0 10 11 10 25 0 20 -7 35 -11 23z"/>
<path d="M1440 515 c0 -8 5 -15 10 -15 6 0 10 7 10 15 0 8 -4 15 -10 15 -5 0
-10 -7 -10 -15z"/>
<path d="M2384 505 c1 -33 16 -33 16 0 0 14 -4 25 -9 25 -5 0 -8 -11 -7 -25z"/>
<path d="M2018 498 c-19 -19 -13 -24 11 -9 7 5 12 13 10 18 -2 5 -12 1 -21 -9z"/>
<path d="M2605 510 c3 -5 11 -10 16 -10 6 0 7 5 4 10 -3 6 -11 10 -16 10 -6 0
-7 -4 -4 -10z"/>
<path d="M590 500 c0 -5 5 -10 10 -10 6 0 10 5 10 10 0 6 -4 10 -10 10 -5 0
-10 -4 -10 -10z"/>
<path d="M1813 504 c4 -7 0 -17 -8 -24 -20 -17 -19 -30 3 -30 14 0 15 2 2 10
-13 9 -8 14 12 11 9 -1 4 27 -7 36 -4 4 -5 3 -2 -3z"/>
<path d="M1867 482 c-15 -16 -24 -32 -20 -36 5 -4 3 -6 -3 -4 -18 5 -76 -41
-68 -54 4 -7 3 -8 -4 -4 -7 4 -29 -2 -50 -13 -70 -39 -128 -59 -190 -66 -43
-5 -62 -11 -62 -21 0 -19 45 -18 117 3 32 9 73 16 91 16 18 0 28 4 21 7 -6 4
13 21 46 39 68 39 147 109 138 124 -3 5 -1 7 5 3 14 -8 27 13 15 25 -6 6 -20
-2 -36 -19z"/>
<path d="M422 480 c0 -14 2 -19 5 -12 2 6 2 18 0 25 -3 6 -5 1 -5 -13z"/>
<path d="M815 490 c-3 -5 1 -10 9 -10 9 0 16 5 16 10 0 6 -4 10 -9 10 -6 0
-13 -4 -16 -10z"/>
<path d="M855 490 c-3 -5 -1 -10 4 -10 6 0 11 5 11 10 0 6 -2 10 -4 10 -3 0
-8 -4 -11 -10z"/>
<path d="M2132 480 c0 -14 2 -19 5 -12 2 6 2 18 0 25 -3 6 -5 1 -5 -13z"/>
<path d="M2215 490 c3 -5 8 -10 11 -10 2 0 4 5 4 10 0 6 -5 10 -11 10 -5 0 -7
-4 -4 -10z"/>
<path d="M2271 484 c0 -11 3 -14 6 -6 3 7 2 16 -1 19 -3 4 -6 -2 -5 -13z"/>
<path d="M2290 475 c0 -33 15 -33 16 0 1 14 -2 25 -7 25 -5 0 -9 -11 -9 -25z"/>
<path d="M2320 490 c0 -5 5 -10 10 -10 6 0 10 5 10 10 0 6 -4 10 -10 10 -5 0
-10 -4 -10 -10z"/>
<path d="M2350 490 c0 -5 5 -10 10 -10 6 0 10 5 10 10 0 6 -4 10 -10 10 -5 0
-10 -4 -10 -10z"/>
<path d="M2440 490 c0 -5 5 -10 11 -10 5 0 7 5 4 10 -3 6 -8 10 -11 10 -2 0
-4 -4 -4 -10z"/>
<path d="M2560 490 c0 -5 7 -10 16 -10 8 0 12 5 9 10 -3 6 -10 10 -16 10 -5 0
-9 -4 -9 -10z"/>
<path d="M1956 475 c4 -8 10 -15 15 -15 4 0 6 7 3 15 -4 8 -10 15 -15 15 -4 0
-6 -7 -3 -15z"/>
<path d="M820 460 c0 -5 5 -10 10 -10 6 0 10 5 10 10 0 6 -4 10 -10 10 -5 0
-10 -4 -10 -10z"/>
<path d="M850 460 c0 -5 5 -10 10 -10 6 0 10 5 10 10 0 6 -4 10 -10 10 -5 0
-10 -4 -10 -10z"/>
<path d="M885 460 c-3 -5 -1 -10 4 -10 6 0 11 5 11 10 0 6 -2 10 -4 10 -3 0
-8 -4 -11 -10z"/>
<path d="M910 460 c0 -5 5 -10 10 -10 6 0 10 5 10 10 0 6 -4 10 -10 10 -5 0
-10 -4 -10 -10z"/>
<path d="M945 460 c-3 -5 -1 -10 4 -10 6 0 11 5 11 10 0 6 -2 10 -4 10 -3 0
-8 -4 -11 -10z"/>
<path d="M973 445 c0 -14 3 -28 8 -31 5 -3 9 6 9 20 0 14 -4 27 -9 30 -5 3 -8
-6 -8 -19z"/>
<path d="M1398 463 c6 -2 18 -2 25 0 6 3 1 5 -13 5 -14 0 -19 -2 -12 -5z"/>
<path d="M2238 449 c9 -10 17 -19 17 -19 0 0 1 8 1 18 0 10 -8 19 -17 19 -16
2 -17 0 -1 -18z"/>
<path d="M2320 460 c0 -5 5 -10 10 -10 6 0 10 5 10 10 0 6 -4 10 -10 10 -5 0
-10 -4 -10 -10z"/>
<path d="M2350 460 c0 -5 5 -10 10 -10 6 0 10 5 10 10 0 6 -4 10 -10 10 -5 0
-10 -4 -10 -10z"/>
<path d="M2380 460 c0 -5 5 -10 10 -10 6 0 10 5 10 10 0 6 -4 10 -10 10 -5 0
-10 -4 -10 -10z"/>
<path d="M2440 460 c0 -5 5 -10 10 -10 6 0 10 5 10 10 0 6 -4 10 -10 10 -5 0
-10 -4 -10 -10z"/>
<path d="M2530 459 c0 -4 14 -6 30 -5 19 1 30 -3 30 -11 0 -7 -6 -10 -14 -7
-8 3 -17 1 -21 -5 -4 -7 3 -11 18 -11 18 0 26 6 29 25 5 23 3 25 -33 23 -22
-1 -39 -5 -39 -9z"/>
<path d="M1745 440 c-3 -5 -1 -10 4 -10 6 0 11 5 11 10 0 6 -2 10 -4 10 -3 0
-8 -4 -11 -10z"/>
<path d="M1900 441 c0 -6 5 -13 10 -16 6 -3 10 1 10 9 0 9 -4 16 -10 16 -5 0
-10 -4 -10 -9z"/>
<path d="M815 430 c3 -5 10 -10 16 -10 5 0 9 5 9 10 0 6 -7 10 -16 10 -8 0
-12 -4 -9 -10z"/>
<path d="M850 430 c0 -5 5 -10 10 -10 6 0 10 5 10 10 0 6 -4 10 -10 10 -5 0
-10 -4 -10 -10z"/>
<path d="M880 430 c0 -5 5 -10 10 -10 6 0 10 5 10 10 0 6 -4 10 -10 10 -5 0
-10 -4 -10 -10z"/>
<path d="M910 430 c0 -5 5 -10 10 -10 6 0 10 5 10 10 0 6 -4 10 -10 10 -5 0
-10 -4 -10 -10z"/>
<path d="M940 430 c0 -5 5 -10 10 -10 6 0 10 5 10 10 0 6 -4 10 -10 10 -5 0
-10 -4 -10 -10z"/>
<path d="M2090 430 c-8 -5 -10 -10 -5 -10 6 0 17 5 25 10 8 5 11 10 5 10 -5 0
-17 -5 -25 -10z"/>
<path d="M2302 420 c0 -14 2 -19 5 -12 2 6 2 18 0 25 -3 6 -5 1 -5 -13z"/>
<path d="M2320 430 c0 -5 5 -10 10 -10 6 0 10 5 10 10 0 6 -4 10 -10 10 -5 0
-10 -4 -10 -10z"/>
<path d="M2350 430 c0 -5 5 -10 10 -10 6 0 10 5 10 10 0 6 -4 10 -10 10 -5 0
-10 -4 -10 -10z"/>
<path d="M2380 430 c0 -5 5 -10 10 -10 6 0 10 5 10 10 0 6 -4 10 -10 10 -5 0
-10 -4 -10 -10z"/>
<path d="M2410 430 c0 -5 5 -10 10 -10 6 0 10 5 10 10 0 6 -4 10 -10 10 -5 0
-10 -4 -10 -10z"/>
<path d="M2440 430 c0 -5 5 -10 10 -10 6 0 10 5 10 10 0 6 -4 10 -10 10 -5 0
-10 -4 -10 -10z"/>
<path d="M2470 430 c0 -5 5 -10 10 -10 6 0 10 5 10 10 0 6 -4 10 -10 10 -5 0
-10 -4 -10 -10z"/>
<path d="M2500 430 c0 -5 5 -10 11 -10 5 0 7 5 4 10 -3 6 -8 10 -11 10 -2 0
-4 -4 -4 -10z"/>
<path d="M1710 410 c0 -5 5 -10 11 -10 5 0 7 5 4 10 -3 6 -8 10 -11 10 -2 0
-4 -4 -4 -10z"/>
<path d="M810 400 c19 -13 30 -13 30 0 0 6 -10 10 -22 10 -19 0 -20 -2 -8 -10z"/>
<path d="M850 400 c0 -5 5 -10 10 -10 6 0 10 5 10 10 0 6 -4 10 -10 10 -5 0
-10 -4 -10 -10z"/>
<path d="M880 400 c0 -5 5 -10 10 -10 6 0 10 5 10 10 0 6 -4 10 -10 10 -5 0
-10 -4 -10 -10z"/>
<path d="M910 400 c0 -5 5 -10 10 -10 6 0 10 5 10 10 0 6 -4 10 -10 10 -5 0
-10 -4 -10 -10z"/>
<path d="M940 400 c0 -5 5 -10 10 -10 6 0 10 5 10 10 0 6 -4 10 -10 10 -5 0
-10 -4 -10 -10z"/>
<path d="M1025 400 c3 -6 1 -10 -6 -10 -7 0 -10 -3 -6 -6 3 -3 13 -2 22 4 16
8 16 9 1 15 -10 4 -15 3 -11 -3z"/>
<path d="M2108 403 c7 -3 16 -2 19 1 4 3 -2 6 -13 5 -11 0 -14 -3 -6 -6z"/>
<path d="M2320 400 c0 -12 8 -12 35 0 18 8 17 9 -7 9 -16 1 -28 -3 -28 -9z"/>
<path d="M2470 400 c0 -5 5 -10 10 -10 6 0 10 5 10 10 0 6 -4 10 -10 10 -5 0
-10 -4 -10 -10z"/>
<path d="M2500 400 c0 -5 5 -10 10 -10 6 0 10 5 10 10 0 6 -4 10 -10 10 -5 0
-10 -4 -10 -10z"/>
<path d="M2530 401 c0 -4 14 -8 31 -9 17 -1 28 2 25 7 -6 10 -56 12 -56 2z"/>
<path d="M1858 383 c7 -3 16 -2 19 1 4 3 -2 6 -13 5 -11 0 -14 -3 -6 -6z"/>
<path d="M1905 380 c-3 -5 -1 -10 4 -10 6 0 11 5 11 10 0 6 -2 10 -4 10 -3 0
-8 -4 -11 -10z"/>
<path d="M795 371 c-2 -5 7 -8 20 -8 14 0 25 2 25 6 0 10 -39 11 -45 2z"/>
<path d="M850 370 c0 -5 5 -10 10 -10 6 0 10 5 10 10 0 6 -4 10 -10 10 -5 0
-10 -4 -10 -10z"/>
<path d="M880 370 c0 -5 5 -10 10 -10 6 0 10 5 10 10 0 6 -4 10 -10 10 -5 0
-10 -4 -10 -10z"/>
<path d="M910 370 c0 -5 5 -10 10 -10 6 0 10 5 10 10 0 6 -4 10 -10 10 -5 0
-10 -4 -10 -10z"/>
<path d="M2495 370 c-3 -5 1 -10 10 -10 9 0 13 5 10 10 -3 6 -8 10 -10 10 -2
0 -7 -4 -10 -10z"/>
<path d="M2530 369 c0 -5 7 -9 15 -9 8 0 18 0 22 -1 4 0 9 4 11 9 1 5 -9 10
-23 10 -14 0 -25 -4 -25 -9z"/>
<path d="M2720 369 c0 -6 -7 -9 -15 -5 -21 8 -19 -1 3 -13 14 -8 18 -6 19 10
1 10 0 19 -3 19 -2 0 -4 -5 -4 -11z"/>
<path d="M2755 370 c-3 -5 1 -10 10 -10 9 0 13 5 10 10 -3 6 -8 10 -10 10 -2
0 -7 -4 -10 -10z"/>
<path d="M1040 349 c0 -5 5 -7 10 -4 6 3 10 8 10 11 0 2 -4 4 -10 4 -5 0 -10
-5 -10 -11z"/>
<path d="M1784 345 c-10 -8 -14 -15 -8 -15 6 0 17 7 24 15 16 19 9 19 -16 0z"/>
<path d="M797 343 c-4 -3 -7 -21 -7 -38 0 -31 2 -32 35 -31 46 3 58 16 13 16
-33 0 -35 2 -32 30 4 31 2 35 -9 23z"/>
<path d="M820 340 c0 -5 5 -10 10 -10 6 0 10 5 10 10 0 6 -4 10 -10 10 -5 0
-10 -4 -10 -10z"/>
<path d="M850 340 c0 -5 5 -10 10 -10 6 0 10 5 10 10 0 6 -4 10 -10 10 -5 0
-10 -4 -10 -10z"/>
<path d="M880 340 c0 -5 5 -10 10 -10 6 0 10 5 10 10 0 6 -4 10 -10 10 -5 0
-10 -4 -10 -10z"/>
<path d="M911 334 c0 -11 3 -14 6 -6 3 7 2 16 -1 19 -3 4 -6 -2 -5 -13z"/>
<path d="M2487 333 c3 -7 6 -13 8 -13 2 0 5 6 8 13 3 8 -1 14 -8 14 -7 0 -11
-6 -8 -14z"/>
<path d="M2760 340 c0 -5 5 -10 10 -10 6 0 10 5 10 10 0 6 -4 10 -10 10 -5 0
-10 -4 -10 -10z"/>
<path d="M1799 323 c-13 -15 -12 -15 9 -4 23 12 28 21 13 21 -5 0 -15 -7 -22
-17z"/>
<path d="M2532 331 c4 -13 18 -16 19 -4 0 4 -5 9 -11 12 -7 2 -11 -2 -8 -8z"/>
<path d="M2665 330 c-3 -5 -1 -10 4 -10 6 0 11 5 11 10 0 6 -2 10 -4 10 -3 0
-8 -4 -11 -10z"/>
<path d="M2734 327 c-8 -21 2 -35 16 -21 5 5 6 15 0 24 -8 12 -10 12 -16 -3z"/>
<path d="M825 310 c3 -5 8 -10 11 -10 2 0 4 5 4 10 0 6 -5 10 -11 10 -5 0 -7
-4 -4 -10z"/>
<path d="M850 310 c0 -5 7 -10 16 -10 8 0 12 5 9 10 -3 6 -10 10 -16 10 -5 0
-9 -4 -9 -10z"/>
<path d="M1825 310 c-3 -5 -1 -10 4 -10 6 0 11 5 11 10 0 6 -2 10 -4 10 -3 0
-8 -4 -11 -10z"/>
<path d="M2705 310 c-3 -5 -3 -10 2 -10 4 0 1 -5 -7 -10 -13 -8 -12 -10 3 -10
10 0 17 8 17 20 0 22 -5 26 -15 10z"/>
<path d="M2775 310 c-3 -6 1 -7 9 -4 18 7 21 14 7 14 -6 0 -13 -4 -16 -10z"/>
<path d="M1058 303 c7 -3 16 -2 19 1 4 3 -2 6 -13 5 -11 0 -14 -3 -6 -6z"/>
<path d="M755 270 c-3 -5 -1 -10 4 -10 6 0 11 5 11 10 0 6 -2 10 -4 10 -3 0
-8 -4 -11 -10z"/>
<path d="M1570 260 c-23 -6 -22 -7 14 -14 21 -4 41 -5 44 -2 3 3 -2 6 -10 6
-9 0 -18 4 -20 8 -1 5 -14 5 -28 2z"/>
<path d="M790 250 c0 -6 8 -10 18 -8 11 2 16 -3 14 -14 -2 -12 2 -16 11 -12
24 9 8 44 -19 44 -13 0 -24 -5 -24 -10z"/>
<path d="M1513 250 c2 -8 12 -16 23 -17 13 -2 15 -1 4 4 -8 3 -19 11 -23 17
-6 7 -7 6 -4 -4z"/>
<path d="M746 241 c-19 -7 -19 -8 2 -13 15 -4 22 -2 22 8 0 8 -1 14 -2 13 -2
0 -12 -4 -22 -8z"/>
<path d="M1248 243 c6 -2 18 -2 25 0 6 3 1 5 -13 5 -14 0 -19 -2 -12 -5z"/>
<path d="M2685 230 c3 -5 12 -7 20 -3 21 7 19 13 -6 13 -11 0 -18 -4 -14 -10z"/>
<path d="M790 218 c0 -22 17 -41 24 -29 4 6 3 11 -3 11 -6 0 -8 7 -5 15 4 8 1
15 -5 15 -6 0 -11 -6 -11 -12z"/>
<path d="M1578 223 c7 -3 16 -2 19 1 4 3 -2 6 -13 5 -11 0 -14 -3 -6 -6z"/>
<path d="M1483 189 c-12 -20 -24 -29 -35 -25 -10 2 -18 0 -18 -5 0 -5 11 -9
25 -9 16 0 25 6 25 15 0 8 5 15 10 15 6 0 10 6 10 14 0 8 6 17 13 19 9 4 9 6
0 6 -6 1 -20 -13 -30 -30z"/>
<path d="M820 170 c0 -5 5 -10 10 -10 6 0 10 5 10 10 0 6 -4 10 -10 10 -5 0
-10 -4 -10 -10z"/>
<path d="M1291 154 c0 -11 3 -14 6 -6 3 7 2 16 -1 19 -3 4 -6 -2 -5 -13z"/>
<path d="M1568 143 c6 -2 18 -2 25 0 6 3 1 5 -13 5 -14 0 -19 -2 -12 -5z"/>
</g>
</svg>
