 <svg  version="1.0" xmlns="http://www.w3.org/2000/svg"  width="762.000000pt" height="594.000000pt" viewBox="0 0 762.000000 594.000000"  preserveAspectRatio="xMidYMid meet">  <g transform="translate(0.000000,594.000000) scale(0.100000,-0.100000)" fill="#9b51f5" stroke="none"> <path d="M4889 4801 c-4 -112 -7 -133 -25 -158 -11 -15 -24 -49 -27 -75 -6 -46 -6 -48 18 -48 33 0 32 -18 -1 -30 -16 -7 -24 -16 -21 -25 3 -7 2 -27 -2 -43 -10 -33 2 -62 27 -63 12 0 11 -3 -5 -9 -28 -12 -30 -40 -3 -47 26 -7 26 -39 -1 -46 -15 -4 -19 -12 -17 -33 2 -22 -2 -29 -20 -33 l-24 -6 0 -175 c0 -96 3 -331 5 -523 3 -231 1 -349 -6 -354 -14 -8 -39 28 -32 46 10 25 6 644 -4 654 -5 5 -12 4 -16 -2 -3 -6 -6 -152 -5 -324 1 -171 2 -423 2 -559 0 -226 4 -275 24 -255 3 3 6 95 5 204 0 185 6 239 26 219 4 -4 8 -113 9 -243 0 -224 -1 -235 -20 -245 -17 -9 -18 -12 -5 -22 9 -6 19 -20 23 -31 8 -20 8 -20 18 2 6 12 19 23 29 26 26 7 24 25 -3 29 -14 2 -22 9 -19 18 2 8 3 48 2 88 -1 59 2 74 15 79 15 5 15 8 2 17 -22 16 -31 188 -11 215 12 18 12 24 -3 45 -13 21 -14 31 -4 60 8 24 9 62 3 118 -4 46 -8 88 -8 93 0 6 11 10 25 10 21 0 25 -4 22 -27 -3 -30 13 -68 28 -68 16 0 23 44 21 130 -1 47 -1 128 -1 180 1 52 0 120 -1 150 -1 30 -2 64 -2 75 2 73 3 440 2 485 -2 76 -1 82 13 78 9 -3 12 -149 14 -579 1 -316 2 -727 3 -914 1 -228 -2 -341 -9 -343 -6 -2 -17 1 -24 8 -11 8 -16 8 -21 -1 -5 -7 -24 -9 -54 -5 -26 3 -62 3 -79 0 -26 -5 -30 -9 -21 -20 6 -8 17 -14 24 -14 25 0 38 -32 40 -97 2 -44 7 -69 15 -71 10 -4 12 6 7 37 -7 56 3 121 19 121 7 0 25 -15 39 -32 l27 -33 -6 33 c-5 29 -3 32 19 32 25 0 25 -1 25 -84 0 -47 4 -87 9 -91 15 -8 21 23 19 102 -2 74 4 95 23 76 6 -6 9 -49 7 -104 l-3 -94 -40 3 c-22 2 -45 8 -51 13 -6 5 -15 4 -21 -2 -16 -16 -87 -19 -126 -7 -18 6 -52 13 -76 17 l-44 6 2 94 c1 52 5 99 7 103 15 24 24 -1 24 -67 0 -60 3 -75 15 -75 12 0 15 14 15 63 1 203 2 1360 1 1505 -1 146 -3 172 -16 172 -12 0 -15 -17 -15 -89 0 -50 -4 -93 -10 -96 -14 -9 -19 29 -18 140 2 204 0 227 -19 223 -17 -3 -18 -43 -15 -688 1 -377 2 -689 3 -695 0 -5 -1 -55 -2 -110 -1 -55 -3 -125 -3 -155 -1 -42 -5 -55 -16 -55 -8 0 -14 6 -12 14 2 11 4 1156 2 1354 0 26 -4 37 -15 37 -12 0 -15 -14 -15 -62 -1 -35 -1 -343 0 -686 0 -669 0 -662 -49 -613 -12 12 -25 21 -31 21 -13 0 -13 77 1 85 5 4 15 -7 22 -24 6 -17 15 -31 19 -31 8 0 9 51 8 704 0 373 -4 435 -26 413 -4 -3 -6 -103 -5 -220 2 -209 -8 -307 -23 -227 -8 40 -3 696 5 704 3 3 2 36 -1 73 -4 38 -6 124 -5 193 3 153 -3 210 -21 210 -15 0 -22 -143 -15 -332 2 -57 -1 -104 -8 -115 -10 -17 -11 -17 -17 5 -13 45 -43 20 -45 -36 l0 -27 -10 25 c-6 14 -7 41 -3 60 4 19 8 65 9 103 2 59 0 67 -17 67 -21 0 -22 -3 -22 -165 -1 -118 -1 -120 -24 -123 -31 -5 -57 -63 -42 -92 5 -10 10 -35 10 -55 0 -48 20 -36 21 13 1 20 4 48 8 62 6 22 8 20 17 -20 5 -25 9 -81 9 -125 l0 -80 -47 -2 c-27 -1 -48 2 -48 7 0 6 -5 10 -11 10 -6 0 -9 -10 -7 -22 2 -18 11 -24 37 -28 41 -6 50 -24 21 -40 -16 -9 -25 -8 -36 1 -21 17 -29 3 -16 -26 7 -14 12 -42 12 -61 0 -33 2 -35 28 -32 25 3 27 6 30 56 3 44 6 53 20 50 10 -2 18 -14 20 -31 2 -19 9 -27 23 -27 10 0 20 -6 20 -12 7 -73 5 -606 -1 -624 -5 -13 -16 -24 -25 -24 -8 0 -15 -8 -15 -19 0 -10 -7 -25 -16 -32 -9 -7 -20 -23 -24 -35 -5 -12 -18 -24 -29 -27 -32 -8 -28 38 4 59 23 15 26 23 23 63 -3 42 -6 46 -30 49 l-27 3 6 98 c5 83 3 99 -11 114 -26 25 -28 95 -4 108 15 8 16 14 7 30 -8 16 -7 26 5 44 13 20 14 32 4 75 -12 55 -41 91 -59 73 -6 -6 -10 -100 -10 -258 l0 -249 26 -20 c26 -21 26 -23 21 -117 -5 -99 -1 -114 24 -114 18 0 27 -39 29 -118 1 -46 -3 -59 -16 -64 -10 -4 -19 -1 -21 6 -2 7 -24 36 -48 64 -66 78 -68 81 -87 119 -17 32 -18 68 -17 488 0 302 4 459 11 473 11 20 -3 89 -22 111 -13 15 -26 -36 -21 -82 2 -23 1 -55 -3 -70 l-8 -27 -7 25 c-5 14 -8 40 -9 58 -1 21 -6 32 -16 32 -12 0 -15 -19 -15 -107 0 -60 -4 -114 -9 -122 -16 -26 -23 46 -17 194 10 266 6 360 -15 360 -11 0 -15 -20 -17 -95 -1 -52 -5 -101 -7 -109 -13 -33 -20 10 -25 135 -8 202 -24 170 -28 -52 -2 -172 -4 -185 -20 -179 -35 13 -37 10 -39 -62 -1 -39 -6 -80 -12 -92 -6 -11 -11 -33 -11 -50 0 -29 -42 -91 -61 -91 -5 0 -9 25 -9 55 0 42 -3 55 -15 55 -8 0 -15 -7 -15 -15 0 -9 -10 -15 -26 -15 l-25 0 19 -25 c17 -22 19 -37 16 -127 -2 -57 -4 -112 -4 -123 0 -11 1 -67 1 -124 0 -57 5 -113 10 -124 8 -15 7 -23 -5 -35 -14 -14 -14 -17 2 -29 16 -12 16 -14 -2 -28 -18 -14 -18 -15 5 -34 38 -32 53 -27 46 14 -3 19 -2 37 2 39 13 9 51 -52 51 -81 0 -16 8 -39 17 -53 10 -15 17 -45 18 -79 0 -47 4 -56 20 -59 11 -2 24 -8 30 -13 5 -5 8 -78 6 -173 -2 -115 1 -166 9 -171 20 -12 24 3 22 83 -3 88 6 162 19 162 5 0 9 -40 9 -90 0 -73 3 -90 15 -90 11 0 15 11 15 38 0 43 18 77 27 52 8 -19 167 -180 178 -180 5 0 34 -19 64 -43 31 -24 91 -61 134 -81 l77 -38 0 -99 c0 -81 3 -99 15 -99 12 0 15 16 15 85 0 97 9 108 63 82 45 -21 158 -47 206 -47 23 0 58 -7 78 -15 19 -8 57 -15 84 -15 l49 0 0 -200 c0 -173 2 -200 15 -200 14 0 16 26 14 198 l-1 197 33 17 c20 11 56 18 87 18 29 0 69 7 89 15 19 8 45 15 57 15 11 0 34 7 50 15 15 8 36 15 46 15 10 0 23 7 30 15 7 8 18 15 26 15 15 0 155 73 199 103 16 12 45 36 64 54 19 18 38 33 43 33 11 0 48 38 48 50 0 5 6 13 14 17 31 17 166 195 166 219 0 13 5 23 11 22 7 -2 15 9 20 25 4 15 21 46 38 69 17 23 31 50 31 60 0 9 10 26 21 37 16 15 20 27 16 48 -6 29 14 109 39 155 10 19 14 68 14 192 0 155 -1 166 -20 176 -13 7 -22 26 -27 53 -3 23 -8 36 -11 29 -2 -6 -8 -12 -13 -12 -14 0 -11 21 5 39 8 9 16 34 18 56 3 35 0 40 -19 43 -18 3 -23 10 -23 32 0 39 -9 60 -28 60 -13 0 -14 -11 -8 -77 4 -43 9 -118 12 -167 2 -49 6 -91 9 -94 3 -3 10 9 16 27 22 61 32 17 37 -152 5 -180 -2 -216 -38 -197 -17 9 -20 7 -21 -12 -5 -118 -19 -212 -43 -272 -14 -38 -29 -72 -31 -75 -22 -21 -26 60 -28 605 -2 516 -4 589 -17 589 -13 0 -15 -75 -12 -629 3 -590 2 -631 -15 -663 -9 -18 -21 -33 -25 -33 -5 0 -8 -6 -8 -13 0 -18 -164 -182 -224 -225 -28 -19 -53 -39 -56 -43 -3 -4 -17 -12 -30 -18 -14 -6 -47 -24 -75 -41 -27 -16 -57 -32 -65 -36 -8 -3 -31 -12 -50 -20 -19 -7 -52 -16 -73 -20 -20 -3 -40 -10 -43 -15 -3 -5 -16 -9 -30 -9 -23 0 -24 2 -24 73 l0 73 38 17 c21 9 47 17 58 18 10 0 51 18 89 39 39 22 82 45 98 51 15 6 27 15 27 20 0 5 7 9 15 9 40 0 295 289 295 334 0 6 7 22 16 34 12 17 14 33 8 60 -4 20 -8 201 -10 402 -2 326 -4 365 -18 368 -14 3 -16 -33 -16 -382 0 -379 0 -385 21 -396 15 -9 18 -15 10 -24 -6 -7 -22 -33 -35 -57 -27 -52 -55 -86 -155 -191 -66 -69 -207 -178 -230 -178 -5 0 -14 -7 -21 -15 -7 -8 -23 -15 -35 -15 -12 0 -28 -7 -35 -15 -7 -8 -22 -15 -34 -15 -12 0 -31 -7 -42 -15 -39 -30 -44 -21 -44 90 0 85 3 105 15 105 10 0 15 -16 17 -62 4 -88 22 -79 26 12 2 63 6 77 22 85 10 6 40 21 65 34 89 45 265 235 241 259 -4 3 -11 0 -16 -8 -16 -25 -63 -81 -105 -124 -37 -37 -129 -106 -143 -106 -3 0 -13 -7 -23 -16 -10 -9 -22 -13 -28 -10 -7 5 -10 251 -11 748 0 691 -3 778 -26 756 -3 -3 -5 -351 -5 -773 1 -615 -1 -766 -11 -763 -10 4 -13 184 -15 879 -2 1037 0 929 -18 929 -12 0 -15 -14 -15 -67 -1 -38 -1 -447 -1 -911 0 -644 -3 -842 -12 -839 -11 3 -17 524 -17 1547 0 224 -2 260 -15 260 -12 0 -15 -17 -15 -87 -1 -49 -1 -461 -1 -916 0 -632 -3 -827 -12 -824 -9 3 -13 208 -14 838 -2 459 -5 840 -8 847 -21 57 -25 -55 -25 -798 0 -766 -2 -831 -27 -806 -4 3 -5 508 -4 1121 1 995 0 1115 -14 1115 -16 0 -20 -80 -16 -335 1 -105 -8 -144 -27 -109 -5 11 -8 44 -7 74 2 30 3 75 3 100 -2 116 1 268 6 302 5 29 3 38 -8 38 -11 0 -15 -26 -17 -129z m-31 -721 c-2 -35 -8 -65 -14 -67 -15 -5 -26 118 -12 135 19 23 29 -3 26 -68z m-431 -114 c6 -91 -2 -156 -17 -156 -11 0 -14 233 -3 243 12 12 15 -1 20 -87z m-63 -81 c1 -59 -2 -109 -6 -111 -13 -8 -27 39 -17 57 4 9 6 19 3 22 -10 9 -11 112 -2 130 16 32 21 11 22 -98z m496 44 c0 -28 -4 -39 -15 -39 -11 0 -15 11 -15 38 0 21 3 42 6 45 14 13 24 -6 24 -44z m-193 -687 c-2 -538 -5 -667 -15 -667 -13 0 -15 240 -7 1065 3 299 2 283 15 275 6 -4 9 -241 7 -673z m201 586 c9 -9 8 -16 -4 -29 -12 -14 -13 -21 -3 -37 14 -23 6 -52 -15 -52 -10 0 -15 15 -18 53 -2 28 -2 58 0 65 5 15 24 16 40 0z m-954 -64 c8 -20 8 -1018 0 -1038 -3 -9 -10 -16 -14 -16 -5 0 -8 241 -8 535 0 294 4 535 8 535 4 0 11 -7 14 -16z m514 -18 c2 -10 1 -30 -3 -44 -7 -25 -8 -26 -15 -7 -14 32 -12 77 3 73 6 -3 14 -13 15 -22z m-62 -50 c8 -33 2 -69 -13 -74 -9 -2 -13 11 -13 47 0 53 15 69 26 27z m507 -31 c-3 -20 -33 -31 -43 -15 -5 8 -6 18 -3 23 7 11 48 4 46 -8z m-1014 -415 c0 -364 -5 -441 -23 -411 -9 14 -8 799 1 814 18 29 23 -56 22 -403z m567 -20 c-1 -308 -4 -385 -14 -385 -10 0 -13 79 -12 399 0 219 3 403 7 409 16 26 20 -60 19 -423z m442 356 c-2 -11 -11 -22 -20 -24 -14 -3 -18 3 -18 26 0 16 3 32 7 35 11 12 34 -15 31 -37z m-830 -340 c-3 -293 -7 -351 -23 -334 -8 8 -8 666 1 679 19 32 25 -46 22 -345z m826 288 c22 -9 20 -27 -5 -42 -23 -15 -26 -14 -29 8 -6 39 2 46 34 34z m-1070 -105 c3 -17 6 -106 6 -198 0 -152 -8 -207 -26 -189 -5 6 -8 194 -5 371 1 53 15 63 25 16z m1060 15 c7 -19 -2 -37 -15 -29 -12 8 -12 45 0 45 5 0 12 -7 15 -16z m-884 -194 c0 -90 -4 -140 -10 -140 -11 0 -13 256 -3 273 11 18 13 -2 13 -133z m509 -2 l-1 -53 -8 40 c-7 36 -4 65 6 65 2 0 3 -24 3 -52z m11 -295 c0 -156 -7 -203 -25 -173 -8 13 -6 335 2 356 15 40 23 -22 23 -183z m-510 -108 c0 -88 12 -114 32 -71 22 49 32 32 28 -48 -2 -37 0 -38 25 -34 21 4 28 1 35 -18 5 -13 14 -24 20 -24 5 0 10 -6 10 -14 0 -16 124 -133 156 -148 39 -18 45 -55 28 -165 -7 -49 -12 -47 -137 57 -10 8 -44 42 -75 74 -31 33 -72 73 -89 90 -18 16 -33 35 -33 41 0 7 -9 22 -20 35 -11 12 -17 27 -13 33 3 5 5 57 4 114 -2 113 6 176 20 167 5 -3 9 -43 9 -89z m388 -23 c2 -33 0 -42 -12 -42 -12 0 -16 11 -16 46 0 59 24 55 28 -4z m57 -58 c0 -30 -4 -40 -19 -42 -14 -3 -17 0 -12 13 3 9 6 30 6 47 0 19 4 28 13 26 7 -3 12 -21 12 -44z m-95 -5 c0 -4 -4 -11 -10 -14 -6 -4 -10 -53 -10 -115 0 -101 -8 -137 -26 -109 -7 12 -7 237 1 249 6 10 45 1 45 -11z m50 -59 c-2 -8 -6 -61 -8 -117 -2 -78 -7 -103 -17 -103 -15 0 -28 99 -21 165 2 22 4 48 5 58 1 13 7 17 24 15 14 -2 20 -9 17 -18z m53 -75 c-6 -118 -16 -195 -24 -195 -5 0 -9 54 -9 121 0 109 2 120 18 117 13 -3 17 -12 15 -43z m87 -17 c23 -16 30 -30 30 -55 0 -40 25 -45 34 -7 14 54 27 6 24 -87 -3 -107 -11 -115 -77 -83 -20 9 -43 20 -51 24 -11 5 -15 30 -17 111 -2 132 2 138 57 97z m478 -36 c2 -23 -1 -32 -12 -32 -21 0 -29 17 -22 46 9 34 30 25 34 -14z m116 -48 c3 -9 6 -56 6 -105 0 -71 -3 -89 -14 -89 -12 0 -15 21 -18 101 -2 55 -1 103 1 105 9 8 19 3 25 -12z m-54 -114 c0 -82 -3 -100 -15 -100 -12 0 -15 18 -15 100 0 82 3 100 15 100 12 0 15 -18 15 -100z m-686 -5 c11 -8 28 -15 38 -15 16 0 18 -9 18 -69 0 -89 -5 -103 -33 -90 -39 18 -55 52 -57 115 -2 85 -2 86 34 59z m153 -60 c15 -8 40 -17 56 -20 26 -5 27 -8 27 -61 0 -68 23 -71 28 -5 l3 43 51 -6 c28 -4 60 -12 70 -17 10 -5 54 -12 98 -16 l81 -6 -3 -65 c-3 -69 -21 -93 -37 -51 -8 23 -8 23 -19 3 -9 -16 -20 -19 -69 -18 -74 2 -211 26 -240 42 -12 6 -28 12 -37 12 -8 0 -28 8 -45 18 -30 17 -31 19 -31 90 0 80 8 87 67 57z m587 -61 c3 -9 6 -44 6 -78 0 -58 -2 -64 -25 -74 -33 -15 -112 -16 -120 -1 -7 10 -9 129 -3 134 2 2 21 5 43 7 l40 3 3 -40 c1 -22 5 -51 8 -64 9 -43 24 -3 24 67 0 59 11 80 24 46z"/> <path d="M4885 2210 c-3 -5 -1 -18 4 -27 9 -16 10 -14 11 10 0 28 -5 34 -15 17z"/> <path d="M2030 4398 c-1 -23 -1 -1236 -1 -1681 1 -545 2 -598 17 -595 19 4 18 -96 15 1326 -1 839 -3 952 -16 952 -8 0 -15 -1 -15 -2z"/> <path d="M4194 4165 c-4 -8 -12 -15 -20 -15 -8 0 -14 -9 -14 -20 0 -26 20 -26 27 -1 3 11 11 22 19 25 16 6 19 26 4 26 -6 0 -13 -7 -16 -15z"/> <path d="M6677 4153 c-4 -3 -7 -22 -6 -42 l1 -36 13 30 c8 17 14 36 15 43 0 13 -13 16 -23 5z"/> <path d="M4100 4090 c-14 -10 -22 -22 -18 -25 9 -10 69 18 65 29 -6 17 -22 16 -47 -4z"/> <path d="M2089 3828 c0 -150 0 -516 1 -813 0 -297 0 -552 0 -567 0 -17 5 -28 14 -28 17 0 22 28 20 95 -1 28 -2 395 -3 818 -1 674 -3 767 -16 767 -13 0 -15 -37 -16 -272z"/> <path d="M6712 3988 c1 -117 11 -165 22 -108 11 57 3 203 -11 208 -10 3 -13 -21 -11 -100z"/> <path d="M4019 4009 c-27 -29 -39 -69 -21 -69 16 0 72 62 72 81 0 28 -18 24 -51 -12z"/> <path d="M1756 3945 c-3 -9 -4 -21 -1 -25 3 -5 7 -269 10 -587 2 -318 4 -582 5 -587 0 -5 3 -6 8 -2 6 7 8 64 12 281 0 17 0 82 1 145 0 63 2 117 5 121 2 4 17 2 34 -4 16 -6 32 -9 35 -6 3 3 8 36 10 72 5 55 3 67 -12 76 -18 9 -20 55 -23 355 0 63 -1 68 -20 63 -26 -7 -33 6 -34 61 -1 46 -18 67 -30 37z m61 -168 c1 -23 -1 -51 -4 -62 -6 -18 -7 -18 -13 5 -7 28 -1 114 8 105 3 -3 7 -25 9 -48z m-1 -123 c-5 -13 -10 -14 -18 -6 -6 6 -8 18 -4 28 5 13 10 14 18 6 6 -6 8 -18 4 -28z m4 -71 c0 -25 -16 -39 -23 -20 -3 7 -3 26 0 41 4 20 8 24 14 14 5 -7 9 -23 9 -35z m-5 -84 c-7 -20 -8 -21 -17 -5 -5 9 -7 24 -4 33 10 26 29 -1 21 -28z m9 -80 c-11 -18 -24 -8 -24 19 1 26 1 26 15 8 8 -10 12 -23 9 -27z m16 -57 c0 -10 -22 -32 -31 -32 -11 0 -19 28 -13 45 5 11 11 12 25 4 10 -5 19 -13 19 -17z"/> <path d="M4181 3903 c-11 -16 -27 -35 -34 -43 -26 -28 -50 -71 -43 -77 8 -8 88 82 104 118 15 37 0 37 -27 2z"/> <path d="M6660 3890 c0 -18 4 -29 10 -25 6 3 10 15 10 25 0 10 -4 22 -10 25 -6 4 -10 -7 -10 -25z"/> <path d="M3017 3893 c-2 -5 -1 -33 3 -63 4 -30 8 -44 9 -30 1 14 4 42 7 63 4 23 3 37 -4 37 -6 0 -13 -3 -15 -7z"/> <path d="M2217 3834 c-4 -4 -7 -263 -7 -576 0 -498 2 -568 15 -568 13 0 15 57 16 453 2 672 0 715 -24 691z"/> <path d="M6717 3827 c-3 -7 -3 -26 0 -41 4 -20 8 -24 14 -14 11 17 11 55 0 62 -5 3 -11 0 -14 -7z"/> <path d="M6830 3260 c0 -485 2 -570 14 -570 8 0 16 4 18 10 2 5 2 262 0 570 -2 487 -4 560 -17 560 -13 0 -15 -73 -15 -570z"/> <path d="M2378 3793 c-9 -17 15 -279 26 -290 3 -4 5 60 4 142 -2 101 -7 150 -15 152 -6 2 -13 0 -15 -4z"/> <path d="M5239 3378 c-1 -233 0 -477 1 -543 2 -114 9 -151 25 -125 5 9 8 466 5 1048 0 31 -4 42 -15 42 -13 0 -15 -54 -16 -422z"/> <path d="M3474 3779 c-8 -13 -7 -1030 2 -1038 2 -3 9 0 15 6 8 8 12 159 11 518 0 482 -4 553 -28 514z"/> <path d="M1578 3693 c-2 -43 -2 -273 0 -510 2 -373 5 -433 17 -433 15 0 19 150 17 720 -1 307 -1 300 -16 300 -11 0 -15 -19 -18 -77z"/> <path d="M1699 3743 c-1 -15 0 -239 1 -498 1 -421 7 -522 25 -474 3 8 4 234 3 503 -2 381 -6 490 -15 494 -8 2 -13 -7 -14 -25z"/> <path d="M2152 3263 c2 -330 6 -508 13 -508 7 0 11 178 13 508 2 448 0 507 -13 507 -13 0 -15 -59 -13 -507z"/> <path d="M5299 3408 c0 -200 0 -374 0 -388 0 -14 0 -80 0 -148 1 -104 3 -123 16 -120 13 3 16 44 19 273 2 149 5 271 5 273 1 2 5 1 11 -3 5 -3 10 -49 11 -103 1 -85 3 -126 8 -174 1 -8 4 -9 11 -2 5 5 11 69 13 142 3 81 9 137 16 146 10 12 9 20 -2 38 -8 14 -13 41 -11 68 6 66 6 72 1 110 -3 19 -5 74 -6 123 -1 76 -3 87 -18 87 -17 0 -18 -14 -15 -185 2 -112 -1 -192 -7 -203 -12 -20 -13 -9 -16 228 -3 206 -3 200 -20 200 -14 0 -16 -42 -16 -362z"/> <path d="M6260 3260 c0 -441 2 -510 15 -510 12 0 15 66 17 478 3 520 3 542 -18 542 -12 0 -14 -81 -14 -510z"/> <path d="M1975 3739 c-10 -43 -1 -959 10 -962 13 -3 19 963 6 976 -6 6 -12 1 -16 -14z"/> <path d="M2965 3260 c0 -393 3 -500 13 -500 9 0 12 107 12 500 0 393 -3 500 -12 500 -10 0 -13 -107 -13 -500z"/> <path d="M6770 3259 c0 -396 3 -500 13 -496 9 3 12 113 14 500 1 423 -1 497 -13 497 -12 0 -14 -75 -14 -501z"/> <path d="M6717 3736 c-4 -11 -8 -197 -8 -415 0 -473 -1 -463 11 -475 7 -7 10 120 11 344 0 195 2 378 3 405 3 75 -8 164 -17 141z"/> <path d="M3175 3728 c-3 -7 -4 -222 -3 -477 2 -361 6 -465 16 -469 9 -3 12 97 12 477 0 324 -3 481 -10 481 -6 0 -13 -6 -15 -12z"/> <path d="M3028 3623 c-3 -43 -1 -82 4 -87 4 -6 8 29 8 77 0 48 -2 87 -4 87 -2 0 -6 -35 -8 -77z"/> <path d="M1460 3260 c0 -367 2 -420 15 -420 13 0 15 53 15 420 0 367 -2 420 -15 420 -13 0 -15 -53 -15 -420z"/> <path d="M3229 3498 c-3 -314 2 -623 11 -631 21 -22 24 42 22 481 -2 270 -4 312 -17 312 -13 0 -15 -25 -16 -162z"/> <path d="M5695 3648 c-3 -7 -4 -186 -3 -397 2 -297 6 -385 16 -389 16 -5 18 783 2 793 -6 3 -12 0 -15 -7z"/> <path d="M2840 3643 c0 -5 0 -179 -1 -388 0 -336 2 -380 15 -383 14 -3 16 39 16 387 0 341 -2 391 -15 391 -8 0 -15 -3 -15 -7z"/> <path d="M3530 3273 c1 -336 6 -424 23 -379 6 15 9 630 4 705 -1 19 -8 36 -14 38 -10 4 -13 -75 -13 -364z"/> <path d="M6325 3629 c-10 -26 -1 -734 10 -734 14 0 19 725 5 739 -6 6 -11 4 -15 -5z"/> <path d="M4107 3624 c-11 -11 -8 -712 2 -719 5 -3 13 0 16 6 4 6 7 166 7 355 1 319 -4 379 -25 358z"/> <path d="M1527 3614 c-4 -4 -7 -162 -7 -351 0 -271 3 -344 13 -341 9 4 13 83 15 343 2 310 -1 368 -21 349z"/> <path d="M2272 3263 c2 -232 7 -357 13 -355 16 4 13 704 -3 710 -10 3 -12 -70 -10 -355z"/> <path d="M2905 3608 c-3 -7 -4 -168 -3 -357 2 -265 6 -345 16 -349 16 -5 18 703 2 713 -6 3 -12 0 -15 -7z"/> <path d="M5935 3607 c-3 -6 -4 -167 -3 -356 2 -265 6 -345 16 -349 9 -3 12 73 12 357 0 241 -3 361 -10 361 -6 0 -13 -6 -15 -13z"/> <path d="M6505 3609 c-10 -26 -1 -699 10 -699 14 0 19 690 5 704 -6 6 -11 4 -15 -5z"/> <path d="M6892 3263 c2 -230 7 -358 13 -358 6 0 11 128 13 358 2 314 0 357 -13 357 -13 0 -15 -43 -13 -357z"/> <path d="M5515 3591 c-4 -14 -14 -19 -33 -18 -21 2 -28 -3 -30 -20 -3 -18 2 -23 17 -23 12 0 21 6 21 15 0 8 5 15 10 15 12 0 12 -6 4 -38 -6 -20 -12 -23 -43 -20 -30 2 -36 0 -39 -18 -3 -22 42 -51 53 -34 11 17 24 11 31 -15 9 -36 29 -31 42 12 9 31 9 40 -4 54 -14 16 -14 18 1 26 22 13 17 77 -7 81 -9 2 -19 -5 -23 -17z"/> <path d="M2665 3579 c-10 -26 -1 -639 10 -642 14 -3 19 633 5 647 -6 6 -11 4 -15 -5z"/> <path d="M3117 3583 c-3 -4 -6 -123 -6 -263 -1 -244 6 -397 17 -385 7 6 6 645 -1 651 -3 3 -7 2 -10 -3z"/> <path d="M5817 3583 c-11 -10 -8 -651 2 -658 5 -3 13 0 18 7 14 22 12 636 -2 648 -6 5 -15 7 -18 3z"/> <path d="M6442 3263 c2 -210 7 -328 13 -328 6 0 11 118 13 328 2 288 0 327 -13 327 -13 0 -15 -39 -13 -327z"/> <path d="M3357 3573 c-4 -3 -7 -147 -7 -320 0 -272 2 -313 15 -313 13 0 15 42 15 320 0 176 -4 320 -8 320 -5 0 -12 -3 -15 -7z"/> <path d="M6147 3568 c-7 -20 -9 -582 -1 -601 17 -45 22 18 23 303 1 277 -4 344 -22 298z"/> <path d="M1915 3560 c-8 -14 -8 -564 0 -590 17 -55 23 15 23 290 1 272 -4 331 -23 300z"/> <path d="M6630 3318 c0 -166 4 -258 10 -258 13 0 13 479 0 500 -6 10 -10 -73 -10 -242z"/> <path d="M1292 3551 c-7 -4 -8 -12 -2 -20 5 -8 4 -24 -3 -38 -12 -26 -5 -38 18 -29 11 4 14 13 9 30 -3 13 -1 27 5 30 6 4 11 11 11 16 0 12 -25 19 -38 11z"/> <path d="M1399 3518 c-2 -63 -2 -120 -1 -345 2 -173 4 -203 17 -203 13 0 15 39 15 295 0 256 -2 295 -15 295 -11 0 -15 -12 -16 -42z"/> <path d="M3417 3554 c-11 -11 -8 -572 2 -579 24 -14 28 44 24 300 -3 249 -8 297 -26 279z"/> <path d="M3592 3271 c0 -154 4 -284 8 -291 16 -27 22 16 21 175 -1 412 0 395 -15 395 -13 0 -15 -42 -14 -279z"/> <path d="M6385 3539 c-10 -26 -1 -559 10 -562 14 -3 19 553 5 567 -6 6 -11 4 -15 -5z"/> <path d="M4293 3511 c-31 -26 -42 -55 -25 -64 4 -2 19 -7 34 -11 24 -5 28 -3 35 21 8 30 5 64 -5 75 -4 3 -22 -6 -39 -21z"/> <path d="M7075 3529 c-10 -26 -1 -544 10 -544 14 0 19 535 5 549 -6 6 -11 4 -15 -5z"/> <path d="M6200 3259 c0 -212 3 -270 13 -267 9 4 13 69 15 271 2 233 0 267 -13 267 -13 0 -15 -35 -15 -271z"/> <path d="M6957 3523 c-4 -3 -7 -125 -7 -270 0 -227 2 -263 15 -263 13 0 15 37 15 270 0 246 -3 283 -23 263z"/> <path d="M2333 3260 c1 -207 3 -260 14 -260 10 0 13 52 13 260 0 219 -2 260 -14 260 -13 0 -15 -40 -13 -260z"/> <path d="M6570 3518 c0 -2 -1 -119 -3 -261 -1 -200 1 -257 11 -257 9 0 12 59 12 260 0 167 -4 260 -10 260 -5 0 -10 -1 -10 -2z"/> <path d="M1137 3493 c-10 -17 -2 -468 8 -466 13 4 19 453 6 466 -5 5 -11 5 -14 0z"/> <path d="M1338 3473 c-8 -20 8 -413 17 -413 15 0 13 412 -2 417 -6 2 -13 0 -15 -4z"/> <path d="M1640 3265 c0 -184 2 -215 15 -215 13 0 15 31 15 215 0 184 -2 215 -15 215 -13 0 -15 -31 -15 -215z"/> <path d="M2487 3448 c-6 -41 5 -62 14 -28 10 37 10 60 0 60 -5 0 -11 -15 -14 -32z"/> <path d="M5624 3467 c-3 -8 -5 -21 -3 -28 4 -33 -1 -39 -26 -33 -14 3 -32 3 -41 0 -15 -6 -15 -8 1 -25 11 -13 14 -27 10 -41 -9 -29 -31 -19 -27 14 2 18 -2 26 -13 26 -18 0 -21 -70 -4 -119 9 -24 9 -39 0 -57 -6 -14 -8 -37 -5 -51 l7 -26 12 29 c13 30 15 29 31 -23 2 -7 12 -13 23 -13 11 0 22 6 24 13 3 6 6 -5 6 -26 1 -21 -4 -47 -10 -59 -14 -26 -1 -38 15 -15 7 9 18 17 25 17 17 0 11 422 -6 428 -7 2 -16 -3 -19 -11z m3 -169 c5 -95 -3 -160 -18 -137 -9 14 -11 206 -2 222 10 18 16 -5 20 -85z m-67 -23 c0 -8 -4 -15 -10 -15 -5 0 -10 7 -10 15 0 8 5 15 10 15 6 0 10 -7 10 -15z"/> <path d="M3295 3460 c-8 -13 -7 -378 1 -392 17 -27 24 32 24 204 0 169 -6 218 -25 188z"/> <path d="M7135 3458 c-9 -27 0 -398 10 -396 13 4 17 395 4 403 -5 4 -11 0 -14 -7z"/> <path d="M2782 3266 c2 -116 7 -186 13 -186 16 0 13 362 -3 368 -10 3 -12 -35 -10 -182z"/> <path d="M1072 3263 c4 -236 22 -235 26 2 2 152 0 175 -13 175 -13 0 -15 -23 -13 -177z"/> <path d="M2400 3420 c0 -19 3 -21 12 -12 9 9 9 15 0 24 -9 9 -12 7 -12 -12z"/> <path d="M2606 3433 c-3 -3 -6 -82 -6 -175 0 -143 2 -168 15 -168 13 0 15 25 15 169 0 154 -5 192 -24 174z"/> <path d="M7012 3263 c4 -236 22 -235 26 2 2 152 0 175 -13 175 -13 0 -15 -23 -13 -177z"/> <path d="M1287 3403 c-10 -38 -7 -353 3 -353 6 0 10 67 10 185 0 175 -3 208 -13 168z"/> <path d="M4316 3412 c-3 -5 -3 -82 -1 -171 6 -172 -1 -207 -35 -196 -22 7 -34 -8 -26 -33 5 -15 57 -52 74 -52 4 0 8 101 9 225 2 200 -3 256 -21 227z"/> <path d="M596 3402 c-2 -1 -102 -5 -222 -6 -277 -5 -287 -7 -310 -58 -14 -32 -15 -43 -6 -56 7 -10 15 -24 18 -34 3 -9 20 -19 37 -21 51 -9 210 14 332 48 28 8 74 16 103 19 29 3 68 10 85 15 18 5 68 15 112 21 170 25 211 30 235 33 l25 2 3 -112 c2 -91 5 -113 17 -113 12 0 15 22 15 124 0 87 -4 127 -12 134 -12 9 -423 13 -432 4z"/> <path d="M2540 3266 c0 -121 2 -146 14 -146 13 0 15 24 13 142 -1 103 -5 142 -14 146 -10 3 -13 -30 -13 -142z"/> <path d="M2726 3393 c-3 -3 -6 -64 -6 -135 0 -107 2 -128 15 -128 13 0 15 21 15 129 0 118 -6 152 -24 134z"/> <path d="M7194 3260 c0 -77 4 -140 8 -140 4 0 9 19 10 43 1 23 2 58 4 77 3 49 -8 160 -15 160 -4 0 -7 -63 -7 -140z"/> <path d="M2400 3365 c0 -14 5 -25 10 -25 6 0 10 11 10 25 0 14 -4 25 -10 25 -5 0 -10 -11 -10 -25z"/> <path d="M2486 3375 c-3 -8 -1 -25 4 -37 8 -20 9 -18 9 15 1 39 -3 47 -13 22z"/> <path d="M6003 3325 c0 -27 2 -38 4 -22 2 15 2 37 0 50 -2 12 -4 0 -4 -28z"/> <path d="M4243 3333 c-13 -30 -9 -181 5 -195 24 -24 33 7 30 107 -2 68 -7 100 -15 103 -7 2 -16 -5 -20 -15z"/> <path d="M5437 3343 c-4 -3 -2 -12 4 -20 7 -7 9 -28 6 -49 -4 -26 -2 -37 9 -41 19 -7 41 12 25 21 -6 4 -8 24 -4 51 5 40 4 45 -14 45 -11 0 -23 -3 -26 -7z"/> <path d="M2400 3275 c0 -28 4 -44 10 -40 6 3 10 21 10 40 0 19 -4 37 -10 40 -6 4 -10 -12 -10 -40z"/> <path d="M7520 3260 c0 -47 3 -60 15 -60 12 0 15 13 15 60 0 47 -3 60 -15 60 -12 0 -15 -13 -15 -60z"/> <path d="M7344 3296 c-9 -23 0 -91 11 -86 13 6 16 100 4 100 -5 0 -12 -6 -15 -14z"/> <path d="M7400 3271 c0 -30 4 -41 16 -41 11 0 14 9 12 37 -4 52 -28 56 -28 4z"/> <path d="M7587 3293 c-13 -13 -7 -61 9 -67 24 -9 24 -9 24 34 0 38 -14 52 -33 33z"/> <path d="M2483 3160 c0 -99 3 -130 12 -130 9 0 12 13 10 43 -1 23 -3 81 -4 130 0 48 -5 87 -10 87 -4 0 -8 -58 -8 -130z"/> <path d="M7460 3260 c0 -20 5 -30 15 -30 10 0 15 10 15 30 0 20 -5 30 -15 30 -10 0 -15 -10 -15 -30z"/> <path d="M7277 3274 c-14 -15 -6 -34 14 -34 14 0 19 5 17 17 -3 18 -20 27 -31 17z"/> <path d="M6000 3180 c0 -46 3 -81 6 -77 7 7 6 148 -1 155 -3 3 -5 -32 -5 -78z"/> <path d="M2400 3174 c0 -14 4 -23 10 -19 6 3 10 15 10 26 0 10 -4 19 -10 19 -5 0 -10 -12 -10 -26z"/> <path d="M5452 3188 c-7 -7 -12 -20 -12 -31 0 -24 33 -19 38 7 5 24 -11 39 -26 24z"/> <path d="M4880 3145 c0 -14 5 -25 10 -25 6 0 10 11 10 25 0 14 -4 25 -10 25 -5 0 -10 -11 -10 -25z"/> <path d="M1835 3120 c-8 -13 3 -30 21 -30 18 0 18 14 0 29 -10 8 -16 9 -21 1z"/> <path d="M2400 3086 c0 -20 5 -36 10 -36 6 0 10 13 10 29 0 17 -4 33 -10 36 -6 4 -10 -8 -10 -29z"/> <path d="M5517 3105 c-4 -9 -7 -27 -7 -40 0 -30 -22 -49 -38 -33 -9 9 -12 9 -12 0 0 -7 -7 -12 -15 -12 -8 0 -15 -4 -15 -10 0 -5 9 -10 20 -10 11 0 20 -4 20 -9 0 -5 10 -11 22 -14 12 -4 19 -9 15 -13 -3 -4 3 -18 13 -32 11 -13 20 -31 20 -39 0 -29 23 -7 37 36 14 42 10 69 -7 42 -4 -8 -15 -11 -23 -8 -12 4 -13 15 -5 56 7 38 5 57 -5 77 -12 23 -15 24 -20 9z"/> <path d="M5440 3101 c0 -5 6 -14 14 -20 11 -9 15 -8 20 5 9 23 8 24 -14 24 -11 0 -20 -4 -20 -9z"/> <path d="M4887 3084 c-10 -10 -9 -52 2 -58 12 -8 24 45 13 56 -4 4 -11 5 -15 2z"/> <path d="M1814 3037 c-5 -14 11 -67 21 -67 3 0 5 18 5 40 0 38 -15 54 -26 27z"/> <path d="M1288 3007 c-6 -29 1 -49 13 -41 12 7 12 51 0 58 -5 3 -11 -4 -13 -17z"/> <path d="M2396 2998 c-3 -18 -7 -88 -10 -155 -3 -101 -2 -123 10 -123 11 0 14 29 14 155 0 152 -4 188 -14 123z"/> <path d="M6630 3003 c-1 -10 -2 -43 -4 -74 -5 -64 6 -93 22 -62 8 14 8 23 0 31 -8 8 -8 19 -2 34 11 27 7 88 -7 88 -5 0 -9 -8 -9 -17z"/> <path d="M5366 2984 c-3 -9 -6 -54 -6 -100 0 -65 3 -84 14 -84 21 0 26 24 16 86 -5 32 -7 67 -4 80 7 25 -11 42 -20 18z"/> <path d="M4872 2978 c-7 -7 -8 -17 -1 -29 5 -10 10 -45 12 -78 1 -33 6 -63 10 -67 9 -9 10 2 7 96 -2 79 -8 98 -28 78z"/> <path d="M3024 2919 c-3 -6 -1 -16 5 -22 8 -8 11 -5 11 11 0 24 -5 28 -16 11z"/> <path d="M3025 2838 c-2 -7 -4 -24 -3 -38 0 -14 -2 -62 -5 -108 -3 -59 -1 -82 7 -79 7 2 12 45 13 120 2 108 -1 136 -12 105z"/> <path d="M6721 2820 c-2 -3 -4 -92 -6 -198 -3 -148 -1 -192 8 -189 8 3 12 40 12 128 0 113 -9 271 -14 259z"/> <path d="M1824 2754 c-4 -14 -2 -30 5 -37 8 -8 11 -1 11 26 0 43 -7 48 -16 11z"/> <path d="M4889 2763 c-6 -38 -5 -103 2 -103 5 0 8 25 7 55 -2 49 -6 68 -9 48z"/> <path d="M1766 2715 c-9 -25 -7 -145 3 -145 12 0 25 140 13 152 -6 6 -12 3 -16 -7z"/> <path d="M6660 2640 c0 -16 5 -30 10 -30 6 0 10 14 10 30 0 17 -4 30 -10 30 -5 0 -10 -13 -10 -30z"/> <path d="M4880 2615 c0 -9 5 -15 11 -13 6 2 11 8 11 13 0 5 -5 11 -11 13 -6 2 -11 -4 -11 -13z"/> <path d="M6660 2555 c0 -8 5 -15 10 -15 6 0 10 7 10 15 0 8 -4 15 -10 15 -5 0 -10 -7 -10 -15z"/> <path d="M6666 2413 c7 -40 11 -49 19 -42 8 8 -7 79 -17 79 -5 0 -6 -17 -2 -37z"/> <path d="M4870 1840 c0 -5 4 -10 9 -10 5 0 12 -12 14 -27 3 -23 4 -21 6 10 1 27 -3 37 -14 37 -8 0 -15 -4 -15 -10z"/> <path d="M4891 1673 c-1 -69 7 -91 29 -78 7 4 6 13 -1 27 -7 12 -15 44 -19 72 l-8 51 -1 -72z"/> <path d="M0 295 l0 -295 3810 0 3810 0 0 295 0 295 -3810 0 -3810 0 0 -295z m1063 78 c20 -12 2 -23 -38 -23 -52 0 -64 -24 -17 -33 16 -3 40 -17 53 -31 13 -13 27 -22 31 -20 5 3 8 30 8 60 0 30 4 54 9 54 6 0 21 -10 35 -23 25 -23 25 -24 6 -40 -24 -20 -27 -75 -5 -83 19 -8 20 -44 2 -44 -8 0 -22 9 -32 20 -20 22 -45 27 -45 7 0 -6 -13 -18 -30 -25 -36 -16 -83 -4 -88 22 -3 16 1 17 35 11 29 -4 43 -2 52 8 10 12 7 19 -16 35 -15 11 -37 21 -48 23 -15 3 -21 13 -23 42 -3 31 1 39 20 47 21 8 71 5 91 -7z m432 -24 c-4 -10 -2 -25 2 -34 7 -12 13 -11 35 10 15 14 32 25 38 25 17 0 11 -26 -10 -45 -11 -10 -20 -24 -20 -30 0 -7 9 -24 20 -38 21 -27 27 -57 10 -57 -5 0 -21 15 -37 34 -28 36 -43 38 -43 6 0 -20 -17 -36 -27 -26 -7 7 -4 176 3 188 10 16 35 -14 29 -33z m155 10 c0 -10 -7 -19 -15 -19 -15 0 -21 31 -9 43 11 10 24 -3 24 -24z m-1270 -10 c0 -20 -15 -26 -25 -9 -9 15 3 43 15 35 5 -3 10 -15 10 -26z m300 -5 c0 -10 -2 -46 -3 -79 -1 -33 -7 -60 -12 -60 -10 0 -18 139 -9 164 6 19 25 0 24 -25z m-426 10 c9 -24 7 -64 -3 -64 -11 0 -21 25 -21 56 0 27 15 32 24 8z m201 -15 c10 -15 -1 -22 -24 -14 -12 3 -19 11 -16 16 8 12 32 11 40 -2z m144 2 c11 -7 6 -12 -20 -19 -39 -10 -44 -9 -36 13 7 17 34 20 56 6z m209 -7 c23 -16 30 -44 12 -44 -6 0 -13 7 -16 15 -4 8 -17 15 -30 15 -23 0 -31 10 -17 23 10 11 27 8 51 -9z m481 -3 c20 -15 24 -28 24 -66 0 -38 -4 -51 -24 -66 -30 -24 -48 -23 -79 1 -35 27 -34 100 1 129 30 25 47 26 78 2z m138 2 c2 -6 -6 -15 -19 -18 -28 -9 -38 -23 -38 -55 0 -19 8 -28 31 -37 33 -13 35 -36 3 -40 -30 -4 -64 29 -70 68 -5 29 -1 40 23 67 28 32 62 40 70 15z m-532 -27 c-8 -20 -12 -48 -9 -64 9 -44 -11 -47 -37 -6 -21 34 -21 38 -6 49 9 7 17 19 17 27 0 19 9 28 31 28 17 0 17 -3 4 -34z m-545 -12 c11 -28 30 -24 30 7 0 10 7 19 15 19 8 0 15 -9 15 -20 0 -11 6 -20 13 -20 7 0 3 -7 -7 -15 -11 -8 -28 -13 -38 -9 -10 3 -18 1 -18 -5 0 -6 -7 -11 -15 -11 -11 0 -15 11 -15 40 0 46 6 51 20 14z m384 -8 c-3 -12 -1 -34 5 -49 11 -29 -4 -50 -20 -26 -7 11 -7 76 0 107 1 2 6 0 11 -3 6 -3 8 -16 4 -29z m-214 12 c0 -5 0 -21 0 -38 l0 -29 -25 23 c-34 31 -33 58 0 54 14 -2 25 -6 25 -10z m5513 5 c-20 -7 -15 -29 10 -57 26 -28 37 -25 37 11 0 31 13 29 45 -9 l27 -32 18 24 17 23 37 -22 c20 -13 33 -27 30 -32 -3 -6 -11 -5 -20 2 -11 9 -21 9 -44 -1 -24 -10 -33 -10 -45 0 -10 8 -19 9 -27 3 -10 -8 -66 -9 -117 -4 -3 1 0 6 7 13 18 18 14 35 -10 42 l-23 6 25 20 c14 11 30 19 35 19 6 0 4 -3 -2 -6z m790 -40 c6 -56 3 -63 -25 -63 -17 0 -19 4 -13 23 4 12 8 37 8 55 1 50 24 38 30 -15z m80 40 c4 -3 3 -11 -3 -18 -6 -7 -1 -21 16 -40 15 -18 27 -25 30 -18 3 6 14 22 25 34 23 27 89 37 89 15 0 -8 3 -28 6 -45 5 -25 3 -31 -11 -31 -13 0 -16 6 -13 24 8 39 -6 52 -36 38 -14 -6 -26 -18 -26 -26 0 -23 -36 -38 -73 -31 -31 6 -32 8 -33 56 0 46 10 61 29 42z m287 -19 c10 -10 11 -17 3 -25 -8 -8 -22 -3 -52 16 -22 15 -41 30 -41 32 0 9 76 -10 90 -23z m-1560 -10 c0 -17 26 -19 36 -3 5 8 10 6 16 -5 7 -13 17 -16 38 -11 24 5 28 3 32 -20 7 -35 -11 -43 -33 -14 -17 22 -18 23 -37 6 -10 -9 -23 -17 -29 -17 -16 0 -52 61 -46 77 6 16 23 7 23 -13z m1739 -2 c-2 -15 0 -33 4 -40 10 -15 0 -32 -18 -32 -26 0 -36 35 -19 69 19 38 36 40 33 3z m-1782 -32 c7 0 13 -9 13 -20 0 -11 -6 -20 -12 -20 -17 1 -50 68 -41 83 5 8 11 2 17 -15 5 -16 16 -28 23 -28z m748 14 c20 -42 10 -60 -28 -50 -20 5 -23 11 -20 33 11 65 23 70 48 17z m973 18 c2 -7 -3 -12 -12 -12 -9 0 -16 -6 -16 -14 0 -8 -7 -22 -16 -30 -20 -20 -89 -16 -89 5 0 10 10 13 32 11 32 -3 73 24 73 49 0 14 23 6 28 -9z m-7018 -16 c5 -13 14 -26 21 -28 8 -3 9 -12 4 -28 l-8 -24 -23 28 c-24 27 -33 76 -14 76 6 0 15 -11 20 -24z m5546 10 c7 -8 19 -17 26 -19 9 -4 6 -12 -11 -26 -26 -23 -45 -18 -38 10 3 10 1 22 -4 25 -12 7 -11 24 2 24 6 0 17 -6 25 -14z m604 -2 c-11 -12 -10 -18 4 -32 16 -16 18 -16 27 1 12 21 29 22 29 2 0 -22 27 -18 33 5 6 24 57 29 57 6 0 -37 -10 -41 -89 -41 -44 0 -82 3 -86 7 -12 12 6 68 22 68 13 0 13 -3 3 -16z m225 -11 c-10 -40 -26 -58 -36 -41 -19 29 0 60 40 67 2 1 0 -11 -4 -26z m65 -8 c0 -24 -5 -35 -15 -35 -18 0 -18 -1 -4 39 14 40 19 39 19 -4z m-774 -20 c-5 -19 -11 -25 -22 -21 -9 3 -22 6 -29 6 -21 0 -5 40 19 50 28 11 40 -3 32 -35z m1174 16 c0 -23 -16 -36 -25 -21 -9 14 1 40 15 40 5 0 10 -9 10 -19z m-6722 -25 c3 -12 -1 -17 -10 -14 -7 3 -15 13 -16 22 -3 12 1 17 10 14 7 -3 15 -13 16 -22z m420 2 c-6 -18 -28 -21 -28 -4 0 9 7 16 16 16 9 0 14 -5 12 -12z m-268 -8 c0 -5 11 -10 25 -10 14 0 25 -4 25 -10 0 -14 -42 -12 -62 4 -22 16 -23 26 -3 26 8 0 15 -4 15 -10z m-100 -18 c0 -14 -11 -21 -26 -15 -8 3 -11 9 -8 14 7 11 34 12 34 1z m330 -2 c0 -5 -7 -10 -15 -10 -8 0 -15 5 -15 10 0 6 7 10 15 10 8 0 15 -4 15 -10z"/> <path d="M1232 308 c-20 -20 -15 -76 8 -83 28 -9 40 2 40 35 0 55 -20 76 -48 48z"/> </g> </svg> 